G04*
G04 #@! TF.GenerationSoftware,Altium Limited,Altium Designer,18.0.7 (293)*
G04*
G04 Layer_Color=65535*
%FSLAX25Y25*%
%MOIN*%
G70*
G01*
G75*
%ADD10C,0.00787*%
%ADD11C,0.01968*%
%ADD12C,0.00315*%
%ADD13C,0.01000*%
%ADD14C,0.01575*%
G36*
X193288Y184444D02*
X193470Y184407D01*
X193671Y184335D01*
X193871Y184207D01*
X194053Y184025D01*
X194126Y183916D01*
X194181Y183788D01*
X194217Y183624D01*
X194235Y183442D01*
Y183424D01*
Y183369D01*
X194217Y183278D01*
X194199Y183169D01*
X194162Y183041D01*
X194108Y182913D01*
X194035Y182804D01*
X193944Y182695D01*
X193926Y182677D01*
X193889Y182658D01*
X193816Y182622D01*
X193725Y182567D01*
X193616Y182513D01*
X193470Y182476D01*
X193306Y182458D01*
X193106Y182440D01*
X193015D01*
X192924Y182458D01*
X192814Y182476D01*
X192541Y182549D01*
X192413Y182604D01*
X192286Y182695D01*
X192268Y182713D01*
X192249Y182749D01*
X192195Y182804D01*
X192140Y182877D01*
X192085Y182986D01*
X192049Y183114D01*
X192013Y183278D01*
X191994Y183442D01*
Y183460D01*
Y183515D01*
X192013Y183606D01*
X192031Y183715D01*
X192067Y183843D01*
X192122Y183970D01*
X192195Y184080D01*
X192286Y184189D01*
X192304Y184207D01*
X192341Y184225D01*
X192413Y184280D01*
X192505Y184335D01*
X192614Y184371D01*
X192760Y184426D01*
X192924Y184444D01*
X193106Y184462D01*
X193215D01*
X193288Y184444D01*
D02*
G37*
G36*
X149852Y184444D02*
X150034Y184407D01*
X150234Y184335D01*
X150435Y184207D01*
X150617Y184025D01*
X150690Y183916D01*
X150744Y183788D01*
X150781Y183624D01*
X150799Y183442D01*
Y183424D01*
Y183369D01*
X150781Y183278D01*
X150762Y183169D01*
X150726Y183041D01*
X150671Y182913D01*
X150599Y182804D01*
X150507Y182695D01*
X150489Y182677D01*
X150453Y182658D01*
X150380Y182622D01*
X150289Y182567D01*
X150179Y182513D01*
X150034Y182476D01*
X149870Y182458D01*
X149669Y182440D01*
X149578D01*
X149487Y182458D01*
X149378Y182476D01*
X149104Y182549D01*
X148977Y182604D01*
X148849Y182695D01*
X148831Y182713D01*
X148813Y182749D01*
X148758Y182804D01*
X148704Y182877D01*
X148649Y182986D01*
X148612Y183114D01*
X148576Y183278D01*
X148558Y183442D01*
Y183460D01*
Y183515D01*
X148576Y183606D01*
X148594Y183715D01*
X148631Y183843D01*
X148685Y183970D01*
X148758Y184080D01*
X148849Y184189D01*
X148868Y184207D01*
X148904Y184225D01*
X148977Y184280D01*
X149068Y184335D01*
X149177Y184371D01*
X149323Y184426D01*
X149487Y184444D01*
X149669Y184462D01*
X149779D01*
X149852Y184444D01*
D02*
G37*
G36*
X179167Y172145D02*
X179131D01*
X179022Y172109D01*
X178858Y172073D01*
X178639Y172036D01*
X178366Y171982D01*
X178056Y171927D01*
X177710Y171872D01*
X177346Y171818D01*
X177309D01*
X177254Y171799D01*
X177181D01*
X176981Y171763D01*
X176726Y171745D01*
X176453Y171708D01*
X176125Y171672D01*
X175487Y171653D01*
X175341D01*
X175177Y171672D01*
X174977D01*
X174740Y171708D01*
X174467Y171745D01*
X174193Y171781D01*
X173920Y171854D01*
X173884Y171872D01*
X173793Y171890D01*
X173665Y171945D01*
X173501Y172018D01*
X173301Y172109D01*
X173082Y172237D01*
X172882Y172382D01*
X172663Y172565D01*
X172645Y172583D01*
X172572Y172656D01*
X172481Y172783D01*
X172353Y172929D01*
X172207Y173129D01*
X172080Y173366D01*
X171934Y173640D01*
X171807Y173949D01*
Y173968D01*
X171788Y173986D01*
Y174040D01*
X171770Y174113D01*
X171715Y174295D01*
X171661Y174550D01*
X171606Y174860D01*
X171570Y175225D01*
X171533Y175644D01*
X171515Y176118D01*
Y176136D01*
Y176172D01*
Y176245D01*
Y176318D01*
X171533Y176427D01*
Y176555D01*
X171552Y176846D01*
X171588Y177174D01*
X171643Y177502D01*
X171715Y177848D01*
X171807Y178176D01*
Y178194D01*
X171825Y178213D01*
X171861Y178322D01*
X171934Y178468D01*
X172025Y178650D01*
X172153Y178869D01*
X172299Y179087D01*
X172462Y179306D01*
X172645Y179506D01*
X172663Y179525D01*
X172736Y179597D01*
X172845Y179689D01*
X172991Y179798D01*
X173173Y179907D01*
X173392Y180035D01*
X173629Y180144D01*
X173884Y180235D01*
X173920Y180253D01*
X174011Y180272D01*
X174157Y180308D01*
X174339Y180363D01*
X174576Y180399D01*
X174831Y180436D01*
X175123Y180454D01*
X175414Y180472D01*
X175724D01*
X175888Y180454D01*
X176052Y180436D01*
X176398Y180399D01*
X176416D01*
X176489Y180381D01*
X176580Y180363D01*
X176708Y180344D01*
X176854Y180326D01*
X177017Y180290D01*
X177382Y180217D01*
Y184644D01*
X179167D01*
Y172145D01*
D02*
G37*
G36*
X145497Y171836D02*
X143693D01*
Y181000D01*
X140013Y175480D01*
X138555D01*
X134911Y181000D01*
Y171836D01*
X133071D01*
Y183496D01*
X135075D01*
X139284Y177192D01*
X143493Y183496D01*
X145497D01*
Y171836D01*
D02*
G37*
G36*
X189243Y172273D02*
X189207Y172255D01*
X189116Y172237D01*
X188970Y172182D01*
X188769Y172127D01*
X188514Y172054D01*
X188223Y171982D01*
X187913Y171909D01*
X187549Y171836D01*
X187512D01*
X187458Y171818D01*
X187385Y171799D01*
X187184Y171781D01*
X186947Y171745D01*
X186638Y171708D01*
X186310Y171690D01*
X185945Y171653D01*
X185308D01*
X185125Y171672D01*
X184925Y171690D01*
X184688Y171708D01*
X184178Y171799D01*
X184142D01*
X184069Y171836D01*
X183941Y171872D01*
X183777Y171909D01*
X183595Y171982D01*
X183395Y172073D01*
X183194Y172164D01*
X182994Y172291D01*
X182975Y172310D01*
X182921Y172364D01*
X182830Y172437D01*
X182720Y172546D01*
X182593Y172674D01*
X182465Y172838D01*
X182319Y173020D01*
X182210Y173221D01*
X182192Y173257D01*
X182174Y173330D01*
X182119Y173457D01*
X182083Y173640D01*
X182028Y173840D01*
X181973Y174095D01*
X181955Y174387D01*
X181937Y174696D01*
Y180290D01*
X183704D01*
Y174678D01*
Y174660D01*
Y174605D01*
Y174514D01*
X183722Y174405D01*
X183759Y174150D01*
X183850Y173876D01*
Y173858D01*
X183886Y173822D01*
X183905Y173767D01*
X183959Y173694D01*
X184087Y173512D01*
X184251Y173348D01*
X184269D01*
X184306Y173312D01*
X184360Y173275D01*
X184433Y173239D01*
X184634Y173148D01*
X184870Y173075D01*
X184889D01*
X184925Y173056D01*
X184998D01*
X185089Y173038D01*
X185198Y173020D01*
X185326D01*
X185617Y173002D01*
X185800D01*
X185927Y173020D01*
X186073D01*
X186255Y173038D01*
X186619Y173075D01*
X186638D01*
X186711Y173093D01*
X186802Y173111D01*
X186911Y173129D01*
X187203Y173184D01*
X187476Y173239D01*
Y180290D01*
X189243D01*
Y172273D01*
D02*
G37*
G36*
X201268Y180454D02*
X201487Y180436D01*
X201742Y180399D01*
X202252Y180308D01*
X202289D01*
X202361Y180272D01*
X202489Y180235D01*
X202653Y180199D01*
X202835Y180126D01*
X203036Y180035D01*
X203236Y179944D01*
X203418Y179816D01*
X203436Y179798D01*
X203509Y179761D01*
X203601Y179689D01*
X203710Y179579D01*
X203837Y179452D01*
X203965Y179288D01*
X204092Y179105D01*
X204202Y178905D01*
X204220Y178887D01*
X204256Y178796D01*
X204293Y178668D01*
X204347Y178504D01*
X204402Y178304D01*
X204457Y178067D01*
X204475Y177794D01*
X204493Y177484D01*
Y171836D01*
X202726D01*
Y177411D01*
Y177429D01*
Y177502D01*
Y177593D01*
X202708Y177703D01*
X202653Y177958D01*
X202562Y178231D01*
Y178249D01*
X202544Y178286D01*
X202507Y178358D01*
X202453Y178431D01*
X202325Y178595D01*
X202143Y178759D01*
X202125Y178778D01*
X202106Y178796D01*
X202052Y178832D01*
X201979Y178869D01*
X201779Y178960D01*
X201523Y179033D01*
X201505D01*
X201469Y179051D01*
X201378Y179069D01*
X201287Y179087D01*
X201177D01*
X201031Y179105D01*
X200740Y179124D01*
X200558D01*
X200430Y179105D01*
X200266D01*
X200102Y179087D01*
X199720Y179033D01*
X199701D01*
X199628Y179014D01*
X199537Y178996D01*
X199410Y178978D01*
X199264Y178960D01*
X199100Y178923D01*
X198790Y178850D01*
Y171836D01*
X197023D01*
Y179816D01*
X197041D01*
X197078Y179834D01*
X197151Y179852D01*
X197242Y179889D01*
X197351Y179925D01*
X197479Y179962D01*
X197770Y180035D01*
X197788D01*
X197843Y180053D01*
X197934Y180071D01*
X198043Y180108D01*
X198189Y180126D01*
X198353Y180162D01*
X198699Y180235D01*
X198717D01*
X198790Y180253D01*
X198881Y180272D01*
X199009Y180290D01*
X199173Y180326D01*
X199337Y180344D01*
X199720Y180399D01*
X199738D01*
X199811Y180417D01*
X199920D01*
X200066Y180436D01*
X200212Y180454D01*
X200394D01*
X200776Y180472D01*
X201068D01*
X201268Y180454D01*
D02*
G37*
G36*
X193999Y171836D02*
X192231D01*
Y180290D01*
X193999D01*
Y171836D01*
D02*
G37*
G36*
X155372Y176354D02*
X159125Y180290D01*
X161057D01*
X157814Y176883D01*
X157832D01*
X157850Y176865D01*
X157905Y176846D01*
X157978Y176828D01*
X158160Y176755D01*
X158397Y176664D01*
X158652Y176537D01*
X158907Y176354D01*
X159180Y176154D01*
X159417Y175899D01*
X159453Y175862D01*
X159526Y175771D01*
X159636Y175626D01*
X159763Y175407D01*
X159927Y175170D01*
X160091Y174879D01*
X160237Y174550D01*
X160383Y174186D01*
X161184Y171836D01*
X159271D01*
X158524Y174004D01*
Y174022D01*
X158506Y174040D01*
X158470Y174150D01*
X158397Y174295D01*
X158306Y174496D01*
X158196Y174696D01*
X158051Y174897D01*
X157887Y175097D01*
X157704Y175261D01*
X157686Y175279D01*
X157613Y175316D01*
X157522Y175389D01*
X157376Y175461D01*
X157212Y175534D01*
X157012Y175607D01*
X156775Y175680D01*
X156538Y175717D01*
X155372Y174605D01*
Y171836D01*
X153605D01*
Y184644D01*
X155372D01*
Y176354D01*
D02*
G37*
G36*
X150562Y171836D02*
X148795D01*
Y180290D01*
X150562D01*
Y171836D01*
D02*
G37*
G36*
X210998Y180454D02*
X211162Y180436D01*
X211362Y180417D01*
X211563Y180381D01*
X211781Y180344D01*
X212255Y180217D01*
X212510Y180144D01*
X212765Y180035D01*
X213002Y179907D01*
X213239Y179780D01*
X213457Y179616D01*
X213658Y179434D01*
X213676Y179415D01*
X213713Y179379D01*
X213749Y179324D01*
X213822Y179233D01*
X213895Y179124D01*
X213986Y178978D01*
X214095Y178814D01*
X214186Y178632D01*
X214277Y178395D01*
X214387Y178158D01*
X214478Y177885D01*
X214551Y177575D01*
X214624Y177247D01*
X214678Y176883D01*
X214697Y176482D01*
X214715Y176063D01*
Y176045D01*
Y175953D01*
Y175844D01*
X214697Y175680D01*
X214678Y175480D01*
X214660Y175261D01*
X214624Y175024D01*
X214587Y174751D01*
X214460Y174204D01*
X214369Y173913D01*
X214277Y173640D01*
X214150Y173366D01*
X214004Y173111D01*
X213840Y172892D01*
X213658Y172674D01*
X213640Y172656D01*
X213603Y172637D01*
X213549Y172583D01*
X213457Y172510D01*
X213366Y172437D01*
X213221Y172346D01*
X213075Y172255D01*
X212893Y172164D01*
X212692Y172073D01*
X212474Y171982D01*
X212237Y171890D01*
X211964Y171818D01*
X211672Y171745D01*
X211362Y171690D01*
X211034Y171672D01*
X210688Y171653D01*
X210506D01*
X210378Y171672D01*
X210214Y171690D01*
X210014Y171708D01*
X209813Y171745D01*
X209595Y171781D01*
X209121Y171909D01*
X208629Y172091D01*
X208374Y172200D01*
X208137Y172346D01*
X207919Y172492D01*
X207718Y172674D01*
X207700Y172692D01*
X207682Y172729D01*
X207627Y172783D01*
X207554Y172874D01*
X207481Y172984D01*
X207390Y173129D01*
X207299Y173293D01*
X207208Y173494D01*
X207117Y173712D01*
X207026Y173949D01*
X206935Y174241D01*
X206862Y174550D01*
X206789Y174879D01*
X206734Y175243D01*
X206716Y175644D01*
X206698Y176063D01*
Y176081D01*
Y176172D01*
Y176281D01*
X206716Y176445D01*
X206734Y176628D01*
X206753Y176865D01*
X206789Y177101D01*
X206825Y177356D01*
X206953Y177903D01*
X207135Y178468D01*
X207244Y178741D01*
X207390Y178996D01*
X207536Y179233D01*
X207718Y179434D01*
X207736Y179452D01*
X207773Y179470D01*
X207827Y179525D01*
X207919Y179597D01*
X208010Y179670D01*
X208155Y179761D01*
X208301Y179852D01*
X208483Y179962D01*
X208684Y180053D01*
X208903Y180144D01*
X209139Y180235D01*
X209413Y180308D01*
X209704Y180381D01*
X210014Y180436D01*
X210342Y180454D01*
X210688Y180472D01*
X210870D01*
X210998Y180454D01*
D02*
G37*
G36*
X166632D02*
X166851Y180436D01*
X167088Y180417D01*
X167343Y180363D01*
X167598Y180308D01*
X167853Y180217D01*
X167889Y180199D01*
X167962Y180162D01*
X168090Y180108D01*
X168236Y180035D01*
X168400Y179925D01*
X168582Y179798D01*
X168764Y179652D01*
X168928Y179488D01*
X168946Y179470D01*
X169001Y179415D01*
X169074Y179306D01*
X169165Y179178D01*
X169274Y179014D01*
X169383Y178832D01*
X169474Y178614D01*
X169565Y178377D01*
X169584Y178340D01*
X169602Y178267D01*
X169638Y178140D01*
X169675Y177958D01*
X169711Y177739D01*
X169748Y177502D01*
X169784Y177229D01*
Y176937D01*
Y175553D01*
X164282D01*
Y175516D01*
Y175443D01*
Y175334D01*
X164300Y175170D01*
X164318Y175006D01*
X164336Y174806D01*
X164427Y174423D01*
Y174405D01*
X164464Y174350D01*
X164482Y174259D01*
X164537Y174150D01*
X164683Y173895D01*
X164883Y173621D01*
X164901Y173603D01*
X164938Y173567D01*
X165010Y173512D01*
X165120Y173439D01*
X165229Y173366D01*
X165375Y173293D01*
X165539Y173221D01*
X165721Y173148D01*
X165739D01*
X165812Y173129D01*
X165940Y173111D01*
X166086Y173075D01*
X166286Y173056D01*
X166505Y173020D01*
X166778Y173002D01*
X167434D01*
X167671Y173020D01*
X167725D01*
X167798Y173038D01*
X167889D01*
X168090Y173056D01*
X168327Y173093D01*
X168345D01*
X168381Y173111D01*
X168454D01*
X168527Y173129D01*
X168727Y173166D01*
X168946Y173202D01*
X168964D01*
X169001Y173221D01*
X169055D01*
X169110Y173239D01*
X169274Y173275D01*
X169438Y173312D01*
X169584Y172018D01*
X169565D01*
X169493Y172000D01*
X169383Y171963D01*
X169238Y171927D01*
X169055Y171890D01*
X168855Y171854D01*
X168600Y171799D01*
X168345Y171763D01*
X168308D01*
X168217Y171745D01*
X168071Y171726D01*
X167889Y171708D01*
X167671Y171690D01*
X167416Y171672D01*
X167142Y171653D01*
X166705D01*
X166505Y171672D01*
X166268D01*
X165976Y171690D01*
X165685Y171726D01*
X165047Y171836D01*
X165010Y171854D01*
X164919Y171872D01*
X164755Y171927D01*
X164573Y172000D01*
X164336Y172091D01*
X164118Y172218D01*
X163881Y172364D01*
X163644Y172528D01*
X163626Y172546D01*
X163553Y172619D01*
X163444Y172729D01*
X163316Y172892D01*
X163170Y173075D01*
X163006Y173312D01*
X162861Y173585D01*
X162733Y173876D01*
Y173895D01*
X162715Y173913D01*
X162697Y173968D01*
X162678Y174040D01*
X162642Y174223D01*
X162587Y174478D01*
X162514Y174787D01*
X162478Y175152D01*
X162442Y175589D01*
X162423Y176063D01*
Y176081D01*
Y176118D01*
Y176190D01*
Y176263D01*
Y176373D01*
X162442Y176500D01*
X162460Y176773D01*
X162478Y177101D01*
X162533Y177447D01*
X162587Y177794D01*
X162678Y178122D01*
Y178140D01*
X162697Y178158D01*
X162733Y178267D01*
X162788Y178413D01*
X162879Y178614D01*
X162988Y178832D01*
X163134Y179069D01*
X163280Y179288D01*
X163462Y179488D01*
X163480Y179506D01*
X163553Y179579D01*
X163662Y179670D01*
X163808Y179780D01*
X163990Y179889D01*
X164209Y180017D01*
X164446Y180144D01*
X164701Y180235D01*
X164737Y180253D01*
X164828Y180272D01*
X164974Y180308D01*
X165174Y180363D01*
X165411Y180399D01*
X165685Y180436D01*
X165994Y180454D01*
X166322Y180472D01*
X166468D01*
X166632Y180454D01*
D02*
G37*
G36*
X147338Y170314D02*
X147392Y170303D01*
X147452Y170281D01*
X147513Y170243D01*
X147567Y170188D01*
X147589Y170155D01*
X147605Y170117D01*
X147616Y170068D01*
X147622Y170013D01*
Y170008D01*
Y169992D01*
X147616Y169964D01*
X147611Y169931D01*
X147600Y169893D01*
X147583Y169855D01*
X147562Y169822D01*
X147534Y169790D01*
X147529Y169784D01*
X147518Y169779D01*
X147496Y169768D01*
X147469Y169751D01*
X147436Y169735D01*
X147392Y169724D01*
X147343Y169719D01*
X147283Y169713D01*
X147256D01*
X147229Y169719D01*
X147196Y169724D01*
X147114Y169746D01*
X147076Y169762D01*
X147038Y169790D01*
X147032Y169795D01*
X147027Y169806D01*
X147010Y169822D01*
X146994Y169844D01*
X146977Y169877D01*
X146967Y169915D01*
X146956Y169964D01*
X146950Y170013D01*
Y170019D01*
Y170035D01*
X146956Y170063D01*
X146961Y170095D01*
X146972Y170134D01*
X146988Y170172D01*
X147010Y170204D01*
X147038Y170237D01*
X147043Y170243D01*
X147054Y170248D01*
X147076Y170265D01*
X147103Y170281D01*
X147136Y170292D01*
X147179Y170308D01*
X147229Y170314D01*
X147283Y170319D01*
X147316D01*
X147338Y170314D01*
D02*
G37*
G36*
X164810Y169118D02*
X164875Y169113D01*
X165012Y169102D01*
X165045D01*
X165077Y169096D01*
X165121Y169091D01*
X165170Y169085D01*
X165225Y169080D01*
X165274Y169069D01*
X165323Y169063D01*
X165279Y168670D01*
X165274D01*
X165258Y168676D01*
X165230Y168681D01*
X165198Y168687D01*
X165154Y168692D01*
X165105Y168703D01*
X165045Y168709D01*
X164985Y168714D01*
X164979D01*
X164957Y168719D01*
X164919D01*
X164875Y168725D01*
X164821Y168730D01*
X164761D01*
X164695Y168736D01*
X164581D01*
X164526Y168730D01*
X164466D01*
X164395Y168719D01*
X164324Y168709D01*
X164253Y168698D01*
X164187Y168676D01*
X164182Y168670D01*
X164166Y168665D01*
X164138Y168649D01*
X164111Y168627D01*
X164078Y168594D01*
X164056Y168556D01*
X164034Y168507D01*
X164029Y168446D01*
Y168441D01*
Y168430D01*
X164034Y168414D01*
X164040Y168386D01*
X164056Y168359D01*
X164073Y168332D01*
X164100Y168299D01*
X164133Y168266D01*
X164138Y168261D01*
X164149Y168255D01*
X164176Y168239D01*
X164204Y168217D01*
X164242Y168195D01*
X164286Y168168D01*
X164335Y168141D01*
X164389Y168113D01*
X164395Y168108D01*
X164417Y168103D01*
X164450Y168086D01*
X164493Y168064D01*
X164542Y168042D01*
X164597Y168015D01*
X164728Y167955D01*
X164739Y167950D01*
X164761Y167939D01*
X164794Y167922D01*
X164843Y167900D01*
X164892Y167873D01*
X164952Y167840D01*
X165067Y167764D01*
X165072Y167759D01*
X165094Y167742D01*
X165121Y167720D01*
X165159Y167693D01*
X165198Y167655D01*
X165247Y167611D01*
X165329Y167507D01*
X165334Y167502D01*
X165345Y167480D01*
X165361Y167453D01*
X165383Y167409D01*
X165405Y167360D01*
X165421Y167300D01*
X165432Y167234D01*
X165438Y167158D01*
Y167152D01*
Y167125D01*
X165432Y167092D01*
X165427Y167049D01*
X165416Y166999D01*
X165405Y166945D01*
X165383Y166890D01*
X165356Y166841D01*
X165350Y166836D01*
X165340Y166819D01*
X165323Y166797D01*
X165301Y166770D01*
X165269Y166737D01*
X165236Y166699D01*
X165192Y166666D01*
X165143Y166634D01*
X165137Y166628D01*
X165121Y166623D01*
X165088Y166606D01*
X165050Y166590D01*
X165001Y166568D01*
X164946Y166552D01*
X164886Y166535D01*
X164815Y166519D01*
X164804D01*
X164783Y166514D01*
X164744Y166508D01*
X164695Y166503D01*
X164635Y166492D01*
X164564Y166486D01*
X164493Y166481D01*
X164319D01*
X164258Y166486D01*
X164182Y166492D01*
X164100Y166497D01*
X163925Y166519D01*
X163914D01*
X163887Y166525D01*
X163843Y166535D01*
X163789Y166541D01*
X163729Y166557D01*
X163663Y166574D01*
X163592Y166590D01*
X163532Y166612D01*
X163587Y167010D01*
X163592D01*
X163598Y167005D01*
X163614Y166999D01*
X163636Y166994D01*
X163691Y166978D01*
X163756Y166961D01*
X163761D01*
X163772Y166956D01*
X163794D01*
X163822Y166950D01*
X163887Y166934D01*
X163964Y166918D01*
X163980D01*
X164002Y166912D01*
X164034Y166907D01*
X164100Y166901D01*
X164182Y166890D01*
X164253D01*
X164324Y166885D01*
X164439D01*
X164482Y166890D01*
X164537D01*
X164592Y166896D01*
X164652Y166907D01*
X164712Y166923D01*
X164761Y166939D01*
X164766Y166945D01*
X164783Y166950D01*
X164799Y166967D01*
X164826Y166989D01*
X164848Y167016D01*
X164865Y167054D01*
X164881Y167103D01*
X164886Y167158D01*
Y167163D01*
Y167180D01*
X164881Y167202D01*
X164875Y167229D01*
X164859Y167262D01*
X164843Y167294D01*
X164815Y167333D01*
X164783Y167365D01*
X164777Y167371D01*
X164766Y167382D01*
X164739Y167398D01*
X164712Y167420D01*
X164673Y167442D01*
X164630Y167469D01*
X164575Y167502D01*
X164521Y167529D01*
X164515Y167535D01*
X164493Y167545D01*
X164460Y167562D01*
X164422Y167578D01*
X164373Y167606D01*
X164313Y167633D01*
X164253Y167660D01*
X164187Y167687D01*
X164182Y167693D01*
X164160Y167704D01*
X164122Y167720D01*
X164078Y167742D01*
X164029Y167769D01*
X163974Y167797D01*
X163854Y167868D01*
X163849Y167873D01*
X163827Y167884D01*
X163800Y167906D01*
X163767Y167933D01*
X163723Y167966D01*
X163680Y168010D01*
X163598Y168103D01*
X163592Y168108D01*
X163581Y168124D01*
X163565Y168157D01*
X163549Y168195D01*
X163532Y168244D01*
X163516Y168299D01*
X163505Y168359D01*
X163499Y168430D01*
Y168441D01*
Y168463D01*
X163505Y168501D01*
X163510Y168550D01*
X163521Y168605D01*
X163538Y168659D01*
X163559Y168714D01*
X163587Y168769D01*
X163592Y168774D01*
X163603Y168790D01*
X163625Y168818D01*
X163652Y168845D01*
X163685Y168883D01*
X163723Y168916D01*
X163772Y168949D01*
X163827Y168982D01*
X163832Y168987D01*
X163854Y168992D01*
X163887Y169009D01*
X163931Y169025D01*
X163985Y169042D01*
X164051Y169058D01*
X164116Y169074D01*
X164193Y169091D01*
X164204D01*
X164231Y169096D01*
X164269Y169102D01*
X164324Y169107D01*
X164389Y169113D01*
X164466Y169118D01*
X164548Y169123D01*
X164750D01*
X164810Y169118D01*
D02*
G37*
G36*
X139678Y169118D02*
X139716Y169113D01*
X139754Y169102D01*
X139798Y169091D01*
X139836Y169069D01*
X139874Y169042D01*
X139880Y169036D01*
X139890Y169025D01*
X139901Y169009D01*
X139923Y168987D01*
X139940Y168954D01*
X139951Y168916D01*
X139961Y168872D01*
X139967Y168818D01*
Y168812D01*
Y168796D01*
X139961Y168769D01*
X139956Y168736D01*
X139945Y168703D01*
X139929Y168665D01*
X139907Y168627D01*
X139874Y168594D01*
X139869Y168588D01*
X139858Y168583D01*
X139836Y168572D01*
X139808Y168556D01*
X139770Y168539D01*
X139727Y168528D01*
X139678Y168523D01*
X139623Y168517D01*
X139596D01*
X139568Y168523D01*
X139535Y168528D01*
X139454Y168550D01*
X139415Y168567D01*
X139377Y168594D01*
X139372Y168599D01*
X139361Y168610D01*
X139350Y168627D01*
X139333Y168654D01*
X139312Y168687D01*
X139301Y168725D01*
X139290Y168769D01*
X139284Y168818D01*
Y168823D01*
Y168840D01*
X139290Y168867D01*
X139295Y168900D01*
X139306Y168938D01*
X139323Y168976D01*
X139344Y169009D01*
X139377Y169042D01*
X139383Y169047D01*
X139394Y169053D01*
X139415Y169069D01*
X139443Y169085D01*
X139476Y169096D01*
X139519Y169113D01*
X139568Y169118D01*
X139623Y169123D01*
X139650D01*
X139678Y169118D01*
D02*
G37*
G36*
X146033Y166535D02*
X145492D01*
Y169282D01*
X144389Y167627D01*
X143953D01*
X142861Y169282D01*
Y166535D01*
X142309D01*
Y170030D01*
X142910D01*
X144171Y168141D01*
X145432Y170030D01*
X146033D01*
Y166535D01*
D02*
G37*
G36*
X173147Y169118D02*
X173207Y169113D01*
X173278Y169107D01*
X173431Y169080D01*
X173442D01*
X173464Y169074D01*
X173502Y169063D01*
X173551Y169047D01*
X173606Y169031D01*
X173666Y169009D01*
X173726Y168976D01*
X173781Y168943D01*
X173786Y168938D01*
X173808Y168927D01*
X173835Y168905D01*
X173868Y168872D01*
X173906Y168840D01*
X173944Y168796D01*
X173988Y168741D01*
X174021Y168687D01*
X174026Y168681D01*
X174037Y168659D01*
X174048Y168627D01*
X174070Y168583D01*
X174086Y168523D01*
X174097Y168457D01*
X174108Y168381D01*
X174114Y168294D01*
Y166656D01*
X174103D01*
X174075Y166645D01*
X174037Y166634D01*
X173977Y166623D01*
X173906Y166606D01*
X173824Y166585D01*
X173732Y166563D01*
X173628Y166541D01*
X173617D01*
X173600Y166535D01*
X173579Y166530D01*
X173524Y166525D01*
X173448Y166514D01*
X173360Y166503D01*
X173257Y166492D01*
X173147Y166486D01*
X173027Y166481D01*
X172951D01*
X172896Y166486D01*
X172831Y166492D01*
X172765Y166497D01*
X172618Y166525D01*
X172607D01*
X172585Y166530D01*
X172552Y166541D01*
X172503Y166557D01*
X172454Y166574D01*
X172399Y166601D01*
X172339Y166628D01*
X172285Y166661D01*
X172279Y166666D01*
X172263Y166677D01*
X172235Y166699D01*
X172208Y166732D01*
X172175Y166765D01*
X172137Y166808D01*
X172104Y166858D01*
X172072Y166912D01*
X172066Y166918D01*
X172061Y166939D01*
X172050Y166978D01*
X172033Y167021D01*
X172017Y167081D01*
X172006Y167147D01*
X172001Y167223D01*
X171995Y167311D01*
Y167322D01*
Y167349D01*
X172001Y167387D01*
X172006Y167436D01*
X172017Y167496D01*
X172028Y167557D01*
X172050Y167616D01*
X172077Y167677D01*
X172083Y167682D01*
X172093Y167704D01*
X172110Y167726D01*
X172137Y167764D01*
X172170Y167797D01*
X172214Y167840D01*
X172257Y167879D01*
X172306Y167911D01*
X172312Y167917D01*
X172334Y167928D01*
X172361Y167944D01*
X172399Y167961D01*
X172448Y167982D01*
X172508Y168004D01*
X172569Y168026D01*
X172640Y168042D01*
X172650D01*
X172672Y168048D01*
X172711Y168053D01*
X172760Y168064D01*
X172820Y168070D01*
X172885Y168075D01*
X173033Y168081D01*
X173136D01*
X173180Y168075D01*
X173229D01*
X173333Y168064D01*
X173355D01*
X173382Y168059D01*
X173415D01*
X173497Y168048D01*
X173584Y168032D01*
Y168277D01*
Y168283D01*
Y168288D01*
Y168321D01*
X173573Y168365D01*
X173562Y168425D01*
X173540Y168485D01*
X173513Y168545D01*
X173469Y168594D01*
X173409Y168638D01*
X173404Y168643D01*
X173377Y168654D01*
X173344Y168665D01*
X173295Y168687D01*
X173229Y168703D01*
X173158Y168714D01*
X173076Y168725D01*
X172984Y168730D01*
X172918D01*
X172869Y168725D01*
X172814D01*
X172749Y168719D01*
X172612Y168698D01*
X172607D01*
X172579Y168692D01*
X172547Y168687D01*
X172503Y168676D01*
X172448Y168665D01*
X172394Y168654D01*
X172279Y168632D01*
X172241Y169031D01*
X172246D01*
X172268Y169036D01*
X172306Y169047D01*
X172350Y169053D01*
X172405Y169063D01*
X172470Y169074D01*
X172536Y169085D01*
X172612Y169096D01*
X172623D01*
X172645Y169102D01*
X172689Y169107D01*
X172738Y169113D01*
X172798D01*
X172863Y169118D01*
X173011Y169123D01*
X173093D01*
X173147Y169118D01*
D02*
G37*
G36*
X138454Y166525D02*
Y166519D01*
Y166514D01*
Y166497D01*
Y166475D01*
X138449Y166421D01*
X138444Y166355D01*
X138433Y166279D01*
X138422Y166197D01*
X138400Y166115D01*
X138373Y166039D01*
X138367Y166028D01*
X138356Y166006D01*
X138340Y165968D01*
X138318Y165924D01*
X138285Y165875D01*
X138247Y165820D01*
X138203Y165771D01*
X138149Y165722D01*
X138143Y165716D01*
X138121Y165700D01*
X138089Y165684D01*
X138050Y165656D01*
X137996Y165629D01*
X137930Y165596D01*
X137859Y165569D01*
X137783Y165547D01*
X137772D01*
X137745Y165536D01*
X137701Y165531D01*
X137641Y165520D01*
X137570Y165509D01*
X137488Y165504D01*
X137395Y165493D01*
X137215D01*
X137155Y165498D01*
X137084Y165504D01*
X137002Y165509D01*
X136915Y165520D01*
X136822Y165536D01*
X136811D01*
X136778Y165542D01*
X136734Y165553D01*
X136674Y165564D01*
X136609Y165575D01*
X136532Y165591D01*
X136461Y165607D01*
X136391Y165624D01*
X136451Y166017D01*
X136456D01*
X136483Y166011D01*
X136516Y166000D01*
X136565Y165989D01*
X136625Y165979D01*
X136696Y165962D01*
X136773Y165951D01*
X136855Y165935D01*
X136866D01*
X136893Y165929D01*
X136937Y165924D01*
X136997Y165919D01*
X137062Y165908D01*
X137133Y165902D01*
X137280Y165897D01*
X137335D01*
X137395Y165902D01*
X137472Y165913D01*
X137548Y165929D01*
X137630Y165951D01*
X137706Y165984D01*
X137772Y166028D01*
X137777Y166033D01*
X137794Y166050D01*
X137821Y166082D01*
X137848Y166126D01*
X137876Y166186D01*
X137903Y166262D01*
X137919Y166350D01*
X137925Y166454D01*
Y166595D01*
X137919D01*
X137903Y166590D01*
X137870Y166585D01*
X137837Y166579D01*
X137794Y166574D01*
X137745Y166568D01*
X137635Y166552D01*
X137614D01*
X137581Y166546D01*
X137548D01*
X137504Y166541D01*
X137461D01*
X137357Y166535D01*
X137275D01*
X137221Y166541D01*
X137160Y166546D01*
X137089Y166552D01*
X136937Y166579D01*
X136926D01*
X136904Y166590D01*
X136866Y166601D01*
X136816Y166612D01*
X136762Y166634D01*
X136702Y166661D01*
X136642Y166688D01*
X136582Y166727D01*
X136576Y166732D01*
X136560Y166748D01*
X136532Y166770D01*
X136500Y166803D01*
X136461Y166841D01*
X136423Y166890D01*
X136380Y166945D01*
X136347Y167005D01*
X136341Y167016D01*
X136336Y167038D01*
X136320Y167076D01*
X136309Y167131D01*
X136292Y167191D01*
X136276Y167267D01*
X136270Y167354D01*
X136265Y167447D01*
Y169069D01*
X136795D01*
Y167447D01*
Y167442D01*
Y167425D01*
Y167398D01*
X136800Y167365D01*
X136811Y167283D01*
X136838Y167201D01*
Y167196D01*
X136849Y167185D01*
X136855Y167169D01*
X136871Y167147D01*
X136909Y167092D01*
X136958Y167043D01*
X136964D01*
X136975Y167032D01*
X136991Y167027D01*
X137013Y167010D01*
X137073Y166983D01*
X137144Y166961D01*
X137150D01*
X137160Y166956D01*
X137182D01*
X137209Y166950D01*
X137242Y166945D01*
X137280D01*
X137368Y166939D01*
X137423D01*
X137461Y166945D01*
X137504D01*
X137559Y166950D01*
X137668Y166961D01*
X137674D01*
X137696Y166967D01*
X137723Y166972D01*
X137756Y166978D01*
X137843Y166994D01*
X137925Y167016D01*
Y169069D01*
X138454D01*
Y166525D01*
D02*
G37*
G36*
X168244Y166666D02*
X168233Y166661D01*
X168206Y166656D01*
X168162Y166639D01*
X168102Y166623D01*
X168026Y166601D01*
X167938Y166579D01*
X167846Y166557D01*
X167736Y166535D01*
X167726D01*
X167709Y166530D01*
X167687Y166525D01*
X167627Y166519D01*
X167556Y166508D01*
X167463Y166497D01*
X167365Y166492D01*
X167256Y166481D01*
X167065D01*
X167010Y166486D01*
X166950Y166492D01*
X166879Y166497D01*
X166726Y166525D01*
X166715D01*
X166694Y166535D01*
X166655Y166546D01*
X166606Y166557D01*
X166552Y166579D01*
X166491Y166606D01*
X166431Y166634D01*
X166371Y166672D01*
X166366Y166677D01*
X166350Y166694D01*
X166322Y166716D01*
X166289Y166748D01*
X166251Y166787D01*
X166213Y166836D01*
X166169Y166890D01*
X166137Y166950D01*
X166131Y166961D01*
X166126Y166983D01*
X166109Y167021D01*
X166098Y167076D01*
X166082Y167136D01*
X166066Y167212D01*
X166060Y167300D01*
X166055Y167393D01*
Y169069D01*
X166584D01*
Y167387D01*
Y167382D01*
Y167365D01*
Y167338D01*
X166590Y167305D01*
X166601Y167229D01*
X166628Y167147D01*
Y167141D01*
X166639Y167131D01*
X166644Y167114D01*
X166661Y167092D01*
X166699Y167038D01*
X166748Y166989D01*
X166754D01*
X166764Y166978D01*
X166781Y166967D01*
X166803Y166956D01*
X166863Y166929D01*
X166934Y166907D01*
X166939D01*
X166950Y166901D01*
X166972D01*
X166999Y166896D01*
X167032Y166890D01*
X167070D01*
X167158Y166885D01*
X167212D01*
X167251Y166890D01*
X167294D01*
X167349Y166896D01*
X167458Y166907D01*
X167463D01*
X167485Y166912D01*
X167513Y166918D01*
X167545Y166923D01*
X167633Y166939D01*
X167715Y166956D01*
Y169069D01*
X168244D01*
Y166666D01*
D02*
G37*
G36*
X153606Y166666D02*
X153595Y166661D01*
X153568Y166656D01*
X153524Y166639D01*
X153464Y166623D01*
X153387Y166601D01*
X153300Y166579D01*
X153207Y166557D01*
X153098Y166535D01*
X153087D01*
X153071Y166530D01*
X153049Y166525D01*
X152989Y166519D01*
X152918Y166508D01*
X152825Y166497D01*
X152727Y166492D01*
X152618Y166481D01*
X152427D01*
X152372Y166486D01*
X152312Y166492D01*
X152241Y166497D01*
X152088Y166525D01*
X152077D01*
X152055Y166535D01*
X152017Y166546D01*
X151968Y166557D01*
X151913Y166579D01*
X151853Y166606D01*
X151793Y166634D01*
X151733Y166672D01*
X151728Y166677D01*
X151711Y166694D01*
X151684Y166716D01*
X151651Y166748D01*
X151613Y166787D01*
X151575Y166836D01*
X151531Y166890D01*
X151498Y166950D01*
X151493Y166961D01*
X151487Y166983D01*
X151471Y167021D01*
X151460Y167076D01*
X151444Y167136D01*
X151427Y167212D01*
X151422Y167300D01*
X151417Y167393D01*
Y169069D01*
X151946D01*
Y167387D01*
Y167382D01*
Y167365D01*
Y167338D01*
X151952Y167305D01*
X151962Y167229D01*
X151990Y167147D01*
Y167141D01*
X152001Y167131D01*
X152006Y167114D01*
X152023Y167092D01*
X152061Y167038D01*
X152110Y166989D01*
X152115D01*
X152126Y166978D01*
X152143Y166967D01*
X152164Y166956D01*
X152225Y166929D01*
X152295Y166907D01*
X152301D01*
X152312Y166901D01*
X152334D01*
X152361Y166896D01*
X152394Y166890D01*
X152432D01*
X152519Y166885D01*
X152574D01*
X152612Y166890D01*
X152656D01*
X152710Y166896D01*
X152820Y166907D01*
X152825D01*
X152847Y166912D01*
X152874Y166918D01*
X152907Y166923D01*
X152994Y166939D01*
X153076Y166956D01*
Y169069D01*
X153606D01*
Y166666D01*
D02*
G37*
G36*
X170412Y169118D02*
X170477Y169113D01*
X170554Y169102D01*
X170707Y169074D01*
X170718D01*
X170739Y169063D01*
X170778Y169053D01*
X170827Y169042D01*
X170881Y169020D01*
X170941Y168992D01*
X171002Y168965D01*
X171056Y168927D01*
X171062Y168921D01*
X171083Y168911D01*
X171111Y168889D01*
X171143Y168856D01*
X171182Y168818D01*
X171220Y168769D01*
X171258Y168714D01*
X171291Y168654D01*
X171296Y168649D01*
X171307Y168621D01*
X171318Y168583D01*
X171335Y168534D01*
X171351Y168474D01*
X171367Y168403D01*
X171373Y168321D01*
X171378Y168228D01*
Y166535D01*
X170849D01*
Y168206D01*
Y168212D01*
Y168234D01*
Y168261D01*
X170843Y168294D01*
X170827Y168370D01*
X170800Y168452D01*
Y168457D01*
X170794Y168468D01*
X170783Y168490D01*
X170767Y168512D01*
X170729Y168561D01*
X170674Y168610D01*
X170668Y168616D01*
X170663Y168621D01*
X170647Y168632D01*
X170625Y168643D01*
X170565Y168670D01*
X170488Y168692D01*
X170483D01*
X170472Y168698D01*
X170445Y168703D01*
X170417Y168709D01*
X170385D01*
X170341Y168714D01*
X170254Y168719D01*
X170199D01*
X170161Y168714D01*
X170112D01*
X170062Y168709D01*
X169948Y168692D01*
X169942D01*
X169920Y168687D01*
X169893Y168681D01*
X169855Y168676D01*
X169811Y168670D01*
X169762Y168659D01*
X169669Y168638D01*
Y166535D01*
X169140D01*
Y168927D01*
X169145D01*
X169156Y168932D01*
X169178Y168938D01*
X169205Y168949D01*
X169238Y168960D01*
X169276Y168971D01*
X169363Y168992D01*
X169369D01*
X169385Y168998D01*
X169413Y169003D01*
X169445Y169014D01*
X169489Y169020D01*
X169538Y169031D01*
X169642Y169053D01*
X169647D01*
X169669Y169058D01*
X169697Y169063D01*
X169735Y169069D01*
X169784Y169080D01*
X169833Y169085D01*
X169948Y169102D01*
X169953D01*
X169975Y169107D01*
X170008D01*
X170051Y169113D01*
X170095Y169118D01*
X170150D01*
X170264Y169123D01*
X170352D01*
X170412Y169118D01*
D02*
G37*
G36*
X157761Y166535D02*
X157231D01*
Y170374D01*
X157761D01*
Y166535D01*
D02*
G37*
G36*
X147551D02*
X147021D01*
Y169069D01*
X147551D01*
Y166535D01*
D02*
G37*
G36*
X139678Y167092D02*
X139716Y167087D01*
X139754Y167076D01*
X139798Y167065D01*
X139836Y167043D01*
X139874Y167016D01*
X139880Y167010D01*
X139890Y166999D01*
X139901Y166983D01*
X139923Y166961D01*
X139940Y166929D01*
X139951Y166890D01*
X139961Y166847D01*
X139967Y166792D01*
Y166787D01*
Y166770D01*
X139961Y166743D01*
X139956Y166710D01*
X139945Y166677D01*
X139929Y166639D01*
X139907Y166601D01*
X139874Y166568D01*
X139869Y166563D01*
X139858Y166557D01*
X139836Y166546D01*
X139808Y166530D01*
X139770Y166514D01*
X139727Y166503D01*
X139678Y166497D01*
X139623Y166492D01*
X139596D01*
X139568Y166497D01*
X139535Y166503D01*
X139454Y166525D01*
X139415Y166541D01*
X139377Y166568D01*
X139372Y166574D01*
X139361Y166585D01*
X139350Y166601D01*
X139333Y166628D01*
X139312Y166661D01*
X139301Y166699D01*
X139290Y166743D01*
X139284Y166792D01*
Y166797D01*
Y166814D01*
X139290Y166841D01*
X139295Y166874D01*
X139306Y166912D01*
X139323Y166950D01*
X139344Y166983D01*
X139377Y167016D01*
X139383Y167021D01*
X139394Y167027D01*
X139415Y167043D01*
X139443Y167060D01*
X139476Y167070D01*
X139519Y167087D01*
X139568Y167092D01*
X139623Y167098D01*
X139650D01*
X139678Y167092D01*
D02*
G37*
G36*
X155577Y169118D02*
X155642Y169113D01*
X155713Y169107D01*
X155790Y169091D01*
X155866Y169074D01*
X155943Y169047D01*
X155954Y169042D01*
X155976Y169031D01*
X156014Y169014D01*
X156058Y168992D01*
X156107Y168960D01*
X156161Y168921D01*
X156216Y168878D01*
X156265Y168829D01*
X156270Y168823D01*
X156287Y168807D01*
X156309Y168774D01*
X156336Y168736D01*
X156369Y168687D01*
X156401Y168632D01*
X156429Y168567D01*
X156456Y168496D01*
X156462Y168485D01*
X156467Y168463D01*
X156478Y168425D01*
X156489Y168370D01*
X156500Y168305D01*
X156511Y168234D01*
X156522Y168152D01*
Y168064D01*
Y167649D01*
X154873D01*
Y167638D01*
Y167616D01*
Y167584D01*
X154878Y167535D01*
X154884Y167485D01*
X154889Y167425D01*
X154916Y167311D01*
Y167305D01*
X154927Y167289D01*
X154933Y167262D01*
X154949Y167229D01*
X154993Y167152D01*
X155053Y167070D01*
X155058Y167065D01*
X155069Y167054D01*
X155091Y167038D01*
X155124Y167016D01*
X155157Y166994D01*
X155200Y166972D01*
X155249Y166950D01*
X155304Y166929D01*
X155309D01*
X155331Y166923D01*
X155369Y166918D01*
X155413Y166907D01*
X155473Y166901D01*
X155539Y166890D01*
X155621Y166885D01*
X155817D01*
X155888Y166890D01*
X155905D01*
X155926Y166896D01*
X155954D01*
X156014Y166901D01*
X156085Y166912D01*
X156090D01*
X156101Y166918D01*
X156123D01*
X156145Y166923D01*
X156205Y166934D01*
X156270Y166945D01*
X156276D01*
X156287Y166950D01*
X156303D01*
X156320Y166956D01*
X156369Y166967D01*
X156418Y166978D01*
X156462Y166590D01*
X156456D01*
X156434Y166585D01*
X156401Y166574D01*
X156358Y166563D01*
X156303Y166552D01*
X156243Y166541D01*
X156167Y166525D01*
X156090Y166514D01*
X156079D01*
X156052Y166508D01*
X156008Y166503D01*
X155954Y166497D01*
X155888Y166492D01*
X155812Y166486D01*
X155730Y166481D01*
X155599D01*
X155539Y166486D01*
X155468D01*
X155380Y166492D01*
X155293Y166503D01*
X155102Y166535D01*
X155091Y166541D01*
X155064Y166546D01*
X155015Y166563D01*
X154960Y166585D01*
X154889Y166612D01*
X154824Y166650D01*
X154753Y166694D01*
X154682Y166743D01*
X154676Y166748D01*
X154654Y166770D01*
X154622Y166803D01*
X154583Y166852D01*
X154540Y166907D01*
X154490Y166978D01*
X154447Y167060D01*
X154409Y167147D01*
Y167152D01*
X154403Y167158D01*
X154398Y167174D01*
X154392Y167196D01*
X154381Y167251D01*
X154365Y167327D01*
X154343Y167420D01*
X154332Y167529D01*
X154321Y167660D01*
X154316Y167802D01*
Y167808D01*
Y167818D01*
Y167840D01*
Y167862D01*
Y167895D01*
X154321Y167933D01*
X154327Y168015D01*
X154332Y168113D01*
X154349Y168217D01*
X154365Y168321D01*
X154392Y168419D01*
Y168425D01*
X154398Y168430D01*
X154409Y168463D01*
X154425Y168507D01*
X154452Y168567D01*
X154485Y168632D01*
X154529Y168703D01*
X154572Y168769D01*
X154627Y168829D01*
X154632Y168834D01*
X154654Y168856D01*
X154687Y168883D01*
X154731Y168916D01*
X154785Y168949D01*
X154851Y168987D01*
X154922Y169025D01*
X154998Y169053D01*
X155009Y169058D01*
X155036Y169063D01*
X155080Y169074D01*
X155140Y169091D01*
X155211Y169102D01*
X155293Y169113D01*
X155386Y169118D01*
X155484Y169123D01*
X155528D01*
X155577Y169118D01*
D02*
G37*
G36*
X161528Y170079D02*
X161567D01*
X161654Y170073D01*
X161752Y170057D01*
X161861Y170041D01*
X161971Y170013D01*
X162080Y169981D01*
X162085D01*
X162091Y169975D01*
X162107Y169970D01*
X162129Y169964D01*
X162178Y169937D01*
X162244Y169904D01*
X162320Y169861D01*
X162397Y169806D01*
X162478Y169740D01*
X162549Y169664D01*
X162560Y169653D01*
X162582Y169626D01*
X162615Y169577D01*
X162659Y169511D01*
X162702Y169429D01*
X162751Y169336D01*
X162801Y169227D01*
X162839Y169102D01*
Y169096D01*
X162844Y169085D01*
X162850Y169069D01*
X162855Y169042D01*
X162861Y169009D01*
X162872Y168971D01*
X162877Y168921D01*
X162888Y168872D01*
X162899Y168812D01*
X162904Y168752D01*
X162921Y168610D01*
X162932Y168452D01*
X162937Y168277D01*
Y168272D01*
Y168255D01*
Y168228D01*
Y168195D01*
X162932Y168152D01*
Y168108D01*
Y168053D01*
X162926Y167993D01*
X162915Y167862D01*
X162893Y167720D01*
X162872Y167584D01*
X162839Y167447D01*
Y167442D01*
X162833Y167431D01*
X162828Y167414D01*
X162822Y167393D01*
X162795Y167327D01*
X162768Y167251D01*
X162724Y167163D01*
X162675Y167070D01*
X162615Y166978D01*
X162549Y166890D01*
X162539Y166879D01*
X162517Y166858D01*
X162478Y166814D01*
X162424Y166770D01*
X162353Y166716D01*
X162271Y166666D01*
X162184Y166617D01*
X162080Y166574D01*
X162074D01*
X162069Y166568D01*
X162053Y166563D01*
X162031Y166557D01*
X161971Y166541D01*
X161894Y166525D01*
X161796Y166508D01*
X161687Y166492D01*
X161567Y166481D01*
X161436Y166475D01*
X161375D01*
X161343Y166481D01*
X161304D01*
X161217Y166486D01*
X161119Y166497D01*
X161010Y166519D01*
X160895Y166541D01*
X160786Y166574D01*
X160780D01*
X160775Y166579D01*
X160758Y166585D01*
X160737Y166590D01*
X160688Y166617D01*
X160622Y166650D01*
X160546Y166694D01*
X160464Y166748D01*
X160387Y166814D01*
X160311Y166890D01*
X160305Y166901D01*
X160278Y166929D01*
X160245Y166978D01*
X160207Y167043D01*
X160158Y167125D01*
X160114Y167218D01*
X160065Y167327D01*
X160027Y167447D01*
Y167453D01*
X160021Y167464D01*
X160016Y167480D01*
X160011Y167507D01*
X160005Y167540D01*
X160000Y167584D01*
X159989Y167627D01*
X159983Y167682D01*
X159972Y167737D01*
X159961Y167802D01*
X159950Y167944D01*
X159940Y168102D01*
X159934Y168277D01*
Y168283D01*
Y168299D01*
Y168326D01*
Y168359D01*
X159940Y168403D01*
Y168446D01*
Y168501D01*
X159945Y168561D01*
X159956Y168692D01*
X159972Y168829D01*
X159994Y168971D01*
X160027Y169102D01*
Y169107D01*
X160032Y169118D01*
X160038Y169134D01*
X160043Y169162D01*
X160071Y169222D01*
X160098Y169304D01*
X160142Y169391D01*
X160191Y169484D01*
X160245Y169577D01*
X160311Y169664D01*
X160322Y169675D01*
X160344Y169702D01*
X160387Y169740D01*
X160442Y169784D01*
X160513Y169839D01*
X160595Y169888D01*
X160682Y169937D01*
X160786Y169981D01*
X160791D01*
X160797Y169986D01*
X160813Y169992D01*
X160835Y169997D01*
X160862Y170002D01*
X160895Y170013D01*
X160971Y170035D01*
X161070Y170052D01*
X161179Y170068D01*
X161304Y170079D01*
X161436Y170084D01*
X161496D01*
X161528Y170079D01*
D02*
G37*
G36*
X134381Y170024D02*
X134463Y170019D01*
X134550Y170008D01*
X134731Y169981D01*
X134742D01*
X134769Y169970D01*
X134813Y169959D01*
X134867Y169942D01*
X134933Y169921D01*
X134998Y169893D01*
X135064Y169861D01*
X135124Y169822D01*
X135129Y169817D01*
X135151Y169806D01*
X135178Y169779D01*
X135217Y169751D01*
X135255Y169708D01*
X135299Y169664D01*
X135337Y169604D01*
X135375Y169544D01*
X135380Y169538D01*
X135391Y169511D01*
X135402Y169478D01*
X135419Y169429D01*
X135435Y169369D01*
X135451Y169298D01*
X135457Y169216D01*
X135462Y169129D01*
Y169123D01*
Y169113D01*
Y169096D01*
Y169069D01*
X135457Y169009D01*
X135446Y168932D01*
X135424Y168845D01*
X135402Y168752D01*
X135364Y168665D01*
X135315Y168588D01*
X135310Y168583D01*
X135288Y168556D01*
X135255Y168523D01*
X135211Y168485D01*
X135151Y168441D01*
X135080Y168397D01*
X135004Y168354D01*
X134911Y168321D01*
X134916D01*
X134933Y168315D01*
X134955Y168310D01*
X134987Y168299D01*
X135026Y168283D01*
X135069Y168266D01*
X135157Y168228D01*
X135162D01*
X135178Y168217D01*
X135200Y168206D01*
X135233Y168184D01*
X135299Y168135D01*
X135370Y168064D01*
X135375Y168059D01*
X135386Y168048D01*
X135402Y168026D01*
X135419Y167999D01*
X135441Y167961D01*
X135468Y167917D01*
X135490Y167873D01*
X135512Y167818D01*
X135517Y167813D01*
X135522Y167791D01*
X135533Y167764D01*
X135544Y167726D01*
X135555Y167671D01*
X135561Y167616D01*
X135572Y167551D01*
Y167480D01*
Y167474D01*
Y167458D01*
Y167431D01*
X135566Y167398D01*
X135561Y167360D01*
X135555Y167311D01*
X135528Y167201D01*
X135490Y167081D01*
X135462Y167021D01*
X135430Y166956D01*
X135391Y166896D01*
X135342Y166836D01*
X135293Y166781D01*
X135233Y166732D01*
X135228D01*
X135217Y166721D01*
X135200Y166710D01*
X135173Y166694D01*
X135135Y166672D01*
X135091Y166650D01*
X135042Y166628D01*
X134982Y166606D01*
X134916Y166579D01*
X134845Y166557D01*
X134764Y166535D01*
X134671Y166514D01*
X134572Y166497D01*
X134469Y166486D01*
X134354Y166481D01*
X134234Y166475D01*
X134146D01*
X134081Y166481D01*
X134004Y166486D01*
X133912Y166492D01*
X133808Y166503D01*
X133693Y166514D01*
X133677D01*
X133660Y166519D01*
X133639D01*
X133611Y166525D01*
X133579Y166530D01*
X133497Y166541D01*
X133404Y166552D01*
X133295Y166568D01*
X133186Y166590D01*
X133071Y166612D01*
Y170030D01*
X134310D01*
X134381Y170024D01*
D02*
G37*
G36*
X149615Y169118D02*
X149686D01*
X149762Y169107D01*
X149855Y169096D01*
X149953Y169085D01*
X150051Y169063D01*
X150062D01*
X150095Y169053D01*
X150150Y169042D01*
X150215Y169025D01*
X150297Y169003D01*
X150384Y168982D01*
X150570Y168927D01*
Y166519D01*
Y166514D01*
Y166508D01*
Y166492D01*
Y166470D01*
X150565Y166415D01*
X150559Y166350D01*
X150548Y166273D01*
X150537Y166197D01*
X150516Y166115D01*
X150488Y166039D01*
X150483Y166028D01*
X150472Y166006D01*
X150455Y165968D01*
X150434Y165924D01*
X150401Y165875D01*
X150357Y165820D01*
X150314Y165771D01*
X150259Y165722D01*
X150253Y165716D01*
X150232Y165700D01*
X150199Y165684D01*
X150161Y165656D01*
X150106Y165629D01*
X150046Y165596D01*
X149975Y165569D01*
X149899Y165547D01*
X149888D01*
X149860Y165536D01*
X149817Y165531D01*
X149757Y165520D01*
X149686Y165509D01*
X149604Y165504D01*
X149511Y165493D01*
X149331D01*
X149271Y165498D01*
X149200Y165504D01*
X149118Y165509D01*
X149025Y165520D01*
X148932Y165531D01*
X148921D01*
X148889Y165536D01*
X148845Y165547D01*
X148785Y165558D01*
X148719Y165569D01*
X148648Y165585D01*
X148577Y165602D01*
X148506Y165618D01*
X148566Y166022D01*
X148572D01*
X148599Y166017D01*
X148632Y166006D01*
X148681Y165995D01*
X148741Y165984D01*
X148812Y165968D01*
X148889Y165957D01*
X148970Y165940D01*
X148981D01*
X149009Y165935D01*
X149052Y165929D01*
X149112Y165919D01*
X149178Y165913D01*
X149249Y165902D01*
X149396Y165897D01*
X149451D01*
X149511Y165902D01*
X149587Y165913D01*
X149664Y165929D01*
X149746Y165957D01*
X149822Y165989D01*
X149888Y166033D01*
X149893Y166039D01*
X149909Y166060D01*
X149937Y166093D01*
X149964Y166137D01*
X149991Y166197D01*
X150019Y166268D01*
X150035Y166361D01*
X150041Y166464D01*
Y166601D01*
X150035D01*
X150019Y166595D01*
X149986Y166590D01*
X149948Y166585D01*
X149904Y166579D01*
X149849Y166568D01*
X149735Y166552D01*
X149707D01*
X149675Y166546D01*
X149636D01*
X149587Y166541D01*
X149538D01*
X149424Y166535D01*
X149385D01*
X149336Y166541D01*
X149282D01*
X149211Y166546D01*
X149134Y166557D01*
X148976Y166585D01*
X148965Y166590D01*
X148943Y166595D01*
X148899Y166612D01*
X148850Y166628D01*
X148796Y166656D01*
X148736Y166688D01*
X148670Y166732D01*
X148610Y166781D01*
X148605Y166787D01*
X148583Y166808D01*
X148555Y166841D01*
X148517Y166885D01*
X148479Y166945D01*
X148435Y167010D01*
X148397Y167092D01*
X148359Y167180D01*
Y167185D01*
X148353Y167191D01*
Y167207D01*
X148348Y167223D01*
X148332Y167278D01*
X148315Y167354D01*
X148299Y167447D01*
X148288Y167562D01*
X148277Y167687D01*
X148272Y167829D01*
Y167835D01*
Y167846D01*
Y167868D01*
Y167889D01*
X148277Y167922D01*
Y167961D01*
X148282Y168042D01*
X148293Y168141D01*
X148315Y168244D01*
X148337Y168343D01*
X148370Y168441D01*
Y168446D01*
X148375Y168452D01*
X148386Y168485D01*
X148408Y168528D01*
X148441Y168583D01*
X148479Y168649D01*
X148523Y168714D01*
X148577Y168780D01*
X148637Y168840D01*
X148643Y168845D01*
X148670Y168861D01*
X148703Y168889D01*
X148752Y168921D01*
X148807Y168954D01*
X148878Y168992D01*
X148954Y169025D01*
X149036Y169053D01*
X149047Y169058D01*
X149074Y169063D01*
X149123Y169074D01*
X149183Y169091D01*
X149254Y169102D01*
X149336Y169113D01*
X149424Y169118D01*
X149516Y169123D01*
X149560D01*
X149615Y169118D01*
D02*
G37*
%LPC*%
G36*
X175487Y179124D02*
X175323D01*
X175214Y179105D01*
X175086Y179087D01*
X174959Y179069D01*
X174649Y178978D01*
X174631D01*
X174594Y178960D01*
X174521Y178923D01*
X174430Y178869D01*
X174321Y178814D01*
X174212Y178723D01*
X174084Y178632D01*
X173975Y178504D01*
X173957Y178486D01*
X173920Y178450D01*
X173865Y178377D01*
X173811Y178267D01*
X173738Y178140D01*
X173665Y177976D01*
X173592Y177794D01*
X173519Y177593D01*
Y177575D01*
X173501Y177484D01*
X173465Y177375D01*
X173446Y177192D01*
X173410Y176992D01*
X173373Y176737D01*
X173355Y176464D01*
Y176136D01*
Y176118D01*
Y176099D01*
Y176045D01*
Y175972D01*
Y175808D01*
X173373Y175589D01*
X173392Y175334D01*
X173410Y175079D01*
X173446Y174806D01*
X173501Y174569D01*
Y174550D01*
X173538Y174478D01*
X173556Y174368D01*
X173610Y174223D01*
X173738Y173913D01*
X173829Y173749D01*
X173920Y173603D01*
X173938Y173585D01*
X173975Y173548D01*
X174029Y173494D01*
X174120Y173421D01*
X174212Y173330D01*
X174339Y173257D01*
X174467Y173184D01*
X174612Y173129D01*
X174631D01*
X174685Y173111D01*
X174758Y173093D01*
X174886Y173075D01*
X175013Y173038D01*
X175159Y173020D01*
X175523Y173002D01*
X175815D01*
X175943Y173020D01*
X176107D01*
X176453Y173056D01*
X176471D01*
X176544Y173075D01*
X176635D01*
X176744Y173093D01*
X176890Y173111D01*
X177054Y173148D01*
X177400Y173202D01*
Y178850D01*
X177382D01*
X177309Y178869D01*
X177218Y178887D01*
X177090Y178923D01*
X176945Y178960D01*
X176781Y178996D01*
X176435Y179051D01*
X176416D01*
X176362Y179069D01*
X176252D01*
X176143Y179087D01*
X175997Y179105D01*
X175833D01*
X175487Y179124D01*
D02*
G37*
G36*
X210907D02*
X210524D01*
X210397Y179105D01*
X210251Y179087D01*
X210087Y179069D01*
X209777Y178978D01*
X209759D01*
X209704Y178942D01*
X209631Y178905D01*
X209540Y178869D01*
X209431Y178796D01*
X209322Y178705D01*
X209194Y178595D01*
X209085Y178468D01*
X209067Y178450D01*
X209048Y178413D01*
X208994Y178322D01*
X208939Y178231D01*
X208866Y178085D01*
X208793Y177939D01*
X208720Y177739D01*
X208666Y177539D01*
Y177520D01*
X208647Y177429D01*
X208629Y177302D01*
X208611Y177138D01*
X208575Y176919D01*
X208556Y176664D01*
X208538Y176391D01*
Y176063D01*
Y176045D01*
Y176026D01*
Y175917D01*
Y175753D01*
X208556Y175534D01*
X208575Y175298D01*
X208593Y175042D01*
X208629Y174806D01*
X208666Y174569D01*
Y174550D01*
X208702Y174478D01*
X208720Y174368D01*
X208775Y174241D01*
X208903Y173931D01*
X208994Y173767D01*
X209085Y173621D01*
X209103Y173603D01*
X209139Y173567D01*
X209194Y173512D01*
X209285Y173439D01*
X209376Y173348D01*
X209504Y173275D01*
X209631Y173184D01*
X209777Y173129D01*
X209795D01*
X209850Y173111D01*
X209941Y173093D01*
X210050Y173075D01*
X210178Y173038D01*
X210342Y173020D01*
X210524Y173002D01*
X210889D01*
X211016Y173020D01*
X211308Y173056D01*
X211617Y173129D01*
X211635D01*
X211690Y173166D01*
X211763Y173202D01*
X211854Y173239D01*
X212073Y173403D01*
X212182Y173494D01*
X212291Y173621D01*
X212310Y173640D01*
X212346Y173694D01*
X212401Y173767D01*
X212455Y173876D01*
X212528Y174022D01*
X212601Y174168D01*
X212674Y174368D01*
X212729Y174569D01*
Y174605D01*
X212747Y174678D01*
X212783Y174806D01*
X212802Y174970D01*
X212838Y175188D01*
X212856Y175443D01*
X212875Y175735D01*
Y176063D01*
Y176081D01*
Y176099D01*
Y176208D01*
Y176373D01*
X212856Y176591D01*
X212838Y176810D01*
X212820Y177065D01*
X212783Y177302D01*
X212729Y177539D01*
Y177557D01*
X212710Y177630D01*
X212674Y177739D01*
X212619Y177867D01*
X212492Y178176D01*
X212401Y178322D01*
X212291Y178468D01*
X212273Y178486D01*
X212237Y178523D01*
X212182Y178595D01*
X212109Y178668D01*
X212000Y178759D01*
X211891Y178832D01*
X211763Y178923D01*
X211617Y178978D01*
X211599D01*
X211544Y178996D01*
X211472Y179033D01*
X211362Y179051D01*
X211235Y179087D01*
X211071Y179105D01*
X210907Y179124D01*
D02*
G37*
G36*
X166268Y179233D02*
X166104D01*
X165921Y179197D01*
X165703Y179160D01*
X165466Y179087D01*
X165229Y178978D01*
X165010Y178814D01*
X164810Y178614D01*
X164792Y178577D01*
X164737Y178504D01*
X164664Y178358D01*
X164573Y178158D01*
X164482Y177885D01*
X164409Y177575D01*
X164336Y177211D01*
X164300Y176773D01*
X168090D01*
Y176810D01*
Y176883D01*
X168071Y176992D01*
X168053Y177156D01*
X168035Y177338D01*
X167999Y177557D01*
X167944Y177776D01*
X167871Y178012D01*
X167762Y178231D01*
X167652Y178450D01*
X167507Y178668D01*
X167324Y178850D01*
X167106Y179014D01*
X166869Y179124D01*
X166596Y179215D01*
X166268Y179233D01*
D02*
G37*
G36*
X173169Y167698D02*
X173000D01*
X172929Y167693D01*
X172852Y167682D01*
X172847D01*
X172836Y167677D01*
X172814D01*
X172792Y167666D01*
X172732Y167649D01*
X172672Y167616D01*
X172667D01*
X172661Y167611D01*
X172629Y167584D01*
X172590Y167545D01*
X172552Y167491D01*
Y167485D01*
X172547Y167475D01*
X172541Y167458D01*
X172530Y167436D01*
X172525Y167404D01*
X172514Y167365D01*
X172508Y167278D01*
Y167267D01*
Y167240D01*
X172519Y167196D01*
X172530Y167141D01*
X172547Y167087D01*
X172574Y167032D01*
X172612Y166983D01*
X172661Y166939D01*
X172667Y166934D01*
X172689Y166929D01*
X172721Y166912D01*
X172765Y166896D01*
X172820Y166879D01*
X172885Y166868D01*
X172956Y166858D01*
X173038Y166852D01*
X173136D01*
X173180Y166858D01*
X173229D01*
X173333Y166868D01*
X173338D01*
X173355Y166874D01*
X173382Y166879D01*
X173420Y166885D01*
X173497Y166901D01*
X173584Y166918D01*
Y167649D01*
X173579D01*
X173562Y167655D01*
X173540D01*
X173513Y167660D01*
X173475Y167666D01*
X173431Y167671D01*
X173338Y167682D01*
X173333D01*
X173317Y167687D01*
X173289D01*
X173257Y167693D01*
X173218D01*
X173169Y167698D01*
D02*
G37*
G36*
X155468Y168752D02*
X155419D01*
X155364Y168741D01*
X155298Y168730D01*
X155227Y168709D01*
X155157Y168676D01*
X155091Y168627D01*
X155031Y168567D01*
X155025Y168556D01*
X155009Y168534D01*
X154987Y168490D01*
X154960Y168430D01*
X154933Y168348D01*
X154911Y168255D01*
X154889Y168146D01*
X154878Y168015D01*
X156014D01*
Y168026D01*
Y168048D01*
X156008Y168081D01*
X156003Y168130D01*
X155997Y168184D01*
X155986Y168250D01*
X155970Y168315D01*
X155948Y168386D01*
X155915Y168452D01*
X155883Y168517D01*
X155839Y168583D01*
X155784Y168638D01*
X155719Y168687D01*
X155648Y168719D01*
X155566Y168747D01*
X155468Y168752D01*
D02*
G37*
G36*
X161436Y169669D02*
X161397D01*
X161354Y169664D01*
X161299Y169659D01*
X161239Y169653D01*
X161168Y169637D01*
X161097Y169620D01*
X161031Y169593D01*
X161026Y169588D01*
X161004Y169582D01*
X160971Y169560D01*
X160933Y169538D01*
X160884Y169506D01*
X160840Y169462D01*
X160791Y169413D01*
X160742Y169358D01*
X160737Y169353D01*
X160726Y169331D01*
X160704Y169293D01*
X160677Y169244D01*
X160649Y169184D01*
X160622Y169113D01*
X160595Y169025D01*
X160567Y168932D01*
Y168927D01*
Y168921D01*
X160562Y168905D01*
X160556Y168883D01*
X160551Y168829D01*
X160540Y168752D01*
X160529Y168654D01*
X160524Y168545D01*
X160513Y168419D01*
Y168277D01*
Y168272D01*
Y168261D01*
Y168239D01*
Y168212D01*
Y168179D01*
X160518Y168141D01*
Y168048D01*
X160524Y167950D01*
X160535Y167835D01*
X160551Y167726D01*
X160567Y167622D01*
Y167616D01*
X160573Y167611D01*
X160578Y167578D01*
X160595Y167529D01*
X160611Y167469D01*
X160638Y167398D01*
X160666Y167327D01*
X160704Y167256D01*
X160742Y167191D01*
X160748Y167185D01*
X160764Y167163D01*
X160791Y167136D01*
X160824Y167103D01*
X160868Y167065D01*
X160917Y167027D01*
X160971Y166994D01*
X161031Y166961D01*
X161037Y166956D01*
X161064Y166950D01*
X161097Y166939D01*
X161146Y166929D01*
X161206Y166912D01*
X161277Y166901D01*
X161354Y166896D01*
X161436Y166890D01*
X161474D01*
X161518Y166896D01*
X161572Y166901D01*
X161632Y166907D01*
X161698Y166923D01*
X161769Y166939D01*
X161834Y166961D01*
X161840Y166967D01*
X161861Y166978D01*
X161894Y166994D01*
X161938Y167016D01*
X161982Y167049D01*
X162031Y167087D01*
X162080Y167136D01*
X162124Y167191D01*
X162129Y167196D01*
X162140Y167218D01*
X162162Y167256D01*
X162189Y167305D01*
X162216Y167371D01*
X162244Y167442D01*
X162271Y167529D01*
X162298Y167622D01*
Y167627D01*
X162304Y167633D01*
Y167649D01*
X162309Y167671D01*
X162320Y167726D01*
X162331Y167802D01*
X162342Y167900D01*
X162347Y168010D01*
X162358Y168135D01*
Y168277D01*
Y168283D01*
Y168294D01*
Y168315D01*
Y168343D01*
Y168376D01*
X162353Y168414D01*
Y168507D01*
X162342Y168610D01*
X162331Y168719D01*
X162320Y168829D01*
X162298Y168932D01*
Y168938D01*
Y168943D01*
X162287Y168976D01*
X162271Y169025D01*
X162255Y169085D01*
X162227Y169156D01*
X162200Y169227D01*
X162162Y169293D01*
X162124Y169358D01*
X162118Y169364D01*
X162102Y169386D01*
X162080Y169413D01*
X162047Y169451D01*
X162003Y169489D01*
X161954Y169527D01*
X161894Y169560D01*
X161834Y169593D01*
X161829Y169598D01*
X161801Y169604D01*
X161769Y169615D01*
X161720Y169631D01*
X161659Y169648D01*
X161594Y169659D01*
X161518Y169664D01*
X161436Y169669D01*
D02*
G37*
G36*
X134223Y169626D02*
X133622D01*
Y168501D01*
X134288D01*
X134348Y168507D01*
X134414Y168517D01*
X134496Y168534D01*
X134572Y168561D01*
X134649Y168594D01*
X134720Y168643D01*
X134725Y168649D01*
X134747Y168670D01*
X134774Y168703D01*
X134807Y168752D01*
X134840Y168812D01*
X134867Y168889D01*
X134889Y168982D01*
X134895Y169085D01*
Y169091D01*
Y169096D01*
Y169134D01*
X134884Y169184D01*
X134873Y169244D01*
X134856Y169315D01*
X134824Y169380D01*
X134785Y169446D01*
X134731Y169500D01*
X134725Y169506D01*
X134703Y169522D01*
X134660Y169538D01*
X134611Y169566D01*
X134540Y169588D01*
X134452Y169604D01*
X134343Y169620D01*
X134223Y169626D01*
D02*
G37*
G36*
X134316Y168091D02*
X133622D01*
Y166939D01*
X133628D01*
X133650Y166934D01*
X133677Y166929D01*
X133721Y166923D01*
X133764Y166918D01*
X133819Y166912D01*
X133939Y166901D01*
X133966D01*
X133999Y166896D01*
X134081D01*
X134130Y166890D01*
X134299D01*
X134348Y166896D01*
X134403Y166901D01*
X134463Y166907D01*
X134523Y166918D01*
X134583Y166929D01*
X134589D01*
X134611Y166934D01*
X134632Y166945D01*
X134671Y166956D01*
X134747Y166994D01*
X134785Y167016D01*
X134818Y167043D01*
X134824Y167049D01*
X134834Y167060D01*
X134845Y167076D01*
X134867Y167098D01*
X134905Y167158D01*
X134944Y167234D01*
Y167240D01*
X134949Y167256D01*
X134955Y167278D01*
X134966Y167305D01*
X134971Y167343D01*
X134976Y167387D01*
X134982Y167491D01*
Y167496D01*
Y167502D01*
Y167518D01*
Y167540D01*
X134971Y167595D01*
X134960Y167660D01*
X134944Y167731D01*
X134911Y167808D01*
X134873Y167879D01*
X134818Y167939D01*
X134813Y167944D01*
X134785Y167961D01*
X134747Y167988D01*
X134687Y168015D01*
X134605Y168042D01*
X134561Y168059D01*
X134507Y168070D01*
X134447Y168075D01*
X134387Y168086D01*
X134316Y168091D01*
D02*
G37*
G36*
X149522Y168719D02*
X149473D01*
X149434Y168714D01*
X149396Y168709D01*
X149347Y168703D01*
X149254Y168681D01*
X149249D01*
X149232Y168676D01*
X149211Y168665D01*
X149178Y168649D01*
X149145Y168632D01*
X149107Y168605D01*
X149069Y168578D01*
X149030Y168539D01*
X149025Y168534D01*
X149014Y168523D01*
X148998Y168501D01*
X148976Y168468D01*
X148954Y168430D01*
X148927Y168386D01*
X148905Y168332D01*
X148883Y168272D01*
Y168266D01*
X148872Y168239D01*
X148867Y168206D01*
X148856Y168152D01*
X148845Y168091D01*
X148839Y168015D01*
X148828Y167928D01*
Y167829D01*
Y167824D01*
Y167818D01*
Y167802D01*
Y167780D01*
Y167731D01*
X148834Y167666D01*
X148839Y167589D01*
X148845Y167513D01*
X148856Y167436D01*
X148872Y167365D01*
Y167360D01*
X148883Y167338D01*
X148889Y167305D01*
X148905Y167267D01*
X148943Y167180D01*
X148970Y167136D01*
X148998Y167098D01*
X149003Y167092D01*
X149014Y167081D01*
X149030Y167065D01*
X149058Y167043D01*
X149118Y166999D01*
X149156Y166983D01*
X149200Y166967D01*
X149205D01*
X149222Y166961D01*
X149243Y166956D01*
X149276D01*
X149314Y166950D01*
X149364Y166945D01*
X149462Y166939D01*
X149549D01*
X149587Y166945D01*
X149636D01*
X149740Y166956D01*
X149746D01*
X149768Y166961D01*
X149795Y166967D01*
X149833Y166972D01*
X149877Y166978D01*
X149931Y166989D01*
X150041Y167005D01*
Y168638D01*
X150035D01*
X150024Y168643D01*
X149997Y168649D01*
X149970Y168654D01*
X149931Y168665D01*
X149888Y168670D01*
X149789Y168692D01*
X149784D01*
X149768Y168698D01*
X149740Y168703D01*
X149707Y168709D01*
X149664D01*
X149620Y168714D01*
X149522Y168719D01*
D02*
G37*
%LPD*%
D10*
X47021Y206613D02*
G03*
X73503Y194536I12979J-6613D01*
G01*
X249429Y67500D02*
G03*
X249429Y62500I0J-2500D01*
G01*
X40551Y48031D02*
G03*
X40551Y48031I-13386J0D01*
G01*
X40157Y19291D02*
G03*
X40157Y19291I-13386J0D01*
G01*
X189488Y127913D02*
X209173D01*
Y157913D01*
X189488Y127913D02*
Y157913D01*
X209173D01*
X22122Y107543D02*
X25122D01*
X29882Y100000D02*
Y107087D01*
X17382Y100000D02*
Y107087D01*
X264130Y45213D02*
X267630D01*
X253630D02*
X255205D01*
X256535Y14134D02*
Y14173D01*
Y4882D02*
Y14134D01*
Y14173D01*
X193425Y15118D02*
X251969D01*
X186000Y5000D02*
Y15000D01*
X104000Y5000D02*
Y15000D01*
X186000D01*
X104000Y5000D02*
X186000D01*
X174000Y195000D02*
Y205000D01*
X256000Y195000D02*
Y205000D01*
X174000Y195000D02*
X256000D01*
X174000Y205000D02*
X256000D01*
X68000D02*
X170000D01*
X68000Y195000D02*
Y205000D01*
Y195000D02*
X170000D01*
Y205000D01*
X193425Y4882D02*
X256535D01*
X193425D02*
Y15118D01*
X249429Y67500D02*
Y85472D01*
Y44528D02*
Y62500D01*
X109350Y44528D02*
X249350Y44528D01*
X109272Y44528D02*
Y85472D01*
X109350D02*
X249350Y85472D01*
X51181Y50394D02*
X51968D01*
X51181D02*
Y65354D01*
X56299D01*
X72835D02*
X77953D01*
Y50394D02*
Y65354D01*
X77165Y50394D02*
X77953D01*
X35000Y181158D02*
Y200842D01*
X5000D02*
X35000D01*
X5000Y181158D02*
X35000D01*
X5000D02*
Y200842D01*
X35000Y147158D02*
Y166842D01*
X5000D02*
X35000D01*
X5000Y147158D02*
X35000D01*
X5000D02*
Y166842D01*
X25000Y119803D02*
Y139488D01*
X5000D02*
X25000D01*
X5000Y119803D02*
X25000D01*
X5000D02*
Y139488D01*
X62598Y140551D02*
Y180591D01*
X52362Y140551D02*
Y180591D01*
Y140551D02*
X62598D01*
X52362Y180591D02*
X62598D01*
X265748Y159843D02*
Y189646D01*
X255512Y159606D02*
Y189646D01*
Y159646D02*
X265748D01*
X255512Y189646D02*
X265748D01*
X40748Y39764D02*
X70551D01*
X40748Y29528D02*
X70787D01*
X70748D02*
Y39764D01*
X40748Y29528D02*
Y39764D01*
X154724Y120472D02*
X187008D01*
X154724Y106299D02*
Y120472D01*
Y106299D02*
X187008D01*
Y120472D01*
X105512Y99803D02*
Y132087D01*
X91339D02*
X105512D01*
X91339Y99803D02*
Y132087D01*
Y99803D02*
X105512D01*
X75653Y167398D02*
Y170398D01*
X68110Y162638D02*
X75197D01*
X68110Y175138D02*
X75197D01*
X258736Y57811D02*
X261736D01*
X253976Y58268D02*
Y65354D01*
X266476Y58268D02*
Y65354D01*
X91402Y57555D02*
Y60555D01*
X83858Y52795D02*
X90945D01*
X83858Y65295D02*
X90945D01*
X469Y46850D02*
X12992D01*
Y24016D02*
Y46850D01*
X469Y24016D02*
X12992D01*
X469D02*
Y46850D01*
X261417Y107972D02*
Y115847D01*
X237008Y107972D02*
Y115847D01*
X240158Y99705D02*
X257087D01*
X240158Y124114D02*
X258268D01*
X83465Y30315D02*
X91339D01*
X83465Y5906D02*
X91339D01*
X99606Y9055D02*
Y25984D01*
X75197Y9055D02*
Y27165D01*
X227646Y143850D02*
Y149850D01*
X228646Y143850D02*
Y149850D01*
X227646D02*
X240646D01*
Y143850D02*
Y149850D01*
X227646Y143850D02*
X240646D01*
X90244Y162354D02*
Y168354D01*
X91244Y162354D02*
Y168354D01*
X90244D02*
X103244D01*
Y162354D02*
Y168354D01*
X90244Y162354D02*
X103244D01*
X90244Y153988D02*
Y159988D01*
X91244Y153988D02*
Y159988D01*
X90244D02*
X103244D01*
Y153988D02*
Y159988D01*
X90244Y153988D02*
X103244D01*
X90244Y146114D02*
Y152114D01*
X91244Y146114D02*
Y152114D01*
X90244D02*
X103244D01*
Y146114D02*
Y152114D01*
X90244Y146114D02*
X103244D01*
X-7087Y80709D02*
X-5512Y79134D01*
X-7087Y77559D02*
X-5512Y79134D01*
X-10236D02*
X-5512D01*
Y92913D02*
X-3543D01*
X-5512Y65354D02*
X-3543D01*
X20276Y86221D02*
Y87402D01*
X13386Y63779D02*
X14173D01*
X197Y63386D02*
Y94882D01*
X2953Y63386D02*
Y94882D01*
X-2165Y63386D02*
X3937D01*
X-2165Y94882D02*
X3937D01*
X-2165Y63386D02*
Y94882D01*
X13386Y94488D02*
X14173D01*
X20276Y70866D02*
Y72047D01*
X-10236Y100394D02*
X-5512D01*
Y57874D02*
Y100394D01*
X-10236Y57874D02*
X-5512D01*
X74016Y103937D02*
X74803Y104724D01*
X46457Y103937D02*
X47244D01*
X46457D02*
Y104724D01*
X46457Y131496D02*
Y132283D01*
X47244D01*
X74016Y132283D02*
X74803D01*
Y131496D02*
Y132283D01*
X64110Y148618D02*
Y161618D01*
X72110D01*
Y148618D02*
Y161618D01*
X64110Y148618D02*
X72110D01*
X106098Y177130D02*
X119098D01*
Y169130D02*
Y177130D01*
X106098Y169130D02*
X119098D01*
X106098D02*
Y177130D01*
Y167681D02*
X119098D01*
Y159681D02*
Y167681D01*
X106098Y159681D02*
X119098D01*
X106098D02*
Y167681D01*
X29327Y133795D02*
X42327D01*
X29327D02*
Y141795D01*
X42327D01*
Y133795D02*
Y141795D01*
X31689Y88449D02*
X44689D01*
Y80449D02*
Y88449D01*
X31689Y80449D02*
X44689D01*
X31689D02*
Y88449D01*
Y79787D02*
X44689D01*
Y71787D02*
Y79787D01*
X31689Y71787D02*
X44689D01*
X31689D02*
Y79787D01*
Y71323D02*
X44689D01*
Y63323D02*
Y71323D01*
X31689Y63323D02*
X44689D01*
X31689D02*
Y71323D01*
X81827Y101374D02*
Y114374D01*
X89827D01*
Y101374D02*
Y114374D01*
X81827Y101374D02*
X89827D01*
X236945Y176177D02*
Y189177D01*
X244945D01*
Y176177D02*
Y189177D01*
X236945Y176177D02*
X244945D01*
X225921Y176374D02*
Y189374D01*
X233921D01*
Y176374D02*
Y189374D01*
X225921Y176374D02*
X233921D01*
X246394Y160035D02*
Y173035D01*
X254394D01*
Y160035D02*
Y173035D01*
X246394Y160035D02*
X254394D01*
X141138Y34976D02*
X154138D01*
X141138D02*
Y42976D01*
X154138D01*
Y34976D02*
Y42976D01*
X235626Y94157D02*
X248626D01*
Y86158D02*
Y94157D01*
X235626Y86158D02*
X248626D01*
X235626D02*
Y94157D01*
X89957Y169622D02*
X102957D01*
X89957D02*
Y177622D01*
X102957D01*
Y169622D02*
Y177622D01*
X157673Y86945D02*
X170673D01*
X157673D02*
Y94945D01*
X170673D01*
Y86945D02*
Y94945D01*
X227752Y134976D02*
X240752D01*
X227752D02*
Y142976D01*
X240752D01*
Y134976D02*
Y142976D01*
X258598Y71059D02*
Y84059D01*
X266598D01*
Y71059D02*
Y84059D01*
X258598Y71059D02*
X266598D01*
X8205Y106098D02*
Y119098D01*
X16205D01*
Y106098D02*
Y119098D01*
X8205Y106098D02*
X16205D01*
X266598Y84839D02*
Y97839D01*
X258598Y84839D02*
X266598D01*
X258598D02*
Y97839D01*
X266598D01*
X111874Y16335D02*
Y29335D01*
X103874Y16335D02*
X111874D01*
X103874D02*
Y29335D01*
X111874D01*
X96787Y52555D02*
Y65555D01*
X104787D01*
Y52555D02*
Y65555D01*
X96787Y52555D02*
X104787D01*
X1965Y104000D02*
X14965D01*
Y96000D02*
Y104000D01*
X1965Y96000D02*
X14965D01*
X1965D02*
Y104000D01*
X257937Y84839D02*
Y97839D01*
X249937Y84839D02*
X257937D01*
X249937D02*
Y97839D01*
X257937D01*
X103736Y30252D02*
X116736D01*
X103736D02*
Y38252D01*
X116736D01*
Y30252D02*
Y38252D01*
X47339Y88449D02*
X60339D01*
Y80449D02*
Y88449D01*
X47339Y80449D02*
X60339D01*
X47339D02*
Y88449D01*
X133921Y23421D02*
Y36421D01*
X125921Y23421D02*
X133921D01*
X125921D02*
Y36421D01*
X133921D01*
Y15744D02*
Y28744D01*
X125921Y15744D02*
X133921D01*
X125921D02*
Y28744D01*
X133921D01*
X39433Y100193D02*
Y113193D01*
X31433Y100193D02*
X39433D01*
X31433D02*
Y113193D01*
X39433D01*
X24953Y80721D02*
Y91720D01*
Y80721D02*
X30953D01*
Y91720D01*
X24953D02*
X30953D01*
Y68910D02*
Y79909D01*
X24953D02*
X30953D01*
X24953Y68910D02*
Y79909D01*
Y68910D02*
X30953D01*
X20047Y39961D02*
X24047D01*
X22047Y37961D02*
Y41961D01*
X29890Y27362D02*
X33890D01*
X31890Y25362D02*
Y29362D01*
X81559Y81976D02*
Y95976D01*
X73559D02*
X81559D01*
X73559Y81976D02*
Y95976D01*
Y81976D02*
X81559D01*
X81827Y115047D02*
Y129047D01*
Y115047D02*
X89827D01*
Y129047D01*
X81827D02*
X89827D01*
X72898Y81976D02*
Y95976D01*
X64898D02*
X72898D01*
X64898Y81976D02*
Y95976D01*
Y81976D02*
X72898D01*
X46445Y89110D02*
X60445D01*
Y97110D01*
X46445D02*
X60445D01*
X46445Y89110D02*
Y97110D01*
X5055Y167016D02*
Y181016D01*
Y167016D02*
X13055D01*
Y181016D01*
X5055D02*
X13055D01*
X91819Y140614D02*
X105819D01*
X91819Y132614D02*
Y140614D01*
Y132614D02*
X105819D01*
Y140614D01*
X91622Y99276D02*
X105622D01*
X91622Y91276D02*
Y99276D01*
Y91276D02*
X105622D01*
Y99276D01*
X254394Y175284D02*
Y189284D01*
X246394D02*
X254394D01*
X246394Y175284D02*
Y189284D01*
Y175284D02*
X254394D01*
X147724Y23685D02*
X161724D01*
X147724Y15685D02*
Y23685D01*
Y15685D02*
X161724D01*
Y23685D01*
X116079Y15835D02*
Y29835D01*
Y15835D02*
X124079D01*
Y29835D01*
X116079D02*
X124079D01*
X135764Y15835D02*
Y29835D01*
Y15835D02*
X143764D01*
Y29835D01*
X135764D02*
X143764D01*
X5205Y209512D02*
X19205D01*
X5205Y201512D02*
Y209512D01*
Y201512D02*
X19205D01*
Y209512D01*
X172134Y86945D02*
X186134D01*
Y94945D01*
X172134D02*
X186134D01*
X172134Y86945D02*
Y94945D01*
X154811Y34976D02*
X168811D01*
Y42976D01*
X154811D02*
X168811D01*
X154811Y34976D02*
Y42976D01*
X169378D02*
X183378D01*
X169378Y34976D02*
Y42976D01*
Y34976D02*
X183378D01*
Y42976D01*
X156780Y96787D02*
X170780D01*
Y104787D01*
X156780D02*
X170780D01*
X156780Y96787D02*
Y104787D01*
X88646Y161898D02*
Y175898D01*
X80646D02*
X88646D01*
X80646Y161898D02*
Y175898D01*
Y161898D02*
X88646D01*
X172134Y104787D02*
X186134D01*
X172134Y96787D02*
Y104787D01*
Y96787D02*
X186134D01*
Y104787D01*
X253630Y53213D02*
X267630D01*
X253630Y45213D02*
Y53213D01*
X264130Y45213D02*
X265880D01*
X267630D02*
Y53213D01*
X82221Y67016D02*
Y81016D01*
Y67016D02*
X90220D01*
Y81016D01*
X82221D02*
X90220D01*
X16819Y119748D02*
X30819D01*
X16819Y111748D02*
Y119748D01*
Y111748D02*
X30819D01*
Y119748D01*
X31780Y97110D02*
X45779D01*
X31780Y89110D02*
Y97110D01*
Y89110D02*
X45779D01*
Y97110D01*
X257937Y70165D02*
Y84165D01*
X249937D02*
X257937D01*
X249937Y70165D02*
Y84165D01*
Y70165D02*
X257937D01*
X88520Y37488D02*
Y51488D01*
Y37488D02*
X96520D01*
Y51488D01*
X88520D02*
X96520D01*
X81559Y67016D02*
Y81016D01*
X73559D02*
X81559D01*
X73559Y67016D02*
Y81016D01*
Y67016D02*
X81559D01*
X178433Y17653D02*
X192433D01*
Y25653D01*
X178433D02*
X192433D01*
X178433Y17653D02*
Y25653D01*
X177622Y20165D02*
Y34165D01*
X169622D02*
X177622D01*
X169622Y20165D02*
Y34165D01*
Y20165D02*
X177622D01*
X82221Y81976D02*
Y95976D01*
Y81976D02*
X90220D01*
Y95976D01*
X82221D02*
X90220D01*
X42063Y41032D02*
Y55032D01*
Y41032D02*
X50063D01*
Y55032D01*
X42063D02*
X50063D01*
X79465Y37488D02*
Y51488D01*
Y37488D02*
X87465D01*
Y51488D01*
X79465D02*
X87465D01*
X178433Y26315D02*
X192433D01*
Y34315D01*
X178433D02*
X192433D01*
X178433Y26315D02*
Y34315D01*
X91819Y194158D02*
X105819D01*
X91819Y186158D02*
Y194158D01*
Y186158D02*
X105819D01*
Y194158D01*
X154811Y26315D02*
X168811D01*
Y34315D01*
X154811D02*
X168811D01*
X154811Y26315D02*
Y34315D01*
X227646Y134315D02*
X241646D01*
X227646Y126315D02*
Y134315D01*
Y126315D02*
X241646D01*
Y134315D01*
X112000Y1000D02*
Y2312D01*
Y1656D01*
X108064D01*
X108720Y1000D01*
X248000Y209000D02*
Y207688D01*
Y208344D01*
X251936D01*
X251280Y209000D01*
X162000D02*
Y207688D01*
Y208344D01*
X165936D01*
X165280Y209000D01*
X105512Y158266D02*
X108136D01*
X106824D01*
Y154331D01*
X105905Y147244D02*
Y151180D01*
X107873D01*
X108529Y150524D01*
Y149212D01*
X107873Y148556D01*
X105905D01*
X107217D02*
X108529Y147244D01*
X216929Y38844D02*
Y36220D01*
X214305Y38844D01*
X213649D01*
X212993Y38188D01*
Y36876D01*
X213649Y36220D01*
X212993Y42780D02*
Y40156D01*
X214961D01*
X214305Y41468D01*
Y42124D01*
X214961Y42780D01*
X216273D01*
X216929Y42124D01*
Y40812D01*
X216273Y40156D01*
X122835Y36220D02*
Y37532D01*
Y36876D01*
X118899D01*
X119555Y36220D01*
X118899Y42124D02*
X119555Y40812D01*
X120867Y39500D01*
X122179D01*
X122835Y40156D01*
Y41468D01*
X122179Y42124D01*
X121523D01*
X120867Y41468D01*
Y39500D01*
X115354Y87795D02*
Y89107D01*
Y88451D01*
X111419D01*
X112074Y87795D01*
X115354Y93043D02*
X111419D01*
X113386Y91075D01*
Y93699D01*
X155905Y87008D02*
Y88320D01*
Y87664D01*
X151970D01*
X152626Y87008D01*
Y90288D02*
X151970Y90944D01*
Y92256D01*
X152626Y92911D01*
X155250D01*
X155905Y92256D01*
Y90944D01*
X155250Y90288D01*
X152626D01*
X201970Y90419D02*
Y87795D01*
X203938D01*
X203282Y89107D01*
Y89763D01*
X203938Y90419D01*
X205250D01*
X205906Y89763D01*
Y88451D01*
X205250Y87795D01*
X3149Y123228D02*
Y127164D01*
X1181Y125196D01*
X3805D01*
X787Y136744D02*
X1443Y137400D01*
X2755D01*
X3411Y136744D01*
Y136088D01*
X2755Y135432D01*
X2099D01*
X2755D01*
X3411Y134776D01*
Y134121D01*
X2755Y133465D01*
X1443D01*
X787Y134121D01*
X29395Y122835D02*
X26772D01*
X29395Y125459D01*
Y126114D01*
X28740Y126770D01*
X27428D01*
X26772Y126114D01*
X16535Y172833D02*
X17847D01*
X17191D01*
Y168898D01*
X16535D01*
X17847D01*
X22439Y172177D02*
X21783Y172833D01*
X20471D01*
X19815Y172177D01*
Y169554D01*
X20471Y168898D01*
X21783D01*
X22439Y169554D01*
X26375Y172177D02*
X25719Y172833D01*
X24407D01*
X23751Y172177D01*
Y171521D01*
X24407Y170865D01*
X25719D01*
X26375Y170210D01*
Y169554D01*
X25719Y168898D01*
X24407D01*
X23751Y169554D01*
X27687Y168898D02*
Y172833D01*
X29655D01*
X30310Y172177D01*
Y170865D01*
X29655Y170210D01*
X27687D01*
X31622Y168898D02*
X32934D01*
X32278D01*
Y172833D01*
X31622Y172177D01*
X21654Y206692D02*
X22965D01*
X22309D01*
Y202756D01*
X21654D01*
X22965D01*
X27557Y206036D02*
X26901Y206692D01*
X25589D01*
X24933Y206036D01*
Y203412D01*
X25589Y202756D01*
X26901D01*
X27557Y203412D01*
X31493Y206036D02*
X30837Y206692D01*
X29525D01*
X28869Y206036D01*
Y205380D01*
X29525Y204724D01*
X30837D01*
X31493Y204068D01*
Y203412D01*
X30837Y202756D01*
X29525D01*
X28869Y203412D01*
X32805Y202756D02*
Y206692D01*
X34773D01*
X35429Y206036D01*
Y204724D01*
X34773Y204068D01*
X32805D01*
X70080Y12992D02*
X73360D01*
X74016Y13648D01*
Y14960D01*
X73360Y15616D01*
X70080D01*
X74016Y16928D02*
Y18896D01*
X73360Y19552D01*
X72704Y18896D01*
Y17584D01*
X72048Y16928D01*
X71392Y17584D01*
Y19552D01*
X74016Y22831D02*
Y21520D01*
X73360Y20864D01*
X72048D01*
X71392Y21520D01*
Y22831D01*
X72048Y23487D01*
X72704D01*
Y20864D01*
X71392Y24799D02*
X74016D01*
X72704D01*
X72048Y25455D01*
X71392Y26111D01*
Y26767D01*
X230315Y103937D02*
X226379D01*
Y105905D01*
X227035Y106561D01*
X228347D01*
X229003Y105905D01*
Y103937D01*
Y105249D02*
X230315Y106561D01*
Y109841D02*
Y108529D01*
X229659Y107873D01*
X228347D01*
X227691Y108529D01*
Y109841D01*
X228347Y110497D01*
X229003D01*
Y107873D01*
X230315Y111809D02*
Y113776D01*
X229659Y114432D01*
X229003Y113776D01*
Y112464D01*
X228347Y111809D01*
X227691Y112464D01*
Y114432D01*
X230315Y117712D02*
Y116400D01*
X229659Y115744D01*
X228347D01*
X227691Y116400D01*
Y117712D01*
X228347Y118368D01*
X229003D01*
Y115744D01*
X227035Y120336D02*
X227691D01*
Y119680D01*
Y120992D01*
Y120336D01*
X229659D01*
X230315Y120992D01*
X117584Y192912D02*
X116272D01*
X116929D01*
Y189632D01*
X116272Y188976D01*
X115617D01*
X114961Y189632D01*
X120864Y188976D02*
Y192912D01*
X118896Y190944D01*
X121520D01*
X215616Y193306D02*
X214304D01*
X214960D01*
Y190026D01*
X214304Y189370D01*
X213648D01*
X212992Y190026D01*
X216928Y192650D02*
X217584Y193306D01*
X218896D01*
X219552Y192650D01*
Y191994D01*
X218896Y191338D01*
X218240D01*
X218896D01*
X219552Y190682D01*
Y190026D01*
X218896Y189370D01*
X217584D01*
X216928Y190026D01*
X165616Y20471D02*
X164304D01*
X164960D01*
Y17191D01*
X164304Y16535D01*
X163648D01*
X162992Y17191D01*
X166928Y16535D02*
X168240D01*
X167584D01*
Y20471D01*
X166928Y19815D01*
X61154Y27952D02*
X60105D01*
X60629D01*
Y25328D01*
X60105Y24803D01*
X59580D01*
X59055Y25328D01*
X62204Y24803D02*
Y27952D01*
X63778D01*
X64303Y27427D01*
Y26377D01*
X63778Y25853D01*
X62204D01*
X66927Y24803D02*
Y27952D01*
X65352Y26377D01*
X67451D01*
X67585Y145274D02*
X66272D01*
X66928D01*
Y141995D01*
X66272Y141339D01*
X65617D01*
X64961Y141995D01*
X68896Y141339D02*
Y145274D01*
X70864D01*
X71520Y144618D01*
Y143306D01*
X70864Y142650D01*
X68896D01*
X72832Y144618D02*
X73488Y145274D01*
X74800D01*
X75456Y144618D01*
Y143962D01*
X74800Y143306D01*
X74144D01*
X74800D01*
X75456Y142650D01*
Y141995D01*
X74800Y141339D01*
X73488D01*
X72832Y141995D01*
X12860Y144881D02*
X11548D01*
X12204D01*
Y141601D01*
X11548Y140945D01*
X10892D01*
X10236Y141601D01*
X14172Y140945D02*
Y144881D01*
X16140D01*
X16796Y144225D01*
Y142913D01*
X16140Y142257D01*
X14172D01*
X20731Y140945D02*
X18108D01*
X20731Y143569D01*
Y144225D01*
X20076Y144881D01*
X18764D01*
X18108Y144225D01*
X260498Y195668D02*
X259186D01*
X259842D01*
Y192388D01*
X259186Y191732D01*
X258530D01*
X257874Y192388D01*
X261810Y191732D02*
Y195668D01*
X263778D01*
X264434Y195012D01*
Y193700D01*
X263778Y193044D01*
X261810D01*
X265745Y191732D02*
X267057D01*
X266402D01*
Y195668D01*
X265745Y195012D01*
X26246Y66928D02*
X24934D01*
X25590D01*
Y63648D01*
X24934Y62992D01*
X24278D01*
X23622Y63648D01*
X27558Y66928D02*
X30182D01*
Y66272D01*
X27558Y63648D01*
Y62992D01*
X39238Y159841D02*
X37926D01*
X38582D01*
Y156562D01*
X37926Y155905D01*
X37270D01*
X36614Y156562D01*
X43174Y159841D02*
X41862Y159185D01*
X40550Y157873D01*
Y156562D01*
X41206Y155905D01*
X42518D01*
X43174Y156562D01*
Y157217D01*
X42518Y157873D01*
X40550D01*
X39632Y191731D02*
X38320D01*
X38976D01*
Y188451D01*
X38320Y187795D01*
X37664D01*
X37008Y188451D01*
X43567Y191731D02*
X40944D01*
Y189763D01*
X42255Y190419D01*
X42911D01*
X43567Y189763D01*
Y188451D01*
X42911Y187795D01*
X41600D01*
X40944Y188451D01*
X225459Y20865D02*
X224147D01*
X224802D01*
Y17585D01*
X224147Y16929D01*
X223491D01*
X222835Y17585D01*
X229394Y16929D02*
X226770D01*
X229394Y19553D01*
Y20209D01*
X228738Y20865D01*
X227426D01*
X226770Y20209D01*
D11*
X79134Y103543D02*
G03*
X79134Y103543I-394J0D01*
G01*
D12*
X9646Y79134D02*
X10433D01*
D13*
X7480Y104724D02*
Y119291D01*
X1969Y104724D02*
Y119291D01*
Y104724D02*
X7480D01*
X240158Y99606D02*
X249924D01*
X235357Y94095D02*
X249924D01*
Y99606D01*
X178189Y155274D02*
X180813D01*
X179501D01*
Y151339D01*
X182125D02*
Y155274D01*
X184093D01*
X184748Y154618D01*
Y153306D01*
X184093Y152650D01*
X182125D01*
X186061Y151339D02*
X187372D01*
X186716D01*
Y155274D01*
X186061Y154618D01*
X211457Y154881D02*
X214081D01*
X212769D01*
Y150945D01*
X215392D02*
Y154881D01*
X217360D01*
X218016Y154225D01*
Y152913D01*
X217360Y152257D01*
X215392D01*
X221952Y150945D02*
X219328D01*
X221952Y153569D01*
Y154225D01*
X221296Y154881D01*
X219984D01*
X219328Y154225D01*
X176614Y144841D02*
X179238D01*
X177926D01*
Y140905D01*
X180550D02*
Y144841D01*
X182518D01*
X183174Y144185D01*
Y142873D01*
X182518Y142217D01*
X180550D01*
X184486Y144185D02*
X185142Y144841D01*
X186453D01*
X187109Y144185D01*
Y143529D01*
X186453Y142873D01*
X185798D01*
X186453D01*
X187109Y142217D01*
Y141561D01*
X186453Y140905D01*
X185142D01*
X184486Y141561D01*
X211653Y145432D02*
X214277D01*
X212965D01*
Y141496D01*
X215589D02*
Y145432D01*
X217557D01*
X218213Y144776D01*
Y143464D01*
X217557Y142808D01*
X215589D01*
X221493Y141496D02*
Y145432D01*
X219525Y143464D01*
X222149D01*
X176811Y134605D02*
X179435D01*
X178123D01*
Y130669D01*
X180747D02*
Y134605D01*
X182715D01*
X183371Y133949D01*
Y132637D01*
X182715Y131981D01*
X180747D01*
X187306Y134605D02*
X184683D01*
Y132637D01*
X185994Y133293D01*
X186650D01*
X187306Y132637D01*
Y131325D01*
X186650Y130669D01*
X185338D01*
X184683Y131325D01*
X201614Y2126D02*
Y3459D01*
Y2792D01*
X197616D01*
X198282Y2126D01*
X1575Y183465D02*
X2908D01*
X2241D01*
Y187463D01*
X1575Y186797D01*
Y149606D02*
X2908D01*
X2241D01*
Y153605D01*
X1575Y152939D01*
X26378Y134646D02*
X27711D01*
X27044D01*
Y138644D01*
X26378Y137978D01*
X49606Y173976D02*
X50939D01*
X50273D01*
Y177975D01*
X49606Y177309D01*
X267323Y183465D02*
X268656D01*
X267989D01*
Y187463D01*
X267323Y186797D01*
X47362Y26772D02*
Y28105D01*
Y27438D01*
X43363D01*
X44030Y26772D01*
X198293Y124802D02*
X196981D01*
X197637D01*
Y121522D01*
X196981Y120866D01*
X196325D01*
X195669Y121522D01*
X199605Y124146D02*
X200261Y124802D01*
X201573D01*
X202229Y124146D01*
Y123490D01*
X201573Y122834D01*
X202229Y122178D01*
Y121522D01*
X201573Y120866D01*
X200261D01*
X199605Y121522D01*
Y122178D01*
X200261Y122834D01*
X199605Y123490D01*
Y124146D01*
X200261Y122834D02*
X201573D01*
X20472Y105511D02*
Y102559D01*
X21063Y101969D01*
X22243D01*
X22834Y102559D01*
Y105511D01*
X26376D02*
X24015D01*
Y103740D01*
X25195Y104330D01*
X25786D01*
X26376Y103740D01*
Y102559D01*
X25786Y101969D01*
X24605D01*
X24015Y102559D01*
D14*
X3937Y119291D02*
X5512D01*
X235357Y96063D02*
Y97638D01*
M02*
