G04*
G04 #@! TF.GenerationSoftware,Altium Limited,Altium Designer,18.0.7 (293)*
G04*
G04 Layer_Physical_Order=1*
G04 Layer_Color=255*
%FSLAX25Y25*%
%MOIN*%
G70*
G01*
G75*
%ADD15R,0.02165X0.03937*%
%ADD16R,0.13780X0.08661*%
%ADD17R,0.02362X0.08661*%
%ADD18R,0.09843X0.10236*%
%ADD19R,0.10236X0.09843*%
%ADD20R,0.03937X0.02165*%
%ADD21R,0.10630X0.07874*%
%ADD22R,0.03150X0.03150*%
%ADD23R,0.05315X0.01575*%
%ADD24R,0.05512X0.06299*%
%ADD25R,0.01968X0.05906*%
%ADD26R,0.05906X0.01968*%
%ADD27R,0.02700X0.02200*%
%ADD28R,0.02200X0.02700*%
%ADD29R,0.05118X0.02756*%
%ADD30R,0.02756X0.05118*%
%ADD31R,0.03543X0.02362*%
%ADD32R,0.05118X0.03543*%
%ADD33R,0.03543X0.05118*%
%ADD55C,0.07480*%
%ADD56R,0.07480X0.07480*%
%ADD61R,0.07480X0.07480*%
%ADD69C,0.04000*%
%ADD70C,0.01181*%
%ADD71C,0.06693*%
%ADD72R,0.06693X0.06693*%
%ADD73C,0.12598*%
%ADD74O,0.06299X0.07874*%
%ADD75R,0.06299X0.07874*%
%ADD76C,0.29134*%
%ADD77R,0.06693X0.06693*%
%ADD78O,0.07874X0.06299*%
%ADD79R,0.07874X0.06299*%
G04:AMPARAMS|DCode=80|XSize=78.74mil|YSize=47.24mil|CornerRadius=14.17mil|HoleSize=0mil|Usage=FLASHONLY|Rotation=0.000|XOffset=0mil|YOffset=0mil|HoleType=Round|Shape=RoundedRectangle|*
%AMROUNDEDRECTD80*
21,1,0.07874,0.01890,0,0,0.0*
21,1,0.05039,0.04724,0,0,0.0*
1,1,0.02835,0.02520,-0.00945*
1,1,0.02835,-0.02520,-0.00945*
1,1,0.02835,-0.02520,0.00945*
1,1,0.02835,0.02520,0.00945*
%
%ADD80ROUNDEDRECTD80*%
%ADD81C,0.04724*%
%ADD82C,0.02362*%
G36*
X42913Y164961D02*
X52408D01*
X52474Y164460D01*
X52910Y163407D01*
X53604Y162502D01*
X53937Y162247D01*
Y158935D01*
X53604Y158679D01*
X53591Y158661D01*
X34646D01*
Y166142D01*
X33465Y167323D01*
X14961D01*
X13386Y165748D01*
Y158661D01*
X5906D01*
Y172047D01*
X35827D01*
X42913Y164961D01*
D02*
G37*
G36*
X159669Y194882D02*
X166535D01*
Y147638D01*
X159055D01*
Y195276D01*
X159669D01*
Y194882D01*
D02*
G37*
G36*
X253543Y161024D02*
X257449D01*
X257659Y160863D01*
X258712Y160426D01*
X259842Y160278D01*
X261417D01*
X262548Y160426D01*
X263601Y160863D01*
X263811Y161024D01*
X268504D01*
Y116535D01*
X234646D01*
X232283Y118898D01*
X232283Y122835D01*
X234646Y125197D01*
X236220Y125197D01*
X236221Y133465D01*
X240551D01*
Y144095D01*
Y149606D01*
X235039D01*
Y149213D01*
X233465D01*
Y144882D01*
X229528D01*
X226806Y144882D01*
Y154331D01*
X247244D01*
Y164961D01*
X253543D01*
Y161024D01*
D02*
G37*
G36*
X28016Y98327D02*
X28154Y97636D01*
X28545Y97049D01*
X28740Y96855D01*
Y95276D01*
X30319Y95276D01*
X32087Y93508D01*
Y89370D01*
X33071D01*
Y88189D01*
X31890D01*
Y87795D01*
X25232D01*
Y88708D01*
X25650Y89334D01*
X25834Y90256D01*
X25650Y91178D01*
X25128Y91959D01*
X24347Y92481D01*
X23425Y92664D01*
X22503Y92481D01*
X21722Y91959D01*
X21200Y91178D01*
X21017Y90256D01*
X21200Y89334D01*
X21619Y88708D01*
Y87795D01*
X13386D01*
Y74803D01*
X15354Y74803D01*
Y74606D01*
X18755D01*
X18895Y74512D01*
X19587Y74375D01*
X21422D01*
Y71280D01*
X21560Y70588D01*
X21951Y70002D01*
X22047Y69906D01*
X22047Y63386D01*
X27636D01*
X28072Y63095D01*
X28763Y62957D01*
X30883D01*
X31574Y63095D01*
X32009Y63386D01*
X38189D01*
X38189Y64960D01*
X38189Y74803D01*
X39370D01*
Y72047D01*
X44488D01*
Y73141D01*
X44875Y73459D01*
X45276Y73379D01*
X46197Y73562D01*
X46979Y74084D01*
X47459Y74803D01*
X57929Y74803D01*
X58364Y74512D01*
X59055Y74375D01*
X67913D01*
X68605Y74512D01*
X69002Y74778D01*
X69129Y74803D01*
X71422Y74803D01*
Y65354D01*
X55118D01*
X51181Y61417D01*
Y51575D01*
X48819Y49213D01*
X41732D01*
X35456Y55489D01*
Y55512D01*
X35364Y55973D01*
X35103Y56363D01*
X34713Y56624D01*
X34252Y56716D01*
X31102D01*
X30641Y56624D01*
X30251Y56363D01*
X29990Y55973D01*
X29898Y55512D01*
Y51204D01*
X29394D01*
X29278Y51181D01*
X25053D01*
X24936Y51204D01*
X1181D01*
Y95276D01*
X17618Y95276D01*
Y95079D01*
X25566D01*
X25886Y95079D01*
X25984Y95276D01*
X25984Y95276D01*
X25984Y95538D01*
Y99689D01*
X26457Y100162D01*
X28016D01*
Y98327D01*
D02*
G37*
G36*
X34252Y47244D02*
X29921Y42913D01*
Y37795D01*
X1181D01*
Y50000D01*
X24936D01*
X25378Y49661D01*
X26240Y49304D01*
X27165Y49182D01*
X28090Y49304D01*
X28952Y49661D01*
X29394Y50000D01*
X30709D01*
X31102Y50394D01*
Y55512D01*
X34252D01*
Y47244D01*
D02*
G37*
G36*
X79528Y43307D02*
X86614Y43307D01*
Y36220D01*
X74016Y36220D01*
X73622Y35827D01*
Y31228D01*
X73580Y30906D01*
X73407Y30709D01*
X62205Y30709D01*
Y40157D01*
X67716Y40157D01*
Y50394D01*
X79528D01*
Y43307D01*
D02*
G37*
G36*
X168110Y55118D02*
Y44882D01*
X169291Y43701D01*
Y33071D01*
X176378D01*
Y29134D01*
X167717D01*
Y27779D01*
X163779D01*
Y43701D01*
X160236Y47244D01*
Y55118D01*
X168110Y55118D01*
D02*
G37*
G36*
X61024Y41339D02*
X52756D01*
X50000Y38583D01*
Y30315D01*
X42520D01*
X33858Y21654D01*
X1181D01*
Y36591D01*
X29921D01*
X30038Y36614D01*
X31496D01*
Y38976D01*
X42126D01*
Y46850D01*
X48819D01*
X52756Y50787D01*
X61024D01*
Y41339D01*
D02*
G37*
G36*
X83465Y1181D02*
X1181D01*
Y20449D01*
X26715D01*
X26772Y20442D01*
X26828Y20449D01*
X33858D01*
X33858Y20449D01*
X33975Y20472D01*
X35039D01*
X43307Y28740D01*
X73622D01*
X74016Y29134D01*
Y29687D01*
X74095Y29748D01*
X74259Y29857D01*
X74281Y29890D01*
X74312Y29915D01*
X74485Y30112D01*
X74544Y30214D01*
X74622Y30303D01*
X74661Y30416D01*
X74720Y30518D01*
X74735Y30636D01*
X74774Y30748D01*
X74816Y31071D01*
X74811Y31150D01*
X74826Y31228D01*
Y34646D01*
X83465D01*
Y1181D01*
D02*
G37*
G36*
X193764Y36550D02*
Y18898D01*
X186614Y18898D01*
Y33415D01*
X186644Y33435D01*
X187166Y34216D01*
X187349Y35138D01*
X187166Y36059D01*
X186644Y36841D01*
X186614Y36861D01*
Y40945D01*
X189370D01*
X193764Y36550D01*
D02*
G37*
G36*
X133071Y24409D02*
X127165D01*
X125984Y23228D01*
Y16929D01*
X123622Y14567D01*
Y5906D01*
X116535D01*
Y21260D01*
X121260Y21260D01*
X123622Y23622D01*
X123819D01*
Y23819D01*
X124016Y24016D01*
X124016Y30709D01*
X133071Y30709D01*
X133071Y24409D01*
D02*
G37*
G36*
X162598Y26772D02*
Y26575D01*
X168504D01*
Y26575D01*
X168701Y26772D01*
X169685Y26772D01*
Y18504D01*
X173622Y14567D01*
Y5512D01*
X156299D01*
Y22441D01*
X160630Y26772D01*
X162598Y26772D01*
D02*
G37*
G36*
X137402Y32677D02*
X149606D01*
X153150Y29134D01*
Y16142D01*
X154724Y14567D01*
Y5512D01*
X145669D01*
Y14567D01*
X147638Y16535D01*
Y27559D01*
X145669Y29528D01*
X137402D01*
X134646Y32283D01*
X127165D01*
Y35433D01*
X134646D01*
X137402Y32677D01*
D02*
G37*
G36*
X143701Y5512D02*
X136221D01*
Y12598D01*
X132283Y16535D01*
X127504D01*
X127187Y16922D01*
X127189Y16929D01*
X127189Y16929D01*
Y21260D01*
X143701D01*
Y5512D01*
D02*
G37*
D15*
X27362Y108858D02*
D03*
X19882D02*
D03*
X27362Y98228D02*
D03*
X23622D02*
D03*
X19882D02*
D03*
X256496Y56496D02*
D03*
X263976D02*
D03*
X256496Y67126D02*
D03*
X260236D02*
D03*
X263976D02*
D03*
D16*
X64567Y70079D02*
D03*
D17*
X74567Y45669D02*
D03*
X69567D02*
D03*
X64567D02*
D03*
X59567D02*
D03*
X54567D02*
D03*
D18*
X180512Y113386D02*
D03*
X161221D02*
D03*
D19*
X98425Y106299D02*
D03*
Y125591D02*
D03*
D20*
X76968Y165157D02*
D03*
Y172638D02*
D03*
X66339Y165157D02*
D03*
Y168898D02*
D03*
Y172638D02*
D03*
X92716Y55315D02*
D03*
Y62795D02*
D03*
X82087Y55315D02*
D03*
Y59055D02*
D03*
Y62795D02*
D03*
D21*
X6693Y29134D02*
D03*
Y41732D02*
D03*
D22*
X237795Y146850D02*
D03*
X231496D02*
D03*
X100394Y165354D02*
D03*
X94095D02*
D03*
X100394Y156988D02*
D03*
X94095D02*
D03*
X100394Y149114D02*
D03*
X94095D02*
D03*
D23*
X19193Y84252D02*
D03*
Y81693D02*
D03*
Y79134D02*
D03*
Y76575D02*
D03*
Y74016D02*
D03*
D24*
X18307Y91732D02*
D03*
Y66535D02*
D03*
D25*
X71653Y101575D02*
D03*
X68504D02*
D03*
X65354D02*
D03*
X62205D02*
D03*
X59055D02*
D03*
X55905D02*
D03*
X52756D02*
D03*
X49606D02*
D03*
Y134646D02*
D03*
X52756D02*
D03*
X55905D02*
D03*
X59055D02*
D03*
X62205D02*
D03*
X65354D02*
D03*
X68504D02*
D03*
X71653D02*
D03*
D26*
X44094Y107087D02*
D03*
Y110236D02*
D03*
Y113386D02*
D03*
Y116535D02*
D03*
Y119685D02*
D03*
Y122835D02*
D03*
Y125984D02*
D03*
Y129134D02*
D03*
X77165D02*
D03*
Y125984D02*
D03*
Y122835D02*
D03*
Y119685D02*
D03*
Y116535D02*
D03*
Y113386D02*
D03*
Y110236D02*
D03*
Y107087D02*
D03*
D27*
X4724Y116611D02*
D03*
Y107011D02*
D03*
D28*
X238038Y96850D02*
D03*
X247638D02*
D03*
D29*
X68110Y158858D02*
D03*
Y151378D02*
D03*
X85827Y111614D02*
D03*
Y104134D02*
D03*
X240945Y186417D02*
D03*
Y178937D02*
D03*
X229921Y186614D02*
D03*
Y179134D02*
D03*
X250394Y170276D02*
D03*
Y162795D02*
D03*
X262598Y81299D02*
D03*
Y73819D02*
D03*
X12205Y116339D02*
D03*
Y108858D02*
D03*
X262598Y87598D02*
D03*
Y95079D02*
D03*
X107874Y19094D02*
D03*
Y26575D02*
D03*
X100787Y62795D02*
D03*
Y55315D02*
D03*
X253937Y87598D02*
D03*
Y95079D02*
D03*
X129921Y26181D02*
D03*
Y33661D02*
D03*
Y18504D02*
D03*
Y25984D02*
D03*
X35433Y102953D02*
D03*
Y110433D02*
D03*
D30*
X116339Y173130D02*
D03*
X108858D02*
D03*
X116339Y163681D02*
D03*
X108858D02*
D03*
X32087Y137795D02*
D03*
X39567D02*
D03*
X41929Y84449D02*
D03*
X34449D02*
D03*
X41929Y75787D02*
D03*
X34449D02*
D03*
X41929Y67323D02*
D03*
X34449D02*
D03*
X143898Y38976D02*
D03*
X151378D02*
D03*
X245866Y90158D02*
D03*
X238386D02*
D03*
X92716Y173622D02*
D03*
X100197D02*
D03*
X160433Y90945D02*
D03*
X167913D02*
D03*
X230512Y138976D02*
D03*
X237992D02*
D03*
X12205Y100000D02*
D03*
X4724D02*
D03*
X106496Y34252D02*
D03*
X113976D02*
D03*
X57579Y84449D02*
D03*
X50098D02*
D03*
D31*
X27953Y89173D02*
D03*
Y83268D02*
D03*
Y71457D02*
D03*
Y77362D02*
D03*
D32*
X77559Y85236D02*
D03*
Y92716D02*
D03*
X85827Y125787D02*
D03*
Y118307D02*
D03*
X68898Y85236D02*
D03*
Y92716D02*
D03*
X9055Y177756D02*
D03*
Y170276D02*
D03*
X250394Y178543D02*
D03*
Y186024D02*
D03*
X120079Y26575D02*
D03*
Y19094D02*
D03*
X139764Y26575D02*
D03*
Y19094D02*
D03*
X84646Y165157D02*
D03*
Y172638D02*
D03*
X86221Y77756D02*
D03*
Y70276D02*
D03*
X253937Y73425D02*
D03*
Y80905D02*
D03*
X92520Y48228D02*
D03*
Y40748D02*
D03*
X77559Y70276D02*
D03*
Y77756D02*
D03*
X173622Y23425D02*
D03*
Y30906D02*
D03*
X86221Y92716D02*
D03*
Y85236D02*
D03*
X46063Y51772D02*
D03*
Y44291D02*
D03*
X83465Y48228D02*
D03*
Y40748D02*
D03*
D33*
X49705Y93110D02*
D03*
X57185D02*
D03*
X102559Y136614D02*
D03*
X95079D02*
D03*
X102362Y95276D02*
D03*
X94882D02*
D03*
X158465Y19685D02*
D03*
X150984D02*
D03*
X15945Y205512D02*
D03*
X8465D02*
D03*
X175394Y90945D02*
D03*
X182874D02*
D03*
X158071Y38976D02*
D03*
X165551D02*
D03*
X180118D02*
D03*
X172638D02*
D03*
X160039Y100787D02*
D03*
X167520D02*
D03*
X182874D02*
D03*
X175394D02*
D03*
X264370Y49213D02*
D03*
X256890D02*
D03*
X27559Y115748D02*
D03*
X20079D02*
D03*
X42520Y93110D02*
D03*
X35039D02*
D03*
X181693Y21654D02*
D03*
X189173D02*
D03*
X181693Y30315D02*
D03*
X189173D02*
D03*
X102559Y190157D02*
D03*
X95079D02*
D03*
X158071Y30315D02*
D03*
X165551D02*
D03*
X238386Y130315D02*
D03*
X230906D02*
D03*
D55*
X236417Y103051D02*
D03*
X262008Y120768D02*
D03*
X236417D02*
D03*
X96260Y5315D02*
D03*
X78543Y30906D02*
D03*
Y5315D02*
D03*
D56*
X8661Y83858D02*
D03*
Y74410D02*
D03*
X96260Y30906D02*
D03*
D61*
X262008Y103051D02*
D03*
D69*
X87795Y18504D02*
D03*
X38189Y207874D02*
D03*
X262992Y200000D02*
D03*
X263386Y8268D02*
D03*
D70*
X160236Y128740D02*
X172441D01*
X147638Y116142D02*
X160236Y128740D01*
X147638Y83287D02*
Y116142D01*
X157874Y133071D02*
X170866D01*
X142520Y117717D02*
X157874Y133071D01*
X142520Y88169D02*
Y117717D01*
X156693Y138189D02*
X170472D01*
X138976Y120472D02*
X156693Y138189D01*
X138976Y94626D02*
Y120472D01*
X155118Y142520D02*
X168504D01*
X135433Y122835D02*
X155118Y142520D01*
X135433Y100394D02*
Y122835D01*
X132677Y125984D02*
X157087Y150394D01*
X132677Y104823D02*
Y125984D01*
X157087Y150394D02*
Y186221D01*
X128347Y128347D02*
X150000Y150000D01*
X128347Y116142D02*
Y128347D01*
X150000Y150000D02*
Y184252D01*
X139370Y156299D02*
Y175591D01*
X112992Y129921D02*
X139370Y156299D01*
X112992Y94095D02*
Y129921D01*
X133858Y157874D02*
Y172835D01*
X109055Y133071D02*
X133858Y157874D01*
X109055Y94882D02*
Y133071D01*
X98425Y84252D02*
X109055Y94882D01*
X98425Y74410D02*
Y84252D01*
Y74410D02*
X105512Y67323D01*
Y45079D02*
Y67323D01*
Y45079D02*
X111614Y38976D01*
X102362Y75591D02*
X108661Y69291D01*
Y46457D02*
Y69291D01*
Y46457D02*
X112992Y42126D01*
X144350Y49075D02*
Y50000D01*
X137402Y42126D02*
X144350Y49075D01*
X111614Y38976D02*
X143898D01*
X173031Y140748D02*
Y184449D01*
X170472Y138189D02*
X173031Y140748D01*
X176378Y138583D02*
Y178740D01*
X170866Y133071D02*
X176378Y138583D01*
X179528Y135827D02*
Y172311D01*
X172441Y128740D02*
X179528Y135827D01*
X176378Y178740D02*
X190000Y192362D01*
X216142Y124016D02*
Y163779D01*
Y169685D02*
X225590Y179134D01*
X216142Y163779D02*
Y169685D01*
X212992Y91358D02*
Y175984D01*
Y91358D02*
X224350Y80000D01*
X209055Y85295D02*
Y179055D01*
Y85295D02*
X214350Y80000D01*
X209055Y179055D02*
X230000Y200000D01*
X220276Y95472D02*
X234350Y81398D01*
X129409Y9409D02*
X130000Y10000D01*
X243760Y79409D02*
X244350Y80000D01*
X225000Y98917D02*
Y159941D01*
Y98917D02*
X233760Y90158D01*
X225000Y159941D02*
X228740Y163681D01*
X222441Y142913D02*
Y167323D01*
X234646D01*
X219882Y168701D02*
X222835Y171653D01*
X219882Y141853D02*
Y168701D01*
Y141853D02*
X220276Y141460D01*
Y95472D02*
Y141460D01*
X204331Y152913D02*
Y170079D01*
X27362Y109252D02*
X29724D01*
X37008Y110433D02*
X40354Y107087D01*
X194331Y123858D02*
Y132913D01*
X70824Y116535D02*
X77165D01*
X68110Y113821D02*
X70824Y116535D01*
X68110Y109452D02*
Y113821D01*
X82185Y116535D02*
X83957Y118307D01*
X77165Y116535D02*
X82185D01*
X82874Y111614D02*
X85827D01*
X81496Y110236D02*
X82874Y111614D01*
X77165Y110236D02*
X81496D01*
X186024Y166024D02*
X220000Y200000D01*
X186024Y127756D02*
X199606Y114173D01*
X186024Y127756D02*
Y166024D01*
X188583Y142913D02*
X194331D01*
X168504Y142520D02*
X168898Y142913D01*
Y195102D01*
X173031Y184449D02*
X180000Y191417D01*
X199606Y84744D02*
Y114173D01*
X194350Y80000D02*
Y113524D01*
X183071Y124803D02*
X194350Y113524D01*
X183071Y124803D02*
Y170472D01*
X179528Y172311D02*
X200000Y192784D01*
X212992Y175984D02*
X223622Y186614D01*
X204331Y14331D02*
Y40020D01*
X200000Y10000D02*
X204331Y14331D01*
X194350Y50000D02*
X204331Y40020D01*
X212205Y18504D02*
Y42146D01*
X210000Y16299D02*
X212205Y18504D01*
X204350Y50000D02*
X212205Y42146D01*
X78543Y45669D02*
X83465Y40748D01*
X74567Y45669D02*
X78543D01*
X69567D02*
X74567D01*
X69567Y38465D02*
Y45669D01*
X65748Y34646D02*
X69567Y38465D01*
X82087Y59055D02*
Y62795D01*
X66339Y172638D02*
X70669D01*
X23622Y98622D02*
Y99882D01*
X19882Y98622D02*
X23622D01*
X16732D02*
X19882D01*
X15354Y100000D02*
X16732Y98622D01*
X12205Y100000D02*
X15354D01*
X29823Y98327D02*
Y101161D01*
Y98327D02*
X35039Y93110D01*
X29016Y101969D02*
X29823Y101161D01*
X31651Y102953D02*
X35433D01*
X30076Y104528D02*
X31651Y102953D01*
X24649Y104528D02*
X30076D01*
X24649Y104527D02*
X24649Y104528D01*
X20669Y104527D02*
X24649D01*
X25709Y101969D02*
X29016D01*
X23622Y99882D02*
X25709Y101969D01*
X19488Y105709D02*
X20669Y104527D01*
X30906Y110433D02*
X35433D01*
X29724Y109252D02*
X30906Y110433D01*
X262598Y100492D02*
X265158Y103051D01*
X262598Y95079D02*
Y100492D01*
Y94784D02*
Y95079D01*
X253937D02*
X262598D01*
X252658D02*
X253937D01*
X23425Y85335D02*
Y90256D01*
X23228Y85138D02*
X23425Y85335D01*
X22343Y84252D02*
X23228Y85138D01*
X19193Y84252D02*
X22343D01*
X78740Y168898D02*
X80709D01*
X84449Y165157D01*
X84646D01*
X76968Y172638D02*
X84646D01*
X30883Y64764D02*
X34449Y68330D01*
Y67323D02*
Y68330D01*
X102559Y136614D02*
X107973D01*
X49173Y170118D02*
X60143D01*
X38780Y180512D02*
X49173Y170118D01*
X25488Y180512D02*
X38780D01*
X9055Y177756D02*
X9252Y177953D01*
X32677D01*
X20000Y186000D02*
X25488Y180512D01*
X105905Y98819D02*
Y100000D01*
X102362Y95276D02*
X105905Y98819D01*
X107874Y136713D02*
X107973Y136614D01*
X252461Y67126D02*
X256496D01*
X248228Y71358D02*
X252461Y67126D01*
X32011Y114370D02*
X32185D01*
X30633Y115748D02*
X32011Y114370D01*
X27559Y115748D02*
X30633D01*
X71850Y113386D02*
X77165D01*
X68898Y81496D02*
Y85236D01*
X64567Y45669D02*
Y51575D01*
X94095Y51772D02*
X96949D01*
X92520Y50197D02*
X94095Y51772D01*
X92520Y48228D02*
Y50197D01*
X83465Y48228D02*
Y52362D01*
X76378Y84055D02*
X77559Y85236D01*
X76378Y81890D02*
Y84055D01*
X27953Y71457D02*
X29823Y69587D01*
Y67323D02*
Y69587D01*
X158071Y30315D02*
Y31398D01*
X155807Y33661D02*
X158071Y31398D01*
X153642Y33661D02*
X155807D01*
X181693Y31890D02*
X184941Y35138D01*
X181693Y30315D02*
Y31890D01*
X77461Y55315D02*
X82087D01*
X53839Y88189D02*
X57185Y91535D01*
X27953Y89173D02*
X31693D01*
X31693Y89173D01*
X251772Y73425D02*
X253937D01*
X249902Y75295D02*
X251772Y73425D01*
X249803Y75295D02*
X249902D01*
X157087Y43996D02*
X158071Y43012D01*
X174350Y85374D02*
X175394Y86417D01*
Y90945D01*
X182874Y100787D02*
X189469D01*
X153937D02*
X160039D01*
X42520Y98130D02*
X42520Y98130D01*
X42520Y93110D02*
Y98130D01*
X57185Y91535D02*
Y93110D01*
X59055Y107677D02*
X59055Y107677D01*
X59055Y101575D02*
Y107677D01*
X93307Y77756D02*
X93307Y77756D01*
X86221Y77756D02*
X93307D01*
X86221Y92716D02*
Y97835D01*
X71850Y113386D02*
X71850Y113386D01*
X85827Y125787D02*
Y131791D01*
X102559Y190157D02*
Y193799D01*
X104000Y195240D01*
Y200000D01*
X70374Y165157D02*
X74803Y160728D01*
X66339Y165157D02*
X70374D01*
X264370Y49213D02*
X268012D01*
X178642Y43406D02*
X180118Y41929D01*
Y38976D02*
Y41929D01*
X158071Y38976D02*
Y43012D01*
X139764Y26575D02*
X144783D01*
X120079D02*
Y32776D01*
X124409Y89370D02*
X135433Y100394D01*
X119685Y89370D02*
X124409D01*
X129272Y89902D02*
X134252D01*
X124350Y84980D02*
X129272Y89902D01*
X114350Y84035D02*
X119685Y89370D01*
X114350Y80000D02*
Y84035D01*
X134252Y89902D02*
X138976Y94626D01*
X124350Y80000D02*
Y84980D01*
X154000Y189307D02*
X157087Y186221D01*
X154000Y189307D02*
Y200000D01*
X120472Y92618D02*
X132677Y104823D01*
X180000Y191417D02*
Y200000D01*
X190000Y192362D02*
Y200000D01*
X134350Y80000D02*
X142520Y88169D01*
X144000Y190252D02*
X150000Y184252D01*
X144000Y190252D02*
Y200000D01*
X124000Y190961D02*
X139370Y175591D01*
X134000Y191197D02*
X144882Y180315D01*
Y153150D02*
Y180315D01*
X117323Y125591D02*
X144882Y153150D01*
X134000Y191197D02*
Y200000D01*
X117323Y94067D02*
Y125591D01*
X109823Y76496D02*
Y86567D01*
X164000Y200000D02*
X168898Y195102D01*
X124000Y190961D02*
Y200000D01*
X102362Y83465D02*
X112992Y94095D01*
X102362Y75591D02*
Y83465D01*
X112992Y42126D02*
X137402D01*
X109823Y86567D02*
X117323Y94067D01*
X109823Y76496D02*
X111909Y74410D01*
X119685Y187008D02*
Y196063D01*
X115748Y200000D02*
X119685Y196063D01*
X114000Y200000D02*
X115748D01*
X119685Y187008D02*
X133858Y172835D01*
X96850Y70079D02*
X100787Y66142D01*
Y62795D02*
Y66142D01*
X247087Y174646D02*
X260630D01*
X230906Y158465D02*
X247087Y174646D01*
X228937Y158465D02*
X230906D01*
X236221Y175984D02*
Y181693D01*
X231890Y171653D02*
X236221Y175984D01*
X222835Y171653D02*
X231890D01*
X236221Y181693D02*
X240945Y186417D01*
X223622Y186614D02*
X229921D01*
X210000Y197402D02*
Y200000D01*
X183071Y170472D02*
X210000Y197402D01*
X200000Y192784D02*
Y200000D01*
X144350Y80000D02*
X147638Y83287D01*
X229528Y111417D02*
Y128937D01*
Y100787D02*
Y111417D01*
X84646Y172638D02*
X88583D01*
X264463Y111417D02*
X268110Y107770D01*
X229528Y111417D02*
X264463D01*
X239173Y96850D02*
X245866Y90158D01*
X238038Y96850D02*
X239173D01*
X230512Y130709D02*
X230906Y130315D01*
X230512Y130709D02*
Y138976D01*
X229528Y128937D02*
X230906Y130315D01*
X229528Y100787D02*
X233465Y96850D01*
X238038D01*
X233760Y90158D02*
X238386D01*
X262598Y81299D02*
X268110D01*
X262598Y87598D02*
X268110D01*
Y107770D01*
Y81299D02*
Y87598D01*
Y60630D02*
Y81299D01*
X263976Y56496D02*
X268110Y60630D01*
X256890Y49409D02*
X263976Y56496D01*
X256890Y49213D02*
Y49409D01*
X253346Y56496D02*
X256496D01*
X251575Y58268D02*
X253346Y56496D01*
X193898Y58268D02*
X251575D01*
X256693Y56693D02*
Y59275D01*
X243760Y72208D02*
X256693Y59275D01*
X242618Y37116D02*
X254714Y49213D01*
X242618Y29823D02*
Y37116D01*
X237795Y22205D02*
Y43445D01*
Y22205D02*
X250000Y10000D01*
X237795Y43445D02*
X244350Y50000D01*
X231102Y46752D02*
X234350Y50000D01*
X231102Y18898D02*
Y46752D01*
Y18898D02*
X240000Y10000D01*
X230000D02*
Y11339D01*
X224350Y16988D02*
X230000Y11339D01*
X224350Y16988D02*
Y50000D01*
X218110Y17323D02*
Y40551D01*
X214350Y44311D02*
X218110Y40551D01*
X214350Y44311D02*
Y50000D01*
X218110Y17323D02*
X220000Y15433D01*
Y10000D02*
Y15433D01*
X210000Y10000D02*
Y16299D01*
X195571Y16043D02*
Y37500D01*
X189469Y43602D02*
X195571Y37500D01*
X189469Y43602D02*
Y53839D01*
X193898Y58268D01*
X187008Y63779D02*
X226378D01*
X174350Y51122D02*
X187008Y63779D01*
X174350Y50000D02*
Y51122D01*
X226378Y63779D02*
X229232Y66634D01*
X184350Y73327D02*
Y80000D01*
X175295Y64272D02*
X184350Y73327D01*
X175295Y60039D02*
Y64272D01*
X135433Y2756D02*
X182283D01*
X195571Y16043D01*
X129409Y8779D02*
X135433Y2756D01*
X129409Y8779D02*
Y9409D01*
X33071Y116929D02*
X43701D01*
X30315Y119685D02*
X33071Y116929D01*
X15059Y119685D02*
X30315D01*
X22992Y121653D02*
X31304D01*
X33273Y119685D01*
X44094D01*
X20000Y124646D02*
X22992Y121653D01*
X29921Y129134D02*
X44094D01*
X25984Y133071D02*
X29921Y129134D01*
X25984Y133071D02*
Y138583D01*
X23228Y141339D02*
X25984Y138583D01*
X17224Y141339D02*
X23228D01*
X10000Y148563D02*
X17224Y141339D01*
X24803Y143701D02*
X28346Y140157D01*
X18701Y143701D02*
X24803D01*
X28346Y135039D02*
Y140157D01*
X15059Y147343D02*
X18701Y143701D01*
X28346Y135039D02*
X31201Y132185D01*
X43406D01*
X20000Y152000D02*
X26772Y145228D01*
Y145177D02*
X29823D01*
X75984Y145669D02*
X90650D01*
X68504Y138189D02*
X75984Y145669D01*
X68504Y134646D02*
Y138189D01*
X74213Y149016D02*
X87697D01*
X65354Y140157D02*
X74213Y149016D01*
X65354Y134646D02*
Y140157D01*
X68110Y147638D02*
Y151378D01*
X59055Y138583D02*
X68110Y147638D01*
X59055Y134646D02*
Y138583D01*
X76279Y158563D02*
X86417D01*
X69095Y151378D02*
X76279Y158563D01*
X68110Y151378D02*
X69095D01*
X80315Y143307D02*
X105118D01*
X71653Y134646D02*
X80315Y143307D01*
X84646Y140945D02*
X109449D01*
X77165Y133465D02*
X84646Y140945D01*
X77165Y129134D02*
Y133465D01*
X128740Y160236D02*
Y163779D01*
X109449Y140945D02*
X128740Y160236D01*
X125591Y163779D02*
Y167323D01*
X105118Y143307D02*
X125591Y163779D01*
X90650Y145669D02*
X94095Y149114D01*
X108858Y169567D02*
Y173130D01*
X106102Y166811D02*
X108858Y169567D01*
X106102Y162697D02*
Y166811D01*
X100394Y156988D02*
X106102Y162697D01*
X100394Y149114D02*
X108858Y157579D01*
Y163681D01*
X71260Y180709D02*
X74803Y184252D01*
X49016Y180709D02*
X71260D01*
X38484Y191240D02*
X49016Y180709D01*
X74803Y184252D02*
X102953D01*
X77756Y179724D02*
X102756D01*
X70669Y172638D02*
X77756Y179724D01*
X102953Y184252D02*
X109496Y190795D01*
X66929Y184252D02*
X76870Y194193D01*
X52362Y184252D02*
X66929D01*
X35417Y201197D02*
X52362Y184252D01*
X76870Y194193D02*
X87303D01*
X20000Y196000D02*
X25197Y201197D01*
X35417D01*
X81102Y81102D02*
Y81182D01*
X77618Y77756D02*
X80964Y81102D01*
X75734Y92716D02*
X77559D01*
X71653Y96797D02*
X75734Y92716D01*
X71653Y96797D02*
Y101575D01*
X71653Y101575D02*
X71653Y101575D01*
X71653Y101575D02*
Y105908D01*
X68110Y109452D02*
X71653Y105908D01*
X83957Y118307D02*
X85827D01*
X61417Y79134D02*
Y95374D01*
X61319Y95473D02*
X61417Y95374D01*
X67913Y76181D02*
X68898Y77165D01*
X59055Y76181D02*
X67913D01*
X68898Y92716D02*
X73228Y88386D01*
Y63779D02*
Y88386D01*
X63878Y82284D02*
Y95079D01*
X70374Y60925D02*
X73228Y63779D01*
X57579Y77658D02*
X59055Y76181D01*
X57579Y77658D02*
Y84449D01*
X49705Y93110D02*
X50098Y92716D01*
Y84449D02*
Y92716D01*
X72835Y56693D02*
X77559Y61417D01*
X63386Y56693D02*
X72835D01*
X60630Y53937D02*
X63386Y56693D01*
X57087Y57087D02*
X60925Y60925D01*
X57087Y50000D02*
Y57087D01*
Y50000D02*
X57382Y49705D01*
X60925Y60925D02*
X70374D01*
X77559Y61417D02*
Y70276D01*
X80315D01*
X80315Y70276D01*
X86221D01*
X90256D01*
X92716Y67815D01*
Y62795D02*
Y67815D01*
X92520Y40748D02*
X96457Y36811D01*
X100689D01*
X103248Y34252D01*
X46063Y44291D02*
X47146D01*
X88583Y45886D02*
Y55216D01*
Y45886D02*
X92520Y41949D01*
X84744Y59055D02*
X88583Y55216D01*
Y172638D02*
X89567Y173622D01*
X88583Y170866D02*
Y172638D01*
X263976Y72244D02*
X264075Y72342D01*
X264370Y62697D02*
Y71850D01*
X234646Y167323D02*
X240945Y173622D01*
X225590Y179134D02*
X229921D01*
X199606Y84744D02*
X204350Y80000D01*
X81358Y81555D02*
X85039Y85236D01*
X81417Y81496D02*
X81496Y81575D01*
X81102Y81182D02*
X81417Y81496D01*
X80964Y81102D02*
X81102D01*
X80709D02*
X80964D01*
X81102Y81240D01*
X81358Y81555D02*
X81417Y81496D01*
X38287Y106693D02*
X39961D01*
X40354Y107087D01*
X78642Y161811D02*
X92815D01*
X238386Y90158D02*
X239961D01*
X23228Y71280D02*
X27264Y67244D01*
Y66263D02*
Y67244D01*
X28763Y64764D02*
X30883D01*
X27264Y66263D02*
X28763Y64764D01*
X27953Y77362D02*
X31473D01*
X32851Y75984D01*
X34449D01*
X15846Y112500D02*
X19488Y108858D01*
X68110Y158858D02*
Y161713D01*
Y158465D02*
Y158858D01*
X263976Y72244D02*
X264370Y71850D01*
X77559Y77756D02*
X77618D01*
X92520Y40748D02*
Y41949D01*
X43701Y116929D02*
X44094Y116535D01*
X151378Y38976D02*
Y44587D01*
X154350Y47559D01*
X15945Y205512D02*
X22441D01*
X15240Y191240D02*
X38484D01*
X41909Y155591D02*
X57480D01*
X243760Y72208D02*
Y79409D01*
X154350Y47559D02*
Y50000D01*
X172638Y38976D02*
Y48287D01*
X23228Y71280D02*
Y75374D01*
X22421Y76181D02*
X23228Y75374D01*
X19587Y76181D02*
X22421D01*
X19193Y76575D02*
X19587Y76181D01*
X8465Y197535D02*
X10000Y196000D01*
X8465Y197535D02*
Y205512D01*
X120079Y163681D02*
X120079Y163681D01*
X116339Y163681D02*
X120079D01*
X116339D02*
Y173130D01*
X89567Y173622D02*
X92716D01*
X4724Y113681D02*
Y116611D01*
X4997Y116339D01*
X12205D01*
X19488Y108858D02*
Y115157D01*
Y105709D02*
Y108858D01*
Y116339D02*
X20079Y115748D01*
X19488Y115157D02*
X20079Y115748D01*
X59567Y45669D02*
Y49311D01*
X114469Y21752D02*
Y27264D01*
X111811Y19094D02*
X114469Y21752D01*
X107874Y19094D02*
X111811D01*
X173622Y18996D02*
X173721Y18898D01*
X173622Y18996D02*
Y23425D01*
X181693Y16535D02*
X181693Y16535D01*
Y21654D01*
X260138Y67815D02*
X260728Y67224D01*
X256299Y77756D02*
Y87598D01*
X258661Y71870D02*
X260138Y70394D01*
Y67815D02*
Y70394D01*
X258661Y71870D02*
Y75394D01*
X262598Y73819D02*
X264075Y72342D01*
X256299Y77756D02*
X258661Y75394D01*
X239567Y103051D02*
X262008D01*
X265158D01*
X52442Y97047D02*
X54491D01*
X49705Y94310D02*
X52442Y97047D01*
X49705Y93110D02*
Y94310D01*
X55905Y98462D02*
Y101575D01*
X54491Y97047D02*
X55905Y98462D01*
X35925Y125984D02*
X44094D01*
X28661D02*
X33465D01*
X33465Y125984D01*
X35925D01*
Y143799D02*
Y146358D01*
X39665Y150098D01*
X54798D01*
X38319Y152000D02*
X41909Y155591D01*
X30000Y152000D02*
X38319D01*
X54798Y150098D02*
X54817Y150118D01*
X60650D01*
X63189Y152657D01*
Y159153D01*
X57480Y164862D02*
X63189Y159153D01*
X57480Y164862D02*
Y165591D01*
X39291Y145591D02*
X57480D01*
X39272Y145571D02*
X39291Y145591D01*
X40354Y107087D02*
X44094D01*
X35433Y110433D02*
X37008D01*
X100787Y55315D02*
X100787Y55315D01*
X92716Y55315D02*
X100787D01*
X82087Y59055D02*
X84744D01*
X103248Y34252D02*
X106496D01*
X113976Y30807D02*
Y34252D01*
X109744Y26575D02*
X113976Y30807D01*
X107874Y26575D02*
X109744D01*
X106102D02*
X107874D01*
X101772Y30906D02*
X106102Y26575D01*
X96260Y30906D02*
X101772D01*
X96260Y5315D02*
Y30906D01*
X184350Y80000D02*
Y85827D01*
X182874Y87303D02*
X184350Y85827D01*
X182874Y87303D02*
Y90945D01*
X78740Y92716D02*
X86221Y85236D01*
X85039D02*
X86221D01*
X77559Y92716D02*
X78740D01*
X68504Y96260D02*
Y101575D01*
Y96260D02*
X68898Y95866D01*
Y92716D02*
Y95866D01*
X46063Y44291D02*
X47441Y45669D01*
X61319Y95473D02*
X62205Y96358D01*
X63878Y95079D02*
X65354Y96555D01*
Y96752D02*
Y101575D01*
X62205Y96358D02*
Y101378D01*
X114350Y65531D02*
X118799Y69980D01*
X114350Y50000D02*
Y65531D01*
X123819Y66240D02*
X129035Y71457D01*
X123819Y50532D02*
Y66240D01*
X129702Y74410D02*
X134350Y69761D01*
Y50000D02*
Y69761D01*
X41929Y84449D02*
X44980D01*
X42126Y75787D02*
X45276D01*
X41929Y75984D02*
X42126Y75787D01*
X25394Y77362D02*
X27953D01*
X23622Y79134D02*
X25394Y77362D01*
X19193Y79134D02*
X23622D01*
X32382Y84449D02*
X34449D01*
X31004Y83071D02*
X32382Y84449D01*
X27953Y83071D02*
X31004D01*
X25197Y83268D02*
X27953D01*
X23622Y81693D02*
X25197Y83268D01*
X19193Y81693D02*
X23622D01*
X4724Y100000D02*
Y107011D01*
X5709Y108858D02*
X12205D01*
X4724Y107874D02*
X5709Y108858D01*
X4724Y107011D02*
Y107874D01*
X94882Y102756D02*
X98425Y106299D01*
X94882Y95276D02*
Y102756D01*
X98425Y125591D02*
Y131004D01*
X95079Y134350D02*
X98425Y131004D01*
X95079Y134350D02*
Y136614D01*
X93799Y106299D02*
X98425D01*
X91634Y104134D02*
X93799Y106299D01*
X85827Y104134D02*
X91634D01*
X82480D02*
X85827D01*
X79528Y107087D02*
X82480Y104134D01*
X77165Y107087D02*
X79528D01*
X98425Y118996D02*
Y125591D01*
X91043Y111614D02*
X98425Y118996D01*
X85827Y111614D02*
X91043D01*
X94095Y155413D02*
Y156988D01*
X87697Y149016D02*
X94095Y155413D01*
X100197Y173622D02*
X100394Y173425D01*
Y165354D02*
Y173425D01*
X94095Y163091D02*
Y165354D01*
X92815Y161811D02*
X94095Y163091D01*
X76968Y163484D02*
X78642Y161811D01*
X76968Y163484D02*
Y165157D01*
X10000Y124646D02*
X10098D01*
X15059Y119685D01*
X22430Y129370D02*
X28178Y123622D01*
X33127Y122835D02*
X44094D01*
X32339Y123622D02*
X33127Y122835D01*
X28178Y123622D02*
X32339D01*
X15276Y129370D02*
X22430D01*
X20000Y134646D02*
X28661Y125984D01*
X10000Y134646D02*
X15276Y129370D01*
X20000Y131870D02*
Y134646D01*
X10000Y148563D02*
Y152000D01*
X32087Y137795D02*
Y142913D01*
X29823Y145177D02*
X32087Y142913D01*
X39567Y137795D02*
X43307D01*
X46260Y140748D01*
X50886D01*
X52756Y138878D01*
Y134646D02*
Y138878D01*
X43406Y132185D02*
X45866Y134646D01*
X49606D01*
X15059Y147343D02*
Y154035D01*
X20000Y158976D01*
Y162000D01*
X144000Y200000D02*
X145571Y198429D01*
X114000Y190969D02*
Y200000D01*
X102756Y179724D02*
X114000Y190969D01*
X109496Y190795D02*
Y191142D01*
X87303Y194193D02*
X89272Y196161D01*
X10000Y186000D02*
X15240Y191240D01*
X126913Y207087D02*
X134000Y200000D01*
X93110Y207087D02*
X126913D01*
X89272Y203248D02*
X93110Y207087D01*
X89272Y196161D02*
Y203248D01*
X164350Y80000D02*
Y80787D01*
X167913Y84350D01*
Y90945D01*
X154350Y80000D02*
X155886D01*
X160433Y84547D01*
Y90945D01*
X167913D02*
Y93307D01*
X175394Y100787D01*
X180512Y105905D01*
Y113386D01*
X160433Y90945D02*
Y93701D01*
X167520Y100787D01*
Y105217D01*
X161221Y111516D02*
X167520Y105217D01*
X161221Y111516D02*
Y113386D01*
X250886Y96850D02*
X252658Y95079D01*
X247638Y96850D02*
X250886D01*
X237795Y139173D02*
X237992Y138976D01*
X237795Y139173D02*
Y146850D01*
X255000Y170276D02*
X260630Y164646D01*
X250394Y170276D02*
X255000D01*
X259252Y186024D02*
X260630Y184646D01*
X250394Y186024D02*
X259252D01*
X66339Y168898D02*
Y172638D01*
X61364Y168898D02*
X66339D01*
X60143Y170118D02*
X61364Y168898D01*
X239961Y90158D02*
X244350Y85768D01*
Y80000D02*
Y85768D01*
X94000Y195370D02*
Y200000D01*
Y195370D02*
X95079Y194291D01*
Y190157D02*
Y194291D01*
X94587Y189665D02*
X95079Y190157D01*
X87402Y189665D02*
X94587D01*
X172638Y48287D02*
X174350Y50000D01*
X240945Y173622D02*
Y178937D01*
X245866Y178543D02*
X250394D01*
X123819Y50532D02*
X124350Y50000D01*
X111909Y74410D02*
X129702D01*
X118799Y69980D02*
Y71398D01*
X124000Y200000D02*
X126083Y197917D01*
X240945Y190945D02*
X250000Y200000D01*
X240945Y186417D02*
Y190945D01*
X234350Y80000D02*
Y81398D01*
X229921Y191240D02*
X238681Y200000D01*
X229921Y186614D02*
Y191240D01*
X238681Y200000D02*
X240000D01*
D71*
X204331Y132913D02*
D03*
Y142913D02*
D03*
Y152913D02*
D03*
X194331Y132913D02*
D03*
Y142913D02*
D03*
X30000Y196000D02*
D03*
X20000D02*
D03*
X10000D02*
D03*
X30000Y186000D02*
D03*
X20000D02*
D03*
X30000Y162000D02*
D03*
X20000D02*
D03*
X10000D02*
D03*
X30000Y152000D02*
D03*
X20000D02*
D03*
X10000Y134646D02*
D03*
X20000Y124646D02*
D03*
X10000D02*
D03*
D72*
X194331Y152913D02*
D03*
D73*
X60000Y200000D02*
D03*
D74*
X180000Y10000D02*
D03*
X170000D02*
D03*
X160000D02*
D03*
X150000D02*
D03*
X140000D02*
D03*
X130000D02*
D03*
X120000D02*
D03*
X180000Y200000D02*
D03*
X190000D02*
D03*
X200000D02*
D03*
X210000D02*
D03*
X220000D02*
D03*
X230000D02*
D03*
X240000D02*
D03*
X154000D02*
D03*
X144000D02*
D03*
X134000D02*
D03*
X124000D02*
D03*
X114000D02*
D03*
X104000D02*
D03*
X94000D02*
D03*
X84000D02*
D03*
X74000D02*
D03*
X240000Y10000D02*
D03*
X250000D02*
D03*
X230000D02*
D03*
X220000D02*
D03*
X210000D02*
D03*
X234350Y80000D02*
D03*
X224350D02*
D03*
X214350D02*
D03*
X204350D02*
D03*
X194350D02*
D03*
X184350D02*
D03*
X174350D02*
D03*
X164350D02*
D03*
X154350D02*
D03*
X144350D02*
D03*
X134350D02*
D03*
X124350D02*
D03*
X114350D02*
D03*
X244350Y50000D02*
D03*
X234350D02*
D03*
X224350D02*
D03*
X214350D02*
D03*
X204350D02*
D03*
X194350D02*
D03*
X184350D02*
D03*
X174350D02*
D03*
X164350D02*
D03*
X154350D02*
D03*
X144350D02*
D03*
X134350D02*
D03*
X124350D02*
D03*
X114350D02*
D03*
X65748Y34646D02*
D03*
X55748D02*
D03*
D75*
X110000Y10000D02*
D03*
X250000Y200000D02*
D03*
X164000D02*
D03*
X200000Y10000D02*
D03*
X244350Y80000D02*
D03*
X45748Y34646D02*
D03*
D76*
X55000Y10000D02*
D03*
X260000Y30000D02*
D03*
Y140000D02*
D03*
D77*
X10000Y186000D02*
D03*
Y152000D02*
D03*
X20000Y134646D02*
D03*
D78*
X57480Y145591D02*
D03*
Y155591D02*
D03*
Y165591D02*
D03*
X260630Y164646D02*
D03*
Y174646D02*
D03*
D79*
X57480Y175591D02*
D03*
X260630Y184646D02*
D03*
D80*
X8661Y92126D02*
D03*
Y66142D02*
D03*
D81*
X27165Y52756D02*
D03*
Y43307D02*
D03*
X26772Y14567D02*
D03*
Y24016D02*
D03*
D82*
X216142Y163779D02*
D03*
Y124016D02*
D03*
X222441Y167323D02*
D03*
Y142913D02*
D03*
X204331Y170079D02*
D03*
X194331Y123858D02*
D03*
X188583Y142913D02*
D03*
X168898D02*
D03*
X268012Y49213D02*
D03*
X264370Y62697D02*
D03*
X54724Y66929D02*
D03*
Y70079D02*
D03*
Y73228D02*
D03*
X44488Y58661D02*
D03*
X48031Y61811D02*
D03*
X44488D02*
D03*
X40945D02*
D03*
X50000Y70079D02*
D03*
X78740Y168898D02*
D03*
X32677Y177953D02*
D03*
X164567Y190157D02*
D03*
X160630D02*
D03*
X164567Y193307D02*
D03*
X160630D02*
D03*
X164567Y150394D02*
D03*
X161024D02*
D03*
Y154331D02*
D03*
X164567D02*
D03*
X105905Y100000D02*
D03*
X228740Y146457D02*
D03*
Y149213D02*
D03*
X164961Y24902D02*
D03*
X161417Y25591D02*
D03*
X168504Y24803D02*
D03*
X68898Y81496D02*
D03*
X64567Y51575D02*
D03*
X83465Y52362D02*
D03*
X228740Y151969D02*
D03*
X76378Y81890D02*
D03*
X29823Y67323D02*
D03*
X153642Y33661D02*
D03*
X96949Y51772D02*
D03*
X184941Y35138D02*
D03*
X77461Y55315D02*
D03*
X53839Y88189D02*
D03*
X31693Y89173D02*
D03*
X249902Y75295D02*
D03*
X32185Y114370D02*
D03*
X157087Y43996D02*
D03*
X174350Y85374D02*
D03*
X189469Y100787D02*
D03*
X153937D02*
D03*
X42520Y98130D02*
D03*
X59055Y107677D02*
D03*
X93307Y77756D02*
D03*
X86221Y97835D02*
D03*
X71850Y113386D02*
D03*
X85827Y131791D02*
D03*
X107874Y136713D02*
D03*
X74803Y160728D02*
D03*
X248228Y71358D02*
D03*
X178642Y43406D02*
D03*
X144783Y26575D02*
D03*
X120079Y32776D02*
D03*
X128347Y116142D02*
D03*
X120472Y92618D02*
D03*
X96850Y70079D02*
D03*
X242618Y32687D02*
D03*
X125591Y26378D02*
D03*
X126378Y29134D02*
D03*
X128740Y163779D02*
D03*
X125591Y167323D02*
D03*
X49213Y160236D02*
D03*
Y162992D02*
D03*
X61417Y79134D02*
D03*
X68898Y77165D02*
D03*
X60630Y53937D02*
D03*
X88583Y170866D02*
D03*
X80709Y81102D02*
D03*
X38287Y106693D02*
D03*
X86417Y158563D02*
D03*
X15846Y112500D02*
D03*
X68110Y161713D02*
D03*
X8661Y60532D02*
D03*
X23425Y90256D02*
D03*
X23228Y85138D02*
D03*
X22441Y205512D02*
D03*
X120079Y163681D02*
D03*
X51870Y160335D02*
D03*
X4724Y113681D02*
D03*
X114469Y27264D02*
D03*
X173721Y18898D02*
D03*
X181693Y16535D02*
D03*
X242618Y29823D02*
D03*
X35925Y125984D02*
D03*
Y143799D02*
D03*
X39272Y145571D02*
D03*
X188681Y37894D02*
D03*
X175295Y60039D02*
D03*
X32776Y48819D02*
D03*
Y54134D02*
D03*
X63976Y81939D02*
D03*
X44980Y84449D02*
D03*
X45276Y75787D02*
D03*
X109496Y191142D02*
D03*
X228740Y163681D02*
D03*
X228937Y158465D02*
D03*
X87402Y189665D02*
D03*
X229232Y66634D02*
D03*
X245866Y178543D02*
D03*
X129035Y71457D02*
D03*
X118799Y71398D02*
D03*
M02*
