G04*
G04 #@! TF.GenerationSoftware,Altium Limited,Altium Designer,18.0.7 (293)*
G04*
G04 Layer_Color=8421504*
%FSLAX25Y25*%
%MOIN*%
G70*
G01*
G75*
%ADD15R,0.02165X0.03937*%
%ADD16R,0.13780X0.08661*%
%ADD17R,0.02362X0.08661*%
%ADD18R,0.09843X0.10236*%
%ADD19R,0.10236X0.09843*%
%ADD20R,0.03937X0.02165*%
%ADD21R,0.10630X0.07874*%
%ADD22R,0.03150X0.03150*%
%ADD23R,0.05315X0.01575*%
%ADD24R,0.05512X0.06299*%
%ADD25R,0.01968X0.05906*%
%ADD26R,0.05906X0.01968*%
%ADD27R,0.02700X0.02200*%
%ADD28R,0.02200X0.02700*%
%ADD29R,0.05118X0.02756*%
%ADD30R,0.02756X0.05118*%
%ADD31R,0.03543X0.02362*%
%ADD32R,0.05118X0.03543*%
%ADD33R,0.03543X0.05118*%
D15*
X27362Y108858D02*
D03*
X19882D02*
D03*
X27362Y98228D02*
D03*
X23622D02*
D03*
X19882D02*
D03*
X256496Y56496D02*
D03*
X263976D02*
D03*
X256496Y67126D02*
D03*
X260236D02*
D03*
X263976D02*
D03*
D16*
X64567Y70079D02*
D03*
D17*
X74567Y45669D02*
D03*
X69567D02*
D03*
X64567D02*
D03*
X59567D02*
D03*
X54567D02*
D03*
D18*
X180512Y113386D02*
D03*
X161221D02*
D03*
D19*
X98425Y106299D02*
D03*
Y125591D02*
D03*
D20*
X76968Y165157D02*
D03*
Y172638D02*
D03*
X66339Y165157D02*
D03*
Y168898D02*
D03*
Y172638D02*
D03*
X92716Y55315D02*
D03*
Y62795D02*
D03*
X82087Y55315D02*
D03*
Y59055D02*
D03*
Y62795D02*
D03*
D21*
X6693Y29134D02*
D03*
Y41732D02*
D03*
D22*
X237795Y146850D02*
D03*
X231496D02*
D03*
X100394Y165354D02*
D03*
X94095D02*
D03*
X100394Y156988D02*
D03*
X94095D02*
D03*
X100394Y149114D02*
D03*
X94095D02*
D03*
D23*
X19193Y84252D02*
D03*
Y81693D02*
D03*
Y79134D02*
D03*
Y76575D02*
D03*
Y74016D02*
D03*
D24*
X18307Y91732D02*
D03*
Y66535D02*
D03*
D25*
X71653Y101575D02*
D03*
X68504D02*
D03*
X65354D02*
D03*
X62205D02*
D03*
X59055D02*
D03*
X55905D02*
D03*
X52756D02*
D03*
X49606D02*
D03*
Y134646D02*
D03*
X52756D02*
D03*
X55905D02*
D03*
X59055D02*
D03*
X62205D02*
D03*
X65354D02*
D03*
X68504D02*
D03*
X71653D02*
D03*
D26*
X44094Y107087D02*
D03*
Y110236D02*
D03*
Y113386D02*
D03*
Y116535D02*
D03*
Y119685D02*
D03*
Y122835D02*
D03*
Y125984D02*
D03*
Y129134D02*
D03*
X77165D02*
D03*
Y125984D02*
D03*
Y122835D02*
D03*
Y119685D02*
D03*
Y116535D02*
D03*
Y113386D02*
D03*
Y110236D02*
D03*
Y107087D02*
D03*
D27*
X4724Y116611D02*
D03*
Y107011D02*
D03*
D28*
X238038Y96850D02*
D03*
X247638D02*
D03*
D29*
X68110Y158858D02*
D03*
Y151378D02*
D03*
X85827Y111614D02*
D03*
Y104134D02*
D03*
X240945Y186417D02*
D03*
Y178937D02*
D03*
X229921Y186614D02*
D03*
Y179134D02*
D03*
X250394Y170276D02*
D03*
Y162795D02*
D03*
X262598Y81299D02*
D03*
Y73819D02*
D03*
X12205Y116339D02*
D03*
Y108858D02*
D03*
X262598Y87598D02*
D03*
Y95079D02*
D03*
X107874Y19094D02*
D03*
Y26575D02*
D03*
X100787Y62795D02*
D03*
Y55315D02*
D03*
X253937Y87598D02*
D03*
Y95079D02*
D03*
X129921Y26181D02*
D03*
Y33661D02*
D03*
Y18504D02*
D03*
Y25984D02*
D03*
X35433Y102953D02*
D03*
Y110433D02*
D03*
D30*
X116339Y173130D02*
D03*
X108858D02*
D03*
X116339Y163681D02*
D03*
X108858D02*
D03*
X32087Y137795D02*
D03*
X39567D02*
D03*
X41929Y84449D02*
D03*
X34449D02*
D03*
X41929Y75787D02*
D03*
X34449D02*
D03*
X41929Y67323D02*
D03*
X34449D02*
D03*
X143898Y38976D02*
D03*
X151378D02*
D03*
X245866Y90158D02*
D03*
X238386D02*
D03*
X92716Y173622D02*
D03*
X100197D02*
D03*
X160433Y90945D02*
D03*
X167913D02*
D03*
X230512Y138976D02*
D03*
X237992D02*
D03*
X12205Y100000D02*
D03*
X4724D02*
D03*
X106496Y34252D02*
D03*
X113976D02*
D03*
X57579Y84449D02*
D03*
X50098D02*
D03*
D31*
X27953Y89173D02*
D03*
Y83268D02*
D03*
Y71457D02*
D03*
Y77362D02*
D03*
D32*
X77559Y85236D02*
D03*
Y92716D02*
D03*
X85827Y125787D02*
D03*
Y118307D02*
D03*
X68898Y85236D02*
D03*
Y92716D02*
D03*
X9055Y177756D02*
D03*
Y170276D02*
D03*
X250394Y178543D02*
D03*
Y186024D02*
D03*
X120079Y26575D02*
D03*
Y19094D02*
D03*
X139764Y26575D02*
D03*
Y19094D02*
D03*
X84646Y165157D02*
D03*
Y172638D02*
D03*
X86221Y77756D02*
D03*
Y70276D02*
D03*
X253937Y73425D02*
D03*
Y80905D02*
D03*
X92520Y48228D02*
D03*
Y40748D02*
D03*
X77559Y70276D02*
D03*
Y77756D02*
D03*
X173622Y23425D02*
D03*
Y30906D02*
D03*
X86221Y92716D02*
D03*
Y85236D02*
D03*
X46063Y51772D02*
D03*
Y44291D02*
D03*
X83465Y48228D02*
D03*
Y40748D02*
D03*
D33*
X49705Y93110D02*
D03*
X57185D02*
D03*
X102559Y136614D02*
D03*
X95079D02*
D03*
X102362Y95276D02*
D03*
X94882D02*
D03*
X158465Y19685D02*
D03*
X150984D02*
D03*
X15945Y205512D02*
D03*
X8465D02*
D03*
X175394Y90945D02*
D03*
X182874D02*
D03*
X158071Y38976D02*
D03*
X165551D02*
D03*
X180118D02*
D03*
X172638D02*
D03*
X160039Y100787D02*
D03*
X167520D02*
D03*
X182874D02*
D03*
X175394D02*
D03*
X264370Y49213D02*
D03*
X256890D02*
D03*
X27559Y115748D02*
D03*
X20079D02*
D03*
X42520Y93110D02*
D03*
X35039D02*
D03*
X181693Y21654D02*
D03*
X189173D02*
D03*
X181693Y30315D02*
D03*
X189173D02*
D03*
X102559Y190157D02*
D03*
X95079D02*
D03*
X158071Y30315D02*
D03*
X165551D02*
D03*
X238386Y130315D02*
D03*
X230906D02*
D03*
M02*
