M48
;Layer_Color=9474304
;FILE_FORMAT=4:4
METRIC,LZ
;TYPE=PLATED
T1F00S00C0.3000
T3F00S00C0.7500
T4F00S00C1.0000
T5F00S00C1.1000
T6F00S00C3.2000
;TYPE=NON_PLATED
T7F00S00C3.2000
%
T01
X00319Y00067
X00321Y00074
X0036775Y000675
X0039025Y000855
X00399Y0011175
X0045375Y0011025
X0046975Y0008925
X0047925Y0009625
X004615Y00042
X0044125Y00048
X00428Y00063
X00419Y0006325
X0041Y00065
X0044525Y001525
X0044285Y0021685
X0048125Y00256
X004936Y003146
X00549Y00315
X0058225Y0016925
X006305Y0018125
X0063475Y0019125
X006715Y0015925
X0068075Y00125
X0061625Y00083025
Y0007575
X0032775Y001815
X00326Y00295
X00391Y00256
X00306Y0023525
X00269Y00254
X00219Y002485
X00205Y00206
X00194Y00208
X00175Y00207
Y00196
X00156Y00201
X001625Y00208125
X0013675Y00224
X0011425Y002145
X00115Y001925
X00127Y00178
X00139
Y0017
Y00186
X00122Y00157
X00113
Y00149
X00104Y00157
X0008325Y001375
Y00124
X0007575Y00171
X000805Y002265
X000595Y0022925
X00059Y0021625
X00108Y0024925
X0009725Y00271
X0008175Y002905
X0004025Y0028575
X00012Y0028875
X00022Y0015375
X00154Y00137
X00164Y00131
X0019675Y001405
X00212Y00133
X0024625Y001315
X00246Y00178
X00237Y001975
X0030175Y0018135
X00305Y0008325
X0029075Y0006925
X001825Y00288
X0015Y002735
X0009125Y0032
Y0036525
X0009975Y0036975
X00125Y00407
Y00414
X0013175Y0040725
X00173Y0041075
X0019Y0040825
X002Y00429
X00225Y00434
X002195Y0040275
X00218Y0033475
X00274Y0034725
X00305Y0041575
X0027812Y004855
X00222Y0048175
X00083Y00452
X00057Y00522
X00319Y00425
X00327Y00416
X00409Y00392
X00418
Y00382
X00409
X00429Y00363
X00479
X00565
X00581Y00372
Y00379
Y00386
X005815Y004025
X00581Y0041575
X00565Y00425
X00549Y00416
X00519Y00432
X006245Y004535
X00418Y00483
Y00491
X00408
Y00483
T03
X00068Y00037
Y00061
X00069Y0011
Y00134
T04
X006005Y0026175
Y0030675
X006655
Y0026175
X002445Y000785
X001995
Y000135
X002445
T05
X003302Y000254
X003556
X00381
X004064
X004318
X004572
X00508
X005334
X005588
X005842
X006096
X00635
X0062065Y00127
X0059525
X0056985
X0054445
X0051905
X0049365
X0046825
X0044285
X0041745
X0039205
X0036665
X0034125
X0031585
Y002032
X0034125
X0036665
X0039205
X0041745
X0044285
X0046825
X0049365
X0051905
X0054445
X0056985
X0059525
X0062065
X0029045
Y00127
X002794Y000254
X003048
X00167Y00088
X001416
X001162
X000508Y003166
X000254
Y00342
X000508
Y0038608
Y0041148
X000762
Y0038608
X000254
Y0041148
Y0047244
Y0049784
X000508
X000762
Y0047244
X000508
X00146Y00446
Y004206
Y003952
Y003698
X0018796Y00508
X0021336
X0023876
X0026416
X0028956
X0031496
X0034036
X0036576
X0039116
X0041656
X004572
X004826
X00508
X005334
X005588
X005842
X006096
X00635
X00662Y00469
Y004436
Y004182
X00519Y003884
Y00363
Y003376
X004936
Y00363
Y003884
T06
X006604Y000762
X001397Y000254
X006604Y003556
T07
X001524Y00508
M30
