G04*
G04 #@! TF.GenerationSoftware,Altium Limited,Altium Designer,18.0.7 (293)*
G04*
G04 Layer_Color=16711935*
%FSLAX25Y25*%
%MOIN*%
G70*
G01*
G75*
%ADD10C,0.00787*%
%ADD11C,0.01968*%
%ADD13C,0.01000*%
%ADD70C,0.01181*%
%ADD84C,0.00591*%
%ADD85C,0.00394*%
%ADD86C,0.00906*%
D10*
X189606Y128110D02*
X209008D01*
Y157638D01*
X189606D02*
X209008D01*
X189606Y128110D02*
Y157638D01*
X104000Y5000D02*
X186000D01*
Y15000D01*
X104000D02*
X186000D01*
X104000Y5000D02*
Y15000D01*
X174000Y205000D02*
X256000D01*
X174000Y195000D02*
Y205000D01*
Y195000D02*
X256000D01*
Y205000D01*
X170000Y195000D02*
Y205000D01*
X68000Y195000D02*
X170000D01*
X68000D02*
Y205000D01*
X170000D01*
X255906Y5276D02*
Y14724D01*
X194095Y5276D02*
Y14724D01*
X255906D01*
X194095Y5276D02*
X255906D01*
X51575Y50787D02*
X77559D01*
Y64961D01*
X51575D02*
X77559D01*
X51575Y50787D02*
Y64961D01*
X34803Y181276D02*
Y200567D01*
X5276D02*
X34803D01*
X5276Y181276D02*
Y200567D01*
Y181276D02*
X34803D01*
Y147276D02*
Y166567D01*
X5276D02*
X34803D01*
X5276Y147276D02*
Y166567D01*
Y147276D02*
X34803D01*
X5197Y139370D02*
X24724D01*
Y120079D02*
Y139370D01*
X5197Y120079D02*
X24724D01*
X5197D02*
Y139370D01*
X261024Y100098D02*
Y123721D01*
X237402Y100098D02*
X261024D01*
X237402D02*
Y123721D01*
X261024D01*
X75590Y29921D02*
X99213D01*
Y6299D02*
Y29921D01*
X75590Y6299D02*
X99213D01*
X75590D02*
Y29921D01*
X-1575Y64173D02*
Y94095D01*
X19882Y64173D02*
Y94095D01*
X-1575D02*
X19882D01*
X-1575Y64173D02*
X19882D01*
X74410Y104331D02*
Y131890D01*
X46850D02*
X74410D01*
X46850Y104331D02*
Y131890D01*
Y104331D02*
X74410D01*
X22047Y37992D02*
Y41929D01*
X20079Y39961D02*
X24016D01*
X31890Y25394D02*
Y29331D01*
X29921Y27362D02*
X33858D01*
X26248Y48687D02*
X25592Y48031D01*
Y46719D01*
X26248Y46063D01*
X28872D01*
X29528Y46719D01*
Y48031D01*
X28872Y48687D01*
X29528Y49999D02*
Y51311D01*
Y50655D01*
X25592D01*
X26248Y49999D01*
X25854Y16797D02*
X25198Y16141D01*
Y14829D01*
X25854Y14173D01*
X28478D01*
X29134Y14829D01*
Y16141D01*
X28478Y16797D01*
X29134Y20733D02*
Y18109D01*
X26510Y20733D01*
X25854D01*
X25198Y20077D01*
Y18765D01*
X25854Y18109D01*
D11*
X108000Y8000D02*
G03*
X108000Y8000I-1000J0D01*
G01*
X254000Y202000D02*
G03*
X254000Y202000I-1000J0D01*
G01*
X168000D02*
G03*
X168000Y202000I-1000J0D01*
G01*
X245284Y80000D02*
G03*
X245284Y80000I-933J0D01*
G01*
X256299Y102461D02*
G03*
X256299Y102461I-394J0D01*
G01*
X97244Y24803D02*
G03*
X97244Y24803I-394J0D01*
G01*
X72441Y106693D02*
G03*
X72441Y106693I-394J0D01*
G01*
X157343Y71335D02*
Y61495D01*
X159310Y59528D01*
X163246D01*
X165214Y61495D01*
Y71335D01*
X169150Y59528D02*
X173085D01*
X171118D01*
Y71335D01*
X169150Y69367D01*
D13*
X192244Y155748D02*
G03*
X192244Y155748I-394J0D01*
G01*
X19685Y98032D02*
G03*
X19685Y98032I-394J0D01*
G01*
X196063Y6850D02*
G03*
X196063Y6850I-394J0D01*
G01*
X7559Y183520D02*
G03*
X7559Y183520I-394J0D01*
G01*
Y149520D02*
G03*
X7559Y149520I-394J0D01*
G01*
X23228Y137126D02*
G03*
X23228Y137126I-394J0D01*
G01*
X54724Y178701D02*
G03*
X54724Y178701I-394J0D01*
G01*
X257874Y187756D02*
G03*
X257874Y187756I-394J0D01*
G01*
X43031Y31496D02*
G03*
X43031Y31496I-394J0D01*
G01*
X66535Y173228D02*
G03*
X66535Y173228I-394J0D01*
G01*
X264961Y67323D02*
G03*
X264961Y67323I-394J0D01*
G01*
X82284Y63386D02*
G03*
X82284Y63386I-394J0D01*
G01*
X6299Y117323D02*
G03*
X6299Y117323I-394J0D01*
G01*
X237720Y98032D02*
G03*
X237720Y98032I-394J0D01*
G01*
X40354Y48031D02*
G03*
X40354Y48031I-13189J0D01*
G01*
X39961Y19291D02*
G03*
X39961Y19291I-13189J0D01*
G01*
X17323Y96063D02*
Y111024D01*
X29921D01*
Y96063D02*
Y111024D01*
X17323Y96063D02*
X29921D01*
X249429Y44528D02*
Y85472D01*
X109272Y44528D02*
X249429D01*
X109272D02*
Y85472D01*
X249429D01*
X52756Y180276D02*
X62205D01*
Y140905D02*
Y180276D01*
X52756Y140905D02*
X62205D01*
X52756D02*
Y180276D01*
X255906Y189331D02*
X265354D01*
Y159961D02*
Y189331D01*
X255906Y159961D02*
X265354D01*
X255906D02*
Y189331D01*
X41063Y29921D02*
Y39370D01*
X70433D01*
Y29921D02*
Y39370D01*
X41063Y29921D02*
X70433D01*
X154724Y106299D02*
X187008D01*
X154724D02*
Y120472D01*
X187008D01*
Y106299D02*
Y120472D01*
X91339Y99803D02*
Y132087D01*
X105512D01*
Y99803D02*
Y132087D01*
X91339Y99803D02*
X105512D01*
X64173Y175197D02*
X79134D01*
Y162598D02*
Y175197D01*
X64173Y162598D02*
X79134D01*
X64173D02*
Y175197D01*
X266535Y54331D02*
Y69291D01*
X253937Y54331D02*
X266535D01*
X253937D02*
Y69291D01*
X266535D01*
X79921Y65354D02*
X94882D01*
Y52756D02*
Y65354D01*
X79921Y52756D02*
X94882D01*
X79921D02*
Y65354D01*
X394Y46850D02*
X12992D01*
X394Y24016D02*
Y46850D01*
Y24016D02*
X12992D01*
Y46850D01*
X227559Y150000D02*
X240551D01*
Y143701D02*
Y150000D01*
X227559Y143701D02*
X240551D01*
X227559D02*
Y150000D01*
X228740Y143701D02*
Y150000D01*
X90158Y168504D02*
X103150D01*
Y162205D02*
Y168504D01*
X90158Y162205D02*
X103150D01*
X90158D02*
Y168504D01*
X91339Y162205D02*
Y168504D01*
X90158Y160138D02*
X103150D01*
Y153839D02*
Y160138D01*
X90158Y153839D02*
X103150D01*
X90158D02*
Y160138D01*
X91339Y153839D02*
Y160138D01*
X90158Y152264D02*
X103150D01*
Y145965D02*
Y152264D01*
X90158Y145965D02*
X103150D01*
X90158D02*
Y152264D01*
X91339Y145965D02*
Y152264D01*
X1969Y118898D02*
X7480D01*
X1969Y104724D02*
Y118898D01*
Y104724D02*
X7480D01*
Y118898D01*
X235751Y94095D02*
Y99606D01*
Y94095D02*
X249924D01*
Y99606D01*
X235751D02*
X249924D01*
X64173Y148425D02*
Y161811D01*
X72047D01*
Y148425D02*
Y161811D01*
X64173Y148425D02*
X72047D01*
X105905Y177067D02*
X119291D01*
Y169193D02*
Y177067D01*
X105905Y169193D02*
X119291D01*
X105905D02*
Y177067D01*
Y167618D02*
X119291D01*
Y159744D02*
Y167618D01*
X105905Y159744D02*
X119291D01*
X105905D02*
Y167618D01*
X29134Y133858D02*
X42520D01*
X29134D02*
Y141732D01*
X42520D01*
Y133858D02*
Y141732D01*
X31496Y88386D02*
X44882D01*
Y80512D02*
Y88386D01*
X31496Y80512D02*
X44882D01*
X31496D02*
Y88386D01*
Y79724D02*
X44882D01*
Y71850D02*
Y79724D01*
X31496Y71850D02*
X44882D01*
X31496D02*
Y79724D01*
Y71260D02*
X44882D01*
Y63386D02*
Y71260D01*
X31496Y63386D02*
X44882D01*
X31496D02*
Y71260D01*
X81890Y101181D02*
Y114567D01*
X89764D01*
Y101181D02*
Y114567D01*
X81890Y101181D02*
X89764D01*
X237008Y175984D02*
Y189370D01*
X244882D01*
Y175984D02*
Y189370D01*
X237008Y175984D02*
X244882D01*
X225984Y176181D02*
Y189567D01*
X233858D01*
Y176181D02*
Y189567D01*
X225984Y176181D02*
X233858D01*
X246457Y159843D02*
Y173228D01*
X254331D01*
Y159843D02*
Y173228D01*
X246457Y159843D02*
X254331D01*
X140945Y35039D02*
X154331D01*
X140945D02*
Y42913D01*
X154331D01*
Y35039D02*
Y42913D01*
X235433Y94095D02*
X248819D01*
Y86221D02*
Y94095D01*
X235433Y86221D02*
X248819D01*
X235433D02*
Y94095D01*
X89764Y169685D02*
X103150D01*
X89764D02*
Y177559D01*
X103150D01*
Y169685D02*
Y177559D01*
X157480Y87008D02*
X170866D01*
X157480D02*
Y94882D01*
X170866D01*
Y87008D02*
Y94882D01*
X227559Y135039D02*
X240945D01*
X227559D02*
Y142913D01*
X240945D01*
Y135039D02*
Y142913D01*
X258661Y70866D02*
Y84252D01*
X266535D01*
Y70866D02*
Y84252D01*
X258661Y70866D02*
X266535D01*
X8268Y105905D02*
Y119291D01*
X16142D01*
Y105905D02*
Y119291D01*
X8268Y105905D02*
X16142D01*
X266535Y84646D02*
Y98032D01*
X258661Y84646D02*
X266535D01*
X258661D02*
Y98032D01*
X266535D01*
X111811Y16142D02*
Y29528D01*
X103937Y16142D02*
X111811D01*
X103937D02*
Y29528D01*
X111811D01*
X96850Y52362D02*
Y65748D01*
X104724D01*
Y52362D02*
Y65748D01*
X96850Y52362D02*
X104724D01*
X1772Y103937D02*
X15157D01*
Y96063D02*
Y103937D01*
X1772Y96063D02*
X15157D01*
X1772D02*
Y103937D01*
X257874Y84646D02*
Y98032D01*
X250000Y84646D02*
X257874D01*
X250000D02*
Y98032D01*
X257874D01*
X103543Y30315D02*
X116929D01*
X103543D02*
Y38189D01*
X116929D01*
Y30315D02*
Y38189D01*
X47146Y88386D02*
X60532D01*
Y80512D02*
Y88386D01*
X47146Y80512D02*
X60532D01*
X47146D02*
Y88386D01*
X133858Y23228D02*
Y36614D01*
X125984Y23228D02*
X133858D01*
X125984D02*
Y36614D01*
X133858D01*
Y15551D02*
Y28937D01*
X125984Y15551D02*
X133858D01*
X125984D02*
Y28937D01*
X133858D01*
X39370Y100000D02*
Y113386D01*
X31496Y100000D02*
X39370D01*
X31496D02*
Y113386D01*
X39370D01*
X73622Y81890D02*
Y96063D01*
X81496D01*
Y81890D02*
Y96063D01*
X73622Y81890D02*
X81496D01*
X89764Y114961D02*
Y129134D01*
X81890Y114961D02*
X89764D01*
X81890D02*
Y129134D01*
X89764D01*
X64961Y81890D02*
Y96063D01*
X72835D01*
Y81890D02*
Y96063D01*
X64961Y81890D02*
X72835D01*
X46358Y97047D02*
X60532D01*
Y89173D02*
Y97047D01*
X46358Y89173D02*
X60532D01*
X46358D02*
Y97047D01*
X12992Y166929D02*
Y181102D01*
X5118Y166929D02*
X12992D01*
X5118D02*
Y181102D01*
X12992D01*
X91732Y132677D02*
X105905D01*
X91732D02*
Y140551D01*
X105905D01*
Y132677D02*
Y140551D01*
X91535Y91339D02*
X105709D01*
X91535D02*
Y99213D01*
X105709D01*
Y91339D02*
Y99213D01*
X246457Y175197D02*
Y189370D01*
X254331D01*
Y175197D02*
Y189370D01*
X246457Y175197D02*
X254331D01*
X147638Y15748D02*
X161811D01*
X147638D02*
Y23622D01*
X161811D01*
Y15748D02*
Y23622D01*
X124016Y15748D02*
Y29921D01*
X116142Y15748D02*
X124016D01*
X116142D02*
Y29921D01*
X124016D01*
X143701Y15748D02*
Y29921D01*
X135827Y15748D02*
X143701D01*
X135827D02*
Y29921D01*
X143701D01*
X5118Y201575D02*
X19291D01*
X5118D02*
Y209449D01*
X19291D01*
Y201575D02*
Y209449D01*
X172047Y94882D02*
X186221D01*
Y87008D02*
Y94882D01*
X172047Y87008D02*
X186221D01*
X172047D02*
Y94882D01*
X154724Y42913D02*
X168898D01*
Y35039D02*
Y42913D01*
X154724Y35039D02*
X168898D01*
X154724D02*
Y42913D01*
X169291Y35039D02*
X183465D01*
X169291D02*
Y42913D01*
X183465D01*
Y35039D02*
Y42913D01*
X156693Y104724D02*
X170866D01*
Y96850D02*
Y104724D01*
X156693Y96850D02*
X170866D01*
X156693D02*
Y104724D01*
X80709Y161811D02*
Y175984D01*
X88583D01*
Y161811D02*
Y175984D01*
X80709Y161811D02*
X88583D01*
X172047Y96850D02*
X186221D01*
X172047D02*
Y104724D01*
X186221D01*
Y96850D02*
Y104724D01*
X253543Y45276D02*
X267717D01*
X253543D02*
Y53150D01*
X267717D01*
Y45276D02*
Y53150D01*
X90158Y66929D02*
Y81102D01*
X82284Y66929D02*
X90158D01*
X82284D02*
Y81102D01*
X90158D01*
X16732Y111811D02*
X30906D01*
X16732D02*
Y119685D01*
X30906D01*
Y111811D02*
Y119685D01*
X31693Y89173D02*
X45866D01*
X31693D02*
Y97047D01*
X45866D01*
Y89173D02*
Y97047D01*
X250000Y70079D02*
Y84252D01*
X257874D01*
Y70079D02*
Y84252D01*
X250000Y70079D02*
X257874D01*
X96457Y37402D02*
Y51575D01*
X88583Y37402D02*
X96457D01*
X88583D02*
Y51575D01*
X96457D01*
X73622Y66929D02*
Y81102D01*
X81496D01*
Y66929D02*
Y81102D01*
X73622Y66929D02*
X81496D01*
X178347Y25591D02*
X192520D01*
Y17717D02*
Y25591D01*
X178347Y17717D02*
X192520D01*
X178347D02*
Y25591D01*
X169685Y20079D02*
Y34252D01*
X177559D01*
Y20079D02*
Y34252D01*
X169685Y20079D02*
X177559D01*
X90158Y81890D02*
Y96063D01*
X82284Y81890D02*
X90158D01*
X82284D02*
Y96063D01*
X90158D01*
X50000Y40945D02*
Y55118D01*
X42126Y40945D02*
X50000D01*
X42126D02*
Y55118D01*
X50000D01*
X87402Y37402D02*
Y51575D01*
X79528Y37402D02*
X87402D01*
X79528D02*
Y51575D01*
X87402D01*
X178347Y34252D02*
X192520D01*
Y26378D02*
Y34252D01*
X178347Y26378D02*
X192520D01*
X178347D02*
Y34252D01*
X91732Y186221D02*
X105905D01*
X91732D02*
Y194095D01*
X105905D01*
Y186221D02*
Y194095D01*
X154724Y34252D02*
X168898D01*
Y26378D02*
Y34252D01*
X154724Y26378D02*
X168898D01*
X154724D02*
Y34252D01*
X227559Y126378D02*
X241732D01*
X227559D02*
Y134252D01*
X241732D01*
Y126378D02*
Y134252D01*
X195419Y135259D02*
Y133259D01*
Y134259D01*
X200418D01*
X201417Y133259D01*
Y132260D01*
X200418Y131260D01*
X196419Y137258D02*
X195419Y138258D01*
Y140257D01*
X196419Y141257D01*
X197419D01*
X198418Y140257D01*
X199418Y141257D01*
X200418D01*
X201417Y140257D01*
Y138258D01*
X200418Y137258D01*
X199418D01*
X198418Y138258D01*
X197419Y137258D01*
X196419D01*
X198418Y138258D02*
Y140257D01*
X207972Y241726D02*
Y237728D01*
X209972Y235728D01*
X211971Y237728D01*
Y241726D01*
X213970Y235728D02*
X215970D01*
X214970D01*
Y241726D01*
X213970Y240727D01*
X218969Y241726D02*
X220968D01*
X219969D01*
Y235728D01*
X218969D01*
X220968D01*
X223967D02*
X225967D01*
X224967D01*
Y241726D01*
X223967Y240727D01*
X50492Y235728D02*
Y239727D01*
X52491Y241726D01*
X54491Y239727D01*
Y235728D01*
Y238727D01*
X50492D01*
X56490Y235728D02*
X59489D01*
X60489Y236728D01*
X59489Y237728D01*
X57490D01*
X56490Y238727D01*
X57490Y239727D01*
X60489D01*
X62488Y235728D02*
X65487D01*
X66487Y236728D01*
X65487Y237728D01*
X63488D01*
X62488Y238727D01*
X63488Y239727D01*
X66487D01*
X71485Y235728D02*
X69486D01*
X68486Y236728D01*
Y238727D01*
X69486Y239727D01*
X71485D01*
X72485Y238727D01*
Y237728D01*
X68486D01*
X74484Y235728D02*
Y239727D01*
X75484D01*
X76484Y238727D01*
Y235728D01*
Y238727D01*
X77483Y239727D01*
X78483Y238727D01*
Y235728D01*
X80482Y241726D02*
Y235728D01*
X83482D01*
X84481Y236728D01*
Y237728D01*
Y238727D01*
X83482Y239727D01*
X80482D01*
X86480Y235728D02*
X88480D01*
X87480D01*
Y241726D01*
X86480D01*
X91479Y239727D02*
Y236728D01*
X92479Y235728D01*
X95478D01*
Y234729D01*
X94478Y233729D01*
X93478D01*
X95478Y235728D02*
Y239727D01*
X103475Y241726D02*
X107474D01*
X105474D01*
Y235728D01*
X112472Y241726D02*
X110473D01*
X109473Y240727D01*
Y236728D01*
X110473Y235728D01*
X112472D01*
X113472Y236728D01*
Y240727D01*
X112472Y241726D01*
X115471Y235728D02*
Y241726D01*
X118470D01*
X119470Y240727D01*
Y238727D01*
X118470Y237728D01*
X115471D01*
X128467Y235728D02*
X130466D01*
X131466Y236728D01*
Y238727D01*
X130466Y239727D01*
X128467D01*
X127467Y238727D01*
Y236728D01*
X128467Y235728D01*
X134465D02*
Y240727D01*
Y238727D01*
X133465D01*
X135465D01*
X134465D01*
Y240727D01*
X135465Y241726D01*
X144462Y235728D02*
Y241726D01*
X146461Y239727D01*
X148460Y241726D01*
Y235728D01*
X150460D02*
X152459D01*
X151460D01*
Y239727D01*
X150460D01*
X155458Y235728D02*
Y241726D01*
Y237728D02*
X158457Y239727D01*
X155458Y237728D02*
X158457Y235728D01*
X164455D02*
X162456D01*
X161456Y236728D01*
Y238727D01*
X162456Y239727D01*
X164455D01*
X165455Y238727D01*
Y237728D01*
X161456D01*
X171453Y241726D02*
Y235728D01*
X168454D01*
X167454Y236728D01*
Y238727D01*
X168454Y239727D01*
X171453D01*
X173452D02*
Y236728D01*
X174452Y235728D01*
X177451D01*
Y239727D01*
X179450Y235728D02*
X181450D01*
X180450D01*
Y239727D01*
X179450D01*
X184449Y235728D02*
Y239727D01*
X187448D01*
X188447Y238727D01*
Y235728D01*
X191446D02*
X193446D01*
X194446Y236728D01*
Y238727D01*
X193446Y239727D01*
X191446D01*
X190447Y238727D01*
Y236728D01*
X191446Y235728D01*
X143369Y13085D02*
X141369D01*
X142369D01*
Y8086D01*
X141369Y7087D01*
X140370D01*
X139370Y8086D01*
X145368Y7087D02*
X147368D01*
X146368D01*
Y13085D01*
X145368Y12085D01*
X213054Y203242D02*
X211054D01*
X212054D01*
Y198244D01*
X211054Y197244D01*
X210055D01*
X209055Y198244D01*
X215053Y202242D02*
X216053Y203242D01*
X218052D01*
X219052Y202242D01*
Y201243D01*
X218052Y200243D01*
X217053D01*
X218052D01*
X219052Y199243D01*
Y198244D01*
X218052Y197244D01*
X216053D01*
X215053Y198244D01*
X117385Y202849D02*
X115385D01*
X116385D01*
Y197850D01*
X115385Y196850D01*
X114385D01*
X113386Y197850D01*
X122383Y196850D02*
Y202849D01*
X119384Y199849D01*
X123383D01*
X227227Y13085D02*
X225228D01*
X226227D01*
Y8086D01*
X225228Y7087D01*
X224228D01*
X223228Y8086D01*
X233225Y7087D02*
X229226D01*
X233225Y11085D01*
Y12085D01*
X232225Y13085D01*
X230226D01*
X229226Y12085D01*
X18566Y193793D02*
X16566D01*
X17566D01*
Y188795D01*
X16566Y187795D01*
X15567D01*
X14567Y188795D01*
X24564Y193793D02*
X20565D01*
Y190794D01*
X22564Y191794D01*
X23564D01*
X24564Y190794D01*
Y188795D01*
X23564Y187795D01*
X21565D01*
X20565Y188795D01*
X18172Y160722D02*
X16173D01*
X17172D01*
Y155724D01*
X16173Y154724D01*
X15173D01*
X14173Y155724D01*
X24170Y160722D02*
X22171Y159723D01*
X20171Y157723D01*
Y155724D01*
X21171Y154724D01*
X23170D01*
X24170Y155724D01*
Y156724D01*
X23170Y157723D01*
X20171D01*
X11007Y133557D02*
X9007D01*
X10007D01*
Y128559D01*
X9007Y127559D01*
X8008D01*
X7008Y128559D01*
X13006Y127559D02*
Y133557D01*
X16005D01*
X17005Y132557D01*
Y130558D01*
X16005Y129558D01*
X13006D01*
X23003Y127559D02*
X19004D01*
X23003Y131558D01*
Y132557D01*
X22003Y133557D01*
X20004D01*
X19004Y132557D01*
X54632Y156755D02*
Y154755D01*
Y155755D01*
X59630D01*
X60630Y154755D01*
Y153756D01*
X59630Y152756D01*
X60630Y158754D02*
X54632D01*
Y161753D01*
X55632Y162753D01*
X57631D01*
X58631Y161753D01*
Y158754D01*
X55632Y164752D02*
X54632Y165752D01*
Y167751D01*
X55632Y168751D01*
X56631D01*
X57631Y167751D01*
Y166751D01*
Y167751D01*
X58631Y168751D01*
X59630D01*
X60630Y167751D01*
Y165752D01*
X59630Y164752D01*
X257782Y170928D02*
Y168929D01*
Y169928D01*
X262780D01*
X263779Y168929D01*
Y167929D01*
X262780Y166929D01*
X263779Y172927D02*
X257782D01*
Y175926D01*
X258781Y176926D01*
X260781D01*
X261780Y175926D01*
Y172927D01*
X263779Y178925D02*
Y180925D01*
Y179925D01*
X257782D01*
X258781Y178925D01*
X52030Y37494D02*
X50031D01*
X51030D01*
Y32496D01*
X50031Y31496D01*
X49031D01*
X48031Y32496D01*
X54030Y31496D02*
Y37494D01*
X57029D01*
X58028Y36494D01*
Y34495D01*
X57029Y33495D01*
X54030D01*
X63027Y31496D02*
Y37494D01*
X60028Y34495D01*
X64026D01*
X167717Y116234D02*
Y115235D01*
X169716Y113235D01*
X171715Y115235D01*
Y116234D01*
X169716Y113235D02*
Y110236D01*
X173715D02*
X175714D01*
X174714D01*
Y116234D01*
X173715Y115235D01*
X95183Y111024D02*
X96183D01*
X98182Y113023D01*
X96183Y115022D01*
X95183D01*
X98182Y113023D02*
X101181D01*
Y121020D02*
Y117022D01*
X97182Y121020D01*
X96183D01*
X95183Y120021D01*
Y118021D01*
X96183Y117022D01*
X6207Y78408D02*
Y76409D01*
Y77408D01*
X11205D01*
X12205Y76409D01*
Y75409D01*
X11205Y74410D01*
X6207Y80408D02*
Y84406D01*
X7206D01*
X11205Y80408D01*
X12205D01*
D70*
X249474Y114697D02*
X248424Y115746D01*
X246325D01*
X245276Y114697D01*
Y113647D01*
X246325Y112597D01*
X248424D01*
X249474Y111548D01*
Y110498D01*
X248424Y109449D01*
X246325D01*
X245276Y110498D01*
X251573Y109449D02*
X253672D01*
X252622D01*
Y115746D01*
X251573Y114697D01*
X85300Y20208D02*
X84251Y21258D01*
X82152D01*
X81102Y20208D01*
Y19159D01*
X82152Y18109D01*
X84251D01*
X85300Y17060D01*
Y16010D01*
X84251Y14961D01*
X82152D01*
X81102Y16010D01*
X91598Y14961D02*
X87400D01*
X91598Y19159D01*
Y20208D01*
X90548Y21258D01*
X88449D01*
X87400Y20208D01*
X54724Y122045D02*
Y116141D01*
X55905Y114961D01*
X58267D01*
X59447Y116141D01*
Y122045D01*
X66532Y114961D02*
X61809D01*
X66532Y119684D01*
Y120864D01*
X65351Y122045D01*
X62989D01*
X61809Y120864D01*
D84*
X31102Y80709D02*
Y91732D01*
X24803Y80709D02*
X31102D01*
X24803D02*
Y91732D01*
X31102D01*
X24803Y68898D02*
Y79921D01*
X31102D01*
Y68898D02*
Y79921D01*
X24803Y68898D02*
X31102D01*
X4332Y33465D02*
X8268D01*
Y36088D01*
Y37400D02*
Y38712D01*
Y38056D01*
X4332D01*
X4988Y37400D01*
X69685Y152362D02*
X66536D01*
Y153937D01*
X67061Y154461D01*
X68111D01*
X68635Y153937D01*
Y152362D01*
Y153412D02*
X69685Y154461D01*
Y155511D02*
Y156560D01*
Y156036D01*
X66536D01*
X67061Y155511D01*
X107087Y170768D02*
Y173916D01*
X108661D01*
X109186Y173391D01*
Y172342D01*
X108661Y171817D01*
X107087D01*
X108136D02*
X109186Y170768D01*
X112334D02*
X110235D01*
X112334Y172867D01*
Y173391D01*
X111810Y173916D01*
X110760D01*
X110235Y173391D01*
X107087Y161319D02*
Y164468D01*
X108661D01*
X109186Y163943D01*
Y162893D01*
X108661Y162368D01*
X107087D01*
X108136D02*
X109186Y161319D01*
X110235Y163943D02*
X110760Y164468D01*
X111810D01*
X112334Y163943D01*
Y163418D01*
X111810Y162893D01*
X111285D01*
X111810D01*
X112334Y162368D01*
Y161844D01*
X111810Y161319D01*
X110760D01*
X110235Y161844D01*
X33463Y136221D02*
Y139369D01*
X35038D01*
X35563Y138844D01*
Y137795D01*
X35038Y137270D01*
X33463D01*
X34513D02*
X35563Y136221D01*
X38711Y139369D02*
X36612D01*
Y137795D01*
X37662Y138320D01*
X38186D01*
X38711Y137795D01*
Y136745D01*
X38186Y136221D01*
X37137D01*
X36612Y136745D01*
X35827Y83071D02*
Y86220D01*
X37401D01*
X37926Y85695D01*
Y84645D01*
X37401Y84120D01*
X35827D01*
X36876D02*
X37926Y83071D01*
X41074Y86220D02*
X40025Y85695D01*
X38975Y84645D01*
Y83596D01*
X39500Y83071D01*
X40550D01*
X41074Y83596D01*
Y84120D01*
X40550Y84645D01*
X38975D01*
X35433Y74410D02*
Y77558D01*
X37007D01*
X37532Y77033D01*
Y75984D01*
X37007Y75459D01*
X35433D01*
X36483D02*
X37532Y74410D01*
X38582Y77558D02*
X40681D01*
Y77033D01*
X38582Y74934D01*
Y74410D01*
X35433Y65748D02*
Y68897D01*
X37007D01*
X37532Y68372D01*
Y67322D01*
X37007Y66798D01*
X35433D01*
X36483D02*
X37532Y65748D01*
X38582Y68372D02*
X39106Y68897D01*
X40156D01*
X40681Y68372D01*
Y67847D01*
X40156Y67322D01*
X40681Y66798D01*
Y66273D01*
X40156Y65748D01*
X39106D01*
X38582Y66273D01*
Y66798D01*
X39106Y67322D01*
X38582Y67847D01*
Y68372D01*
X39106Y67322D02*
X40156D01*
X87402Y105118D02*
X84253D01*
Y106692D01*
X84778Y107217D01*
X85827D01*
X86352Y106692D01*
Y105118D01*
Y106168D02*
X87402Y107217D01*
X86877Y108267D02*
X87402Y108791D01*
Y109841D01*
X86877Y110366D01*
X84778D01*
X84253Y109841D01*
Y108791D01*
X84778Y108267D01*
X85303D01*
X85827Y108791D01*
Y110366D01*
X242520Y178740D02*
X239371D01*
Y180315D01*
X239896Y180839D01*
X240945D01*
X241470Y180315D01*
Y178740D01*
Y179790D02*
X242520Y180839D01*
Y181889D02*
Y182938D01*
Y182413D01*
X239371D01*
X239896Y181889D01*
Y184513D02*
X239371Y185037D01*
Y186087D01*
X239896Y186612D01*
X241995D01*
X242520Y186087D01*
Y185037D01*
X241995Y184513D01*
X239896D01*
X231496Y179528D02*
X228347D01*
Y181102D01*
X228872Y181627D01*
X229922D01*
X230447Y181102D01*
Y179528D01*
Y180577D02*
X231496Y181627D01*
Y182676D02*
Y183726D01*
Y183201D01*
X228347D01*
X228872Y182676D01*
X231496Y185300D02*
Y186349D01*
Y185825D01*
X228347D01*
X228872Y185300D01*
X251969Y162205D02*
X248820D01*
Y163779D01*
X249345Y164304D01*
X250394D01*
X250919Y163779D01*
Y162205D01*
Y163254D02*
X251969Y164304D01*
Y165353D02*
Y166403D01*
Y165878D01*
X248820D01*
X249345Y165353D01*
X251969Y170076D02*
Y167977D01*
X249869Y170076D01*
X249345D01*
X248820Y169551D01*
Y168502D01*
X249345Y167977D01*
X144095Y37402D02*
Y40550D01*
X145669D01*
X146194Y40025D01*
Y38976D01*
X145669Y38451D01*
X144095D01*
X145144D02*
X146194Y37402D01*
X147243D02*
X148293D01*
X147768D01*
Y40550D01*
X147243Y40025D01*
X149867D02*
X150392Y40550D01*
X151441D01*
X151966Y40025D01*
Y39501D01*
X151441Y38976D01*
X150916D01*
X151441D01*
X151966Y38451D01*
Y37926D01*
X151441Y37402D01*
X150392D01*
X149867Y37926D01*
X237795Y88583D02*
Y91731D01*
X239370D01*
X239894Y91207D01*
Y90157D01*
X239370Y89632D01*
X237795D01*
X238845D02*
X239894Y88583D01*
X240944D02*
X241993D01*
X241469D01*
Y91731D01*
X240944Y91207D01*
X245142Y88583D02*
Y91731D01*
X243568Y90157D01*
X245667D01*
X92913Y172441D02*
Y175590D01*
X94488D01*
X95012Y175065D01*
Y174015D01*
X94488Y173491D01*
X92913D01*
X93963D02*
X95012Y172441D01*
X96062D02*
X97111D01*
X96587D01*
Y175590D01*
X96062Y175065D01*
X100785Y175590D02*
X98686D01*
Y174015D01*
X99735Y174540D01*
X100260D01*
X100785Y174015D01*
Y172966D01*
X100260Y172441D01*
X99211D01*
X98686Y172966D01*
X160236Y89370D02*
Y92519D01*
X161811D01*
X162335Y91994D01*
Y90944D01*
X161811Y90420D01*
X160236D01*
X161286D02*
X162335Y89370D01*
X163385D02*
X164434D01*
X163910D01*
Y92519D01*
X163385Y91994D01*
X168108Y92519D02*
X167058Y91994D01*
X166009Y90944D01*
Y89895D01*
X166533Y89370D01*
X167583D01*
X168108Y89895D01*
Y90420D01*
X167583Y90944D01*
X166009D01*
X230709Y137402D02*
Y140550D01*
X232283D01*
X232808Y140025D01*
Y138976D01*
X232283Y138451D01*
X230709D01*
X231758D02*
X232808Y137402D01*
X233857D02*
X234907D01*
X234382D01*
Y140550D01*
X233857Y140025D01*
X236481Y140550D02*
X238580D01*
Y140025D01*
X236481Y137926D01*
Y137402D01*
X264173Y73228D02*
X261025D01*
Y74803D01*
X261549Y75327D01*
X262599D01*
X263124Y74803D01*
Y73228D01*
Y74278D02*
X264173Y75327D01*
Y76377D02*
Y77426D01*
Y76902D01*
X261025D01*
X261549Y76377D01*
Y79001D02*
X261025Y79526D01*
Y80575D01*
X261549Y81100D01*
X262074D01*
X262599Y80575D01*
X263124Y81100D01*
X263649D01*
X264173Y80575D01*
Y79526D01*
X263649Y79001D01*
X263124D01*
X262599Y79526D01*
X262074Y79001D01*
X261549D01*
X262599Y79526D02*
Y80575D01*
X13780Y108268D02*
X10631D01*
Y109842D01*
X11156Y110367D01*
X12205D01*
X12730Y109842D01*
Y108268D01*
Y109317D02*
X13780Y110367D01*
Y111416D02*
Y112466D01*
Y111941D01*
X10631D01*
X11156Y111416D01*
X13255Y114040D02*
X13780Y114565D01*
Y115614D01*
X13255Y116139D01*
X11156D01*
X10631Y115614D01*
Y114565D01*
X11156Y114040D01*
X11681D01*
X12205Y114565D01*
Y116139D01*
X264173Y87402D02*
X261025D01*
Y88976D01*
X261549Y89501D01*
X262599D01*
X263124Y88976D01*
Y87402D01*
Y88451D02*
X264173Y89501D01*
Y92649D02*
Y90550D01*
X262074Y92649D01*
X261549D01*
X261025Y92124D01*
Y91075D01*
X261549Y90550D01*
Y93699D02*
X261025Y94223D01*
Y95273D01*
X261549Y95798D01*
X263649D01*
X264173Y95273D01*
Y94223D01*
X263649Y93699D01*
X261549D01*
X109449Y19291D02*
X106300D01*
Y20866D01*
X106825Y21390D01*
X107875D01*
X108399Y20866D01*
Y19291D01*
Y20341D02*
X109449Y21390D01*
Y24539D02*
Y22440D01*
X107350Y24539D01*
X106825D01*
X106300Y24014D01*
Y22965D01*
X106825Y22440D01*
X109449Y25589D02*
Y26638D01*
Y26113D01*
X106300D01*
X106825Y25589D01*
X101969Y54724D02*
X98820D01*
Y56299D01*
X99345Y56823D01*
X100394D01*
X100919Y56299D01*
Y54724D01*
Y55774D02*
X101969Y56823D01*
Y59972D02*
Y57873D01*
X99869Y59972D01*
X99345D01*
X98820Y59447D01*
Y58398D01*
X99345Y57873D01*
X101969Y63121D02*
Y61022D01*
X99869Y63121D01*
X99345D01*
X98820Y62596D01*
Y61546D01*
X99345Y61022D01*
X3937Y98425D02*
Y101574D01*
X5511D01*
X6036Y101049D01*
Y99999D01*
X5511Y99475D01*
X3937D01*
X4986D02*
X6036Y98425D01*
X9185D02*
X7086D01*
X9185Y100524D01*
Y101049D01*
X8660Y101574D01*
X7610D01*
X7086Y101049D01*
X10234D02*
X10759Y101574D01*
X11808D01*
X12333Y101049D01*
Y100524D01*
X11808Y99999D01*
X11284D01*
X11808D01*
X12333Y99475D01*
Y98950D01*
X11808Y98425D01*
X10759D01*
X10234Y98950D01*
X255512Y87402D02*
X252363D01*
Y88976D01*
X252888Y89501D01*
X253938D01*
X254462Y88976D01*
Y87402D01*
Y88451D02*
X255512Y89501D01*
Y92649D02*
Y90550D01*
X253413Y92649D01*
X252888D01*
X252363Y92124D01*
Y91075D01*
X252888Y90550D01*
X255512Y95273D02*
X252363D01*
X253938Y93699D01*
Y95798D01*
X105905Y32677D02*
Y35826D01*
X107480D01*
X108005Y35301D01*
Y34251D01*
X107480Y33727D01*
X105905D01*
X106955D02*
X108005Y32677D01*
X111153D02*
X109054D01*
X111153Y34776D01*
Y35301D01*
X110628Y35826D01*
X109579D01*
X109054Y35301D01*
X114302Y35826D02*
X112203D01*
Y34251D01*
X113252Y34776D01*
X113777D01*
X114302Y34251D01*
Y33202D01*
X113777Y32677D01*
X112727D01*
X112203Y33202D01*
X49213Y82677D02*
Y85826D01*
X50787D01*
X51312Y85301D01*
Y84251D01*
X50787Y83727D01*
X49213D01*
X50262D02*
X51312Y82677D01*
X54460D02*
X52361D01*
X54460Y84776D01*
Y85301D01*
X53935Y85826D01*
X52886D01*
X52361Y85301D01*
X57609Y85826D02*
X56559Y85301D01*
X55510Y84251D01*
Y83202D01*
X56035Y82677D01*
X57084D01*
X57609Y83202D01*
Y83727D01*
X57084Y84251D01*
X55510D01*
X125984Y30709D02*
Y33857D01*
X127559D01*
X128083Y33332D01*
Y32283D01*
X127559Y31758D01*
X125984D01*
X127034D02*
X128083Y30709D01*
X131232D02*
X129133D01*
X131232Y32808D01*
Y33332D01*
X130707Y33857D01*
X129658D01*
X129133Y33332D01*
X132281Y33857D02*
X134380D01*
Y33332D01*
X132281Y31233D01*
Y30709D01*
X125591Y19291D02*
Y22440D01*
X127165D01*
X127690Y21915D01*
Y20866D01*
X127165Y20341D01*
X125591D01*
X126640D02*
X127690Y19291D01*
X130838D02*
X128739D01*
X130838Y21390D01*
Y21915D01*
X130313Y22440D01*
X129264D01*
X128739Y21915D01*
X131888D02*
X132413Y22440D01*
X133462D01*
X133987Y21915D01*
Y21390D01*
X133462Y20866D01*
X133987Y20341D01*
Y19816D01*
X133462Y19291D01*
X132413D01*
X131888Y19816D01*
Y20341D01*
X132413Y20866D01*
X131888Y21390D01*
Y21915D01*
X132413Y20866D02*
X133462D01*
X37008Y104331D02*
X33859D01*
Y105905D01*
X34384Y106430D01*
X35434D01*
X35958Y105905D01*
Y104331D01*
Y105380D02*
X37008Y106430D01*
Y109054D02*
X33859D01*
X35434Y107479D01*
Y109578D01*
D85*
X21654Y105117D02*
Y103149D01*
X22047Y102756D01*
X22834D01*
X23228Y103149D01*
Y105117D01*
X25589D02*
X24015D01*
Y103937D01*
X24802Y104330D01*
X25196D01*
X25589Y103937D01*
Y103149D01*
X25196Y102756D01*
X24408D01*
X24015Y103149D01*
X70473Y166929D02*
X72441D01*
X72835Y167323D01*
Y168110D01*
X72441Y168503D01*
X70473D01*
X72835Y170471D02*
X70473D01*
X71654Y169291D01*
Y170865D01*
X257874Y62991D02*
Y61023D01*
X258268Y60630D01*
X259055D01*
X259448Y61023D01*
Y62991D01*
X261810D02*
X261023Y62598D01*
X260236Y61811D01*
Y61023D01*
X260629Y60630D01*
X261416D01*
X261810Y61023D01*
Y61417D01*
X261416Y61811D01*
X260236D01*
X86221Y56693D02*
X88189D01*
X88583Y57086D01*
Y57874D01*
X88189Y58267D01*
X86221D01*
Y59054D02*
Y60629D01*
X86615D01*
X88189Y59054D01*
X88583D01*
X232677Y148031D02*
Y145669D01*
X233858D01*
X234251Y146063D01*
Y147637D01*
X233858Y148031D01*
X232677D01*
X235039Y145669D02*
X235826D01*
X235432D01*
Y148031D01*
X235039Y147637D01*
X94882Y166535D02*
Y164173D01*
X96063D01*
X96456Y164567D01*
Y166141D01*
X96063Y166535D01*
X94882D01*
X98818Y164173D02*
X97243D01*
X98818Y165747D01*
Y166141D01*
X98424Y166535D01*
X97637D01*
X97243Y166141D01*
X94882Y158267D02*
Y155905D01*
X96063D01*
X96456Y156299D01*
Y157873D01*
X96063Y158267D01*
X94882D01*
X97243Y157873D02*
X97637Y158267D01*
X98424D01*
X98818Y157873D01*
Y157480D01*
X98424Y157086D01*
X98031D01*
X98424D01*
X98818Y156693D01*
Y156299D01*
X98424Y155905D01*
X97637D01*
X97243Y156299D01*
X94882Y150393D02*
Y148031D01*
X96063D01*
X96456Y148425D01*
Y149999D01*
X96063Y150393D01*
X94882D01*
X98424Y148031D02*
Y150393D01*
X97243Y149212D01*
X98818D01*
X3937Y110236D02*
X5512D01*
Y111023D01*
X5249Y111286D01*
X4200D01*
X3937Y111023D01*
Y110236D01*
Y112860D02*
Y111811D01*
X4725D01*
X4462Y112335D01*
Y112598D01*
X4725Y112860D01*
X5249D01*
X5512Y112598D01*
Y112073D01*
X5249Y111811D01*
X240945Y97637D02*
Y96063D01*
X241732D01*
X241994Y96325D01*
Y97375D01*
X241732Y97637D01*
X240945D01*
X243569D02*
X243044Y97375D01*
X242519Y96850D01*
Y96325D01*
X242782Y96063D01*
X243306D01*
X243569Y96325D01*
Y96588D01*
X243306Y96850D01*
X242519D01*
X29134Y83465D02*
X26772D01*
Y84645D01*
X27166Y85039D01*
X27953D01*
X28347Y84645D01*
Y83465D01*
Y84252D02*
X29134Y85039D01*
X26772Y85826D02*
X28347D01*
X29134Y86613D01*
X28347Y87400D01*
X26772D01*
X29134Y88187D02*
Y88975D01*
Y88581D01*
X26772D01*
X27166Y88187D01*
X29134Y71260D02*
X26772D01*
Y72441D01*
X27166Y72834D01*
X27953D01*
X28347Y72441D01*
Y71260D01*
Y72047D02*
X29134Y72834D01*
X26772Y73621D02*
X28347D01*
X29134Y74408D01*
X28347Y75196D01*
X26772D01*
X29134Y77557D02*
Y75983D01*
X27560Y77557D01*
X27166D01*
X26772Y77163D01*
Y76376D01*
X27166Y75983D01*
X76772Y88582D02*
X76379Y88189D01*
Y87401D01*
X76772Y87008D01*
X78347D01*
X78740Y87401D01*
Y88189D01*
X78347Y88582D01*
X78740Y90550D02*
X76379D01*
X77559Y89369D01*
Y90944D01*
X85040Y121653D02*
X84646Y121259D01*
Y120472D01*
X85040Y120079D01*
X86614D01*
X87008Y120472D01*
Y121259D01*
X86614Y121653D01*
X84646Y124014D02*
Y122440D01*
X85827D01*
X85434Y123227D01*
Y123621D01*
X85827Y124014D01*
X86614D01*
X87008Y123621D01*
Y122834D01*
X86614Y122440D01*
X68111Y88582D02*
X67717Y88189D01*
Y87401D01*
X68111Y87008D01*
X69685D01*
X70079Y87401D01*
Y88189D01*
X69685Y88582D01*
X67717Y90944D02*
X68111Y90157D01*
X68898Y89369D01*
X69685D01*
X70079Y89763D01*
Y90550D01*
X69685Y90944D01*
X69292D01*
X68898Y90550D01*
Y89369D01*
X52755Y93700D02*
X52362Y94094D01*
X51575D01*
X51181Y93700D01*
Y92126D01*
X51575Y91732D01*
X52362D01*
X52755Y92126D01*
X53543Y94094D02*
X55117D01*
Y93700D01*
X53543Y92126D01*
Y91732D01*
X8268Y173621D02*
X7875Y173228D01*
Y172441D01*
X8268Y172047D01*
X9843D01*
X10236Y172441D01*
Y173228D01*
X9843Y173621D01*
X8268Y174409D02*
X7875Y174802D01*
Y175589D01*
X8268Y175983D01*
X8662D01*
X9055Y175589D01*
X9449Y175983D01*
X9843D01*
X10236Y175589D01*
Y174802D01*
X9843Y174409D01*
X9449D01*
X9055Y174802D01*
X8662Y174409D01*
X8268D01*
X9055Y174802D02*
Y175589D01*
X98818Y137401D02*
X98425Y137794D01*
X97638D01*
X97244Y137401D01*
Y135827D01*
X97638Y135433D01*
X98425D01*
X98818Y135827D01*
X99606D02*
X99999Y135433D01*
X100786D01*
X101180Y135827D01*
Y137401D01*
X100786Y137794D01*
X99999D01*
X99606Y137401D01*
Y137007D01*
X99999Y136614D01*
X101180D01*
X97637Y96062D02*
X97244Y96456D01*
X96457D01*
X96063Y96062D01*
Y94488D01*
X96457Y94095D01*
X97244D01*
X97637Y94488D01*
X98424Y94095D02*
X99212D01*
X98818D01*
Y96456D01*
X98424Y96062D01*
X100392D02*
X100786Y96456D01*
X101573D01*
X101967Y96062D01*
Y94488D01*
X101573Y94095D01*
X100786D01*
X100392Y94488D01*
Y96062D01*
X249607Y181496D02*
X249213Y181102D01*
Y180315D01*
X249607Y179921D01*
X251181D01*
X251575Y180315D01*
Y181102D01*
X251181Y181496D01*
X251575Y182283D02*
Y183070D01*
Y182676D01*
X249213D01*
X249607Y182283D01*
X251575Y184251D02*
Y185038D01*
Y184644D01*
X249213D01*
X249607Y184251D01*
X153149Y20472D02*
X152755Y20865D01*
X151968D01*
X151575Y20472D01*
Y18898D01*
X151968Y18504D01*
X152755D01*
X153149Y18898D01*
X153936Y18504D02*
X154723D01*
X154330D01*
Y20865D01*
X153936Y20472D01*
X157085Y18504D02*
Y20865D01*
X155904Y19685D01*
X157478D01*
X119292Y22047D02*
X118898Y21653D01*
Y20866D01*
X119292Y20472D01*
X120866D01*
X121260Y20866D01*
Y21653D01*
X120866Y22047D01*
X121260Y22834D02*
Y23621D01*
Y23227D01*
X118898D01*
X119292Y22834D01*
X118898Y26376D02*
Y24802D01*
X120079D01*
X119685Y25589D01*
Y25982D01*
X120079Y26376D01*
X120866D01*
X121260Y25982D01*
Y25195D01*
X120866Y24802D01*
X138977Y22047D02*
X138583Y21653D01*
Y20866D01*
X138977Y20472D01*
X140551D01*
X140945Y20866D01*
Y21653D01*
X140551Y22047D01*
X140945Y22834D02*
Y23621D01*
Y23227D01*
X138583D01*
X138977Y22834D01*
X138583Y26376D02*
X138977Y25589D01*
X139764Y24802D01*
X140551D01*
X140945Y25195D01*
Y25982D01*
X140551Y26376D01*
X140158D01*
X139764Y25982D01*
Y24802D01*
X11023Y206299D02*
X10629Y206692D01*
X9842D01*
X9449Y206299D01*
Y204724D01*
X9842Y204331D01*
X10629D01*
X11023Y204724D01*
X11810Y204331D02*
X12597D01*
X12204D01*
Y206692D01*
X11810Y206299D01*
X13778Y206692D02*
X15352D01*
Y206299D01*
X13778Y204724D01*
Y204331D01*
X177559Y91732D02*
X177165Y92125D01*
X176378D01*
X175984Y91732D01*
Y90157D01*
X176378Y89764D01*
X177165D01*
X177559Y90157D01*
X179920Y89764D02*
X178346D01*
X179920Y91338D01*
Y91732D01*
X179526Y92125D01*
X178739D01*
X178346Y91732D01*
X180707D02*
X181101Y92125D01*
X181888D01*
X182281Y91732D01*
Y90157D01*
X181888Y89764D01*
X181101D01*
X180707Y90157D01*
Y91732D01*
X159842Y40157D02*
X159448Y40550D01*
X158661D01*
X158268Y40157D01*
Y38583D01*
X158661Y38189D01*
X159448D01*
X159842Y38583D01*
X162203Y38189D02*
X160629D01*
X162203Y39763D01*
Y40157D01*
X161810Y40550D01*
X161023D01*
X160629Y40157D01*
X162991D02*
X163384Y40550D01*
X164171D01*
X164565Y40157D01*
Y39763D01*
X164171Y39370D01*
X163778D01*
X164171D01*
X164565Y38976D01*
Y38583D01*
X164171Y38189D01*
X163384D01*
X162991Y38583D01*
X174803Y39763D02*
X174409Y40157D01*
X173622D01*
X173228Y39763D01*
Y38189D01*
X173622Y37795D01*
X174409D01*
X174803Y38189D01*
X177164Y37795D02*
X175590D01*
X177164Y39370D01*
Y39763D01*
X176770Y40157D01*
X175983D01*
X175590Y39763D01*
X179132Y37795D02*
Y40157D01*
X177951Y38976D01*
X179525D01*
X161811Y101574D02*
X161417Y101968D01*
X160630D01*
X160236Y101574D01*
Y100000D01*
X160630Y99606D01*
X161417D01*
X161811Y100000D01*
X164172Y99606D02*
X162598D01*
X164172Y101181D01*
Y101574D01*
X163778Y101968D01*
X162991D01*
X162598Y101574D01*
X166533Y101968D02*
X164959D01*
Y100787D01*
X165746Y101181D01*
X166140D01*
X166533Y100787D01*
Y100000D01*
X166140Y99606D01*
X165353D01*
X164959Y100000D01*
X83859Y167322D02*
X83465Y166929D01*
Y166142D01*
X83859Y165748D01*
X85433D01*
X85827Y166142D01*
Y166929D01*
X85433Y167322D01*
X85827Y169684D02*
Y168110D01*
X84253Y169684D01*
X83859D01*
X83465Y169290D01*
Y168503D01*
X83859Y168110D01*
X83465Y172045D02*
X83859Y171258D01*
X84646Y170471D01*
X85433D01*
X85827Y170864D01*
Y171652D01*
X85433Y172045D01*
X85040D01*
X84646Y171652D01*
Y170471D01*
X178345Y101574D02*
X177952Y101968D01*
X177164D01*
X176771Y101574D01*
Y100000D01*
X177164Y99606D01*
X177952D01*
X178345Y100000D01*
X180707Y99606D02*
X179132D01*
X180707Y101181D01*
Y101574D01*
X180313Y101968D01*
X179526D01*
X179132Y101574D01*
X181494Y101968D02*
X183068D01*
Y101574D01*
X181494Y100000D01*
Y99606D01*
X259448Y49606D02*
X259055Y49999D01*
X258268D01*
X257874Y49606D01*
Y48031D01*
X258268Y47638D01*
X259055D01*
X259448Y48031D01*
X261810Y47638D02*
X260236D01*
X261810Y49212D01*
Y49606D01*
X261416Y49999D01*
X260629D01*
X260236Y49606D01*
X262597D02*
X262990Y49999D01*
X263778D01*
X264171Y49606D01*
Y49212D01*
X263778Y48818D01*
X264171Y48425D01*
Y48031D01*
X263778Y47638D01*
X262990D01*
X262597Y48031D01*
Y48425D01*
X262990Y48818D01*
X262597Y49212D01*
Y49606D01*
X262990Y48818D02*
X263778D01*
X85040Y73228D02*
X84646Y72834D01*
Y72047D01*
X85040Y71653D01*
X86614D01*
X87008Y72047D01*
Y72834D01*
X86614Y73228D01*
X87008Y75589D02*
Y74015D01*
X85434Y75589D01*
X85040D01*
X84646Y75196D01*
Y74409D01*
X85040Y74015D01*
X86614Y76376D02*
X87008Y76770D01*
Y77557D01*
X86614Y77951D01*
X85040D01*
X84646Y77557D01*
Y76770D01*
X85040Y76376D01*
X85434D01*
X85827Y76770D01*
Y77951D01*
X22440Y116535D02*
X22047Y116928D01*
X21260D01*
X20866Y116535D01*
Y114961D01*
X21260Y114567D01*
X22047D01*
X22440Y114961D01*
X23228Y116535D02*
X23621Y116928D01*
X24408D01*
X24802Y116535D01*
Y116141D01*
X24408Y115748D01*
X24015D01*
X24408D01*
X24802Y115354D01*
Y114961D01*
X24408Y114567D01*
X23621D01*
X23228Y114961D01*
X25589Y116535D02*
X25983Y116928D01*
X26770D01*
X27163Y116535D01*
Y114961D01*
X26770Y114567D01*
X25983D01*
X25589Y114961D01*
Y116535D01*
X37401Y93700D02*
X37007Y94094D01*
X36220D01*
X35827Y93700D01*
Y92126D01*
X36220Y91732D01*
X37007D01*
X37401Y92126D01*
X38188Y93700D02*
X38582Y94094D01*
X39369D01*
X39762Y93700D01*
Y93307D01*
X39369Y92913D01*
X38975D01*
X39369D01*
X39762Y92519D01*
Y92126D01*
X39369Y91732D01*
X38582D01*
X38188Y92126D01*
X40550Y91732D02*
X41337D01*
X40943D01*
Y94094D01*
X40550Y93700D01*
X253150Y75196D02*
X252757Y74803D01*
Y74016D01*
X253150Y73622D01*
X254725D01*
X255118Y74016D01*
Y74803D01*
X254725Y75196D01*
X253150Y75984D02*
X252757Y76377D01*
Y77164D01*
X253150Y77558D01*
X253544D01*
X253937Y77164D01*
Y76771D01*
Y77164D01*
X254331Y77558D01*
X254725D01*
X255118Y77164D01*
Y76377D01*
X254725Y75984D01*
X255118Y79919D02*
Y78345D01*
X253544Y79919D01*
X253150D01*
X252757Y79526D01*
Y78738D01*
X253150Y78345D01*
X91733Y43307D02*
X91339Y42913D01*
Y42126D01*
X91733Y41732D01*
X93307D01*
X93701Y42126D01*
Y42913D01*
X93307Y43307D01*
X91733Y44094D02*
X91339Y44487D01*
Y45274D01*
X91733Y45668D01*
X92127D01*
X92520Y45274D01*
Y44881D01*
Y45274D01*
X92914Y45668D01*
X93307D01*
X93701Y45274D01*
Y44487D01*
X93307Y44094D01*
X91733Y46455D02*
X91339Y46849D01*
Y47636D01*
X91733Y48030D01*
X92127D01*
X92520Y47636D01*
Y47242D01*
Y47636D01*
X92914Y48030D01*
X93307D01*
X93701Y47636D01*
Y46849D01*
X93307Y46455D01*
X76379Y73621D02*
Y72047D01*
X78740D01*
Y73621D01*
X77559Y72047D02*
Y72834D01*
X78740Y74409D02*
Y75196D01*
Y74802D01*
X76379D01*
X76772Y74409D01*
X185039Y22834D02*
X183465D01*
Y20472D01*
X185039D01*
X183465Y21653D02*
X184252D01*
X187400Y20472D02*
X185826D01*
X187400Y22047D01*
Y22440D01*
X187007Y22834D01*
X186220D01*
X185826Y22440D01*
X172442Y27558D02*
Y25984D01*
X174803D01*
Y27558D01*
X173622Y25984D02*
Y26771D01*
X172835Y28346D02*
X172442Y28739D01*
Y29526D01*
X172835Y29920D01*
X173229D01*
X173622Y29526D01*
Y29133D01*
Y29526D01*
X174016Y29920D01*
X174410D01*
X174803Y29526D01*
Y28739D01*
X174410Y28346D01*
X85040Y88582D02*
X84646Y88189D01*
Y87401D01*
X85040Y87008D01*
X86614D01*
X87008Y87401D01*
Y88189D01*
X86614Y88582D01*
X85040Y89369D02*
X84646Y89763D01*
Y90550D01*
X85040Y90944D01*
X85434D01*
X85827Y90550D01*
Y90157D01*
Y90550D01*
X86221Y90944D01*
X86614D01*
X87008Y90550D01*
Y89763D01*
X86614Y89369D01*
X45276Y47244D02*
X44883Y46850D01*
Y46063D01*
X45276Y45669D01*
X46850D01*
X47244Y46063D01*
Y46850D01*
X46850Y47244D01*
X47244Y48031D02*
Y48818D01*
Y48424D01*
X44883D01*
X45276Y48031D01*
X47244Y51573D02*
Y49999D01*
X45670Y51573D01*
X45276D01*
X44883Y51179D01*
Y50392D01*
X45276Y49999D01*
X83072Y43307D02*
X82678Y42913D01*
Y42126D01*
X83072Y41732D01*
X84646D01*
X85039Y42126D01*
Y42913D01*
X84646Y43307D01*
X85039Y44094D02*
Y44881D01*
Y44487D01*
X82678D01*
X83072Y44094D01*
Y46062D02*
X82678Y46455D01*
Y47242D01*
X83072Y47636D01*
X83465D01*
X83859Y47242D01*
Y46849D01*
Y47242D01*
X84252Y47636D01*
X84646D01*
X85039Y47242D01*
Y46455D01*
X84646Y46062D01*
X183858Y31102D02*
X183464Y31495D01*
X182677D01*
X182283Y31102D01*
Y29527D01*
X182677Y29134D01*
X183464D01*
X183858Y29527D01*
X184645Y29134D02*
X185432D01*
X185038D01*
Y31495D01*
X184645Y31102D01*
X186613Y29527D02*
X187006Y29134D01*
X187794D01*
X188187Y29527D01*
Y31102D01*
X187794Y31495D01*
X187006D01*
X186613Y31102D01*
Y30708D01*
X187006Y30315D01*
X188187D01*
X97637Y190944D02*
X97244Y191338D01*
X96457D01*
X96063Y190944D01*
Y189370D01*
X96457Y188976D01*
X97244D01*
X97637Y189370D01*
X99999Y188976D02*
X98424D01*
X99999Y190551D01*
Y190944D01*
X99605Y191338D01*
X98818D01*
X98424Y190944D01*
X100786Y188976D02*
X101573D01*
X101179D01*
Y191338D01*
X100786Y190944D01*
X160236Y31102D02*
X159842Y31495D01*
X159055D01*
X158661Y31102D01*
Y29527D01*
X159055Y29134D01*
X159842D01*
X160236Y29527D01*
X162597Y29134D02*
X161023D01*
X162597Y30708D01*
Y31102D01*
X162204Y31495D01*
X161416D01*
X161023Y31102D01*
X164959Y29134D02*
X163384D01*
X164959Y30708D01*
Y31102D01*
X164565Y31495D01*
X163778D01*
X163384Y31102D01*
X233070Y131102D02*
X232677Y131495D01*
X231890D01*
X231496Y131102D01*
Y129527D01*
X231890Y129134D01*
X232677D01*
X233070Y129527D01*
X233857Y131102D02*
X234251Y131495D01*
X235038D01*
X235432Y131102D01*
Y130708D01*
X235038Y130315D01*
X234645D01*
X235038D01*
X235432Y129921D01*
Y129527D01*
X235038Y129134D01*
X234251D01*
X233857Y129527D01*
X237400Y129134D02*
Y131495D01*
X236219Y130315D01*
X237793D01*
D86*
X59449Y61022D02*
Y56102D01*
X60433Y55118D01*
X62401D01*
X63385Y56102D01*
Y61022D01*
X65352Y60038D02*
X66336Y61022D01*
X68304D01*
X69288Y60038D01*
Y59054D01*
X68304Y58070D01*
X67320D01*
X68304D01*
X69288Y57086D01*
Y56102D01*
X68304Y55118D01*
X66336D01*
X65352Y56102D01*
M02*
