G04*
G04 #@! TF.GenerationSoftware,Altium Limited,Altium Designer,18.0.7 (293)*
G04*
G04 Layer_Physical_Order=2*
G04 Layer_Color=16711680*
%FSLAX25Y25*%
%MOIN*%
G70*
G01*
G75*
%ADD55C,0.07480*%
%ADD56R,0.07480X0.07480*%
%ADD61R,0.07480X0.07480*%
%ADD70C,0.01181*%
%ADD71C,0.06693*%
%ADD72R,0.06693X0.06693*%
%ADD73C,0.12598*%
%ADD74O,0.06299X0.07874*%
%ADD75R,0.06299X0.07874*%
%ADD76C,0.29134*%
%ADD77R,0.06693X0.06693*%
%ADD78O,0.07874X0.06299*%
%ADD79R,0.07874X0.06299*%
G04:AMPARAMS|DCode=80|XSize=78.74mil|YSize=47.24mil|CornerRadius=14.17mil|HoleSize=0mil|Usage=FLASHONLY|Rotation=0.000|XOffset=0mil|YOffset=0mil|HoleType=Round|Shape=RoundedRectangle|*
%AMROUNDEDRECTD80*
21,1,0.07874,0.01890,0,0,0.0*
21,1,0.05039,0.04724,0,0,0.0*
1,1,0.02835,0.02520,-0.00945*
1,1,0.02835,-0.02520,-0.00945*
1,1,0.02835,-0.02520,0.00945*
1,1,0.02835,0.02520,0.00945*
%
%ADD80ROUNDEDRECTD80*%
%ADD81C,0.04724*%
%ADD82C,0.02362*%
G36*
X268504Y188976D02*
X111339D01*
X111337Y188985D01*
X111224Y189476D01*
X111721Y190220D01*
X111782Y190527D01*
X113051Y191796D01*
X119291D01*
X119983Y191934D01*
X120569Y192325D01*
X123194Y194951D01*
X124000Y194844D01*
X125130Y194993D01*
X126184Y195430D01*
X127089Y196124D01*
X127783Y197029D01*
X128219Y198082D01*
X128368Y199213D01*
Y200787D01*
X128219Y201918D01*
X127783Y202971D01*
X127089Y203876D01*
X126184Y204570D01*
X125130Y205007D01*
X124000Y205155D01*
X122870Y205007D01*
X121816Y204570D01*
X120911Y203876D01*
X120217Y202971D01*
X119781Y201918D01*
X119632Y200787D01*
Y199213D01*
X119781Y198082D01*
X120201Y197067D01*
X118543Y195409D01*
X116978D01*
X116808Y195909D01*
X117089Y196124D01*
X117783Y197029D01*
X118219Y198082D01*
X118368Y199213D01*
Y200787D01*
X118219Y201918D01*
X117783Y202971D01*
X117089Y203876D01*
X116184Y204570D01*
X115130Y205007D01*
X114000Y205155D01*
X112870Y205007D01*
X111816Y204570D01*
X110911Y203876D01*
X110217Y202971D01*
X109781Y201918D01*
X109632Y200787D01*
Y199213D01*
X109781Y198082D01*
X110217Y197029D01*
X110911Y196124D01*
X111444Y195715D01*
X111450Y195701D01*
X111392Y195124D01*
X111026Y194880D01*
X109663Y193517D01*
X109496Y193550D01*
X108574Y193367D01*
X107793Y192845D01*
X107271Y192063D01*
X107088Y191142D01*
X107271Y190220D01*
X107768Y189476D01*
X107656Y188985D01*
X107653Y188976D01*
X105118D01*
X100334Y193761D01*
Y202663D01*
X100196Y203354D01*
X100000Y203648D01*
Y208661D01*
X268504D01*
Y188976D01*
D02*
G37*
G36*
X16500Y199606D02*
X16677Y199106D01*
X16045Y198283D01*
X15589Y197182D01*
X15433Y196000D01*
X15589Y194818D01*
X16045Y193717D01*
X16771Y192771D01*
X17717Y192045D01*
X18818Y191589D01*
X20000Y191433D01*
X21182Y191589D01*
X22283Y192045D01*
X23229Y192771D01*
X23516Y193145D01*
X24016Y192975D01*
Y189025D01*
X23516Y188856D01*
X23229Y189229D01*
X22283Y189955D01*
X21182Y190411D01*
X20000Y190567D01*
X18818Y190411D01*
X17717Y189955D01*
X16771Y189229D01*
X16045Y188283D01*
X15589Y187182D01*
X15433Y186000D01*
X15589Y184818D01*
X16045Y183717D01*
X16771Y182771D01*
X17717Y182045D01*
X18818Y181589D01*
X20000Y181433D01*
X21182Y181589D01*
X22283Y182045D01*
X23229Y182771D01*
X23516Y183144D01*
X24016Y182975D01*
Y165025D01*
X23516Y164856D01*
X23229Y165229D01*
X22283Y165955D01*
X21182Y166411D01*
X20000Y166567D01*
X18818Y166411D01*
X17717Y165955D01*
X16771Y165229D01*
X16045Y164283D01*
X15589Y163182D01*
X15433Y162000D01*
X15589Y160818D01*
X16045Y159717D01*
X16771Y158771D01*
X17717Y158045D01*
X18818Y157589D01*
X20000Y157433D01*
X21182Y157589D01*
X22283Y158045D01*
X23229Y158771D01*
X23516Y159144D01*
X24016Y158975D01*
Y155025D01*
X23516Y154856D01*
X23229Y155229D01*
X22283Y155955D01*
X21182Y156411D01*
X20000Y156567D01*
X18818Y156411D01*
X17717Y155955D01*
X16771Y155229D01*
X16045Y154283D01*
X15589Y153182D01*
X15433Y152000D01*
X15589Y150818D01*
X16045Y149717D01*
X16771Y148771D01*
X17717Y148045D01*
X18818Y147589D01*
X20000Y147433D01*
X21182Y147589D01*
X22283Y148045D01*
X23229Y148771D01*
X23516Y149144D01*
X24016Y148975D01*
X24016Y139173D01*
X15473D01*
Y130118D01*
X24016D01*
Y127671D01*
X23516Y127501D01*
X23229Y127875D01*
X22283Y128601D01*
X21182Y129057D01*
X20000Y129212D01*
X18818Y129057D01*
X17717Y128601D01*
X16771Y127875D01*
X16045Y126929D01*
X15589Y125828D01*
X15433Y124646D01*
X15589Y123464D01*
X16045Y122362D01*
X16771Y121417D01*
X17717Y120691D01*
X18818Y120235D01*
X20000Y120079D01*
X21182Y120235D01*
X22283Y120691D01*
X23229Y121417D01*
X23516Y121790D01*
X24016Y121620D01*
Y93724D01*
X21260D01*
X21144Y93701D01*
X20079Y93701D01*
Y92636D01*
X20056Y92520D01*
Y69685D01*
X20056Y69685D01*
X20079Y69569D01*
Y68504D01*
X22812Y65771D01*
Y58662D01*
X22812Y58661D01*
X22835Y58545D01*
Y45669D01*
X23946D01*
X24168Y45221D01*
X24070Y45094D01*
X23713Y44232D01*
X23592Y43307D01*
X23713Y42382D01*
X24070Y41520D01*
X24638Y40780D01*
X25378Y40212D01*
X26240Y39855D01*
X27165Y39733D01*
X28090Y39855D01*
X28952Y40212D01*
X29693Y40780D01*
X30260Y41520D01*
X30617Y42382D01*
X30739Y43307D01*
X30617Y44232D01*
X30260Y45094D01*
X30163Y45221D01*
X30384Y45669D01*
X35827D01*
Y47521D01*
X35850Y47638D01*
Y55512D01*
X62205D01*
Y51807D01*
X62159Y51575D01*
X62205Y51342D01*
Y47638D01*
X96850D01*
X114173Y30315D01*
X127165D01*
X134252Y23228D01*
X161185D01*
X161417Y23182D01*
X161650Y23228D01*
X162992D01*
X164173Y22047D01*
X198819D01*
X211417Y34646D01*
X244094D01*
Y13387D01*
X243595Y13217D01*
X243089Y13876D01*
X242184Y14570D01*
X241130Y15007D01*
X240000Y15156D01*
X238870Y15007D01*
X237816Y14570D01*
X236911Y13876D01*
X236217Y12971D01*
X235781Y11918D01*
X235632Y10787D01*
Y9213D01*
X235781Y8082D01*
X236217Y7029D01*
X236911Y6124D01*
X237816Y5430D01*
X238870Y4993D01*
X240000Y4845D01*
X241130Y4993D01*
X242184Y5430D01*
X243089Y6124D01*
X243595Y6783D01*
X244094Y6613D01*
Y1181D01*
X155535D01*
X155535Y1181D01*
Y7369D01*
X156035Y7468D01*
X156217Y7029D01*
X156911Y6124D01*
X157816Y5430D01*
X158870Y4993D01*
X160000Y4845D01*
X161130Y4993D01*
X162184Y5430D01*
X163089Y6124D01*
X163783Y7029D01*
X164219Y8082D01*
X164368Y9213D01*
Y10787D01*
X164219Y11918D01*
X163783Y12971D01*
X163089Y13876D01*
X162184Y14570D01*
X161130Y15007D01*
X160000Y15156D01*
X158870Y15007D01*
X157816Y14570D01*
X156911Y13876D01*
X156217Y12971D01*
X156035Y12532D01*
X155535Y12631D01*
Y15354D01*
X155512Y15471D01*
Y16535D01*
X154447D01*
X154331Y16559D01*
X145669D01*
X145553Y16535D01*
X142254Y16535D01*
X137859Y20930D01*
X137469Y21191D01*
X137008Y21283D01*
X137008Y21283D01*
X132782D01*
X129592Y24474D01*
X129201Y24735D01*
X128740Y24826D01*
X128740Y24826D01*
X114672Y24826D01*
X112269Y27229D01*
X112269Y27229D01*
X111878Y27491D01*
X111417Y27582D01*
X111417Y27582D01*
X101181Y27582D01*
Y35827D01*
X92543D01*
Y38583D01*
X92543Y38583D01*
X92520Y38699D01*
Y38976D01*
X92448Y39048D01*
X92190Y39434D01*
X87422Y44202D01*
X87421Y44203D01*
X87420Y44204D01*
X87227Y44333D01*
X87031Y44463D01*
X87030Y44464D01*
X87029Y44464D01*
X86800Y44509D01*
X86571Y44555D01*
X86569Y44555D01*
X86568Y44555D01*
X68895Y44511D01*
X66092D01*
X66092Y44511D01*
X65631Y44420D01*
X65240Y44159D01*
X65240Y44159D01*
X60960Y39878D01*
X60698Y39487D01*
X60607Y39026D01*
X60607Y39026D01*
X60607Y30732D01*
X56032D01*
X55954Y30716D01*
X55875Y30722D01*
X55777Y30709D01*
X55719D01*
X55621Y30722D01*
X55542Y30716D01*
X55464Y30732D01*
X50079D01*
Y39764D01*
X48935D01*
X48819Y39787D01*
X42520D01*
X42403Y39764D01*
X41417D01*
Y39059D01*
X41407Y39044D01*
X41315Y38583D01*
Y31207D01*
X38871Y28763D01*
X23228D01*
X22768Y28672D01*
X22377Y28411D01*
X22116Y28020D01*
X22024Y27559D01*
Y22522D01*
X21562Y22331D01*
X10468Y33425D01*
Y58983D01*
X10887Y59610D01*
X11070Y60532D01*
X10887Y61453D01*
X10470Y62076D01*
X10685Y62576D01*
X11181D01*
X11859Y62665D01*
X12491Y62927D01*
X13034Y63344D01*
X13451Y63886D01*
X13713Y64518D01*
X13802Y65197D01*
Y67087D01*
X13713Y67765D01*
X13451Y68397D01*
X13034Y68940D01*
X12491Y69356D01*
X11859Y69618D01*
X11181Y69707D01*
X6142D01*
X5463Y69618D01*
X4831Y69356D01*
X4289Y68940D01*
X3872Y68397D01*
X3610Y67765D01*
X3521Y67087D01*
Y65197D01*
X3610Y64518D01*
X3872Y63886D01*
X4289Y63344D01*
X4831Y62927D01*
X5463Y62665D01*
X6142Y62576D01*
X6638D01*
X6852Y62076D01*
X6436Y61453D01*
X6253Y60532D01*
X6436Y59610D01*
X6855Y58983D01*
Y32677D01*
X6993Y31986D01*
X7384Y31400D01*
X16645Y22139D01*
X16454Y21677D01*
X1181D01*
X1181Y22177D01*
X1181Y199606D01*
X16500Y199606D01*
D02*
G37*
G36*
X42913Y187806D02*
X34152D01*
X33955Y188283D01*
X33229Y189229D01*
X32283Y189955D01*
X31182Y190411D01*
X30000Y190567D01*
X28818Y190411D01*
X27717Y189955D01*
X26771Y189229D01*
X26045Y188283D01*
X25589Y187182D01*
X25433Y186000D01*
X25589Y184818D01*
X26045Y183717D01*
X26771Y182771D01*
X27717Y182045D01*
X28818Y181589D01*
X30000Y181433D01*
X31182Y181589D01*
X32283Y182045D01*
X33229Y182771D01*
X33955Y183717D01*
X34152Y184194D01*
X42913D01*
Y172154D01*
X42849Y172111D01*
X42588Y171721D01*
X42497Y171260D01*
Y154331D01*
X42588Y153870D01*
X42849Y153479D01*
X43240Y153218D01*
X43701Y153127D01*
X46827D01*
Y150000D01*
X46919Y149539D01*
X47180Y149148D01*
X47571Y148887D01*
X48031Y148796D01*
X53063D01*
X53310Y148296D01*
X52910Y147775D01*
X52474Y146721D01*
X52325Y145591D01*
X52474Y144460D01*
X52910Y143406D01*
X53604Y142502D01*
X54509Y141808D01*
X55562Y141371D01*
X56693Y141223D01*
X58268D01*
X59174Y141342D01*
X59274Y141242D01*
X59860Y140851D01*
X60551Y140713D01*
X162598D01*
X163290Y140851D01*
X163876Y141242D01*
X166087Y143454D01*
X166548Y143207D01*
X166489Y142913D01*
X166673Y141992D01*
X167195Y141210D01*
X167976Y140688D01*
X168898Y140505D01*
X169819Y140688D01*
X170452Y141111D01*
X170472Y141107D01*
X187034D01*
X187661Y140688D01*
X188583Y140505D01*
X189504Y140688D01*
X189840Y140913D01*
X190319Y140768D01*
X190376Y140630D01*
X191102Y139684D01*
X192047Y138959D01*
X193149Y138502D01*
X194331Y138347D01*
X195513Y138502D01*
X196614Y138959D01*
X197560Y139684D01*
X198285Y140630D01*
X198742Y141732D01*
X198897Y142913D01*
X198742Y144095D01*
X198285Y145197D01*
X197560Y146142D01*
X196614Y146868D01*
X195513Y147324D01*
X194331Y147480D01*
X193149Y147324D01*
X192047Y146868D01*
X191102Y146142D01*
X190376Y145197D01*
X190319Y145059D01*
X189840Y144914D01*
X189504Y145139D01*
X188583Y145322D01*
X187661Y145139D01*
X187034Y144720D01*
X170472D01*
X170452Y144716D01*
X169819Y145139D01*
X168898Y145322D01*
X168604Y145263D01*
X168358Y145724D01*
X173740Y151107D01*
X189803D01*
Y148386D01*
X198858D01*
Y157441D01*
X189803D01*
Y154720D01*
X172992D01*
X172301Y154582D01*
X171715Y154191D01*
X161850Y144326D01*
X62943D01*
X62535Y144826D01*
X62636Y145591D01*
X62487Y146721D01*
X62051Y147775D01*
X61651Y148296D01*
X61897Y148796D01*
X66969D01*
X66969Y148796D01*
X67430Y148887D01*
X67821Y149148D01*
X68174Y149502D01*
X68244Y149606D01*
X68504D01*
Y150237D01*
X68527Y150354D01*
X68527Y150354D01*
X68527Y156194D01*
X76442Y164109D01*
X76703Y164500D01*
X76795Y164961D01*
X76795Y164961D01*
X76795Y170883D01*
X77148Y171237D01*
X80686Y171237D01*
X80686Y161811D01*
X80709Y161695D01*
Y156299D01*
X85690Y156299D01*
X86417Y156155D01*
X87145Y156299D01*
X87500Y156299D01*
X90453Y158661D01*
X222835Y158661D01*
X227559Y153937D01*
X230315D01*
Y136221D01*
X218885Y124790D01*
X218411Y124901D01*
X218350Y124963D01*
X217845Y125719D01*
X217063Y126241D01*
X216142Y126424D01*
X215220Y126241D01*
X214439Y125719D01*
X214403Y125665D01*
X195879D01*
X195252Y126083D01*
X194331Y126267D01*
X193409Y126083D01*
X192628Y125561D01*
X192106Y124780D01*
X191922Y123858D01*
X192106Y122937D01*
X192628Y122155D01*
X193409Y121633D01*
X194331Y121450D01*
X195252Y121633D01*
X195879Y122052D01*
X214829D01*
X215220Y121791D01*
X216142Y121607D01*
X217063Y121791D01*
X217610Y122156D01*
X218110Y121889D01*
Y83779D01*
X217637Y83618D01*
X217439Y83876D01*
X216534Y84570D01*
X215481Y85007D01*
X214350Y85155D01*
X213220Y85007D01*
X212166Y84570D01*
X211262Y83876D01*
X210567Y82971D01*
X210131Y81918D01*
X209982Y80787D01*
Y79213D01*
X210131Y78082D01*
X210567Y77029D01*
X211262Y76124D01*
X212166Y75430D01*
X213220Y74993D01*
X214350Y74844D01*
X215481Y74993D01*
X216534Y75430D01*
X217439Y76124D01*
X217637Y76381D01*
X218110Y76221D01*
Y70472D01*
X224410Y64173D01*
X231496Y64173D01*
Y65906D01*
X231641Y66634D01*
X231496Y67361D01*
Y75379D01*
X231944Y75600D01*
X232166Y75430D01*
X233220Y74993D01*
X234350Y74844D01*
X235481Y74993D01*
X236534Y75430D01*
X237439Y76124D01*
X238133Y77029D01*
X238570Y78082D01*
X238719Y79213D01*
Y80787D01*
X238570Y81918D01*
X238133Y82971D01*
X237439Y83876D01*
X236534Y84570D01*
X235481Y85007D01*
X234350Y85155D01*
X233220Y85007D01*
X232166Y84570D01*
X231944Y84400D01*
X231496Y84621D01*
Y92387D01*
X244823D01*
X251181Y86028D01*
Y69685D01*
X237795Y56299D01*
X229528D01*
Y44882D01*
X234067D01*
X234350Y44844D01*
X234634Y44882D01*
X244067D01*
X244350Y44844D01*
X244634Y44882D01*
X250000D01*
Y53095D01*
X250448Y53543D01*
X268504D01*
X268898Y53380D01*
Y1181D01*
X245299D01*
Y6613D01*
X245291Y6652D01*
X245296Y6692D01*
X245276Y6769D01*
Y8089D01*
X245776Y8121D01*
X245781Y8082D01*
X246217Y7029D01*
X246911Y6124D01*
X247816Y5430D01*
X248869Y4993D01*
X250000Y4845D01*
X251131Y4993D01*
X252184Y5430D01*
X253089Y6124D01*
X253783Y7029D01*
X254219Y8082D01*
X254368Y9213D01*
Y10787D01*
X254219Y11918D01*
X253783Y12971D01*
X253089Y13876D01*
X252184Y14570D01*
X251131Y15007D01*
X250000Y15156D01*
X248869Y15007D01*
X247816Y14570D01*
X246911Y13876D01*
X246217Y12971D01*
X245781Y11918D01*
X245776Y11879D01*
X245276Y11911D01*
Y13231D01*
X245296Y13308D01*
X245291Y13348D01*
X245299Y13387D01*
Y34646D01*
X245207Y35107D01*
X244946Y35497D01*
X244555Y35758D01*
X244094Y35850D01*
X211417D01*
X210957Y35758D01*
X210566Y35497D01*
X198320Y23252D01*
X164672D01*
X163844Y24080D01*
X163457Y24338D01*
X163386Y24409D01*
X163109D01*
X162992Y24433D01*
X162992Y24433D01*
X161650D01*
X161534Y24409D01*
X161301D01*
X161185Y24433D01*
X134751D01*
X128017Y31166D01*
X127630Y31425D01*
X127559Y31496D01*
X127282D01*
X127165Y31519D01*
X127165Y31519D01*
X126494D01*
X126378Y31542D01*
X126262Y31519D01*
X114672D01*
X97702Y48489D01*
X97311Y48750D01*
X96850Y48842D01*
X96850Y48842D01*
X63409D01*
Y51342D01*
X63386Y51459D01*
Y51691D01*
X63409Y51807D01*
Y55512D01*
X63386Y55628D01*
Y56299D01*
X63099D01*
X63056Y56363D01*
X62666Y56624D01*
X62205Y56716D01*
X35850D01*
Y65748D01*
X35758Y66209D01*
X35497Y66600D01*
X35107Y66861D01*
X34646Y66952D01*
X31612D01*
X31495Y66929D01*
X31377Y66929D01*
X31267Y66884D01*
X31151Y66861D01*
X31052Y66795D01*
X30943Y66749D01*
X30859Y66666D01*
X30760Y66600D01*
X30708Y66522D01*
X30275Y66232D01*
X29823Y66142D01*
X29371Y66232D01*
X28970Y66500D01*
X28954Y66539D01*
X28732Y66871D01*
X28642Y67323D01*
X28732Y67775D01*
X28954Y68107D01*
X28999Y68216D01*
X29065Y68315D01*
X29089Y68431D01*
X29134Y68541D01*
X29134Y68660D01*
X29157Y68776D01*
Y88189D01*
X29065Y88650D01*
X28804Y89040D01*
X28414Y89302D01*
X27976Y89389D01*
Y92520D01*
X27884Y92980D01*
X27623Y93371D01*
X27233Y93632D01*
X26772Y93724D01*
X25220D01*
Y121620D01*
X25212Y121660D01*
X25217Y121699D01*
X25167Y121889D01*
X25128Y122081D01*
X25106Y122115D01*
X25096Y122153D01*
X24976Y122309D01*
X24867Y122472D01*
X24834Y122494D01*
X24810Y122526D01*
X24640Y122624D01*
X24477Y122733D01*
X24295Y123183D01*
X24411Y123464D01*
X24567Y124646D01*
X24411Y125828D01*
X24295Y126108D01*
X24477Y126558D01*
X24640Y126667D01*
X24810Y126766D01*
X24834Y126797D01*
X24867Y126819D01*
X24976Y126983D01*
X25096Y127138D01*
X25106Y127177D01*
X25128Y127210D01*
X25167Y127402D01*
X25217Y127592D01*
X25212Y127632D01*
X25220Y127671D01*
Y130118D01*
X25128Y130579D01*
X24867Y130970D01*
X24528Y131197D01*
Y138095D01*
X24867Y138322D01*
X25128Y138712D01*
X25220Y139173D01*
X25220Y148975D01*
X25212Y149014D01*
X25217Y149054D01*
X25167Y149243D01*
X25128Y149436D01*
X25106Y149469D01*
X25096Y149507D01*
X24976Y149663D01*
X24867Y149826D01*
X24834Y149848D01*
X24810Y149880D01*
X24640Y149978D01*
X24477Y150087D01*
X24295Y150538D01*
X24411Y150818D01*
X24567Y152000D01*
X24411Y153182D01*
X24295Y153462D01*
X24477Y153913D01*
X24640Y154022D01*
X24810Y154120D01*
X24834Y154151D01*
X24867Y154174D01*
X24976Y154337D01*
X25096Y154493D01*
X25106Y154531D01*
X25128Y154564D01*
X25167Y154757D01*
X25217Y154946D01*
X25212Y154986D01*
X25220Y155025D01*
Y158975D01*
X25212Y159014D01*
X25217Y159054D01*
X25167Y159243D01*
X25128Y159436D01*
X25106Y159469D01*
X25096Y159507D01*
X24976Y159663D01*
X24867Y159826D01*
X24834Y159848D01*
X24810Y159880D01*
X24640Y159978D01*
X24477Y160087D01*
X24295Y160538D01*
X24411Y160818D01*
X24567Y162000D01*
X24411Y163182D01*
X24295Y163462D01*
X24477Y163913D01*
X24640Y164022D01*
X24810Y164120D01*
X24834Y164152D01*
X24867Y164174D01*
X24976Y164337D01*
X25096Y164493D01*
X25106Y164531D01*
X25128Y164564D01*
X25167Y164757D01*
X25217Y164946D01*
X25212Y164986D01*
X25220Y165025D01*
Y182975D01*
X25212Y183014D01*
X25217Y183054D01*
X25167Y183243D01*
X25128Y183436D01*
X25106Y183469D01*
X25096Y183507D01*
X24976Y183663D01*
X24867Y183826D01*
X24834Y183849D01*
X24810Y183880D01*
X24640Y183978D01*
X24477Y184087D01*
X24295Y184538D01*
X24411Y184818D01*
X24567Y186000D01*
X24411Y187182D01*
X24295Y187462D01*
X24477Y187913D01*
X24640Y188022D01*
X24810Y188120D01*
X24834Y188152D01*
X24867Y188174D01*
X24976Y188337D01*
X25096Y188493D01*
X25106Y188531D01*
X25128Y188564D01*
X25167Y188757D01*
X25217Y188946D01*
X25212Y188986D01*
X25220Y189025D01*
Y192975D01*
X25212Y193014D01*
X25217Y193053D01*
X25167Y193243D01*
X25128Y193436D01*
X25106Y193469D01*
X25096Y193507D01*
X24976Y193663D01*
X24867Y193826D01*
X24834Y193849D01*
X24810Y193880D01*
X24640Y193978D01*
X24477Y194087D01*
X24295Y194538D01*
X24411Y194818D01*
X24567Y196000D01*
X24411Y197182D01*
X24016Y198136D01*
Y200787D01*
X16649D01*
X16565Y200809D01*
X16533Y200804D01*
X16500Y200811D01*
X1181Y200811D01*
Y208661D01*
X42913D01*
Y187806D01*
D02*
G37*
G36*
X88583Y176378D02*
X95276Y169685D01*
X122441Y169685D01*
X122441Y162436D01*
X88484D01*
X87793Y162299D01*
X87207Y161907D01*
X87111Y161811D01*
X81890D01*
X81890Y172441D01*
X75590Y172441D01*
X75591Y164961D01*
X67323Y156693D01*
X67323Y150354D01*
X66969Y150000D01*
X48031D01*
Y154331D01*
X43701D01*
Y171260D01*
X64961D01*
X64961Y176378D01*
X88583Y176378D01*
D02*
G37*
G36*
X26772Y88189D02*
X27953D01*
Y68776D01*
X27598Y68244D01*
X27414Y67323D01*
X27598Y66401D01*
X27953Y65870D01*
Y65748D01*
X28034D01*
X28120Y65620D01*
X28901Y65098D01*
X29823Y64914D01*
X30744Y65098D01*
X31526Y65620D01*
X31612Y65748D01*
X34646D01*
Y47638D01*
X31102D01*
Y51575D01*
X30644Y52033D01*
X30739Y52756D01*
X30617Y53681D01*
X30260Y54543D01*
X29693Y55283D01*
X28952Y55851D01*
X28090Y56208D01*
X27165Y56330D01*
X26443Y56235D01*
X24016Y58661D01*
Y66929D01*
X21260Y69685D01*
Y92520D01*
X26772D01*
Y88189D01*
D02*
G37*
G36*
X91339Y38583D02*
Y26378D01*
X91339D01*
Y25984D01*
X101181D01*
Y26378D01*
X111417Y26378D01*
X114173Y23622D01*
X128740Y23622D01*
X132283Y20079D01*
X137008D01*
X144095Y12992D01*
Y5929D01*
X135827D01*
Y12992D01*
X133465Y15354D01*
X114567D01*
X112992Y16929D01*
X104724D01*
X101969Y19685D01*
X84646D01*
X78852Y25478D01*
X79032Y26006D01*
X79828Y26111D01*
X81025Y26607D01*
X82053Y27396D01*
X82842Y28424D01*
X83338Y29621D01*
X83507Y30906D01*
X83338Y32190D01*
X82842Y33387D01*
X82053Y34415D01*
X81025Y35204D01*
X79828Y35700D01*
X78543Y35869D01*
X77259Y35700D01*
X76061Y35204D01*
X75033Y34415D01*
X74245Y33387D01*
X73749Y32190D01*
X73580Y30906D01*
X73407Y30709D01*
X72557D01*
X72441Y30732D01*
X72441Y30732D01*
X66032D01*
X65954Y30716D01*
X65875Y30722D01*
X65777Y30709D01*
X65719D01*
X65621Y30722D01*
X65542Y30716D01*
X65464Y30732D01*
X61811D01*
X61811Y39026D01*
X66092Y43307D01*
X68898D01*
X86571Y43351D01*
X91339Y38583D01*
D02*
G37*
G36*
X48819Y29528D02*
X55464D01*
X55748Y29490D01*
X56032Y29528D01*
X65464D01*
X65748Y29490D01*
X66032Y29528D01*
X72441D01*
X84646Y17323D01*
X101969Y17323D01*
X104724Y14567D01*
Y4724D01*
X145669D01*
Y15354D01*
X154331D01*
Y1181D01*
X99734D01*
X99574Y1655D01*
X99770Y1805D01*
X100559Y2833D01*
X101054Y4030D01*
X101224Y5315D01*
X101054Y6600D01*
X100559Y7797D01*
X99770Y8825D01*
X98742Y9614D01*
X97545Y10110D01*
X96260Y10279D01*
X94975Y10110D01*
X93778Y9614D01*
X92750Y8825D01*
X91961Y7797D01*
X91465Y6600D01*
X91296Y5315D01*
X91465Y4030D01*
X91961Y2833D01*
X92750Y1805D01*
X92946Y1655D01*
X92785Y1181D01*
X82018D01*
X81857Y1655D01*
X82053Y1805D01*
X82842Y2833D01*
X83338Y4030D01*
X83507Y5315D01*
X83338Y6600D01*
X82842Y7797D01*
X82053Y8825D01*
X81025Y9614D01*
X79828Y10110D01*
X78543Y10279D01*
X77259Y10110D01*
X76061Y9614D01*
X75033Y8825D01*
X74245Y7797D01*
X73749Y6600D01*
X73580Y5315D01*
X73749Y4030D01*
X74245Y2833D01*
X75033Y1805D01*
X75230Y1655D01*
X75069Y1181D01*
X68577D01*
X68333Y1617D01*
X69075Y2828D01*
X70024Y5119D01*
X70602Y7529D01*
X70797Y10000D01*
X70602Y12471D01*
X70024Y14882D01*
X69075Y17172D01*
X67780Y19285D01*
X66170Y21170D01*
X64285Y22780D01*
X62172Y24075D01*
X59882Y25024D01*
X57471Y25602D01*
X55000Y25797D01*
X52529Y25602D01*
X50118Y25024D01*
X47828Y24075D01*
X45715Y22780D01*
X43830Y21170D01*
X42220Y19285D01*
X40925Y17172D01*
X39976Y14882D01*
X39398Y12471D01*
X39203Y10000D01*
X39398Y7529D01*
X39976Y5119D01*
X40925Y2828D01*
X41667Y1617D01*
X41423Y1181D01*
X1181D01*
Y18898D01*
Y20472D01*
X18312D01*
X23316Y15468D01*
X23198Y14567D01*
X23320Y13642D01*
X23677Y12780D01*
X24245Y12040D01*
X24985Y11472D01*
X25847Y11115D01*
X26772Y10993D01*
X27697Y11115D01*
X28559Y11472D01*
X29299Y12040D01*
X29867Y12780D01*
X30224Y13642D01*
X30345Y14567D01*
X30224Y15492D01*
X29867Y16354D01*
X29299Y17094D01*
X28559Y17662D01*
X27697Y18019D01*
X26772Y18141D01*
X25871Y18022D01*
X23228Y20665D01*
Y27559D01*
X39370D01*
X42520Y30709D01*
Y38583D01*
X48819D01*
Y29528D01*
D02*
G37*
%LPC*%
G36*
X254331Y205118D02*
X245669D01*
Y194882D01*
X254331D01*
Y205118D01*
D02*
G37*
G36*
X168331D02*
X159669D01*
Y194882D01*
X168331D01*
Y205118D01*
D02*
G37*
G36*
X240000Y205155D02*
X238870Y205007D01*
X237816Y204570D01*
X236911Y203876D01*
X236217Y202971D01*
X235781Y201918D01*
X235632Y200787D01*
Y199213D01*
X235781Y198082D01*
X236217Y197029D01*
X236911Y196124D01*
X237816Y195430D01*
X238870Y194993D01*
X240000Y194844D01*
X241130Y194993D01*
X242184Y195430D01*
X243089Y196124D01*
X243783Y197029D01*
X244219Y198082D01*
X244368Y199213D01*
Y200787D01*
X244219Y201918D01*
X243783Y202971D01*
X243089Y203876D01*
X242184Y204570D01*
X241130Y205007D01*
X240000Y205155D01*
D02*
G37*
G36*
X230000D02*
X228870Y205007D01*
X227816Y204570D01*
X226911Y203876D01*
X226217Y202971D01*
X225781Y201918D01*
X225632Y200787D01*
Y199213D01*
X225781Y198082D01*
X226217Y197029D01*
X226911Y196124D01*
X227816Y195430D01*
X228870Y194993D01*
X230000Y194844D01*
X231131Y194993D01*
X232184Y195430D01*
X233089Y196124D01*
X233783Y197029D01*
X234219Y198082D01*
X234368Y199213D01*
Y200787D01*
X234219Y201918D01*
X233783Y202971D01*
X233089Y203876D01*
X232184Y204570D01*
X231131Y205007D01*
X230000Y205155D01*
D02*
G37*
G36*
X220000D02*
X218869Y205007D01*
X217816Y204570D01*
X216911Y203876D01*
X216217Y202971D01*
X215781Y201918D01*
X215632Y200787D01*
Y199213D01*
X215781Y198082D01*
X216217Y197029D01*
X216911Y196124D01*
X217816Y195430D01*
X218869Y194993D01*
X220000Y194844D01*
X221130Y194993D01*
X222184Y195430D01*
X223089Y196124D01*
X223783Y197029D01*
X224219Y198082D01*
X224368Y199213D01*
Y200787D01*
X224219Y201918D01*
X223783Y202971D01*
X223089Y203876D01*
X222184Y204570D01*
X221130Y205007D01*
X220000Y205155D01*
D02*
G37*
G36*
X210000D02*
X208870Y205007D01*
X207816Y204570D01*
X206911Y203876D01*
X206217Y202971D01*
X205781Y201918D01*
X205632Y200787D01*
Y199213D01*
X205781Y198082D01*
X206217Y197029D01*
X206911Y196124D01*
X207816Y195430D01*
X208870Y194993D01*
X210000Y194844D01*
X211130Y194993D01*
X212184Y195430D01*
X213089Y196124D01*
X213783Y197029D01*
X214219Y198082D01*
X214368Y199213D01*
Y200787D01*
X214219Y201918D01*
X213783Y202971D01*
X213089Y203876D01*
X212184Y204570D01*
X211130Y205007D01*
X210000Y205155D01*
D02*
G37*
G36*
X200000D02*
X198870Y205007D01*
X197816Y204570D01*
X196911Y203876D01*
X196217Y202971D01*
X195781Y201918D01*
X195632Y200787D01*
Y199213D01*
X195781Y198082D01*
X196217Y197029D01*
X196911Y196124D01*
X197816Y195430D01*
X198870Y194993D01*
X200000Y194844D01*
X201131Y194993D01*
X202184Y195430D01*
X203089Y196124D01*
X203783Y197029D01*
X204219Y198082D01*
X204368Y199213D01*
Y200787D01*
X204219Y201918D01*
X203783Y202971D01*
X203089Y203876D01*
X202184Y204570D01*
X201131Y205007D01*
X200000Y205155D01*
D02*
G37*
G36*
X190000D02*
X188870Y205007D01*
X187816Y204570D01*
X186911Y203876D01*
X186217Y202971D01*
X185781Y201918D01*
X185632Y200787D01*
Y199213D01*
X185781Y198082D01*
X186217Y197029D01*
X186911Y196124D01*
X187816Y195430D01*
X188870Y194993D01*
X190000Y194844D01*
X191130Y194993D01*
X192184Y195430D01*
X193089Y196124D01*
X193783Y197029D01*
X194219Y198082D01*
X194368Y199213D01*
Y200787D01*
X194219Y201918D01*
X193783Y202971D01*
X193089Y203876D01*
X192184Y204570D01*
X191130Y205007D01*
X190000Y205155D01*
D02*
G37*
G36*
X180000D02*
X178869Y205007D01*
X177816Y204570D01*
X176911Y203876D01*
X176217Y202971D01*
X175781Y201918D01*
X175632Y200787D01*
Y199213D01*
X175781Y198082D01*
X176217Y197029D01*
X176911Y196124D01*
X177816Y195430D01*
X178869Y194993D01*
X180000Y194844D01*
X181131Y194993D01*
X182184Y195430D01*
X183089Y196124D01*
X183783Y197029D01*
X184219Y198082D01*
X184368Y199213D01*
Y200787D01*
X184219Y201918D01*
X183783Y202971D01*
X183089Y203876D01*
X182184Y204570D01*
X181131Y205007D01*
X180000Y205155D01*
D02*
G37*
G36*
X154000D02*
X152869Y205007D01*
X151816Y204570D01*
X150911Y203876D01*
X150217Y202971D01*
X149781Y201918D01*
X149632Y200787D01*
Y199213D01*
X149781Y198082D01*
X150217Y197029D01*
X150911Y196124D01*
X151816Y195430D01*
X152869Y194993D01*
X154000Y194844D01*
X155131Y194993D01*
X156184Y195430D01*
X157089Y196124D01*
X157783Y197029D01*
X158219Y198082D01*
X158368Y199213D01*
Y200787D01*
X158219Y201918D01*
X157783Y202971D01*
X157089Y203876D01*
X156184Y204570D01*
X155131Y205007D01*
X154000Y205155D01*
D02*
G37*
G36*
X144000D02*
X142869Y205007D01*
X141816Y204570D01*
X140911Y203876D01*
X140217Y202971D01*
X139781Y201918D01*
X139632Y200787D01*
Y199213D01*
X139781Y198082D01*
X140217Y197029D01*
X140911Y196124D01*
X141816Y195430D01*
X142869Y194993D01*
X144000Y194844D01*
X145131Y194993D01*
X146184Y195430D01*
X147089Y196124D01*
X147783Y197029D01*
X148219Y198082D01*
X148368Y199213D01*
Y200787D01*
X148219Y201918D01*
X147783Y202971D01*
X147089Y203876D01*
X146184Y204570D01*
X145131Y205007D01*
X144000Y205155D01*
D02*
G37*
G36*
X134000D02*
X132870Y205007D01*
X131816Y204570D01*
X130911Y203876D01*
X130217Y202971D01*
X129781Y201918D01*
X129632Y200787D01*
Y199213D01*
X129781Y198082D01*
X130217Y197029D01*
X130911Y196124D01*
X131816Y195430D01*
X132870Y194993D01*
X134000Y194844D01*
X135131Y194993D01*
X136184Y195430D01*
X137089Y196124D01*
X137783Y197029D01*
X138219Y198082D01*
X138368Y199213D01*
Y200787D01*
X138219Y201918D01*
X137783Y202971D01*
X137089Y203876D01*
X136184Y204570D01*
X135131Y205007D01*
X134000Y205155D01*
D02*
G37*
G36*
X14527Y190527D02*
X5472D01*
Y181473D01*
X14527D01*
Y190527D01*
D02*
G37*
G36*
Y156527D02*
X5472D01*
Y147473D01*
X14527D01*
Y156527D01*
D02*
G37*
G36*
X10000Y139212D02*
X8818Y139057D01*
X7717Y138601D01*
X6771Y137875D01*
X6045Y136929D01*
X5589Y135828D01*
X5433Y134646D01*
X5589Y133464D01*
X6045Y132362D01*
X6771Y131417D01*
X7717Y130691D01*
X8818Y130235D01*
X10000Y130079D01*
X11182Y130235D01*
X12283Y130691D01*
X13229Y131417D01*
X13955Y132362D01*
X14411Y133464D01*
X14567Y134646D01*
X14411Y135828D01*
X13955Y136929D01*
X13229Y137875D01*
X12283Y138601D01*
X11182Y139057D01*
X10000Y139212D01*
D02*
G37*
G36*
Y129212D02*
X8818Y129057D01*
X7717Y128601D01*
X6771Y127875D01*
X6045Y126929D01*
X5589Y125828D01*
X5433Y124646D01*
X5589Y123464D01*
X6045Y122362D01*
X6771Y121417D01*
X7717Y120691D01*
X8818Y120235D01*
X10000Y120079D01*
X11182Y120235D01*
X12283Y120691D01*
X13229Y121417D01*
X13955Y122362D01*
X14411Y123464D01*
X14567Y124646D01*
X14411Y125828D01*
X13955Y126929D01*
X13229Y127875D01*
X12283Y128601D01*
X11182Y129057D01*
X10000Y129212D01*
D02*
G37*
G36*
X11181Y95692D02*
X6142D01*
X5463Y95602D01*
X4831Y95341D01*
X4289Y94924D01*
X3872Y94381D01*
X3610Y93749D01*
X3521Y93071D01*
Y91181D01*
X3610Y90503D01*
X3872Y89871D01*
X4289Y89328D01*
X4831Y88911D01*
X5463Y88650D01*
X6142Y88560D01*
X11181D01*
X11859Y88650D01*
X12491Y88911D01*
X13034Y89328D01*
X13451Y89871D01*
X13713Y90503D01*
X13802Y91181D01*
Y93071D01*
X13713Y93749D01*
X13451Y94381D01*
X13034Y94924D01*
X12491Y95341D01*
X11859Y95602D01*
X11181Y95692D01*
D02*
G37*
G36*
X204331Y15118D02*
X195669D01*
Y4882D01*
X204331D01*
Y15118D01*
D02*
G37*
G36*
X230000Y15156D02*
X228870Y15007D01*
X227816Y14570D01*
X226911Y13876D01*
X226217Y12971D01*
X225781Y11918D01*
X225632Y10787D01*
Y9213D01*
X225781Y8082D01*
X226217Y7029D01*
X226911Y6124D01*
X227816Y5430D01*
X228870Y4993D01*
X230000Y4845D01*
X231131Y4993D01*
X232184Y5430D01*
X233089Y6124D01*
X233783Y7029D01*
X234219Y8082D01*
X234368Y9213D01*
Y10787D01*
X234219Y11918D01*
X233783Y12971D01*
X233089Y13876D01*
X232184Y14570D01*
X231131Y15007D01*
X230000Y15156D01*
D02*
G37*
G36*
X220000D02*
X218869Y15007D01*
X217816Y14570D01*
X216911Y13876D01*
X216217Y12971D01*
X215781Y11918D01*
X215632Y10787D01*
Y9213D01*
X215781Y8082D01*
X216217Y7029D01*
X216911Y6124D01*
X217816Y5430D01*
X218869Y4993D01*
X220000Y4845D01*
X221130Y4993D01*
X222184Y5430D01*
X223089Y6124D01*
X223783Y7029D01*
X224219Y8082D01*
X224368Y9213D01*
Y10787D01*
X224219Y11918D01*
X223783Y12971D01*
X223089Y13876D01*
X222184Y14570D01*
X221130Y15007D01*
X220000Y15156D01*
D02*
G37*
G36*
X210000D02*
X208870Y15007D01*
X207816Y14570D01*
X206911Y13876D01*
X206217Y12971D01*
X205781Y11918D01*
X205632Y10787D01*
Y9213D01*
X205781Y8082D01*
X206217Y7029D01*
X206911Y6124D01*
X207816Y5430D01*
X208870Y4993D01*
X210000Y4845D01*
X211130Y4993D01*
X212184Y5430D01*
X213089Y6124D01*
X213783Y7029D01*
X214219Y8082D01*
X214368Y9213D01*
Y10787D01*
X214219Y11918D01*
X213783Y12971D01*
X213089Y13876D01*
X212184Y14570D01*
X211130Y15007D01*
X210000Y15156D01*
D02*
G37*
G36*
X180000D02*
X178869Y15007D01*
X177816Y14570D01*
X176911Y13876D01*
X176217Y12971D01*
X175781Y11918D01*
X175632Y10787D01*
Y9213D01*
X175781Y8082D01*
X176217Y7029D01*
X176911Y6124D01*
X177816Y5430D01*
X178869Y4993D01*
X180000Y4845D01*
X181131Y4993D01*
X182184Y5430D01*
X183089Y6124D01*
X183783Y7029D01*
X184219Y8082D01*
X184368Y9213D01*
Y10787D01*
X184219Y11918D01*
X183783Y12971D01*
X183089Y13876D01*
X182184Y14570D01*
X181131Y15007D01*
X180000Y15156D01*
D02*
G37*
G36*
X170000D02*
X168869Y15007D01*
X167816Y14570D01*
X166911Y13876D01*
X166217Y12971D01*
X165781Y11918D01*
X165632Y10787D01*
Y9213D01*
X165781Y8082D01*
X166217Y7029D01*
X166911Y6124D01*
X167816Y5430D01*
X168869Y4993D01*
X170000Y4845D01*
X171131Y4993D01*
X172184Y5430D01*
X173089Y6124D01*
X173783Y7029D01*
X174219Y8082D01*
X174368Y9213D01*
Y10787D01*
X174219Y11918D01*
X173783Y12971D01*
X173089Y13876D01*
X172184Y14570D01*
X171131Y15007D01*
X170000Y15156D01*
D02*
G37*
G36*
X204331Y157480D02*
X203149Y157324D01*
X202047Y156868D01*
X201102Y156142D01*
X200376Y155197D01*
X199920Y154095D01*
X199764Y152913D01*
X199920Y151732D01*
X200376Y150630D01*
X201102Y149684D01*
X202047Y148959D01*
X203149Y148502D01*
X204331Y148347D01*
X205513Y148502D01*
X206614Y148959D01*
X207560Y149684D01*
X208285Y150630D01*
X208742Y151732D01*
X208897Y152913D01*
X208742Y154095D01*
X208285Y155197D01*
X207560Y156142D01*
X206614Y156868D01*
X205513Y157324D01*
X204331Y157480D01*
D02*
G37*
G36*
X30000Y156567D02*
X28818Y156411D01*
X27717Y155955D01*
X26771Y155229D01*
X26045Y154283D01*
X25589Y153182D01*
X25433Y152000D01*
X25589Y150818D01*
X26045Y149717D01*
X26771Y148771D01*
X27717Y148045D01*
X28818Y147589D01*
X30000Y147433D01*
X31182Y147589D01*
X32283Y148045D01*
X33229Y148771D01*
X33955Y149717D01*
X34411Y150818D01*
X34567Y152000D01*
X34411Y153182D01*
X33955Y154283D01*
X33229Y155229D01*
X32283Y155955D01*
X31182Y156411D01*
X30000Y156567D01*
D02*
G37*
G36*
X39272Y147979D02*
X38350Y147796D01*
X37569Y147274D01*
X37047Y146493D01*
X37038Y146452D01*
X36459Y146101D01*
X35925Y146208D01*
X35004Y146024D01*
X34222Y145502D01*
X33700Y144721D01*
X33517Y143799D01*
X33700Y142877D01*
X34119Y142251D01*
Y127533D01*
X33700Y126906D01*
X33517Y125984D01*
X33700Y125063D01*
X34222Y124281D01*
X35004Y123759D01*
X35925Y123576D01*
X36847Y123759D01*
X37024Y123878D01*
X37465Y123642D01*
Y108938D01*
X37366Y108918D01*
X36584Y108396D01*
X36062Y107615D01*
X35879Y106693D01*
X36062Y105771D01*
X36584Y104990D01*
X37366Y104468D01*
X38287Y104284D01*
X39209Y104468D01*
X39990Y104990D01*
X40512Y105771D01*
X40696Y106693D01*
X40647Y106940D01*
X40940Y107380D01*
X41078Y108071D01*
Y144022D01*
X41497Y144649D01*
X41680Y145571D01*
X41497Y146493D01*
X40975Y147274D01*
X40193Y147796D01*
X39272Y147979D01*
D02*
G37*
G36*
X204331Y147480D02*
X203149Y147324D01*
X202047Y146868D01*
X201102Y146142D01*
X200376Y145197D01*
X199920Y144095D01*
X199764Y142913D01*
X199920Y141732D01*
X200376Y140630D01*
X201102Y139684D01*
X202047Y138959D01*
X203149Y138502D01*
X204331Y138347D01*
X205513Y138502D01*
X206614Y138959D01*
X207560Y139684D01*
X208285Y140630D01*
X208483Y141107D01*
X220893D01*
X221519Y140688D01*
X222441Y140505D01*
X223363Y140688D01*
X224144Y141210D01*
X224666Y141992D01*
X224849Y142913D01*
X224666Y143835D01*
X224144Y144616D01*
X223363Y145139D01*
X222441Y145322D01*
X221519Y145139D01*
X220893Y144720D01*
X208483D01*
X208285Y145197D01*
X207560Y146142D01*
X206614Y146868D01*
X205513Y147324D01*
X204331Y147480D01*
D02*
G37*
G36*
Y137480D02*
X203149Y137324D01*
X202047Y136868D01*
X201102Y136143D01*
X200376Y135197D01*
X199920Y134095D01*
X199764Y132913D01*
X199920Y131731D01*
X200376Y130630D01*
X201102Y129684D01*
X202047Y128959D01*
X203149Y128502D01*
X204331Y128347D01*
X205513Y128502D01*
X206614Y128959D01*
X207560Y129684D01*
X208285Y130630D01*
X208742Y131731D01*
X208897Y132913D01*
X208742Y134095D01*
X208285Y135197D01*
X207560Y136143D01*
X206614Y136868D01*
X205513Y137324D01*
X204331Y137480D01*
D02*
G37*
G36*
X194331D02*
X193149Y137324D01*
X192047Y136868D01*
X191102Y136143D01*
X190376Y135197D01*
X189920Y134095D01*
X189764Y132913D01*
X189920Y131731D01*
X190376Y130630D01*
X191102Y129684D01*
X192047Y128959D01*
X193149Y128502D01*
X194331Y128347D01*
X195513Y128502D01*
X196614Y128959D01*
X197560Y129684D01*
X198285Y130630D01*
X198742Y131731D01*
X198897Y132913D01*
X198742Y134095D01*
X198285Y135197D01*
X197560Y136143D01*
X196614Y136868D01*
X195513Y137324D01*
X194331Y137480D01*
D02*
G37*
G36*
X128347Y118550D02*
X127425Y118367D01*
X126643Y117845D01*
X126121Y117063D01*
X125938Y116142D01*
X126121Y115220D01*
X126540Y114593D01*
Y85109D01*
X126162Y84797D01*
X126057Y84768D01*
X125481Y85007D01*
X124350Y85155D01*
X123220Y85007D01*
X122166Y84570D01*
X121262Y83876D01*
X121158Y83741D01*
X120684Y83901D01*
Y85418D01*
X121750Y86484D01*
X122141Y87070D01*
X122279Y87761D01*
Y91070D01*
X122698Y91696D01*
X122881Y92618D01*
X122698Y93540D01*
X122176Y94321D01*
X121394Y94843D01*
X120472Y95027D01*
X119551Y94843D01*
X118769Y94321D01*
X118247Y93540D01*
X118064Y92618D01*
X118247Y91696D01*
X118666Y91070D01*
Y88509D01*
X117601Y87444D01*
X117209Y86858D01*
X117072Y86167D01*
Y84723D01*
X116623Y84502D01*
X116534Y84570D01*
X115481Y85007D01*
X114350Y85155D01*
X113220Y85007D01*
X112166Y84570D01*
X111262Y83876D01*
X110567Y82971D01*
X110131Y81918D01*
X109982Y80787D01*
Y79213D01*
X110131Y78082D01*
X110567Y77029D01*
X110751Y76790D01*
X105846Y71885D01*
X98399D01*
X97772Y72304D01*
X96850Y72487D01*
X95929Y72304D01*
X95147Y71782D01*
X94625Y71000D01*
X94442Y70079D01*
X94625Y69157D01*
X95147Y68376D01*
X95929Y67854D01*
X96850Y67670D01*
X97772Y67854D01*
X98399Y68272D01*
X106595D01*
X107286Y68410D01*
X107872Y68801D01*
X113965Y74895D01*
X114350Y74844D01*
X115481Y74993D01*
X116534Y75430D01*
X116623Y75498D01*
X117072Y75277D01*
Y73064D01*
X116574Y72319D01*
X116391Y71398D01*
X116574Y70476D01*
X117096Y69695D01*
X117877Y69173D01*
X118799Y68989D01*
X119721Y69173D01*
X120502Y69695D01*
X121024Y70476D01*
X121208Y71398D01*
X121024Y72319D01*
X120684Y72828D01*
Y76099D01*
X121158Y76259D01*
X121262Y76124D01*
X122166Y75430D01*
X123220Y74993D01*
X124350Y74844D01*
X125481Y74993D01*
X126534Y75430D01*
X126810Y75641D01*
X127259Y75420D01*
Y73049D01*
X126810Y72378D01*
X126627Y71457D01*
X126810Y70535D01*
X127332Y69754D01*
X128114Y69231D01*
X129035Y69048D01*
X129957Y69231D01*
X130738Y69754D01*
X131261Y70535D01*
X131444Y71457D01*
X131261Y72378D01*
X130871Y72961D01*
Y75876D01*
X131371Y76040D01*
X132166Y75430D01*
X133220Y74993D01*
X134350Y74844D01*
X135481Y74993D01*
X136534Y75430D01*
X137439Y76124D01*
X138133Y77029D01*
X138570Y78082D01*
X138718Y79213D01*
Y80787D01*
X138570Y81918D01*
X138133Y82971D01*
X137439Y83876D01*
X136534Y84570D01*
X135481Y85007D01*
X134350Y85155D01*
X133220Y85007D01*
X132166Y84570D01*
X131371Y83960D01*
X130871Y84124D01*
Y84183D01*
X130734Y84874D01*
X130342Y85460D01*
X130153Y85650D01*
Y114593D01*
X130572Y115220D01*
X130755Y116142D01*
X130572Y117063D01*
X130050Y117845D01*
X129268Y118367D01*
X128347Y118550D01*
D02*
G37*
G36*
X80709Y83511D02*
X79787Y83328D01*
X79006Y82805D01*
X78483Y82024D01*
X78337Y81285D01*
X76023Y78972D01*
X70446D01*
X69819Y79391D01*
X68898Y79574D01*
X67976Y79391D01*
X67195Y78868D01*
X66672Y78087D01*
X66489Y77165D01*
X66672Y76244D01*
X67195Y75462D01*
X67976Y74940D01*
X68898Y74757D01*
X69819Y74940D01*
X70446Y75359D01*
X76772D01*
X77463Y75497D01*
X78049Y75888D01*
X80891Y78730D01*
X81630Y78877D01*
X82412Y79399D01*
X82934Y80181D01*
X83117Y81102D01*
X82934Y82024D01*
X82412Y82805D01*
X81630Y83328D01*
X80709Y83511D01*
D02*
G37*
G36*
X44980Y86857D02*
X44059Y86674D01*
X43277Y86152D01*
X42755Y85370D01*
X42572Y84449D01*
X42755Y83527D01*
X43277Y82746D01*
X44059Y82224D01*
X44980Y82040D01*
X45023Y82049D01*
X46213Y80858D01*
X46799Y80467D01*
X47082Y80411D01*
X47194Y80074D01*
X47204Y79877D01*
X45482Y78155D01*
X45276Y78196D01*
X44354Y78013D01*
X43573Y77490D01*
X43050Y76709D01*
X42867Y75787D01*
X43050Y74866D01*
X43573Y74084D01*
X44354Y73562D01*
X45276Y73379D01*
X46197Y73562D01*
X46979Y74084D01*
X47501Y74866D01*
X47550Y75114D01*
X49272Y76835D01*
X60864D01*
X61417Y76725D01*
X62339Y76909D01*
X63120Y77431D01*
X63643Y78212D01*
X63810Y79054D01*
X63976Y79531D01*
X64898Y79714D01*
X65679Y80236D01*
X66202Y81017D01*
X66385Y81939D01*
X66202Y82861D01*
X65679Y83642D01*
X64898Y84164D01*
X63976Y84347D01*
X63055Y84164D01*
X62722Y83942D01*
X48238D01*
X47304Y84877D01*
X47205Y85370D01*
X46683Y86152D01*
X45902Y86674D01*
X44980Y86857D01*
D02*
G37*
G36*
X248681Y85118D02*
X240020D01*
Y74882D01*
X248681D01*
Y85118D01*
D02*
G37*
G36*
X204350Y85155D02*
X203220Y85007D01*
X202166Y84570D01*
X201262Y83876D01*
X200568Y82971D01*
X200131Y81918D01*
X199982Y80787D01*
Y79213D01*
X200131Y78082D01*
X200568Y77029D01*
X201262Y76124D01*
X202166Y75430D01*
X203220Y74993D01*
X204350Y74844D01*
X205481Y74993D01*
X206534Y75430D01*
X207439Y76124D01*
X208133Y77029D01*
X208570Y78082D01*
X208718Y79213D01*
Y80787D01*
X208570Y81918D01*
X208133Y82971D01*
X207439Y83876D01*
X206534Y84570D01*
X205481Y85007D01*
X204350Y85155D01*
D02*
G37*
G36*
X194350D02*
X193220Y85007D01*
X192166Y84570D01*
X191262Y83876D01*
X190568Y82971D01*
X190131Y81918D01*
X189982Y80787D01*
Y79213D01*
X190131Y78082D01*
X190568Y77029D01*
X191262Y76124D01*
X192166Y75430D01*
X193220Y74993D01*
X194350Y74844D01*
X195481Y74993D01*
X196534Y75430D01*
X197439Y76124D01*
X198133Y77029D01*
X198570Y78082D01*
X198719Y79213D01*
Y80787D01*
X198570Y81918D01*
X198133Y82971D01*
X197439Y83876D01*
X196534Y84570D01*
X195481Y85007D01*
X194350Y85155D01*
D02*
G37*
G36*
X184350D02*
X183220Y85007D01*
X182166Y84570D01*
X181262Y83876D01*
X180568Y82971D01*
X180131Y81918D01*
X179982Y80787D01*
Y79213D01*
X180131Y78082D01*
X180568Y77029D01*
X181262Y76124D01*
X182166Y75430D01*
X183220Y74993D01*
X184350Y74844D01*
X185481Y74993D01*
X186534Y75430D01*
X187439Y76124D01*
X188133Y77029D01*
X188570Y78082D01*
X188718Y79213D01*
Y80787D01*
X188570Y81918D01*
X188133Y82971D01*
X187439Y83876D01*
X186534Y84570D01*
X185481Y85007D01*
X184350Y85155D01*
D02*
G37*
G36*
X164350D02*
X163220Y85007D01*
X162166Y84570D01*
X161262Y83876D01*
X160567Y82971D01*
X160131Y81918D01*
X159982Y80787D01*
Y79213D01*
X160131Y78082D01*
X160567Y77029D01*
X161262Y76124D01*
X162166Y75430D01*
X163220Y74993D01*
X164350Y74844D01*
X165481Y74993D01*
X166534Y75430D01*
X167439Y76124D01*
X168133Y77029D01*
X168570Y78082D01*
X168719Y79213D01*
Y80787D01*
X168570Y81918D01*
X168133Y82971D01*
X167439Y83876D01*
X166534Y84570D01*
X165481Y85007D01*
X164350Y85155D01*
D02*
G37*
G36*
X154350D02*
X153220Y85007D01*
X152166Y84570D01*
X151262Y83876D01*
X150567Y82971D01*
X150131Y81918D01*
X149982Y80787D01*
Y79213D01*
X150131Y78082D01*
X150567Y77029D01*
X151262Y76124D01*
X152166Y75430D01*
X153220Y74993D01*
X154350Y74844D01*
X155481Y74993D01*
X156534Y75430D01*
X157439Y76124D01*
X158133Y77029D01*
X158570Y78082D01*
X158719Y79213D01*
Y80787D01*
X158570Y81918D01*
X158133Y82971D01*
X157439Y83876D01*
X156534Y84570D01*
X155481Y85007D01*
X154350Y85155D01*
D02*
G37*
G36*
X144350D02*
X143220Y85007D01*
X142166Y84570D01*
X141262Y83876D01*
X140568Y82971D01*
X140131Y81918D01*
X139982Y80787D01*
Y79213D01*
X140131Y78082D01*
X140568Y77029D01*
X141262Y76124D01*
X142166Y75430D01*
X143220Y74993D01*
X144350Y74844D01*
X145481Y74993D01*
X146534Y75430D01*
X147439Y76124D01*
X148133Y77029D01*
X148570Y78082D01*
X148719Y79213D01*
Y80787D01*
X148570Y81918D01*
X148133Y82971D01*
X147439Y83876D01*
X146534Y84570D01*
X145481Y85007D01*
X144350Y85155D01*
D02*
G37*
G36*
X224350Y55155D02*
X223220Y55007D01*
X222166Y54570D01*
X221262Y53876D01*
X220567Y52971D01*
X220131Y51918D01*
X219982Y50787D01*
Y49213D01*
X220131Y48082D01*
X220567Y47029D01*
X221262Y46124D01*
X222166Y45430D01*
X223220Y44993D01*
X224350Y44844D01*
X225481Y44993D01*
X226534Y45430D01*
X227439Y46124D01*
X228133Y47029D01*
X228570Y48082D01*
X228718Y49213D01*
Y50787D01*
X228570Y51918D01*
X228133Y52971D01*
X227439Y53876D01*
X226534Y54570D01*
X225481Y55007D01*
X224350Y55155D01*
D02*
G37*
G36*
X214350D02*
X213220Y55007D01*
X212166Y54570D01*
X211262Y53876D01*
X210567Y52971D01*
X210131Y51918D01*
X209982Y50787D01*
Y49213D01*
X210131Y48082D01*
X210567Y47029D01*
X211262Y46124D01*
X212166Y45430D01*
X213220Y44993D01*
X214350Y44844D01*
X215481Y44993D01*
X216534Y45430D01*
X217439Y46124D01*
X218133Y47029D01*
X218570Y48082D01*
X218719Y49213D01*
Y50787D01*
X218570Y51918D01*
X218133Y52971D01*
X217439Y53876D01*
X216534Y54570D01*
X215481Y55007D01*
X214350Y55155D01*
D02*
G37*
G36*
X174016Y63015D02*
X173555Y62924D01*
X173164Y62663D01*
X173164Y62663D01*
X172771Y62269D01*
X172510Y61878D01*
X172418Y61417D01*
X172418Y61417D01*
Y58661D01*
X172510Y58201D01*
X172771Y57810D01*
X173161Y57549D01*
X173622Y57457D01*
X180604D01*
X183796Y54265D01*
X183927Y54177D01*
X184045Y54074D01*
X184121Y54048D01*
X184187Y54004D01*
X184341Y53973D01*
X184490Y53922D01*
X185167Y53833D01*
X185927Y53518D01*
X186580Y53017D01*
X187081Y52364D01*
X187396Y51604D01*
X187514Y50709D01*
Y49292D01*
X187396Y48396D01*
X187081Y47636D01*
X186555Y46950D01*
X186550Y46947D01*
X186533Y46922D01*
X186484Y46857D01*
X186466Y46820D01*
X186462Y46816D01*
X186359Y46697D01*
X186333Y46622D01*
X186289Y46556D01*
X186258Y46402D01*
X186208Y46252D01*
X186213Y46173D01*
X186197Y46095D01*
Y36614D01*
X186289Y36153D01*
X186550Y35763D01*
X186941Y35502D01*
X187402Y35410D01*
X198365Y35410D01*
X198365Y35410D01*
X198826Y35502D01*
X199216Y35763D01*
X199570Y36116D01*
X199831Y36507D01*
X199923Y36968D01*
X199923Y36968D01*
X199923Y47135D01*
X199900Y47251D01*
Y47370D01*
X200121Y47445D01*
D01*
X200122Y47445D01*
X200506Y47176D01*
X200568Y47029D01*
X201262Y46124D01*
X202166Y45430D01*
X203220Y44993D01*
X204350Y44844D01*
X205481Y44993D01*
X206534Y45430D01*
X207439Y46124D01*
X208133Y47029D01*
X208570Y48082D01*
X208718Y49213D01*
Y50787D01*
X208570Y51918D01*
X208133Y52971D01*
X207439Y53876D01*
X206534Y54570D01*
X205481Y55007D01*
X204350Y55155D01*
X203220Y55007D01*
X202166Y54570D01*
X201262Y53876D01*
X200568Y52971D01*
X200506Y52824D01*
X200122Y52555D01*
X200122Y52555D01*
Y52555D01*
X199900Y52630D01*
Y52749D01*
X199923Y52865D01*
X199923Y61811D01*
X199831Y62272D01*
X199570Y62662D01*
X199179Y62924D01*
X198718Y63015D01*
X174016Y63015D01*
X174016Y63015D01*
D02*
G37*
G36*
X174350Y55155D02*
X173220Y55007D01*
X172166Y54570D01*
X171262Y53876D01*
X170568Y52971D01*
X170131Y51918D01*
X169982Y50787D01*
Y49213D01*
X170131Y48082D01*
X170568Y47029D01*
X171262Y46124D01*
X172166Y45430D01*
X173220Y44993D01*
X174350Y44844D01*
X175481Y44993D01*
X176534Y45430D01*
X177439Y46124D01*
X178133Y47029D01*
X178570Y48082D01*
X178718Y49213D01*
Y50787D01*
X178570Y51918D01*
X178133Y52971D01*
X177439Y53876D01*
X176534Y54570D01*
X175481Y55007D01*
X174350Y55155D01*
D02*
G37*
G36*
X164350D02*
X163220Y55007D01*
X162166Y54570D01*
X161262Y53876D01*
X160567Y52971D01*
X160131Y51918D01*
X159982Y50787D01*
Y49213D01*
X160131Y48082D01*
X160567Y47029D01*
X161262Y46124D01*
X162166Y45430D01*
X163220Y44993D01*
X164350Y44844D01*
X165481Y44993D01*
X166534Y45430D01*
X167439Y46124D01*
X168133Y47029D01*
X168570Y48082D01*
X168719Y49213D01*
Y50787D01*
X168570Y51918D01*
X168133Y52971D01*
X167439Y53876D01*
X166534Y54570D01*
X165481Y55007D01*
X164350Y55155D01*
D02*
G37*
G36*
X154350D02*
X153220Y55007D01*
X152166Y54570D01*
X151262Y53876D01*
X150567Y52971D01*
X150131Y51918D01*
X149982Y50787D01*
Y49213D01*
X150131Y48082D01*
X150567Y47029D01*
X151262Y46124D01*
X152166Y45430D01*
X153220Y44993D01*
X154350Y44844D01*
X155481Y44993D01*
X156534Y45430D01*
X157439Y46124D01*
X158133Y47029D01*
X158570Y48082D01*
X158719Y49213D01*
Y50787D01*
X158570Y51918D01*
X158133Y52971D01*
X157439Y53876D01*
X156534Y54570D01*
X155481Y55007D01*
X154350Y55155D01*
D02*
G37*
G36*
X144350D02*
X143220Y55007D01*
X142166Y54570D01*
X141262Y53876D01*
X140568Y52971D01*
X140131Y51918D01*
X139982Y50787D01*
Y49213D01*
X140131Y48082D01*
X140568Y47029D01*
X141262Y46124D01*
X142166Y45430D01*
X143220Y44993D01*
X144350Y44844D01*
X145481Y44993D01*
X146534Y45430D01*
X147439Y46124D01*
X148133Y47029D01*
X148570Y48082D01*
X148719Y49213D01*
Y50787D01*
X148570Y51918D01*
X148133Y52971D01*
X147439Y53876D01*
X146534Y54570D01*
X145481Y55007D01*
X144350Y55155D01*
D02*
G37*
G36*
X134350D02*
X133220Y55007D01*
X132166Y54570D01*
X131262Y53876D01*
X130568Y52971D01*
X130131Y51918D01*
X129982Y50787D01*
Y49213D01*
X130131Y48082D01*
X130568Y47029D01*
X131262Y46124D01*
X132166Y45430D01*
X133220Y44993D01*
X134350Y44844D01*
X135481Y44993D01*
X136534Y45430D01*
X137439Y46124D01*
X138133Y47029D01*
X138570Y48082D01*
X138718Y49213D01*
Y50787D01*
X138570Y51918D01*
X138133Y52971D01*
X137439Y53876D01*
X136534Y54570D01*
X135481Y55007D01*
X134350Y55155D01*
D02*
G37*
G36*
X124350D02*
X123220Y55007D01*
X122166Y54570D01*
X121262Y53876D01*
X120568Y52971D01*
X120131Y51918D01*
X119982Y50787D01*
Y49213D01*
X120131Y48082D01*
X120568Y47029D01*
X121262Y46124D01*
X122166Y45430D01*
X123220Y44993D01*
X124350Y44844D01*
X125481Y44993D01*
X126534Y45430D01*
X127439Y46124D01*
X128133Y47029D01*
X128570Y48082D01*
X128718Y49213D01*
Y50787D01*
X128570Y51918D01*
X128133Y52971D01*
X127439Y53876D01*
X126534Y54570D01*
X125481Y55007D01*
X124350Y55155D01*
D02*
G37*
G36*
X114350D02*
X113220Y55007D01*
X112166Y54570D01*
X111262Y53876D01*
X110567Y52971D01*
X110131Y51918D01*
X109982Y50787D01*
Y49213D01*
X110131Y48082D01*
X110567Y47029D01*
X111262Y46124D01*
X112166Y45430D01*
X113220Y44993D01*
X114350Y44844D01*
X115481Y44993D01*
X116534Y45430D01*
X117439Y46124D01*
X118133Y47029D01*
X118570Y48082D01*
X118719Y49213D01*
Y50787D01*
X118570Y51918D01*
X118133Y52971D01*
X117439Y53876D01*
X116534Y54570D01*
X115481Y55007D01*
X114350Y55155D01*
D02*
G37*
%LPD*%
G36*
X198718Y61811D02*
X198719Y52865D01*
X198219Y52766D01*
X198133Y52971D01*
X197439Y53876D01*
X196534Y54570D01*
X195481Y55007D01*
X194350Y55155D01*
X193220Y55007D01*
X192166Y54570D01*
X191262Y53876D01*
X190568Y52971D01*
X190131Y51918D01*
X189982Y50787D01*
Y49213D01*
X190131Y48082D01*
X190568Y47029D01*
X191262Y46124D01*
X192166Y45430D01*
X193220Y44993D01*
X194350Y44844D01*
X195481Y44993D01*
X196534Y45430D01*
X197439Y46124D01*
X198133Y47029D01*
X198219Y47234D01*
X198719Y47135D01*
X198719Y36968D01*
X198365Y36614D01*
X187402Y36614D01*
Y46095D01*
X187439Y46124D01*
X188133Y47029D01*
X188570Y48082D01*
X188718Y49213D01*
Y50787D01*
X188570Y51918D01*
X188133Y52971D01*
X187439Y53876D01*
X186534Y54570D01*
X185481Y55007D01*
X184647Y55116D01*
X181102Y58661D01*
X173622D01*
Y61417D01*
X174016Y61811D01*
X198718Y61811D01*
D02*
G37*
%LPC*%
G36*
X58268Y169959D02*
X56693D01*
X55562Y169810D01*
X54509Y169373D01*
X53604Y168679D01*
X52910Y167775D01*
X52474Y166721D01*
X52325Y165591D01*
X52474Y164460D01*
X52910Y163407D01*
X53604Y162502D01*
X54509Y161808D01*
X55562Y161371D01*
X56693Y161223D01*
X58268D01*
X59398Y161371D01*
X60452Y161808D01*
X61356Y162502D01*
X62051Y163407D01*
X62487Y164460D01*
X62636Y165591D01*
X62487Y166721D01*
X62051Y167775D01*
X61356Y168679D01*
X60452Y169373D01*
X59398Y169810D01*
X58268Y169959D01*
D02*
G37*
G36*
Y159959D02*
X56693D01*
X55562Y159810D01*
X54509Y159373D01*
X53604Y158679D01*
X52910Y157775D01*
X52474Y156721D01*
X52325Y155591D01*
X52474Y154460D01*
X52910Y153407D01*
X53604Y152502D01*
X54509Y151808D01*
X55562Y151371D01*
X56693Y151223D01*
X58268D01*
X59398Y151371D01*
X60452Y151808D01*
X61356Y152502D01*
X62051Y153407D01*
X62487Y154460D01*
X62636Y155591D01*
X62487Y156721D01*
X62051Y157775D01*
X61356Y158679D01*
X60452Y159373D01*
X59398Y159810D01*
X58268Y159959D01*
D02*
G37*
%LPD*%
D55*
X236417Y103051D02*
D03*
X262008Y120768D02*
D03*
X236417D02*
D03*
X96260Y5315D02*
D03*
X78543Y30906D02*
D03*
Y5315D02*
D03*
D56*
X96260Y30906D02*
D03*
D61*
X262008Y103051D02*
D03*
D70*
X102756Y185433D02*
X235827D01*
X98527Y189661D02*
X102756Y185433D01*
X98527Y189661D02*
Y202663D01*
X84000Y197201D02*
Y198284D01*
X100787Y181496D02*
X233071D01*
X84000Y198284D02*
X100787Y181496D01*
X84000Y198284D02*
Y200000D01*
X96850Y177559D02*
X228740D01*
X87402Y187008D02*
X96850Y177559D01*
X87402Y187008D02*
Y189665D01*
X235827Y185433D02*
X240551Y180709D01*
Y128347D02*
Y180709D01*
Y128347D02*
X249213Y119685D01*
X233071Y181496D02*
X236614Y177953D01*
Y129921D02*
Y177953D01*
X226378Y119685D02*
X236614Y129921D01*
X228740Y177559D02*
X233071Y173228D01*
Y132677D02*
Y173228D01*
X222047Y121653D02*
X233071Y132677D01*
X249213Y98425D02*
Y119685D01*
Y98425D02*
X259055Y88583D01*
X222047Y96457D02*
Y121653D01*
Y96457D02*
X229272Y89232D01*
X226378Y98032D02*
Y119685D01*
Y98032D02*
X230217Y94193D01*
X229272Y66673D02*
Y89232D01*
X128740Y163779D02*
X216142D01*
X88484Y160630D02*
X226772D01*
X194331Y123858D02*
X215984D01*
X216142Y124016D01*
X125787Y167126D02*
X222441D01*
X204331Y142913D02*
X222441D01*
X204331Y173622D02*
X224016D01*
X95276D02*
X204331D01*
Y170079D02*
Y173622D01*
X162598Y142520D02*
X172992Y152913D01*
X57480Y145591D02*
X60551Y142520D01*
X162598D01*
X172992Y152913D02*
X194331D01*
X170472Y142913D02*
X188583D01*
X39272Y108071D02*
Y145571D01*
X86417Y158563D02*
X88484Y160630D01*
X226772D02*
X228937Y158465D01*
X86221Y182677D02*
X95276Y173622D01*
X129065Y71486D02*
Y84183D01*
X129035Y71457D02*
X129065Y71486D01*
X128347Y84902D02*
Y116142D01*
Y84902D02*
X129065Y84183D01*
X118878Y71476D02*
Y86167D01*
X120472Y87761D01*
Y92618D01*
X106595Y70079D02*
X114350Y77835D01*
X96850Y70079D02*
X106595D01*
X125591Y167323D02*
X125787Y167126D01*
X76772Y77165D02*
X80709Y81102D01*
X68898Y77165D02*
X76772D01*
X224016Y173622D02*
X228740Y168898D01*
X64567Y182677D02*
X86221D01*
X259055Y64705D02*
Y88583D01*
X244350Y50000D02*
X259055Y64705D01*
X264370Y62697D02*
Y89961D01*
X256890Y97441D02*
X264370Y89961D01*
X256890Y97441D02*
Y119488D01*
X245866Y152953D02*
Y178543D01*
X244055Y151142D02*
X245866Y152953D01*
X244055Y132323D02*
Y151142D01*
X253543Y66535D02*
Y86221D01*
X237008Y50000D02*
X253543Y66535D01*
X234350Y50000D02*
X237008D01*
X245571Y94193D02*
X253543Y86221D01*
X244055Y132323D02*
X256890Y119488D01*
X47071Y186000D02*
X57480Y175591D01*
X30000Y186000D02*
X47071D01*
X228740Y163681D02*
Y168898D01*
X32776Y48819D02*
Y54134D01*
X229232Y66634D02*
X229272Y66673D01*
X57480Y175591D02*
X64567Y182677D01*
X38287Y106693D02*
Y107087D01*
X39272Y108071D01*
X8661Y32677D02*
Y60532D01*
Y32677D02*
X26772Y14567D01*
X119291Y193602D02*
X124000Y198311D01*
X112303Y193602D02*
X119291D01*
X109843Y191142D02*
X112303Y193602D01*
X109496Y191142D02*
X109843D01*
X35925Y125984D02*
Y143799D01*
Y125886D02*
Y125984D01*
X114350Y77835D02*
Y80000D01*
X48524Y78642D02*
X61319D01*
X47490Y82136D02*
X63976D01*
X44980Y84646D02*
X47490Y82136D01*
X45669Y75787D02*
X48524Y78642D01*
X45276Y75787D02*
X45669D01*
X109473Y191118D02*
X109496Y191142D01*
X124000Y198311D02*
Y200000D01*
X95482Y205709D02*
X98527Y202663D01*
X79709Y205709D02*
X95482D01*
X74000Y200000D02*
X79709Y205709D01*
X230217Y94193D02*
X245571D01*
X118799Y71398D02*
X118878Y71476D01*
D71*
X204331Y132913D02*
D03*
Y142913D02*
D03*
Y152913D02*
D03*
X194331Y132913D02*
D03*
Y142913D02*
D03*
X30000Y196000D02*
D03*
X20000D02*
D03*
X10000D02*
D03*
X30000Y186000D02*
D03*
X20000D02*
D03*
X30000Y162000D02*
D03*
X20000D02*
D03*
X10000D02*
D03*
X30000Y152000D02*
D03*
X20000D02*
D03*
X10000Y134646D02*
D03*
X20000Y124646D02*
D03*
X10000D02*
D03*
D72*
X194331Y152913D02*
D03*
D73*
X60000Y200000D02*
D03*
D74*
X180000Y10000D02*
D03*
X170000D02*
D03*
X160000D02*
D03*
X150000D02*
D03*
X140000D02*
D03*
X130000D02*
D03*
X120000D02*
D03*
X180000Y200000D02*
D03*
X190000D02*
D03*
X200000D02*
D03*
X210000D02*
D03*
X220000D02*
D03*
X230000D02*
D03*
X240000D02*
D03*
X154000D02*
D03*
X144000D02*
D03*
X134000D02*
D03*
X124000D02*
D03*
X114000D02*
D03*
X104000D02*
D03*
X94000D02*
D03*
X84000D02*
D03*
X74000D02*
D03*
X240000Y10000D02*
D03*
X250000D02*
D03*
X230000D02*
D03*
X220000D02*
D03*
X210000D02*
D03*
X234350Y80000D02*
D03*
X224350D02*
D03*
X214350D02*
D03*
X204350D02*
D03*
X194350D02*
D03*
X184350D02*
D03*
X174350D02*
D03*
X164350D02*
D03*
X154350D02*
D03*
X144350D02*
D03*
X134350D02*
D03*
X124350D02*
D03*
X114350D02*
D03*
X244350Y50000D02*
D03*
X234350D02*
D03*
X224350D02*
D03*
X214350D02*
D03*
X204350D02*
D03*
X194350D02*
D03*
X184350D02*
D03*
X174350D02*
D03*
X164350D02*
D03*
X154350D02*
D03*
X144350D02*
D03*
X134350D02*
D03*
X124350D02*
D03*
X114350D02*
D03*
X65748Y34646D02*
D03*
X55748D02*
D03*
D75*
X110000Y10000D02*
D03*
X250000Y200000D02*
D03*
X164000D02*
D03*
X200000Y10000D02*
D03*
X244350Y80000D02*
D03*
X45748Y34646D02*
D03*
D76*
X55000Y10000D02*
D03*
X260000Y30000D02*
D03*
Y140000D02*
D03*
D77*
X10000Y186000D02*
D03*
Y152000D02*
D03*
X20000Y134646D02*
D03*
D78*
X57480Y145591D02*
D03*
Y155591D02*
D03*
Y165591D02*
D03*
X260630Y164646D02*
D03*
Y174646D02*
D03*
D79*
X57480Y175591D02*
D03*
X260630Y184646D02*
D03*
D80*
X8661Y92126D02*
D03*
Y66142D02*
D03*
D81*
X27165Y52756D02*
D03*
Y43307D02*
D03*
X26772Y14567D02*
D03*
Y24016D02*
D03*
D82*
X216142Y163779D02*
D03*
Y124016D02*
D03*
X222441Y167323D02*
D03*
Y142913D02*
D03*
X204331Y170079D02*
D03*
X194331Y123858D02*
D03*
X188583Y142913D02*
D03*
X168898D02*
D03*
X268012Y49213D02*
D03*
X264370Y62697D02*
D03*
X54724Y66929D02*
D03*
Y70079D02*
D03*
Y73228D02*
D03*
X44488Y58661D02*
D03*
X48031Y61811D02*
D03*
X44488D02*
D03*
X40945D02*
D03*
X50000Y70079D02*
D03*
X78740Y168898D02*
D03*
X32677Y177953D02*
D03*
X164567Y190157D02*
D03*
X160630D02*
D03*
X164567Y193307D02*
D03*
X160630D02*
D03*
X164567Y150394D02*
D03*
X161024D02*
D03*
Y154331D02*
D03*
X164567D02*
D03*
X105905Y100000D02*
D03*
X228740Y146457D02*
D03*
Y149213D02*
D03*
X164961Y24902D02*
D03*
X161417Y25591D02*
D03*
X168504Y24803D02*
D03*
X68898Y81496D02*
D03*
X64567Y51575D02*
D03*
X83465Y52362D02*
D03*
X228740Y151969D02*
D03*
X76378Y81890D02*
D03*
X29823Y67323D02*
D03*
X153642Y33661D02*
D03*
X96949Y51772D02*
D03*
X184941Y35138D02*
D03*
X77461Y55315D02*
D03*
X53839Y88189D02*
D03*
X31693Y89173D02*
D03*
X249902Y75295D02*
D03*
X32185Y114370D02*
D03*
X157087Y43996D02*
D03*
X174350Y85374D02*
D03*
X189469Y100787D02*
D03*
X153937D02*
D03*
X42520Y98130D02*
D03*
X59055Y107677D02*
D03*
X93307Y77756D02*
D03*
X86221Y97835D02*
D03*
X71850Y113386D02*
D03*
X85827Y131791D02*
D03*
X107874Y136713D02*
D03*
X74803Y160728D02*
D03*
X248228Y71358D02*
D03*
X178642Y43406D02*
D03*
X144783Y26575D02*
D03*
X120079Y32776D02*
D03*
X128347Y116142D02*
D03*
X120472Y92618D02*
D03*
X96850Y70079D02*
D03*
X242618Y32687D02*
D03*
X125591Y26378D02*
D03*
X126378Y29134D02*
D03*
X128740Y163779D02*
D03*
X125591Y167323D02*
D03*
X49213Y160236D02*
D03*
Y162992D02*
D03*
X61417Y79134D02*
D03*
X68898Y77165D02*
D03*
X60630Y53937D02*
D03*
X88583Y170866D02*
D03*
X80709Y81102D02*
D03*
X38287Y106693D02*
D03*
X86417Y158563D02*
D03*
X15846Y112500D02*
D03*
X68110Y161713D02*
D03*
X8661Y60532D02*
D03*
X23425Y90256D02*
D03*
X23228Y85138D02*
D03*
X22441Y205512D02*
D03*
X120079Y163681D02*
D03*
X51870Y160335D02*
D03*
X4724Y113681D02*
D03*
X114469Y27264D02*
D03*
X173721Y18898D02*
D03*
X181693Y16535D02*
D03*
X242618Y29823D02*
D03*
X35925Y125984D02*
D03*
Y143799D02*
D03*
X39272Y145571D02*
D03*
X188681Y37894D02*
D03*
X175295Y60039D02*
D03*
X32776Y48819D02*
D03*
Y54134D02*
D03*
X63976Y81939D02*
D03*
X44980Y84449D02*
D03*
X45276Y75787D02*
D03*
X109496Y191142D02*
D03*
X228740Y163681D02*
D03*
X228937Y158465D02*
D03*
X87402Y189665D02*
D03*
X229232Y66634D02*
D03*
X245866Y178543D02*
D03*
X129035Y71457D02*
D03*
X118799Y71398D02*
D03*
M02*
