M48
;Layer_Color=9474304
;FILE_FORMAT=2:5
INCH,TZ
;TYPE=PLATED
T1F00S00C0.01181
T3F00S00C0.02953
T4F00S00C0.03937
T5F00S00C0.04331
T6F00S00C0.12598
;TYPE=NON_PLATED
T7F00S00C0.12598
%
T01
X125591Y26378
X126378Y29134
X144783Y26575
X153642Y33661
X157087Y43996
X178642Y43406
X184941Y35138
X188681Y37894
X181693Y16535
X173721Y18898
X168504Y24803
X164961Y24902
X161417Y25591
X175295Y60039
X174350Y85374
X189469Y100787
X194331Y123858
X216142Y124016
X229232Y66634
X248228Y71358
X249902Y75295
X264370Y62697
X268012Y49213
X242618Y32687
Y29823
X129035Y71457
X128347Y116142
X153937Y100787
X120472Y92618
X105905Y100000
X86221Y97835
X80709Y81102
X76378Y81890
X68898Y81496
Y77165
X61417Y79134
X63976Y81939
X53839Y88189
X44980Y84449
X45276Y75787
X50000Y70079
X54724
Y66929
Y73228
X48031Y61811
X44488
Y58661
X40945Y61811
X32776Y54134
Y48819
X29823Y67323
X31693Y89173
X23425Y90256
X23228Y85138
X42520Y98130
X38287Y106693
X32185Y114370
X15846Y112500
X4724Y113681
X8661Y60532
X60630Y53937
X64567Y51575
X77461Y55315
X83465Y52362
X96949Y51772
X96850Y70079
X93307Y77756
X118799Y71398
X120079Y32776
X114469Y27264
X71850Y113386
X59055Y107677
X35925Y125984
Y143799
X39272Y145571
X49213Y160236
Y162992
X51870Y160335
X68110Y161713
X74803Y160728
X78740Y168898
X88583Y170866
X86417Y158563
X85827Y131791
X107874Y136713
X120079Y163681
X109496Y191142
X87402Y189665
X32677Y177953
X22441Y205512
X125591Y167323
X128740Y163779
X161024Y154331
X164567
Y150394
X161024
X168898Y142913
X188583
X222441
X228740Y146457
Y149213
Y151969
X228937Y158465
X228740Y163681
X222441Y167323
X216142Y163779
X204331Y170079
X245866Y178543
X164567Y190157
Y193307
X160630
Y190157
T03
X26772Y14567
Y24016
X27165Y43307
Y52756
T04
X236417Y103051
Y120768
X262008
Y103051
X96260Y30906
X78543
Y5315
X96260
T05
X130000Y10000
X140000
X150000
X160000
X170000
X180000
X200000
X210000
X220000
X230000
X240000
X250000
X244350Y50000
X234350
X224350
X214350
X204350
X194350
X184350
X174350
X164350
X154350
X144350
X134350
X124350
Y80000
X134350
X144350
X154350
X164350
X174350
X184350
X194350
X204350
X214350
X224350
X234350
X244350
X114350
Y50000
X110000Y10000
X120000
X65748Y34646
X55748
X45748
X20000Y124646
X10000
Y134646
X20000
Y152000
Y162000
X30000
Y152000
X10000
Y162000
Y186000
Y196000
X20000
X30000
Y186000
X20000
X57480Y175591
Y165591
Y155591
Y145591
X74000Y200000
X84000
X94000
X104000
X114000
X124000
X134000
X144000
X154000
X164000
X180000
X190000
X200000
X210000
X220000
X230000
X240000
X250000
X260630Y184646
Y174646
Y164646
X204331Y152913
Y142913
Y132913
X194331
Y142913
Y152913
T06
X260000Y30000
X55000Y10000
X260000Y140000
T07
X60000Y200000
M30
