G04*
G04 #@! TF.GenerationSoftware,Altium Limited,Altium Designer,18.0.7 (293)*
G04*
G04 Layer_Physical_Order=1*
G04 Layer_Color=255*
%FSLAX44Y44*%
%MOMM*%
G71*
G01*
G75*
%ADD15R,0.5500X1.0000*%
%ADD16R,3.5000X2.2000*%
%ADD17R,0.6000X2.2000*%
%ADD18R,2.5000X2.6000*%
%ADD19R,2.6000X2.5000*%
%ADD20R,1.0000X0.5500*%
%ADD21R,2.7000X2.0000*%
%ADD22R,0.8000X0.8000*%
%ADD23R,1.3500X0.4000*%
%ADD24R,1.4000X1.6000*%
%ADD25R,0.5000X1.5000*%
%ADD26R,1.5000X0.5000*%
%ADD27R,0.6858X0.5588*%
%ADD28R,0.5588X0.6858*%
%ADD29R,1.3000X0.7000*%
%ADD30R,0.7000X1.3000*%
%ADD31R,0.9000X0.6000*%
%ADD32R,1.3000X0.9000*%
%ADD33R,0.9000X1.3000*%
%ADD55C,1.9000*%
%ADD56R,1.9000X1.9000*%
%ADD61R,1.9000X1.9000*%
%ADD69C,1.0160*%
%ADD70C,0.3000*%
%ADD71C,1.7000*%
%ADD72R,1.7000X1.7000*%
%ADD73C,3.2000*%
%ADD74O,1.6000X2.0000*%
%ADD75R,1.6000X2.0000*%
%ADD76C,7.4000*%
%ADD77R,1.7000X1.7000*%
%ADD78O,2.0000X1.6000*%
%ADD79R,2.0000X1.6000*%
G04:AMPARAMS|DCode=80|XSize=2mm|YSize=1.2mm|CornerRadius=0.36mm|HoleSize=0mm|Usage=FLASHONLY|Rotation=0.000|XOffset=0mm|YOffset=0mm|HoleType=Round|Shape=RoundedRectangle|*
%AMROUNDEDRECTD80*
21,1,2.0000,0.4800,0,0,0.0*
21,1,1.2800,1.2000,0,0,0.0*
1,1,0.7200,0.6400,-0.2400*
1,1,0.7200,-0.6400,-0.2400*
1,1,0.7200,-0.6400,0.2400*
1,1,0.7200,0.6400,0.2400*
%
%ADD80ROUNDEDRECTD80*%
%ADD81C,1.2000*%
%ADD82C,0.6000*%
G36*
X109000Y419000D02*
X133116D01*
X133283Y417728D01*
X134391Y415053D01*
X136155Y412755D01*
X137000Y412106D01*
Y403694D01*
X136155Y403045D01*
X136120Y403000D01*
X88000D01*
Y422000D01*
X85000Y425000D01*
X38000D01*
X34000Y421000D01*
Y403000D01*
X15000D01*
Y437000D01*
X91000D01*
X109000Y419000D01*
D02*
G37*
G36*
X405560Y495000D02*
X423000D01*
Y375000D01*
X404000D01*
Y496000D01*
X405560D01*
Y495000D01*
D02*
G37*
G36*
X644000Y409000D02*
X653920D01*
X654453Y408591D01*
X657128Y407483D01*
X660000Y407105D01*
X664000D01*
X666872Y407483D01*
X669548Y408591D01*
X670080Y409000D01*
X682000D01*
Y296000D01*
X596000D01*
X590000Y302000D01*
X590000Y312000D01*
X596001Y318001D01*
X600000Y318000D01*
X600000Y339000D01*
X611000D01*
Y366000D01*
Y380000D01*
X597000D01*
Y379000D01*
X593000D01*
Y368000D01*
X583000D01*
X576088Y368000D01*
Y392000D01*
X628000D01*
Y419000D01*
X644000D01*
Y409000D01*
D02*
G37*
G36*
X71162Y249750D02*
X71511Y247994D01*
X72506Y246506D01*
X73000Y246011D01*
Y242000D01*
X77011Y242000D01*
X81500Y237511D01*
Y227000D01*
X84000D01*
Y224000D01*
X81000D01*
Y223000D01*
X64088D01*
Y225317D01*
X65152Y226909D01*
X65617Y229250D01*
X65152Y231591D01*
X63826Y233576D01*
X61841Y234902D01*
X59500Y235368D01*
X57159Y234902D01*
X55174Y233576D01*
X53848Y231591D01*
X53383Y229250D01*
X53848Y226909D01*
X54912Y225317D01*
Y223000D01*
X34000D01*
Y190000D01*
X39000Y190000D01*
Y189500D01*
X47637D01*
X47994Y189261D01*
X49750Y188912D01*
X54412D01*
Y181050D01*
X54761Y179294D01*
X55756Y177806D01*
X56000Y177562D01*
X56000Y161000D01*
X70196D01*
X71302Y160261D01*
X73058Y159912D01*
X78442D01*
X80198Y160261D01*
X81304Y161000D01*
X97000D01*
X97000Y164999D01*
X97000Y190000D01*
X100000D01*
Y183000D01*
X113000D01*
Y185779D01*
X113982Y186585D01*
X115000Y186383D01*
X117341Y186848D01*
X119326Y188174D01*
X120545Y190000D01*
X147139Y190000D01*
X148244Y189261D01*
X150000Y188912D01*
X172500D01*
X174256Y189261D01*
X175264Y189935D01*
X175588Y190000D01*
X181412Y189999D01*
Y166000D01*
X140000D01*
X130000Y156000D01*
Y131000D01*
X124000Y125000D01*
X106000D01*
X90059Y140941D01*
Y141000D01*
X89826Y142170D01*
X89163Y143163D01*
X88170Y143826D01*
X87000Y144059D01*
X79000D01*
X77829Y143826D01*
X76837Y143163D01*
X76174Y142170D01*
X75941Y141000D01*
Y130059D01*
X74661D01*
X74366Y130000D01*
X63634D01*
X63338Y130059D01*
X3000D01*
Y242000D01*
X44750Y242000D01*
Y241500D01*
X64937D01*
X65750Y241500D01*
X66000Y242000D01*
X66000Y242000D01*
X66000Y242666D01*
Y253211D01*
X67201Y254412D01*
X71162D01*
Y249750D01*
D02*
G37*
G36*
X87000Y120000D02*
X76000Y109000D01*
Y96000D01*
X3000D01*
Y127000D01*
X63338D01*
X64461Y126139D01*
X66651Y125232D01*
X69000Y124922D01*
X71350Y125232D01*
X73539Y126139D01*
X74661Y127000D01*
X78000D01*
X79000Y128000D01*
Y141000D01*
X87000D01*
Y120000D01*
D02*
G37*
G36*
X202000Y110000D02*
X220000Y110000D01*
Y92000D01*
X188000Y92000D01*
X187000Y91000D01*
Y79319D01*
X186892Y78500D01*
X186454Y78000D01*
X158000Y78000D01*
Y102000D01*
X172000Y102000D01*
Y128000D01*
X202000D01*
Y110000D01*
D02*
G37*
G36*
X427000Y140000D02*
Y114000D01*
X430000Y111000D01*
Y84000D01*
X448000D01*
Y74000D01*
X426000D01*
Y70559D01*
X416000D01*
Y111000D01*
X407000Y120000D01*
Y140000D01*
X427000Y140000D01*
D02*
G37*
G36*
X155000Y105000D02*
X134000D01*
X127000Y98000D01*
Y77000D01*
X108000D01*
X86000Y55000D01*
X3000D01*
Y92941D01*
X76000D01*
X76295Y93000D01*
X80000D01*
Y99000D01*
X107000D01*
Y119000D01*
X124000D01*
X134000Y129000D01*
X155000D01*
Y105000D01*
D02*
G37*
G36*
X212000Y3000D02*
X3000D01*
Y51941D01*
X67857D01*
X68000Y51922D01*
X68143Y51941D01*
X86000D01*
X86000Y51941D01*
X86296Y52000D01*
X89000D01*
X110000Y73000D01*
X187000D01*
X188000Y74000D01*
Y75405D01*
X188202Y75560D01*
X188617Y75837D01*
X188673Y75922D01*
X188753Y75983D01*
X189192Y76483D01*
X189342Y76744D01*
X189541Y76971D01*
X189638Y77256D01*
X189789Y77517D01*
X189828Y77815D01*
X189925Y78101D01*
X190033Y78920D01*
X190019Y79121D01*
X190059Y79319D01*
Y88000D01*
X212000D01*
Y3000D01*
D02*
G37*
G36*
X492162Y92838D02*
Y48000D01*
X474000Y48000D01*
Y84874D01*
X474076Y84924D01*
X475402Y86909D01*
X475868Y89250D01*
X475402Y91591D01*
X474076Y93576D01*
X474000Y93626D01*
Y104000D01*
X481000D01*
X492162Y92838D01*
D02*
G37*
G36*
X338000Y62000D02*
X323000D01*
X320000Y59000D01*
Y43000D01*
X314000Y37000D01*
Y15000D01*
X296000D01*
Y54000D01*
X308000Y54000D01*
X314000Y60000D01*
X314500D01*
Y60500D01*
X315000Y61000D01*
X315000Y78000D01*
X338000Y78000D01*
X338000Y62000D01*
D02*
G37*
G36*
X413000Y68000D02*
Y67500D01*
X428000D01*
Y67500D01*
X428500Y68000D01*
X431000Y68000D01*
Y47000D01*
X441000Y37000D01*
Y14000D01*
X397000D01*
Y57000D01*
X408000Y68000D01*
X413000Y68000D01*
D02*
G37*
G36*
X349000Y83000D02*
X380000D01*
X389000Y74000D01*
Y41000D01*
X393000Y37000D01*
Y14000D01*
X370000D01*
Y37000D01*
X375000Y42000D01*
Y70000D01*
X370000Y75000D01*
X349000D01*
X342000Y82000D01*
X323000D01*
Y90000D01*
X342000D01*
X349000Y83000D01*
D02*
G37*
G36*
X365000Y14000D02*
X346000D01*
Y32000D01*
X336000Y42000D01*
X323861D01*
X323055Y42982D01*
X323059Y43000D01*
X323059Y43000D01*
Y54000D01*
X365000D01*
Y14000D01*
D02*
G37*
D15*
X69500Y276500D02*
D03*
X50500D02*
D03*
X69500Y249500D02*
D03*
X60000D02*
D03*
X50500D02*
D03*
X651500Y143500D02*
D03*
X670500D02*
D03*
X651500Y170500D02*
D03*
X661000D02*
D03*
X670500D02*
D03*
D16*
X164000Y178000D02*
D03*
D17*
X189400Y116000D02*
D03*
X176700D02*
D03*
X164000D02*
D03*
X151300D02*
D03*
X138600D02*
D03*
D18*
X458500Y288000D02*
D03*
X409500D02*
D03*
D19*
X250000Y270000D02*
D03*
Y319000D02*
D03*
D20*
X195500Y419500D02*
D03*
Y438500D02*
D03*
X168500Y419500D02*
D03*
Y429000D02*
D03*
Y438500D02*
D03*
X235500Y140500D02*
D03*
Y159500D02*
D03*
X208500Y140500D02*
D03*
Y150000D02*
D03*
Y159500D02*
D03*
D21*
X17000Y74000D02*
D03*
Y106000D02*
D03*
D22*
X604000Y373000D02*
D03*
X588000D02*
D03*
X255000Y420000D02*
D03*
X239000D02*
D03*
X255000Y398750D02*
D03*
X239000D02*
D03*
X255000Y378750D02*
D03*
X239000D02*
D03*
D23*
X48750Y214000D02*
D03*
Y207500D02*
D03*
Y201000D02*
D03*
Y194500D02*
D03*
Y188000D02*
D03*
D24*
X46500Y233000D02*
D03*
Y169000D02*
D03*
D25*
X182000Y258000D02*
D03*
X174000D02*
D03*
X166000D02*
D03*
X158000D02*
D03*
X150000D02*
D03*
X142000D02*
D03*
X134000D02*
D03*
X126000D02*
D03*
Y342000D02*
D03*
X134000D02*
D03*
X142000D02*
D03*
X150000D02*
D03*
X158000D02*
D03*
X166000D02*
D03*
X174000D02*
D03*
X182000D02*
D03*
D26*
X112000Y272000D02*
D03*
Y280000D02*
D03*
Y288000D02*
D03*
Y296000D02*
D03*
Y304000D02*
D03*
Y312000D02*
D03*
Y320000D02*
D03*
Y328000D02*
D03*
X196000D02*
D03*
Y320000D02*
D03*
Y312000D02*
D03*
Y304000D02*
D03*
Y296000D02*
D03*
Y288000D02*
D03*
Y280000D02*
D03*
Y272000D02*
D03*
D27*
X12000Y296192D02*
D03*
Y271808D02*
D03*
D28*
X604616Y246000D02*
D03*
X629000D02*
D03*
D29*
X173000Y403500D02*
D03*
Y384500D02*
D03*
X218000Y283500D02*
D03*
Y264500D02*
D03*
X612000Y473500D02*
D03*
Y454500D02*
D03*
X584000Y474000D02*
D03*
Y455000D02*
D03*
X636000Y432500D02*
D03*
Y413500D02*
D03*
X667000Y206500D02*
D03*
Y187500D02*
D03*
X31000Y295500D02*
D03*
Y276500D02*
D03*
X667000Y222500D02*
D03*
Y241500D02*
D03*
X274000Y48500D02*
D03*
Y67500D02*
D03*
X256000Y159500D02*
D03*
Y140500D02*
D03*
X645000Y222500D02*
D03*
Y241500D02*
D03*
X330000Y66500D02*
D03*
Y85500D02*
D03*
Y47000D02*
D03*
Y66000D02*
D03*
X90000Y261500D02*
D03*
Y280500D02*
D03*
D30*
X295500Y439750D02*
D03*
X276500D02*
D03*
X295500Y415750D02*
D03*
X276500D02*
D03*
X81500Y350000D02*
D03*
X100500D02*
D03*
X106500Y214500D02*
D03*
X87500D02*
D03*
X106500Y192500D02*
D03*
X87500D02*
D03*
X106500Y171000D02*
D03*
X87500D02*
D03*
X365500Y99000D02*
D03*
X384500D02*
D03*
X624500Y229000D02*
D03*
X605500D02*
D03*
X235500Y441000D02*
D03*
X254500D02*
D03*
X407500Y231000D02*
D03*
X426500D02*
D03*
X585500Y353000D02*
D03*
X604500D02*
D03*
X31000Y254000D02*
D03*
X12000D02*
D03*
X270500Y87000D02*
D03*
X289500D02*
D03*
X146250Y214500D02*
D03*
X127250D02*
D03*
D31*
X71000Y226500D02*
D03*
Y211500D02*
D03*
Y181500D02*
D03*
Y196500D02*
D03*
D32*
X197000Y216500D02*
D03*
Y235500D02*
D03*
X218000Y319500D02*
D03*
Y300500D02*
D03*
X175000Y216500D02*
D03*
Y235500D02*
D03*
X23000Y451500D02*
D03*
Y432500D02*
D03*
X636000Y453500D02*
D03*
Y472500D02*
D03*
X305000Y67500D02*
D03*
Y48500D02*
D03*
X355000Y67500D02*
D03*
Y48500D02*
D03*
X215000Y419500D02*
D03*
Y438500D02*
D03*
X219000Y197500D02*
D03*
Y178500D02*
D03*
X645000Y186500D02*
D03*
Y205500D02*
D03*
X235000Y122500D02*
D03*
Y103500D02*
D03*
X197000Y178500D02*
D03*
Y197500D02*
D03*
X441000Y59500D02*
D03*
Y78500D02*
D03*
X219000Y235500D02*
D03*
Y216500D02*
D03*
X117000Y131500D02*
D03*
Y112500D02*
D03*
X212000Y122500D02*
D03*
Y103500D02*
D03*
D33*
X126250Y236500D02*
D03*
X145250D02*
D03*
X260500Y347000D02*
D03*
X241500D02*
D03*
X260000Y242000D02*
D03*
X241000D02*
D03*
X402500Y50000D02*
D03*
X383500D02*
D03*
X40500Y522000D02*
D03*
X21500D02*
D03*
X445500Y231000D02*
D03*
X464500D02*
D03*
X401500Y99000D02*
D03*
X420500D02*
D03*
X457500D02*
D03*
X438500D02*
D03*
X406500Y256000D02*
D03*
X425500D02*
D03*
X464500D02*
D03*
X445500D02*
D03*
X671500Y125000D02*
D03*
X652500D02*
D03*
X70000Y294000D02*
D03*
X51000D02*
D03*
X108000Y236500D02*
D03*
X89000D02*
D03*
X461500Y55000D02*
D03*
X480500D02*
D03*
X461500Y77000D02*
D03*
X480500D02*
D03*
X260500Y483000D02*
D03*
X241500D02*
D03*
X401500Y77000D02*
D03*
X420500D02*
D03*
X605500Y331000D02*
D03*
X586500D02*
D03*
D55*
X600500Y261750D02*
D03*
X665500Y306750D02*
D03*
X600500D02*
D03*
X244500Y13500D02*
D03*
X199500Y78500D02*
D03*
Y13500D02*
D03*
D56*
X22000Y213000D02*
D03*
Y189000D02*
D03*
X244500Y78500D02*
D03*
D61*
X665500Y261750D02*
D03*
D69*
X223000Y47000D02*
D03*
X97000Y528000D02*
D03*
X668000Y508000D02*
D03*
X669000Y21000D02*
D03*
D70*
X407000Y327000D02*
X438000D01*
X375000Y295000D02*
X407000Y327000D01*
X375000Y211550D02*
Y295000D01*
X401000Y338000D02*
X434000D01*
X362000Y299000D02*
X401000Y338000D01*
X362000Y223950D02*
Y299000D01*
X398000Y351000D02*
X433000D01*
X353000Y306000D02*
X398000Y351000D01*
X353000Y240350D02*
Y306000D01*
X394000Y362000D02*
X428000D01*
X344000Y312000D02*
X394000Y362000D01*
X344000Y255000D02*
Y312000D01*
X337000Y320000D02*
X399000Y382000D01*
X337000Y266250D02*
Y320000D01*
X399000Y382000D02*
Y473000D01*
X326000Y326000D02*
X381000Y381000D01*
X326000Y295000D02*
Y326000D01*
X381000Y381000D02*
Y468000D01*
X354000Y397000D02*
Y446000D01*
X287000Y330000D02*
X354000Y397000D01*
X287000Y239000D02*
Y330000D01*
X340000Y401000D02*
Y439000D01*
X277000Y338000D02*
X340000Y401000D01*
X277000Y241000D02*
Y338000D01*
X250000Y214000D02*
X277000Y241000D01*
X250000Y189000D02*
Y214000D01*
Y189000D02*
X268000Y171000D01*
Y114500D02*
Y171000D01*
Y114500D02*
X283500Y99000D01*
X260000Y192000D02*
X276000Y176000D01*
Y118000D02*
Y176000D01*
Y118000D02*
X287000Y107000D01*
X366650Y124650D02*
Y127000D01*
X349000Y107000D02*
X366650Y124650D01*
X283500Y99000D02*
X365500D01*
X439500Y357500D02*
Y468500D01*
X433000Y351000D02*
X439500Y357500D01*
X448000Y352000D02*
Y454000D01*
X434000Y338000D02*
X448000Y352000D01*
X456000Y345000D02*
Y437671D01*
X438000Y327000D02*
X456000Y345000D01*
X448000Y454000D02*
X482600Y488600D01*
X549000Y315000D02*
Y416000D01*
Y431000D02*
X573000Y455000D01*
X549000Y416000D02*
Y431000D01*
X541000Y232050D02*
Y447000D01*
Y232050D02*
X569850Y203200D01*
X531000Y216650D02*
Y454800D01*
Y216650D02*
X544450Y203200D01*
X531000Y454800D02*
X584200Y508000D01*
X559500Y242500D02*
X595250Y206750D01*
X328700Y23900D02*
X330200Y25400D01*
X619150Y201700D02*
X620650Y203200D01*
X571500Y251250D02*
Y406250D01*
Y251250D02*
X593750Y229000D01*
X571500Y406250D02*
X581000Y415750D01*
X565000Y363000D02*
Y425000D01*
X596000D01*
X558500Y428500D02*
X566000Y436000D01*
X558500Y360308D02*
Y428500D01*
Y360308D02*
X559500Y359308D01*
Y242500D02*
Y359308D01*
X519000Y388400D02*
Y432000D01*
X69500Y277500D02*
X75500D01*
X94000Y280500D02*
X102500Y272000D01*
X493600Y314600D02*
Y337600D01*
X179893Y296000D02*
X196000D01*
X173000Y289107D02*
X179893Y296000D01*
X173000Y278007D02*
Y289107D01*
X208750Y296000D02*
X213250Y300500D01*
X196000Y296000D02*
X208750D01*
X210500Y283500D02*
X218000D01*
X207000Y280000D02*
X210500Y283500D01*
X196000Y280000D02*
X207000D01*
X472500Y421700D02*
X558800Y508000D01*
X472500Y324500D02*
X507000Y290000D01*
X472500Y324500D02*
Y421700D01*
X479000Y363000D02*
X493600D01*
X428000Y362000D02*
X429000Y363000D01*
Y495560D01*
X439500Y468500D02*
X457200Y486200D01*
X507000Y215250D02*
Y290000D01*
X493650Y203200D02*
Y288350D01*
X465000Y317000D02*
X493650Y288350D01*
X465000Y317000D02*
Y433000D01*
X456000Y437671D02*
X508000Y489671D01*
X541000Y447000D02*
X568000Y474000D01*
X519000Y36400D02*
Y101650D01*
X508000Y25400D02*
X519000Y36400D01*
X493650Y127000D02*
X519000Y101650D01*
X539000Y47000D02*
Y107050D01*
X533400Y41400D02*
X539000Y47000D01*
X519050Y127000D02*
X539000Y107050D01*
X199500Y116000D02*
X212000Y103500D01*
X189400Y116000D02*
X199500D01*
X176700D02*
X189400D01*
X176700Y97700D02*
Y116000D01*
X167000Y88000D02*
X176700Y97700D01*
X208500Y150000D02*
Y159500D01*
X168500Y438500D02*
X179500D01*
X60000Y250500D02*
Y253700D01*
X50500Y250500D02*
X60000D01*
X42500D02*
X50500D01*
X39000Y254000D02*
X42500Y250500D01*
X31000Y254000D02*
X39000D01*
X75750Y249750D02*
Y256950D01*
Y249750D02*
X89000Y236500D01*
X73700Y259000D02*
X75750Y256950D01*
X80392Y261500D02*
X90000D01*
X76392Y265500D02*
X80392Y261500D01*
X62608Y265500D02*
X76392D01*
X62608Y265500D02*
X62608Y265500D01*
X52500Y265500D02*
X62608D01*
X65300Y259000D02*
X73700D01*
X60000Y253700D02*
X65300Y259000D01*
X49500Y268500D02*
X52500Y265500D01*
X78500Y280500D02*
X90000D01*
X75500Y277500D02*
X78500Y280500D01*
X667000Y255250D02*
X673500Y261750D01*
X667000Y241500D02*
Y255250D01*
Y240750D02*
Y241500D01*
X645000D02*
X667000D01*
X641750D02*
X645000D01*
X59500Y216750D02*
Y229250D01*
X59000Y216250D02*
X59500Y216750D01*
X56750Y214000D02*
X59000Y216250D01*
X48750Y214000D02*
X56750D01*
X200000Y429000D02*
X205000D01*
X214500Y419500D01*
X215000D01*
X195500Y438500D02*
X215000D01*
X78442Y164500D02*
X87500Y173558D01*
Y171000D02*
Y173558D01*
X260500Y347000D02*
X274250D01*
X124900Y432100D02*
X152763D01*
X98500Y458500D02*
X124900Y432100D01*
X64740Y458500D02*
X98500D01*
X23000Y451500D02*
X23500Y452000D01*
X83000D01*
X50800Y472440D02*
X64740Y458500D01*
X269000Y251000D02*
Y254000D01*
X260000Y242000D02*
X269000Y251000D01*
X274000Y347250D02*
X274250Y347000D01*
X641250Y170500D02*
X651500D01*
X630500Y181250D02*
X641250Y170500D01*
X81308Y290500D02*
X81750D01*
X77808Y294000D02*
X81308Y290500D01*
X70000Y294000D02*
X77808D01*
X182500Y288000D02*
X196000D01*
X175000Y207000D02*
Y216500D01*
X164000Y116000D02*
Y131000D01*
X239000Y131500D02*
X246250D01*
X235000Y127500D02*
X239000Y131500D01*
X235000Y122500D02*
Y127500D01*
X212000Y122500D02*
Y133000D01*
X194000Y213500D02*
X197000Y216500D01*
X194000Y208000D02*
Y213500D01*
X71000Y181500D02*
X75750Y176750D01*
Y171000D02*
Y176750D01*
X401500Y77000D02*
Y79750D01*
X395750Y85500D02*
X401500Y79750D01*
X390250Y85500D02*
X395750D01*
X461500Y81000D02*
X469750Y89250D01*
X461500Y77000D02*
Y81000D01*
X196750Y140500D02*
X208500D01*
X136750Y224000D02*
X145250Y232500D01*
X71000Y226500D02*
X80500D01*
X80500Y226500D01*
X639500Y186500D02*
X645000D01*
X634750Y191250D02*
X639500Y186500D01*
X634500Y191250D02*
X634750D01*
X399000Y111750D02*
X401500Y109250D01*
X442850Y216850D02*
X445500Y219500D01*
Y231000D01*
X464500Y256000D02*
X481250D01*
X391000D02*
X406500D01*
X108000Y249250D02*
X108000Y249250D01*
X108000Y236500D02*
Y249250D01*
X145250Y232500D02*
Y236500D01*
X150000Y273500D02*
X150000Y273500D01*
X150000Y258000D02*
Y273500D01*
X237000Y197500D02*
X237000Y197500D01*
X219000Y197500D02*
X237000D01*
X219000Y235500D02*
Y248500D01*
X182500Y288000D02*
X182500Y288000D01*
X218000Y319500D02*
Y334750D01*
X260500Y483000D02*
Y492250D01*
X264160Y495910D01*
Y508000D01*
X178750Y419500D02*
X190000Y408250D01*
X168500Y419500D02*
X178750D01*
X671500Y125000D02*
X680750D01*
X453750Y110250D02*
X457500Y106500D01*
Y99000D02*
Y106500D01*
X401500Y99000D02*
Y109250D01*
X355000Y67500D02*
X367750D01*
X305000D02*
Y83250D01*
X316000Y227000D02*
X344000Y255000D01*
X304000Y227000D02*
X316000D01*
X328350Y228350D02*
X341000D01*
X315850Y215850D02*
X328350Y228350D01*
X290450Y213450D02*
X304000Y227000D01*
X290450Y203200D02*
Y213450D01*
X341000Y228350D02*
X353000Y240350D01*
X315850Y203200D02*
Y215850D01*
X391160Y480840D02*
X399000Y473000D01*
X391160Y480840D02*
Y508000D01*
X306000Y235250D02*
X337000Y266250D01*
X457200Y486200D02*
Y508000D01*
X482600Y488600D02*
Y508000D01*
X341250Y203200D02*
X362000Y223950D01*
X365760Y483240D02*
X381000Y468000D01*
X365760Y483240D02*
Y508000D01*
X314960Y485040D02*
X354000Y446000D01*
X340360Y485640D02*
X368000Y458000D01*
Y389000D02*
Y458000D01*
X298000Y319000D02*
X368000Y389000D01*
X340360Y485640D02*
Y508000D01*
X298000Y238929D02*
Y319000D01*
X278950Y194300D02*
Y219879D01*
X416560Y508000D02*
X429000Y495560D01*
X314960Y485040D02*
Y508000D01*
X260000Y212000D02*
X287000Y239000D01*
X260000Y192000D02*
Y212000D01*
X287000Y107000D02*
X349000D01*
X278950Y219879D02*
X298000Y238929D01*
X278950Y194300D02*
X284250Y189000D01*
X304000Y475000D02*
Y498000D01*
X294000Y508000D02*
X304000Y498000D01*
X289560Y508000D02*
X294000D01*
X304000Y475000D02*
X340000Y439000D01*
X246000Y178000D02*
X256000Y168000D01*
Y159500D02*
Y168000D01*
X627600Y443600D02*
X662000D01*
X586500Y402500D02*
X627600Y443600D01*
X581500Y402500D02*
X586500D01*
X600000Y447000D02*
Y461500D01*
X589000Y436000D02*
X600000Y447000D01*
X566000Y436000D02*
X589000D01*
X600000Y461500D02*
X612000Y473500D01*
X568000Y474000D02*
X584000D01*
X533400Y501400D02*
Y508000D01*
X465000Y433000D02*
X533400Y501400D01*
X508000Y489671D02*
Y508000D01*
X366650Y203200D02*
X375000Y211550D01*
X583000Y283000D02*
Y327500D01*
Y256000D02*
Y283000D01*
X215000Y438500D02*
X225000D01*
X671735Y283000D02*
X681000Y273735D01*
X583000Y283000D02*
X671735D01*
X607500Y246000D02*
X624500Y229000D01*
X604616Y246000D02*
X607500D01*
X585500Y332000D02*
X586500Y331000D01*
X585500Y332000D02*
Y353000D01*
X583000Y327500D02*
X586500Y331000D01*
X583000Y256000D02*
X593000Y246000D01*
X604616D01*
X593750Y229000D02*
X605500D01*
X667000Y206500D02*
X681000D01*
X667000Y222500D02*
X681000D01*
Y273735D01*
Y206500D02*
Y222500D01*
Y154000D02*
Y206500D01*
X670500Y143500D02*
X681000Y154000D01*
X652500Y125500D02*
X670500Y143500D01*
X652500Y125000D02*
Y125500D01*
X643500Y143500D02*
X651500D01*
X639000Y148000D02*
X643500Y143500D01*
X492500Y148000D02*
X639000D01*
X652000Y144000D02*
Y150558D01*
X619150Y183408D02*
X652000Y150558D01*
X616250Y94275D02*
X646975Y125000D01*
X616250Y75750D02*
Y94275D01*
X604000Y56400D02*
Y110350D01*
Y56400D02*
X635000Y25400D01*
X604000Y110350D02*
X620650Y127000D01*
X587000Y118750D02*
X595250Y127000D01*
X587000Y48000D02*
Y118750D01*
Y48000D02*
X609600Y25400D01*
X584200D02*
Y28800D01*
X569850Y43150D02*
X584200Y28800D01*
X569850Y43150D02*
Y127000D01*
X554000Y44000D02*
Y103000D01*
X544450Y112550D02*
X554000Y103000D01*
X544450Y112550D02*
Y127000D01*
X554000Y44000D02*
X558800Y39200D01*
Y25400D02*
Y39200D01*
X533400Y25400D02*
Y41400D01*
X496750Y40750D02*
Y95250D01*
X481250Y110750D02*
X496750Y95250D01*
X481250Y110750D02*
Y136750D01*
X492500Y148000D01*
X475000Y162000D02*
X575000D01*
X442850Y129850D02*
X475000Y162000D01*
X442850Y127000D02*
Y129850D01*
X575000Y162000D02*
X582250Y169250D01*
X468250Y186250D02*
Y203200D01*
X445250Y163250D02*
X468250Y186250D01*
X445250Y152500D02*
Y163250D01*
X344000Y7000D02*
X463000D01*
X496750Y40750D01*
X328700Y22300D02*
X344000Y7000D01*
X328700Y22300D02*
Y23900D01*
X84000Y297000D02*
X111000D01*
X77000Y304000D02*
X84000Y297000D01*
X38250Y304000D02*
X77000D01*
X58400Y309000D02*
X79513D01*
X84513Y304000D01*
X112000D01*
X50800Y316600D02*
X58400Y309000D01*
X76000Y328000D02*
X112000D01*
X66000Y338000D02*
X76000Y328000D01*
X66000Y338000D02*
Y352000D01*
X59000Y359000D02*
X66000Y352000D01*
X43750Y359000D02*
X59000D01*
X25400Y377350D02*
X43750Y359000D01*
X63000Y365000D02*
X72000Y356000D01*
X47500Y365000D02*
X63000D01*
X72000Y343000D02*
Y356000D01*
X38250Y374250D02*
X47500Y365000D01*
X72000Y343000D02*
X79250Y335750D01*
X110250D01*
X50800Y386080D02*
X68000Y368880D01*
Y368750D02*
X75750D01*
X193000Y370000D02*
X230250D01*
X174000Y351000D02*
X193000Y370000D01*
X174000Y342000D02*
Y351000D01*
X188500Y378500D02*
X222750D01*
X166000Y356000D02*
X188500Y378500D01*
X166000Y342000D02*
Y356000D01*
X173000Y375000D02*
Y384500D01*
X150000Y352000D02*
X173000Y375000D01*
X150000Y342000D02*
Y352000D01*
X193750Y402750D02*
X219500D01*
X175500Y384500D02*
X193750Y402750D01*
X173000Y384500D02*
X175500D01*
X204000Y364000D02*
X267000D01*
X182000Y342000D02*
X204000Y364000D01*
X215000Y358000D02*
X278000D01*
X196000Y339000D02*
X215000Y358000D01*
X196000Y328000D02*
Y339000D01*
X327000Y407000D02*
Y416000D01*
X278000Y358000D02*
X327000Y407000D01*
X319000Y416000D02*
Y425000D01*
X267000Y364000D02*
X319000Y416000D01*
X230250Y370000D02*
X239000Y378750D01*
X276500Y430700D02*
Y439750D01*
X269500Y423700D02*
X276500Y430700D01*
X269500Y413250D02*
Y423700D01*
X255000Y398750D02*
X269500Y413250D01*
X255000Y378750D02*
X276500Y400250D01*
Y415750D01*
X181000Y459000D02*
X190000Y468000D01*
X124500Y459000D02*
X181000D01*
X97750Y485750D02*
X124500Y459000D01*
X190000Y468000D02*
X261500D01*
X197500Y456500D02*
X261000D01*
X179500Y438500D02*
X197500Y456500D01*
X261500Y468000D02*
X278120Y484620D01*
X170000Y468000D02*
X195250Y493250D01*
X133000Y468000D02*
X170000D01*
X89960Y511040D02*
X133000Y468000D01*
X195250Y493250D02*
X221750D01*
X50800Y497840D02*
X64000Y511040D01*
X89960D01*
X206000Y206000D02*
Y206201D01*
X197150Y197500D02*
X205650Y206000D01*
X192364Y235500D02*
X197000D01*
X182000Y245864D02*
X192364Y235500D01*
X182000Y245864D02*
Y258000D01*
X182000Y258000D02*
X182000Y258000D01*
X182000Y258000D02*
Y269007D01*
X173000Y278007D02*
X182000Y269007D01*
X213250Y300500D02*
X218000D01*
X156000Y201000D02*
Y242250D01*
X155750Y242500D02*
X156000Y242250D01*
X172500Y193500D02*
X175000Y196000D01*
X150000Y193500D02*
X172500D01*
X175000Y235500D02*
X186000Y224500D01*
Y162000D02*
Y224500D01*
X162250Y209000D02*
Y241500D01*
X178750Y154750D02*
X186000Y162000D01*
X146250Y197250D02*
X150000Y193500D01*
X146250Y197250D02*
Y214500D01*
X126250Y236500D02*
X127250Y235500D01*
Y214500D02*
Y235500D01*
X185000Y144000D02*
X197000Y156000D01*
X161000Y144000D02*
X185000D01*
X154000Y137000D02*
X161000Y144000D01*
X145000Y145000D02*
X154750Y154750D01*
X145000Y127000D02*
Y145000D01*
Y127000D02*
X145750Y126250D01*
X154750Y154750D02*
X178750D01*
X197000Y156000D02*
Y178500D01*
X204000D01*
X204000Y178500D01*
X219000D01*
X229250D01*
X235500Y172250D01*
Y159500D02*
Y172250D01*
X235000Y103500D02*
X245000Y93500D01*
X255750D01*
X262250Y87000D01*
X117000Y112500D02*
X119750D01*
X225000Y116550D02*
Y140250D01*
Y116550D02*
X235000Y106550D01*
X215250Y150000D02*
X225000Y140250D01*
Y438500D02*
X227500Y441000D01*
X225000Y434000D02*
Y438500D01*
X670500Y183500D02*
X670750Y183750D01*
X671500Y159250D02*
Y182500D01*
X596000Y425000D02*
X612000Y441000D01*
X573000Y455000D02*
X584000D01*
X507000Y215250D02*
X519050Y203200D01*
X206649Y207150D02*
X216000Y216500D01*
X206799Y207000D02*
X207000Y207201D01*
X206000Y206201D02*
X206799Y207000D01*
X205650Y206000D02*
X206000D01*
X205000D02*
X205650D01*
X206000Y206350D01*
X206649Y207150D02*
X206799Y207000D01*
X97250Y271000D02*
X101500D01*
X102500Y272000D01*
X199750Y411000D02*
X235750D01*
X605500Y229000D02*
X609500D01*
X59000Y181050D02*
X69250Y170800D01*
Y168308D02*
Y170800D01*
X73058Y164500D02*
X78442D01*
X69250Y168308D02*
X73058Y164500D01*
X71000Y196500D02*
X79942D01*
X83442Y193000D01*
X87500D01*
X40250Y285750D02*
X49500Y276500D01*
X173000Y403500D02*
Y410750D01*
Y402500D02*
Y403500D01*
X670500Y183500D02*
X671500Y182500D01*
X197000Y197500D02*
X197150D01*
X235000Y103500D02*
Y106550D01*
X111000Y297000D02*
X112000Y296000D01*
X384500Y99000D02*
Y113250D01*
X392050Y120800D01*
X40500Y522000D02*
X57000D01*
X38710Y485750D02*
X97750D01*
X106450Y395200D02*
X146000D01*
X619150Y183408D02*
Y201700D01*
X392050Y120800D02*
Y127000D01*
X438500Y99000D02*
Y122650D01*
X59000Y181050D02*
Y191450D01*
X56950Y193500D02*
X59000Y191450D01*
X49750Y193500D02*
X56950D01*
X48750Y194500D02*
X49750Y193500D01*
X21500Y501740D02*
X25400Y497840D01*
X21500Y501740D02*
Y522000D01*
X305000Y415750D02*
X305000Y415750D01*
X295500Y415750D02*
X305000D01*
X295500D02*
Y439750D01*
X227500Y441000D02*
X235500D01*
X12000Y288750D02*
Y296192D01*
X12692Y295500D01*
X31000D01*
X49500Y276500D02*
Y292500D01*
Y268500D02*
Y276500D01*
Y295500D02*
X51000Y294000D01*
X49500Y292500D02*
X51000Y294000D01*
X151300Y116000D02*
Y125250D01*
X290750Y55250D02*
Y69250D01*
X284000Y48500D02*
X290750Y55250D01*
X274000Y48500D02*
X284000D01*
X441000Y48250D02*
X441250Y48000D01*
X441000Y48250D02*
Y59500D01*
X461500Y42000D02*
X461500Y42000D01*
Y55000D01*
X660750Y172250D02*
X662250Y170750D01*
X651000Y197500D02*
Y222500D01*
X657000Y182550D02*
X660750Y178800D01*
Y172250D02*
Y178800D01*
X657000Y182550D02*
Y191500D01*
X667000Y187500D02*
X670750Y183750D01*
X651000Y197500D02*
X657000Y191500D01*
X608500Y261750D02*
X665500D01*
X673500D01*
X133203Y246500D02*
X138407D01*
X126250Y239547D02*
X133203Y246500D01*
X126250Y236500D02*
Y239547D01*
X142000Y250093D02*
Y258000D01*
X138407Y246500D02*
X142000Y250093D01*
X91250Y320000D02*
X112000D01*
X72800D02*
X85000D01*
X85000Y320000D01*
X91250D01*
Y365250D02*
Y371750D01*
X100750Y381250D01*
X139187D01*
X97330Y386080D02*
X106450Y395200D01*
X76200Y386080D02*
X97330D01*
X139187Y381250D02*
X139237Y381300D01*
X154050D01*
X160500Y387750D01*
Y404250D01*
X146000Y418750D02*
X160500Y404250D01*
X146000Y418750D02*
Y420600D01*
X99800Y369800D02*
X146000D01*
X99750Y369750D02*
X99800Y369800D01*
X102500Y272000D02*
X112000D01*
X90000Y280500D02*
X94000D01*
X256000Y140500D02*
X256000Y140500D01*
X235500Y140500D02*
X256000D01*
X208500Y150000D02*
X215250D01*
X262250Y87000D02*
X270500D01*
X289500Y78250D02*
Y87000D01*
X278750Y67500D02*
X289500Y78250D01*
X274000Y67500D02*
X278750D01*
X269500D02*
X274000D01*
X258500Y78500D02*
X269500Y67500D01*
X244500Y78500D02*
X258500D01*
X244500Y13500D02*
Y78500D01*
X468250Y203200D02*
Y218000D01*
X464500Y221750D02*
X468250Y218000D01*
X464500Y221750D02*
Y231000D01*
X200000Y235500D02*
X219000Y216500D01*
X216000D02*
X219000D01*
X197000Y235500D02*
X200000D01*
X174000Y244500D02*
Y258000D01*
Y244500D02*
X175000Y243500D01*
Y235500D02*
Y243500D01*
X117000Y112500D02*
X120500Y116000D01*
X155750Y242500D02*
X158000Y244750D01*
X162250Y241500D02*
X166000Y245250D01*
Y245750D02*
Y258000D01*
X158000Y244750D02*
Y257500D01*
X290450Y166450D02*
X301750Y177750D01*
X290450Y127000D02*
Y166450D01*
X314500Y168250D02*
X327750Y181500D01*
X314500Y128350D02*
Y168250D01*
X329442Y189000D02*
X341250Y177192D01*
Y127000D02*
Y177192D01*
X106500Y214500D02*
X114250D01*
X107000Y192500D02*
X115000D01*
X106500Y193000D02*
X107000Y192500D01*
X64500Y196500D02*
X71000D01*
X60000Y201000D02*
X64500Y196500D01*
X48750Y201000D02*
X60000D01*
X82250Y214500D02*
X87500D01*
X78750Y211000D02*
X82250Y214500D01*
X71000Y211000D02*
X78750D01*
X64000Y211500D02*
X71000D01*
X60000Y207500D02*
X64000Y211500D01*
X48750Y207500D02*
X60000D01*
X12000Y254000D02*
Y271808D01*
X14500Y276500D02*
X31000D01*
X12000Y274000D02*
X14500Y276500D01*
X12000Y271808D02*
Y274000D01*
X241000Y261000D02*
X250000Y270000D01*
X241000Y242000D02*
Y261000D01*
X250000Y319000D02*
Y332750D01*
X241500Y341250D02*
X250000Y332750D01*
X241500Y341250D02*
Y347000D01*
X238250Y270000D02*
X250000D01*
X232750Y264500D02*
X238250Y270000D01*
X218000Y264500D02*
X232750D01*
X209500D02*
X218000D01*
X202000Y272000D02*
X209500Y264500D01*
X196000Y272000D02*
X202000D01*
X250000Y302250D02*
Y319000D01*
X231250Y283500D02*
X250000Y302250D01*
X218000Y283500D02*
X231250D01*
X239000Y394750D02*
Y398750D01*
X222750Y378500D02*
X239000Y394750D01*
X254500Y441000D02*
X255000Y440500D01*
Y420000D02*
Y440500D01*
X239000Y414250D02*
Y420000D01*
X235750Y411000D02*
X239000Y414250D01*
X195500Y415250D02*
X199750Y411000D01*
X195500Y415250D02*
Y419500D01*
X25400Y316600D02*
X25650D01*
X38250Y304000D01*
X56971Y328600D02*
X71571Y314000D01*
X84142Y312000D02*
X112000D01*
X82142Y314000D02*
X84142Y312000D01*
X71571Y314000D02*
X82142D01*
X38800Y328600D02*
X56971D01*
X50800Y342000D02*
X72800Y320000D01*
X25400Y342000D02*
X38800Y328600D01*
X50800Y334950D02*
Y342000D01*
X25400Y377350D02*
Y386080D01*
X81500Y350000D02*
Y363000D01*
X75750Y368750D02*
X81500Y363000D01*
X100500Y350000D02*
X110000D01*
X117500Y357500D01*
X129250D01*
X134000Y352750D01*
Y342000D02*
Y352750D01*
X110250Y335750D02*
X116500Y342000D01*
X126000D01*
X38250Y374250D02*
Y391250D01*
X50800Y403800D01*
Y411480D01*
X365760Y508000D02*
X369750Y504010D01*
X289560Y485060D02*
Y508000D01*
X261000Y456500D02*
X289560Y485060D01*
X278120Y484620D02*
Y485500D01*
X221750Y493250D02*
X226750Y498250D01*
X25400Y472440D02*
X38710Y485750D01*
X322360Y526000D02*
X340360Y508000D01*
X236500Y526000D02*
X322360D01*
X226750Y516250D02*
X236500Y526000D01*
X226750Y498250D02*
Y516250D01*
X417450Y203200D02*
Y205200D01*
X426500Y214250D01*
Y231000D01*
X392050Y203200D02*
X395950D01*
X407500Y214750D01*
Y231000D01*
X426500D02*
Y237000D01*
X445500Y256000D01*
X458500Y269000D01*
Y288000D01*
X407500Y231000D02*
Y238000D01*
X425500Y256000D01*
Y267250D01*
X409500Y283250D02*
X425500Y267250D01*
X409500Y283250D02*
Y288000D01*
X637250Y246000D02*
X641750Y241500D01*
X629000Y246000D02*
X637250D01*
X604000Y353500D02*
X604500Y353000D01*
X604000Y353500D02*
Y373000D01*
X647700Y432500D02*
X662000Y418200D01*
X636000Y432500D02*
X647700D01*
X658500Y472500D02*
X662000Y469000D01*
X636000Y472500D02*
X658500D01*
X168500Y429000D02*
Y438500D01*
X155863Y429000D02*
X168500D01*
X152763Y432100D02*
X155863Y429000D01*
X609500Y229000D02*
X620650Y217850D01*
Y203200D02*
Y217850D01*
X238760Y496240D02*
Y508000D01*
Y496240D02*
X241500Y493500D01*
Y483000D02*
Y493500D01*
X240250Y481750D02*
X241500Y483000D01*
X222000Y481750D02*
X240250D01*
X438500Y122650D02*
X442850Y127000D01*
X612000Y441000D02*
Y454500D01*
X624500Y453500D02*
X636000D01*
X314500Y128350D02*
X315850Y127000D01*
X284250Y189000D02*
X329442D01*
X301750Y177750D02*
Y181350D01*
X314960Y508000D02*
X320250Y502710D01*
X612000Y485000D02*
X635000Y508000D01*
X612000Y473500D02*
Y485000D01*
X595250Y203200D02*
Y206750D01*
X584000Y485750D02*
X606250Y508000D01*
X584000Y474000D02*
Y485750D01*
X606250Y508000D02*
X609600D01*
D71*
X519000Y337600D02*
D03*
Y363000D02*
D03*
Y388400D02*
D03*
X493600Y337600D02*
D03*
Y363000D02*
D03*
X76200Y497840D02*
D03*
X50800D02*
D03*
X25400D02*
D03*
X76200Y472440D02*
D03*
X50800D02*
D03*
X76200Y411480D02*
D03*
X50800D02*
D03*
X25400D02*
D03*
X76200Y386080D02*
D03*
X50800D02*
D03*
X25400Y342000D02*
D03*
X50800Y316600D02*
D03*
X25400D02*
D03*
D72*
X493600Y388400D02*
D03*
D73*
X152400Y508000D02*
D03*
D74*
X457200Y25400D02*
D03*
X431800D02*
D03*
X406400D02*
D03*
X381000D02*
D03*
X355600D02*
D03*
X330200D02*
D03*
X304800D02*
D03*
X457200Y508000D02*
D03*
X482600D02*
D03*
X508000D02*
D03*
X533400D02*
D03*
X558800D02*
D03*
X584200D02*
D03*
X609600D02*
D03*
X391160D02*
D03*
X365760D02*
D03*
X340360D02*
D03*
X314960D02*
D03*
X289560D02*
D03*
X264160D02*
D03*
X238760D02*
D03*
X213360D02*
D03*
X187960D02*
D03*
X609600Y25400D02*
D03*
X635000D02*
D03*
X584200D02*
D03*
X558800D02*
D03*
X533400D02*
D03*
X595250Y203200D02*
D03*
X569850D02*
D03*
X544450D02*
D03*
X519050D02*
D03*
X493650D02*
D03*
X468250D02*
D03*
X442850D02*
D03*
X417450D02*
D03*
X392050D02*
D03*
X366650D02*
D03*
X341250D02*
D03*
X315850D02*
D03*
X290450D02*
D03*
X620650Y127000D02*
D03*
X595250D02*
D03*
X569850D02*
D03*
X544450D02*
D03*
X519050D02*
D03*
X493650D02*
D03*
X468250D02*
D03*
X442850D02*
D03*
X417450D02*
D03*
X392050D02*
D03*
X366650D02*
D03*
X341250D02*
D03*
X315850D02*
D03*
X290450D02*
D03*
X167000Y88000D02*
D03*
X141600D02*
D03*
D75*
X279400Y25400D02*
D03*
X635000Y508000D02*
D03*
X416560D02*
D03*
X508000Y25400D02*
D03*
X620650Y203200D02*
D03*
X116200Y88000D02*
D03*
D76*
X139700Y25400D02*
D03*
X660400Y76200D02*
D03*
Y355600D02*
D03*
D77*
X25400Y472440D02*
D03*
Y386080D02*
D03*
X50800Y342000D02*
D03*
D78*
X146000Y369800D02*
D03*
Y395200D02*
D03*
Y420600D02*
D03*
X662000Y418200D02*
D03*
Y443600D02*
D03*
D79*
X146000Y446000D02*
D03*
X662000Y469000D02*
D03*
D80*
X22000Y234000D02*
D03*
Y168000D02*
D03*
D81*
X69000Y134000D02*
D03*
Y110000D02*
D03*
X68000Y37000D02*
D03*
Y61000D02*
D03*
D82*
X549000Y416000D02*
D03*
Y315000D02*
D03*
X565000Y425000D02*
D03*
Y363000D02*
D03*
X519000Y432000D02*
D03*
X493600Y314600D02*
D03*
X479000Y363000D02*
D03*
X429000D02*
D03*
X680750Y125000D02*
D03*
X671500Y159250D02*
D03*
X139000Y170000D02*
D03*
Y178000D02*
D03*
Y186000D02*
D03*
X113000Y149000D02*
D03*
X122000Y157000D02*
D03*
X113000D02*
D03*
X104000D02*
D03*
X127000Y178000D02*
D03*
X200000Y429000D02*
D03*
X83000Y452000D02*
D03*
X418000Y483000D02*
D03*
X408000D02*
D03*
X418000Y491000D02*
D03*
X408000D02*
D03*
X418000Y382000D02*
D03*
X409000D02*
D03*
Y392000D02*
D03*
X418000D02*
D03*
X269000Y254000D02*
D03*
X581000Y372000D02*
D03*
Y379000D02*
D03*
X419000Y63250D02*
D03*
X410000Y65000D02*
D03*
X428000Y63000D02*
D03*
X175000Y207000D02*
D03*
X164000Y131000D02*
D03*
X212000Y133000D02*
D03*
X581000Y386000D02*
D03*
X194000Y208000D02*
D03*
X75750Y171000D02*
D03*
X390250Y85500D02*
D03*
X246250Y131500D02*
D03*
X469750Y89250D02*
D03*
X196750Y140500D02*
D03*
X136750Y224000D02*
D03*
X80500Y226500D02*
D03*
X634750Y191250D02*
D03*
X81750Y290500D02*
D03*
X399000Y111750D02*
D03*
X442850Y216850D02*
D03*
X481250Y256000D02*
D03*
X391000D02*
D03*
X108000Y249250D02*
D03*
X150000Y273500D02*
D03*
X237000Y197500D02*
D03*
X219000Y248500D02*
D03*
X182500Y288000D02*
D03*
X218000Y334750D02*
D03*
X274000Y347250D02*
D03*
X190000Y408250D02*
D03*
X630500Y181250D02*
D03*
X453750Y110250D02*
D03*
X367750Y67500D02*
D03*
X305000Y83250D02*
D03*
X326000Y295000D02*
D03*
X306000Y235250D02*
D03*
X246000Y178000D02*
D03*
X616250Y83025D02*
D03*
X319000Y67000D02*
D03*
X321000Y74000D02*
D03*
X327000Y416000D02*
D03*
X319000Y425000D02*
D03*
X125000Y407000D02*
D03*
Y414000D02*
D03*
X156000Y201000D02*
D03*
X175000Y196000D02*
D03*
X154000Y137000D02*
D03*
X225000Y434000D02*
D03*
X205000Y206000D02*
D03*
X97250Y271000D02*
D03*
X219500Y402750D02*
D03*
X40250Y285750D02*
D03*
X173000Y410750D02*
D03*
X22000Y153750D02*
D03*
X59500Y229250D02*
D03*
X59000Y216250D02*
D03*
X57000Y522000D02*
D03*
X305000Y415750D02*
D03*
X131750Y407250D02*
D03*
X12000Y288750D02*
D03*
X290750Y69250D02*
D03*
X441250Y48000D02*
D03*
X461500Y42000D02*
D03*
X616250Y75750D02*
D03*
X91250Y320000D02*
D03*
Y365250D02*
D03*
X99750Y369750D02*
D03*
X479250Y96250D02*
D03*
X445250Y152500D02*
D03*
X83250Y124000D02*
D03*
Y137500D02*
D03*
X162500Y208125D02*
D03*
X114250Y214500D02*
D03*
X115000Y192500D02*
D03*
X278120Y485500D02*
D03*
X581000Y415750D02*
D03*
X581500Y402500D02*
D03*
X222000Y481750D02*
D03*
X582250Y169250D02*
D03*
X624500Y453500D02*
D03*
X327750Y181500D02*
D03*
X301750Y181350D02*
D03*
M02*
