G04*
G04 #@! TF.GenerationSoftware,Altium Limited,Altium Designer,18.0.7 (293)*
G04*
G04 Layer_Color=8388736*
%FSLAX44Y44*%
%MOMM*%
G71*
G01*
G75*
%ADD13C,0.2540*%
%ADD84C,1.0160*%
%ADD85C,0.7000*%
%ADD86C,0.3810*%
%ADD87C,0.1524*%
D13*
X-80080Y91440D02*
X-75000Y76200D01*
X-69920Y91440D01*
X-75000Y0D02*
X-69920Y-15240D01*
X-80080D02*
X-75000Y0D01*
Y76200D02*
Y101600D01*
Y-25400D02*
Y0D01*
X-77540D02*
X0D01*
X-77540Y76200D02*
X660400D01*
X-230080Y15240D02*
X-225000Y-0D01*
X-219920Y15240D01*
X-225000Y355600D02*
X-219920Y340360D01*
X-230080D02*
X-225000Y355600D01*
Y-0D02*
Y135393D01*
Y212079D02*
Y355600D01*
X-227540Y-0D02*
X0D01*
X-227540Y355600D02*
X660400D01*
X0Y-450000D02*
X15240Y-444920D01*
X0Y-450000D02*
X15240Y-455080D01*
X645160D02*
X660400Y-450000D01*
X645160Y-444920D02*
X660400Y-450000D01*
X0D02*
X287793D01*
X364479D02*
X660400D01*
X0Y-452540D02*
Y-0D01*
X660400Y-452540D02*
Y355600D01*
X0Y-400000D02*
X15240Y-394920D01*
X0Y-400000D02*
X15240Y-405080D01*
X619760D02*
X635000Y-400000D01*
X619760Y-394920D02*
X635000Y-400000D01*
X0D02*
X275093D01*
X351779D02*
X635000D01*
X0Y-402540D02*
Y-0D01*
X635000Y-402540D02*
Y508000D01*
X0Y-302000D02*
X15240Y-296920D01*
X0Y-302000D02*
X15240Y-307080D01*
X401320D02*
X416560Y-302000D01*
X401320Y-296920D02*
X416560Y-302000D01*
X0D02*
X167143D01*
X241289D02*
X416560D01*
X0Y-304540D02*
Y-2000D01*
X416560Y-304540D02*
Y506000D01*
X0Y-250000D02*
X15240Y-244920D01*
X0Y-250000D02*
X15240Y-255080D01*
X264160D02*
X279400Y-250000D01*
X264160Y-244920D02*
X279400Y-250000D01*
X0D02*
X97293D01*
X173979D02*
X279400D01*
X0Y-252540D02*
Y0D01*
X279400Y-252540D02*
Y25400D01*
X-380080Y15240D02*
X-375000Y-0D01*
X-369920Y15240D01*
X-375000Y508000D02*
X-369920Y492760D01*
X-380080D02*
X-375000Y508000D01*
Y-0D02*
Y219897D01*
Y279975D02*
Y508000D01*
X-377540Y-0D02*
X0D01*
X-377540Y508000D02*
X635000D01*
X0Y-120000D02*
X15240Y-114920D01*
X0Y-120000D02*
X15240Y-125080D01*
X124460D02*
X139700Y-120000D01*
X124460Y-114920D02*
X139700Y-120000D01*
X0D02*
X28713D01*
X102859D02*
X139700D01*
X0Y-122540D02*
Y-7620D01*
X139700Y-122540D02*
Y33780D01*
X0Y-513000D02*
X15240Y-507920D01*
X0Y-513000D02*
X15240Y-518080D01*
X670560D02*
X685800Y-513000D01*
X670560Y-507920D02*
X685800Y-513000D01*
X0D02*
X300493D01*
X377179D02*
X685800D01*
X0Y-515540D02*
Y-7620D01*
X685800Y-515540D02*
Y-7620D01*
X-463080Y15240D02*
X-458000Y0D01*
X-452920Y15240D01*
X-458000Y533400D02*
X-452920Y518160D01*
X-463080D02*
X-458000Y533400D01*
Y0D02*
Y224293D01*
Y300979D02*
Y533400D01*
X-460540Y0D02*
X-7620D01*
X-460540Y533400D02*
X-7620D01*
D84*
X168400Y508000D02*
G03*
X168400Y508000I-16000J0D01*
G01*
X155700Y25400D02*
G03*
X155700Y25400I-16000J0D01*
G01*
X676400Y76200D02*
G03*
X676400Y76200I-16000J0D01*
G01*
Y355600D02*
G03*
X676400Y355600I-16000J0D01*
G01*
X676000D02*
G03*
X676000Y355600I-16000J0D01*
G01*
Y76200D02*
G03*
X676000Y76200I-16000J0D01*
G01*
X155300Y25400D02*
G03*
X155300Y25400I-16000J0D01*
G01*
X168000Y508000D02*
G03*
X168000Y508000I-16000J0D01*
G01*
X0Y0D02*
Y533000D01*
X-0Y533000D02*
X0Y533000D01*
X-0Y533000D02*
X686000D01*
Y200D02*
Y533000D01*
X685800Y0D02*
X686000Y200D01*
X0Y0D02*
X685800D01*
X0D02*
Y533400D01*
X685800D01*
Y0D02*
Y533400D01*
X0Y0D02*
X685800D01*
D85*
X93832Y672000D02*
X105494D01*
X111326Y677831D01*
Y689494D01*
X105494Y695326D01*
X93832D01*
X88000Y689494D01*
Y677831D01*
X93832Y672000D01*
X128820D02*
Y701157D01*
Y689494D01*
X122989D01*
X134652D01*
X128820D01*
Y701157D01*
X134652Y706989D01*
X187135Y672000D02*
Y706989D01*
X198797Y695326D01*
X210460Y706989D01*
Y672000D01*
X222123D02*
X233786D01*
X227955D01*
Y695326D01*
X222123D01*
X251281Y672000D02*
Y706989D01*
Y683663D02*
X268775Y695326D01*
X251281Y683663D02*
X268775Y672000D01*
X303764D02*
X292101D01*
X286269Y677831D01*
Y689494D01*
X292101Y695326D01*
X303764D01*
X309595Y689494D01*
Y683663D01*
X286269D01*
X344584Y706989D02*
Y672000D01*
X327090D01*
X321258Y677831D01*
Y689494D01*
X327090Y695326D01*
X344584D01*
X356247D02*
Y677831D01*
X362078Y672000D01*
X379572D01*
Y695326D01*
X391235Y672000D02*
X402898D01*
X397067D01*
Y695326D01*
X391235D01*
X420393Y672000D02*
Y695326D01*
X437887D01*
X443718Y689494D01*
Y672000D01*
X461213D02*
X472876D01*
X478707Y677831D01*
Y689494D01*
X472876Y695326D01*
X461213D01*
X455381Y689494D01*
Y677831D01*
X461213Y672000D01*
X53000Y744000D02*
Y778989D01*
X64663Y767326D01*
X76326Y778989D01*
Y744000D01*
X105483D02*
X93820D01*
X87989Y749831D01*
Y761494D01*
X93820Y767326D01*
X105483D01*
X111314Y761494D01*
Y755663D01*
X87989D01*
X146303Y767326D02*
X128809D01*
X122977Y761494D01*
Y749831D01*
X128809Y744000D01*
X146303D01*
X157966Y778989D02*
Y744000D01*
Y761494D01*
X163798Y767326D01*
X175460D01*
X181292Y761494D01*
Y744000D01*
X198786Y767326D02*
X210449D01*
X216281Y761494D01*
Y744000D01*
X198786D01*
X192955Y749831D01*
X198786Y755663D01*
X216281D01*
X227943Y744000D02*
Y767326D01*
X245438D01*
X251269Y761494D01*
Y744000D01*
X262932D02*
X274595D01*
X268764D01*
Y767326D01*
X262932D01*
X315415D02*
X297921D01*
X292090Y761494D01*
Y749831D01*
X297921Y744000D01*
X315415D01*
X332910Y767326D02*
X344572D01*
X350404Y761494D01*
Y744000D01*
X332910D01*
X327078Y749831D01*
X332910Y755663D01*
X350404D01*
X362067Y744000D02*
X373730D01*
X367898D01*
Y778989D01*
X362067D01*
X426213D02*
Y744000D01*
X443707D01*
X449539Y749831D01*
Y773157D01*
X443707Y778989D01*
X426213D01*
X461202Y767326D02*
Y744000D01*
Y755663D01*
X467033Y761494D01*
X472864Y767326D01*
X478696D01*
X502022D02*
X513685D01*
X519516Y761494D01*
Y744000D01*
X502022D01*
X496190Y749831D01*
X502022Y755663D01*
X519516D01*
X531179Y767326D02*
Y749831D01*
X537010Y744000D01*
X542842Y749831D01*
X548673Y744000D01*
X554505Y749831D01*
Y767326D01*
X566168Y744000D02*
X577831D01*
X571999D01*
Y767326D01*
X566168D01*
X595325Y744000D02*
Y767326D01*
X612819D01*
X618651Y761494D01*
Y744000D01*
X641976Y732337D02*
X647808D01*
X653639Y738168D01*
Y767326D01*
X636145D01*
X630314Y761494D01*
Y749831D01*
X636145Y744000D01*
X653639D01*
X505000Y700989D02*
Y677663D01*
X516663Y666000D01*
X528326Y677663D01*
Y700989D01*
X539989Y666000D02*
X551652D01*
X545820D01*
Y700989D01*
X539989Y695157D01*
X569146Y700989D02*
X580809D01*
X574977D01*
Y666000D01*
X569146D01*
X580809D01*
X598303D02*
X609966D01*
X604135D01*
Y700989D01*
X598303Y695157D01*
D86*
X-350000Y-129687D02*
Y-146614D01*
X-346614Y-150000D01*
X-339843D01*
X-336458Y-146614D01*
Y-129687D01*
X-329687Y-150000D02*
Y-136458D01*
X-319530D01*
X-316144Y-139843D01*
Y-150000D01*
X-309373D02*
X-302602D01*
X-305988D01*
Y-136458D01*
X-309373D01*
X-289060Y-133072D02*
Y-136458D01*
X-292445D01*
X-285674D01*
X-289060D01*
Y-146614D01*
X-285674Y-150000D01*
X-275518D02*
X-265361D01*
X-261975Y-146614D01*
X-265361Y-143229D01*
X-272132D01*
X-275518Y-139843D01*
X-272132Y-136458D01*
X-261975D01*
X-255204D02*
X-251819D01*
Y-139843D01*
X-255204D01*
Y-136458D01*
Y-146614D02*
X-251819D01*
Y-150000D01*
X-255204D01*
Y-146614D01*
X-217963Y-150000D02*
Y-136458D01*
X-214577D01*
X-211192Y-139843D01*
Y-150000D01*
Y-139843D01*
X-207806Y-136458D01*
X-204421Y-139843D01*
Y-150000D01*
X-197649D02*
Y-136458D01*
X-194264D01*
X-190878Y-139843D01*
Y-150000D01*
Y-139843D01*
X-187493Y-136458D01*
X-184107Y-139843D01*
Y-150000D01*
X-336458Y-183072D02*
X-339843Y-179687D01*
X-346614D01*
X-350000Y-183072D01*
Y-186458D01*
X-346614Y-189843D01*
X-339843D01*
X-336458Y-193229D01*
Y-196614D01*
X-339843Y-200000D01*
X-346614D01*
X-350000Y-196614D01*
X-316144Y-186458D02*
X-326301D01*
X-329687Y-189843D01*
Y-196614D01*
X-326301Y-200000D01*
X-316144D01*
X-305988Y-186458D02*
X-299216D01*
X-295831Y-189843D01*
Y-200000D01*
X-305988D01*
X-309373Y-196614D01*
X-305988Y-193229D01*
X-295831D01*
X-289060Y-200000D02*
X-282289D01*
X-285674D01*
Y-179687D01*
X-289060D01*
X-261975Y-200000D02*
X-268746D01*
X-272132Y-196614D01*
Y-189843D01*
X-268746Y-186458D01*
X-261975D01*
X-258590Y-189843D01*
Y-193229D01*
X-272132D01*
X-251819Y-186458D02*
X-248433D01*
Y-189843D01*
X-251819D01*
Y-186458D01*
Y-196614D02*
X-248433D01*
Y-200000D01*
X-251819D01*
Y-196614D01*
X-214577Y-200000D02*
X-207806D01*
X-211192D01*
Y-179687D01*
X-214577Y-183072D01*
X-197649Y-186458D02*
X-194264D01*
Y-189843D01*
X-197649D01*
Y-186458D01*
Y-196614D02*
X-194264D01*
Y-200000D01*
X-197649D01*
Y-196614D01*
X-180721Y-200000D02*
X-173950D01*
X-177336D01*
Y-179687D01*
X-180721Y-183072D01*
D87*
X-81094Y-84311D02*
Y-74154D01*
X-78554D01*
X-68398Y-84311D01*
X-65858D01*
Y-69076D02*
X-68398D01*
Y-66536D01*
X-65858D01*
Y-69076D01*
X-81094Y-46223D02*
X-78554Y-51301D01*
X-73476Y-56380D01*
X-68398D01*
X-65858Y-53841D01*
Y-48762D01*
X-68398Y-46223D01*
X-70937D01*
X-73476Y-48762D01*
Y-56380D01*
X-65858Y-30988D02*
Y-41145D01*
X-76015Y-30988D01*
X-78554D01*
X-81094Y-33527D01*
Y-38605D01*
X-78554Y-41145D01*
X-228554Y139457D02*
X-231094Y141996D01*
Y147075D01*
X-228554Y149614D01*
X-226015D01*
X-223476Y147075D01*
Y144535D01*
Y147075D01*
X-220937Y149614D01*
X-218398D01*
X-215858Y147075D01*
Y141996D01*
X-218398Y139457D01*
X-231094Y164849D02*
Y154692D01*
X-223476D01*
X-226015Y159770D01*
Y162310D01*
X-223476Y164849D01*
X-218398D01*
X-215858Y162310D01*
Y157231D01*
X-218398Y154692D01*
X-215858Y169927D02*
X-218398D01*
Y172466D01*
X-215858D01*
Y169927D01*
X-231094Y192780D02*
Y182623D01*
X-223476D01*
X-226015Y187701D01*
Y190241D01*
X-223476Y192780D01*
X-218398D01*
X-215858Y190241D01*
Y185162D01*
X-218398Y182623D01*
X-231094Y208015D02*
X-228554Y202936D01*
X-223476Y197858D01*
X-218398D01*
X-215858Y200397D01*
Y205476D01*
X-218398Y208015D01*
X-220937D01*
X-223476Y205476D01*
Y197858D01*
X302014Y-443907D02*
X296935Y-446446D01*
X291857Y-451524D01*
Y-456602D01*
X294396Y-459142D01*
X299475D01*
X302014Y-456602D01*
Y-454063D01*
X299475Y-451524D01*
X291857D01*
X317249Y-443907D02*
X312171Y-446446D01*
X307092Y-451524D01*
Y-456602D01*
X309631Y-459142D01*
X314710D01*
X317249Y-456602D01*
Y-454063D01*
X314710Y-451524D01*
X307092D01*
X322327Y-459142D02*
Y-456602D01*
X324866D01*
Y-459142D01*
X322327D01*
X335023Y-446446D02*
X337562Y-443907D01*
X342641D01*
X345180Y-446446D01*
Y-456602D01*
X342641Y-459142D01*
X337562D01*
X335023Y-456602D01*
Y-446446D01*
X357876Y-459142D02*
Y-443907D01*
X350258Y-451524D01*
X360415D01*
X289314Y-393907D02*
X284235Y-396446D01*
X279157Y-401524D01*
Y-406602D01*
X281696Y-409142D01*
X286775D01*
X289314Y-406602D01*
Y-404063D01*
X286775Y-401524D01*
X279157D01*
X294392Y-396446D02*
X296931Y-393907D01*
X302010D01*
X304549Y-396446D01*
Y-398985D01*
X302010Y-401524D01*
X299471D01*
X302010D01*
X304549Y-404063D01*
Y-406602D01*
X302010Y-409142D01*
X296931D01*
X294392Y-406602D01*
X309627Y-409142D02*
Y-406602D01*
X312166D01*
Y-409142D01*
X309627D01*
X332480Y-393907D02*
X322323D01*
Y-401524D01*
X327402Y-398985D01*
X329941D01*
X332480Y-401524D01*
Y-406602D01*
X329941Y-409142D01*
X324862D01*
X322323Y-406602D01*
X337558Y-396446D02*
X340097Y-393907D01*
X345176D01*
X347715Y-396446D01*
Y-406602D01*
X345176Y-409142D01*
X340097D01*
X337558Y-406602D01*
Y-396446D01*
X178824Y-311141D02*
Y-295907D01*
X171207Y-303524D01*
X181363D01*
X186442Y-311141D02*
X191520D01*
X188981D01*
Y-295907D01*
X186442Y-298446D01*
X199138Y-311141D02*
Y-308602D01*
X201677D01*
Y-311141D01*
X199138D01*
X221990Y-295907D02*
X216912Y-298446D01*
X211833Y-303524D01*
Y-308602D01*
X214373Y-311141D01*
X219451D01*
X221990Y-308602D01*
Y-306063D01*
X219451Y-303524D01*
X211833D01*
X237225Y-295907D02*
X232147Y-298446D01*
X227069Y-303524D01*
Y-308602D01*
X229608Y-311141D01*
X234686D01*
X237225Y-308602D01*
Y-306063D01*
X234686Y-303524D01*
X227069D01*
X111514Y-259142D02*
X101357D01*
X111514Y-248985D01*
Y-246446D01*
X108975Y-243906D01*
X103896D01*
X101357Y-246446D01*
X116592Y-243906D02*
X126749D01*
Y-246446D01*
X116592Y-256602D01*
Y-259142D01*
X131827D02*
Y-256602D01*
X134366D01*
Y-259142D01*
X131827D01*
X144523Y-256602D02*
X147062Y-259142D01*
X152141D01*
X154680Y-256602D01*
Y-246446D01*
X152141Y-243906D01*
X147062D01*
X144523Y-246446D01*
Y-248985D01*
X147062Y-251524D01*
X154680D01*
X167376Y-259142D02*
Y-243906D01*
X159758Y-251524D01*
X169915D01*
X-381094Y225412D02*
X-373839Y223961D01*
X-375290Y225412D01*
X-376016Y227589D01*
Y229765D01*
X-375290Y231942D01*
X-373839Y233393D01*
X-371662Y234119D01*
X-370211D01*
X-368034Y233393D01*
X-366583Y231942D01*
X-365858Y229765D01*
Y227589D01*
X-366583Y225412D01*
X-367309Y224687D01*
X-368760Y223961D01*
X-369486D01*
X-370211Y224687D01*
X-369486Y225412D01*
X-368760Y224687D01*
X-376016Y229765D02*
X-375290Y231217D01*
X-373839Y232668D01*
X-371662Y233393D01*
X-370211D01*
X-368034Y232668D01*
X-366583Y231217D01*
X-365858Y229765D01*
X-381094Y225412D02*
Y232668D01*
X-380369Y225412D02*
Y229040D01*
X-381094Y232668D01*
Y240721D02*
X-380369Y238545D01*
X-378192Y237094D01*
X-374564Y236368D01*
X-372388D01*
X-368760Y237094D01*
X-366583Y238545D01*
X-365858Y240721D01*
Y242173D01*
X-366583Y244349D01*
X-368760Y245800D01*
X-372388Y246526D01*
X-374564D01*
X-378192Y245800D01*
X-380369Y244349D01*
X-381094Y242173D01*
Y240721D01*
X-380369Y239270D01*
X-379643Y238545D01*
X-378192Y237819D01*
X-374564Y237094D01*
X-372388D01*
X-368760Y237819D01*
X-367309Y238545D01*
X-366583Y239270D01*
X-365858Y240721D01*
Y242173D02*
X-366583Y243624D01*
X-367309Y244349D01*
X-368760Y245075D01*
X-372388Y245800D01*
X-374564D01*
X-378192Y245075D01*
X-379643Y244349D01*
X-380369Y243624D01*
X-381094Y242173D01*
X-367309Y249501D02*
X-366583Y248775D01*
X-365858Y249501D01*
X-366583Y250226D01*
X-367309Y249501D01*
X-381094Y256974D02*
X-380369Y254797D01*
X-378918Y254072D01*
X-376741D01*
X-375290Y254797D01*
X-374564Y256974D01*
Y259876D01*
X-375290Y262053D01*
X-376741Y262778D01*
X-378918D01*
X-380369Y262053D01*
X-381094Y259876D01*
Y256974D01*
X-380369Y255523D01*
X-378918Y254797D01*
X-376741D01*
X-375290Y255523D01*
X-374564Y256974D01*
Y259876D02*
X-375290Y261327D01*
X-376741Y262053D01*
X-378918D01*
X-380369Y261327D01*
X-381094Y259876D01*
X-374564Y256974D02*
X-373839Y254797D01*
X-373113Y254072D01*
X-371662Y253346D01*
X-368760D01*
X-367309Y254072D01*
X-366583Y254797D01*
X-365858Y256974D01*
Y259876D01*
X-366583Y262053D01*
X-367309Y262778D01*
X-368760Y263504D01*
X-371662D01*
X-373113Y262778D01*
X-373839Y262053D01*
X-374564Y259876D01*
Y256974D02*
X-373839Y255523D01*
X-373113Y254797D01*
X-371662Y254072D01*
X-368760D01*
X-367309Y254797D01*
X-366583Y255523D01*
X-365858Y256974D01*
Y259876D02*
X-366583Y261327D01*
X-367309Y262053D01*
X-368760Y262778D01*
X-371662D01*
X-373113Y262053D01*
X-373839Y261327D01*
X-374564Y259876D01*
X-381094Y270107D02*
X-380369Y267930D01*
X-378192Y266479D01*
X-374564Y265753D01*
X-372388D01*
X-368760Y266479D01*
X-366583Y267930D01*
X-365858Y270107D01*
Y271558D01*
X-366583Y273734D01*
X-368760Y275185D01*
X-372388Y275911D01*
X-374564D01*
X-378192Y275185D01*
X-380369Y273734D01*
X-381094Y271558D01*
Y270107D01*
X-380369Y268655D01*
X-379643Y267930D01*
X-378192Y267204D01*
X-374564Y266479D01*
X-372388D01*
X-368760Y267204D01*
X-367309Y267930D01*
X-366583Y268655D01*
X-365858Y270107D01*
Y271558D02*
X-366583Y273009D01*
X-367309Y273734D01*
X-368760Y274460D01*
X-372388Y275185D01*
X-374564D01*
X-378192Y274460D01*
X-379643Y273734D01*
X-380369Y273009D01*
X-381094Y271558D01*
X32777Y-129142D02*
X37855D01*
X35316D01*
Y-113906D01*
X32777Y-116446D01*
X45473D02*
X48012Y-113906D01*
X53090D01*
X55629Y-116446D01*
Y-118985D01*
X53090Y-121524D01*
X50551D01*
X53090D01*
X55629Y-124063D01*
Y-126602D01*
X53090Y-129142D01*
X48012D01*
X45473Y-126602D01*
X60708Y-129142D02*
Y-126602D01*
X63247D01*
Y-129142D01*
X60708D01*
X73404Y-126602D02*
X75943Y-129142D01*
X81021D01*
X83560Y-126602D01*
Y-116446D01*
X81021Y-113906D01*
X75943D01*
X73404Y-116446D01*
Y-118985D01*
X75943Y-121524D01*
X83560D01*
X88639Y-113906D02*
X98795D01*
Y-116446D01*
X88639Y-126602D01*
Y-129142D01*
X314714Y-506907D02*
X309635Y-509446D01*
X304557Y-514524D01*
Y-519602D01*
X307096Y-522141D01*
X312175D01*
X314714Y-519602D01*
Y-517063D01*
X312175Y-514524D01*
X304557D01*
X319792Y-509446D02*
X322331Y-506907D01*
X327410D01*
X329949Y-509446D01*
Y-511985D01*
X327410Y-514524D01*
X329949Y-517063D01*
Y-519602D01*
X327410Y-522141D01*
X322331D01*
X319792Y-519602D01*
Y-517063D01*
X322331Y-514524D01*
X319792Y-511985D01*
Y-509446D01*
X322331Y-514524D02*
X327410D01*
X335027Y-522141D02*
Y-519602D01*
X337566D01*
Y-522141D01*
X335027D01*
X357880Y-506907D02*
X347723D01*
Y-514524D01*
X352802Y-511985D01*
X355341D01*
X357880Y-514524D01*
Y-519602D01*
X355341Y-522141D01*
X350262D01*
X347723Y-519602D01*
X362958Y-509446D02*
X365497Y-506907D01*
X370576D01*
X373115Y-509446D01*
Y-511985D01*
X370576Y-514524D01*
X373115Y-517063D01*
Y-519602D01*
X370576Y-522141D01*
X365497D01*
X362958Y-519602D01*
Y-517063D01*
X365497Y-514524D01*
X362958Y-511985D01*
Y-509446D01*
X365497Y-514524D02*
X370576D01*
X-464094Y238514D02*
Y228357D01*
X-456476D01*
X-459015Y233435D01*
Y235975D01*
X-456476Y238514D01*
X-451398D01*
X-448858Y235975D01*
Y230896D01*
X-451398Y228357D01*
X-461554Y243592D02*
X-464094Y246131D01*
Y251210D01*
X-461554Y253749D01*
X-459015D01*
X-456476Y251210D01*
Y248671D01*
Y251210D01*
X-453937Y253749D01*
X-451398D01*
X-448858Y251210D01*
Y246131D01*
X-451398Y243592D01*
X-448858Y258827D02*
X-451398D01*
Y261366D01*
X-448858D01*
Y258827D01*
X-461554Y271523D02*
X-464094Y274062D01*
Y279141D01*
X-461554Y281680D01*
X-459015D01*
X-456476Y279141D01*
Y276602D01*
Y279141D01*
X-453937Y281680D01*
X-451398D01*
X-448858Y279141D01*
Y274062D01*
X-451398Y271523D01*
X-448858Y294376D02*
X-464094D01*
X-456476Y286758D01*
Y296915D01*
M02*
