G04*
G04 #@! TF.GenerationSoftware,Altium Limited,Altium Designer,18.0.7 (293)*
G04*
G04 Layer_Color=8388736*
%FSLAX44Y44*%
%MOMM*%
G71*
G01*
G75*
%ADD34R,0.7500X1.2000*%
%ADD35R,3.7000X2.4000*%
%ADD36R,0.8000X2.4000*%
%ADD37R,2.7000X2.8000*%
%ADD38R,2.8000X2.7000*%
%ADD39R,1.2000X0.7500*%
%ADD40C,3.0480*%
%ADD41R,2.9000X2.2000*%
%ADD42R,1.0000X1.0000*%
%ADD43R,2.1000X2.1000*%
%ADD44R,1.4500X0.5000*%
%ADD45R,1.6000X1.8000*%
%ADD46R,0.6200X1.6200*%
%ADD47R,1.6200X0.6200*%
%ADD48R,0.8382X0.7112*%
%ADD49R,0.7112X0.8382*%
%ADD50R,1.5000X0.9000*%
%ADD51R,0.9000X1.5000*%
%ADD52R,1.1000X0.8000*%
%ADD53R,1.5000X1.1000*%
%ADD54R,1.1000X1.5000*%
%ADD55C,1.9000*%
%ADD56R,1.9000X1.9000*%
%ADD57C,3.2500*%
%ADD58O,1.8000X2.2000*%
%ADD59R,1.8000X2.2000*%
%ADD60C,7.4508*%
%ADD61R,1.9000X1.9000*%
%ADD62O,2.2000X1.8000*%
%ADD63R,2.2000X1.8000*%
%ADD64R,2.1000X2.1000*%
%ADD65C,2.1000*%
G04:AMPARAMS|DCode=66|XSize=2.2mm|YSize=1.4mm|CornerRadius=0.46mm|HoleSize=0mm|Usage=FLASHONLY|Rotation=0.000|XOffset=0mm|YOffset=0mm|HoleType=Round|Shape=RoundedRectangle|*
%AMROUNDEDRECTD66*
21,1,2.2000,0.4800,0,0,0.0*
21,1,1.2800,1.4000,0,0,0.0*
1,1,0.9200,0.6400,-0.2400*
1,1,0.9200,-0.6400,-0.2400*
1,1,0.9200,-0.6400,0.2400*
1,1,0.9200,0.6400,0.2400*
%
%ADD66ROUNDEDRECTD66*%
%ADD67C,1.4000*%
%ADD68C,0.8000*%
D34*
X69500Y276500D02*
D03*
X50500D02*
D03*
X69500Y249500D02*
D03*
X60000D02*
D03*
X50500D02*
D03*
X651500Y143500D02*
D03*
X670500D02*
D03*
X651500Y170500D02*
D03*
X661000D02*
D03*
X670500D02*
D03*
D35*
X164000Y178000D02*
D03*
D36*
X189400Y116000D02*
D03*
X176700D02*
D03*
X164000D02*
D03*
X151300D02*
D03*
X138600D02*
D03*
D37*
X458500Y288000D02*
D03*
X409500D02*
D03*
D38*
X250000Y270000D02*
D03*
Y319000D02*
D03*
D39*
X195500Y419500D02*
D03*
Y438500D02*
D03*
X168500Y419500D02*
D03*
Y429000D02*
D03*
Y438500D02*
D03*
X235500Y140500D02*
D03*
Y159500D02*
D03*
X208500Y140500D02*
D03*
Y150000D02*
D03*
Y159500D02*
D03*
D40*
X223000Y47000D02*
D03*
X97000Y528000D02*
D03*
X668000Y508000D02*
D03*
X669000Y21000D02*
D03*
D41*
X17000Y74000D02*
D03*
Y106000D02*
D03*
D42*
X604000Y373000D02*
D03*
X588000D02*
D03*
X255000Y420000D02*
D03*
X239000D02*
D03*
X255000Y398750D02*
D03*
X239000D02*
D03*
X255000Y378750D02*
D03*
X239000D02*
D03*
D43*
X22000Y213000D02*
D03*
Y189000D02*
D03*
X244500Y78500D02*
D03*
D44*
X48750Y214000D02*
D03*
Y207500D02*
D03*
Y201000D02*
D03*
Y194500D02*
D03*
Y188000D02*
D03*
D45*
X46500Y233000D02*
D03*
Y169000D02*
D03*
D46*
X182000Y258000D02*
D03*
X174000D02*
D03*
X166000D02*
D03*
X158000D02*
D03*
X150000D02*
D03*
X142000D02*
D03*
X134000D02*
D03*
X126000D02*
D03*
Y342000D02*
D03*
X134000D02*
D03*
X142000D02*
D03*
X150000D02*
D03*
X158000D02*
D03*
X166000D02*
D03*
X174000D02*
D03*
X182000D02*
D03*
D47*
X112000Y272000D02*
D03*
Y280000D02*
D03*
Y288000D02*
D03*
Y296000D02*
D03*
Y304000D02*
D03*
Y312000D02*
D03*
Y320000D02*
D03*
Y328000D02*
D03*
X196000D02*
D03*
Y320000D02*
D03*
Y312000D02*
D03*
Y304000D02*
D03*
Y296000D02*
D03*
Y288000D02*
D03*
Y280000D02*
D03*
Y272000D02*
D03*
D48*
X12000Y296192D02*
D03*
Y271808D02*
D03*
D49*
X604616Y246000D02*
D03*
X629000D02*
D03*
D50*
X173000Y403500D02*
D03*
Y384500D02*
D03*
X218000Y283500D02*
D03*
Y264500D02*
D03*
X612000Y473500D02*
D03*
Y454500D02*
D03*
X584000Y474000D02*
D03*
Y455000D02*
D03*
X636000Y432500D02*
D03*
Y413500D02*
D03*
X667000Y206500D02*
D03*
Y187500D02*
D03*
X31000Y295500D02*
D03*
Y276500D02*
D03*
X667000Y222500D02*
D03*
Y241500D02*
D03*
X274000Y48500D02*
D03*
Y67500D02*
D03*
X256000Y159500D02*
D03*
Y140500D02*
D03*
X645000Y222500D02*
D03*
Y241500D02*
D03*
X330000Y66500D02*
D03*
Y85500D02*
D03*
Y47000D02*
D03*
Y66000D02*
D03*
X90000Y261500D02*
D03*
Y280500D02*
D03*
D51*
X295500Y439750D02*
D03*
X276500D02*
D03*
X295500Y415750D02*
D03*
X276500D02*
D03*
X81500Y350000D02*
D03*
X100500D02*
D03*
X106500Y214500D02*
D03*
X87500D02*
D03*
X106500Y192500D02*
D03*
X87500D02*
D03*
X106500Y171000D02*
D03*
X87500D02*
D03*
X365500Y99000D02*
D03*
X384500D02*
D03*
X624500Y229000D02*
D03*
X605500D02*
D03*
X235500Y441000D02*
D03*
X254500D02*
D03*
X407500Y231000D02*
D03*
X426500D02*
D03*
X585500Y353000D02*
D03*
X604500D02*
D03*
X31000Y254000D02*
D03*
X12000D02*
D03*
X270500Y87000D02*
D03*
X289500D02*
D03*
X146250Y214500D02*
D03*
X127250D02*
D03*
D52*
X71000Y226500D02*
D03*
Y211500D02*
D03*
Y181500D02*
D03*
Y196500D02*
D03*
D53*
X197000Y216500D02*
D03*
Y235500D02*
D03*
X218000Y319500D02*
D03*
Y300500D02*
D03*
X175000Y216500D02*
D03*
Y235500D02*
D03*
X23000Y451500D02*
D03*
Y432500D02*
D03*
X636000Y453500D02*
D03*
Y472500D02*
D03*
X305000Y67500D02*
D03*
Y48500D02*
D03*
X355000Y67500D02*
D03*
Y48500D02*
D03*
X215000Y419500D02*
D03*
Y438500D02*
D03*
X219000Y197500D02*
D03*
Y178500D02*
D03*
X645000Y186500D02*
D03*
Y205500D02*
D03*
X235000Y122500D02*
D03*
Y103500D02*
D03*
X197000Y178500D02*
D03*
Y197500D02*
D03*
X441000Y59500D02*
D03*
Y78500D02*
D03*
X219000Y235500D02*
D03*
Y216500D02*
D03*
X117000Y131500D02*
D03*
Y112500D02*
D03*
X212000Y122500D02*
D03*
Y103500D02*
D03*
D54*
X126250Y236500D02*
D03*
X145250D02*
D03*
X260500Y347000D02*
D03*
X241500D02*
D03*
X260000Y242000D02*
D03*
X241000D02*
D03*
X402500Y50000D02*
D03*
X383500D02*
D03*
X40500Y522000D02*
D03*
X21500D02*
D03*
X445500Y231000D02*
D03*
X464500D02*
D03*
X401500Y99000D02*
D03*
X420500D02*
D03*
X457500D02*
D03*
X438500D02*
D03*
X406500Y256000D02*
D03*
X425500D02*
D03*
X464500D02*
D03*
X445500D02*
D03*
X671500Y125000D02*
D03*
X652500D02*
D03*
X70000Y294000D02*
D03*
X51000D02*
D03*
X108000Y236500D02*
D03*
X89000D02*
D03*
X461500Y55000D02*
D03*
X480500D02*
D03*
X461500Y77000D02*
D03*
X480500D02*
D03*
X260500Y483000D02*
D03*
X241500D02*
D03*
X401500Y77000D02*
D03*
X420500D02*
D03*
X605500Y331000D02*
D03*
X586500D02*
D03*
D55*
X519000Y337600D02*
D03*
Y363000D02*
D03*
Y388400D02*
D03*
X493600Y337600D02*
D03*
Y363000D02*
D03*
X76200Y497840D02*
D03*
X50800D02*
D03*
X25400D02*
D03*
X76200Y472440D02*
D03*
X50800D02*
D03*
X76200Y411480D02*
D03*
X50800D02*
D03*
X25400D02*
D03*
X76200Y386080D02*
D03*
X50800D02*
D03*
X25400Y342000D02*
D03*
X50800Y316600D02*
D03*
X25400D02*
D03*
D56*
X493600Y388400D02*
D03*
D57*
X152400Y508000D02*
D03*
D58*
X457200Y25400D02*
D03*
X431800D02*
D03*
X406400D02*
D03*
X381000D02*
D03*
X355600D02*
D03*
X330200D02*
D03*
X304800D02*
D03*
X457200Y508000D02*
D03*
X482600D02*
D03*
X508000D02*
D03*
X533400D02*
D03*
X558800D02*
D03*
X584200D02*
D03*
X609600D02*
D03*
X391160D02*
D03*
X365760D02*
D03*
X340360D02*
D03*
X314960D02*
D03*
X289560D02*
D03*
X264160D02*
D03*
X238760D02*
D03*
X213360D02*
D03*
X187960D02*
D03*
X609600Y25400D02*
D03*
X635000D02*
D03*
X584200D02*
D03*
X558800D02*
D03*
X533400D02*
D03*
X595250Y203200D02*
D03*
X569850D02*
D03*
X544450D02*
D03*
X519050D02*
D03*
X493650D02*
D03*
X468250D02*
D03*
X442850D02*
D03*
X417450D02*
D03*
X392050D02*
D03*
X366650D02*
D03*
X341250D02*
D03*
X315850D02*
D03*
X290450D02*
D03*
X620650Y127000D02*
D03*
X595250D02*
D03*
X569850D02*
D03*
X544450D02*
D03*
X519050D02*
D03*
X493650D02*
D03*
X468250D02*
D03*
X442850D02*
D03*
X417450D02*
D03*
X392050D02*
D03*
X366650D02*
D03*
X341250D02*
D03*
X315850D02*
D03*
X290450D02*
D03*
X167000Y88000D02*
D03*
X141600D02*
D03*
D59*
X279400Y25400D02*
D03*
X635000Y508000D02*
D03*
X416560D02*
D03*
X508000Y25400D02*
D03*
X620650Y203200D02*
D03*
X116200Y88000D02*
D03*
D60*
X139700Y25400D02*
D03*
X660400Y76200D02*
D03*
Y355600D02*
D03*
D61*
X25400Y472440D02*
D03*
Y386080D02*
D03*
X50800Y342000D02*
D03*
D62*
X146000Y369800D02*
D03*
Y395200D02*
D03*
Y420600D02*
D03*
X662000Y418200D02*
D03*
Y443600D02*
D03*
D63*
X146000Y446000D02*
D03*
X662000Y469000D02*
D03*
D64*
X665500Y261750D02*
D03*
D65*
X600500D02*
D03*
X665500Y306750D02*
D03*
X600500D02*
D03*
X244500Y13500D02*
D03*
X199500Y78500D02*
D03*
Y13500D02*
D03*
D66*
X22000Y234000D02*
D03*
Y168000D02*
D03*
D67*
X69000Y134000D02*
D03*
Y110000D02*
D03*
X68000Y37000D02*
D03*
Y61000D02*
D03*
D68*
X549000Y416000D02*
D03*
Y315000D02*
D03*
X565000Y425000D02*
D03*
Y363000D02*
D03*
X519000Y432000D02*
D03*
X493600Y314600D02*
D03*
X479000Y363000D02*
D03*
X429000D02*
D03*
X680750Y125000D02*
D03*
X671500Y159250D02*
D03*
X139000Y170000D02*
D03*
Y178000D02*
D03*
Y186000D02*
D03*
X113000Y149000D02*
D03*
X122000Y157000D02*
D03*
X113000D02*
D03*
X104000D02*
D03*
X127000Y178000D02*
D03*
X200000Y429000D02*
D03*
X83000Y452000D02*
D03*
X418000Y483000D02*
D03*
X408000D02*
D03*
X418000Y491000D02*
D03*
X408000D02*
D03*
X418000Y382000D02*
D03*
X409000D02*
D03*
Y392000D02*
D03*
X418000D02*
D03*
X269000Y254000D02*
D03*
X581000Y372000D02*
D03*
Y379000D02*
D03*
X419000Y63250D02*
D03*
X410000Y65000D02*
D03*
X428000Y63000D02*
D03*
X175000Y207000D02*
D03*
X164000Y131000D02*
D03*
X212000Y133000D02*
D03*
X581000Y386000D02*
D03*
X194000Y208000D02*
D03*
X75750Y171000D02*
D03*
X390250Y85500D02*
D03*
X246250Y131500D02*
D03*
X469750Y89250D02*
D03*
X196750Y140500D02*
D03*
X136750Y224000D02*
D03*
X80500Y226500D02*
D03*
X634750Y191250D02*
D03*
X81750Y290500D02*
D03*
X399000Y111750D02*
D03*
X442850Y216850D02*
D03*
X481250Y256000D02*
D03*
X391000D02*
D03*
X108000Y249250D02*
D03*
X150000Y273500D02*
D03*
X237000Y197500D02*
D03*
X219000Y248500D02*
D03*
X182500Y288000D02*
D03*
X218000Y334750D02*
D03*
X274000Y347250D02*
D03*
X190000Y408250D02*
D03*
X630500Y181250D02*
D03*
X453750Y110250D02*
D03*
X367750Y67500D02*
D03*
X305000Y83250D02*
D03*
X326000Y295000D02*
D03*
X306000Y235250D02*
D03*
X246000Y178000D02*
D03*
X616250Y83025D02*
D03*
X319000Y67000D02*
D03*
X321000Y74000D02*
D03*
X327000Y416000D02*
D03*
X319000Y425000D02*
D03*
X125000Y407000D02*
D03*
Y414000D02*
D03*
X156000Y201000D02*
D03*
X175000Y196000D02*
D03*
X154000Y137000D02*
D03*
X225000Y434000D02*
D03*
X205000Y206000D02*
D03*
X97250Y271000D02*
D03*
X219500Y402750D02*
D03*
X40250Y285750D02*
D03*
X173000Y410750D02*
D03*
X22000Y153750D02*
D03*
X59500Y229250D02*
D03*
X59000Y216250D02*
D03*
X57000Y522000D02*
D03*
X305000Y415750D02*
D03*
X131750Y407250D02*
D03*
X12000Y288750D02*
D03*
X290750Y69250D02*
D03*
X441250Y48000D02*
D03*
X461500Y42000D02*
D03*
X616250Y75750D02*
D03*
X91250Y320000D02*
D03*
Y365250D02*
D03*
X99750Y369750D02*
D03*
X479250Y96250D02*
D03*
X445250Y152500D02*
D03*
X83250Y124000D02*
D03*
Y137500D02*
D03*
X162500Y208125D02*
D03*
X114250Y214500D02*
D03*
X115000Y192500D02*
D03*
X278120Y485500D02*
D03*
X581000Y415750D02*
D03*
X581500Y402500D02*
D03*
X222000Y481750D02*
D03*
X582250Y169250D02*
D03*
X624500Y453500D02*
D03*
X327750Y181500D02*
D03*
X301750Y181350D02*
D03*
M02*
